<svg width="21" height="20" viewBox="0 0 21 20" fill="none" xmlns="http://www.w3.org/2000/svg">
<circle cx="10.5" cy="10" r="10" fill="#EDEDED"/>
<path d="M10.4946 6.5027C11.0808 6.5027 11.6538 6.67652 12.1412 7.00219C12.6286 7.32786 13.0085 7.79074 13.2328 8.33231C13.4571 8.87388 13.5158 9.4698 13.4015 10.0447C13.2871 10.6196 13.0048 11.1477 12.5903 11.5622C12.1758 11.9767 11.6477 12.259 11.0728 12.3734C10.4979 12.4877 9.90197 12.429 9.36041 12.2047C8.81884 11.9804 8.35596 11.6005 8.03029 11.1131C7.70462 10.6257 7.5308 10.0527 7.5308 9.46651C7.5308 8.68046 7.84305 7.9266 8.39888 7.37078C8.9547 6.81496 9.70856 6.5027 10.4946 6.5027ZM13.7279 5.69439H14.8056V6.77214C14.8056 6.91505 14.8624 7.05212 14.9634 7.15318C15.0645 7.25424 15.2016 7.31101 15.3445 7.31101C15.4874 7.31101 15.6245 7.25424 15.7255 7.15318C15.8266 7.05212 15.8834 6.91505 15.8834 6.77214V5.69439H16.9611C17.104 5.69439 17.2411 5.63761 17.3422 5.53655C17.4432 5.43549 17.5 5.29843 17.5 5.15551C17.5 5.01259 17.4432 4.87553 17.3422 4.77447C17.2411 4.67341 17.104 4.61663 16.9611 4.61663H15.8834V3.53888C15.8834 3.39596 15.8266 3.2589 15.7255 3.15784C15.6245 3.05678 15.4874 3.00001 15.3445 3.00001C15.2016 3.00001 15.0645 3.05678 14.9634 3.15784C14.8624 3.2589 14.8056 3.39596 14.8056 3.53888V4.61663H13.7279C13.5849 4.61663 13.4479 4.67341 13.3468 4.77447C13.2458 4.87553 13.189 5.01259 13.189 5.15551C13.189 5.29843 13.2458 5.43549 13.3468 5.53655C13.4479 5.63761 13.5849 5.69439 13.7279 5.69439ZM16.7826 8.39617C16.6417 8.41976 16.5159 8.49837 16.4329 8.61471C16.3499 8.73105 16.3165 8.8756 16.3401 9.01655C16.3948 9.34332 16.4223 9.67407 16.4222 10.0054C16.4235 11.4564 15.8902 12.8571 14.9242 13.9399C14.5322 13.3718 14.0346 12.8844 13.4584 12.5044C13.4092 12.4718 13.3507 12.4563 13.2918 12.4601C13.2329 12.464 13.1769 12.4872 13.1324 12.526C12.4003 13.1595 11.4645 13.5081 10.4963 13.5081C9.52812 13.5081 8.59233 13.1595 7.86018 12.526C7.81544 12.4864 7.7588 12.4628 7.69918 12.4589C7.63955 12.455 7.58032 12.471 7.5308 12.5044C6.95377 12.884 6.45541 13.3714 6.06303 13.9399C5.30494 13.0856 4.80978 12.0305 4.63712 10.9015C4.46446 9.77245 4.62166 8.6176 5.08979 7.5758C5.55793 6.53401 6.31707 5.64964 7.27591 5.02907C8.23476 4.40849 9.35247 4.07815 10.4946 4.07776C10.8259 4.07771 11.1567 4.10519 11.4834 4.15994C11.6238 4.18208 11.7671 4.14792 11.8824 4.06489C11.9977 3.98185 12.0755 3.85667 12.0989 3.71657C12.1224 3.57646 12.0895 3.43276 12.0076 3.31674C11.9256 3.20071 11.8012 3.12174 11.6613 3.09701C10.1979 2.85082 8.69405 3.07608 7.367 3.74027C6.03995 4.40446 4.95831 5.47321 4.27827 6.79221C3.59822 8.1112 3.35495 9.6122 3.58358 11.0785C3.81222 12.5447 4.50092 13.9004 5.55026 14.9497C6.5996 15.9991 7.95527 16.6878 9.42154 16.9164C10.8878 17.145 12.3888 16.9018 13.7078 16.2217C15.0268 15.5417 16.0955 14.4601 16.7597 13.133C17.4239 11.8059 17.6492 10.3021 17.403 8.83872C17.3794 8.69777 17.3008 8.57196 17.1845 8.48897C17.0681 8.40598 16.9236 8.3726 16.7826 8.39617Z" fill="#2DC26B"/>
</svg>
