<svg width="16" height="15" viewBox="0 0 16 15" fill="none" xmlns="http://www.w3.org/2000/svg">
<path fill-rule="evenodd" clip-rule="evenodd" d="M12.2666 3.30005V3.30005C11.9843 3.30005 11.7285 3.13734 11.6082 2.88307C11.391 2.42295 11.1147 1.83493 10.9513 1.51482C10.7099 1.03881 10.3186 0.761828 9.77676 0.758044C9.76768 0.757288 6.23203 0.757288 6.22295 0.758044C5.6811 0.761828 5.29061 1.03881 5.04844 1.51482C4.88573 1.83493 4.60951 2.42295 4.39231 2.88307C4.27199 3.13734 4.01544 3.30005 3.73392 3.30005V3.30005C2.2234 3.30005 0.999695 4.52375 0.999695 6.03352V10.5257C0.999695 12.0347 2.2234 13.2592 3.73392 13.2592H12.2666C13.7763 13.2592 15 12.0347 15 10.5257V6.03352C15 4.52375 13.7763 3.30005 12.2666 3.30005Z" stroke="#28519E" stroke-width="1.5" stroke-linecap="round" stroke-linejoin="round"/>
<path fill-rule="evenodd" clip-rule="evenodd" d="M5.5945 8.01066C5.59374 9.33728 6.67669 10.4225 8.00104 10.4217C9.32313 10.4202 10.403 9.33955 10.4053 8.01596C10.4076 6.68706 9.32842 5.60412 8.00255 5.6026C6.66912 5.60109 5.5839 6.7022 5.5945 8.01066Z" stroke="#28519E" stroke-width="1.5" stroke-linecap="round" stroke-linejoin="round"/>
<path d="M11.71 6.24027C11.6369 6.23277 11.5647 6.21369 11.4838 6.18113C11.3939 6.14117 11.316 6.09032 11.2407 6.01382C11.1054 5.86991 11.027 5.68172 11.027 5.48758C11.027 5.38445 11.0481 5.28225 11.0893 5.18966C11.1306 5.09585 11.1794 5.01672 11.2678 4.93065C11.335 4.8721 11.4039 4.82498 11.4981 4.78351C11.7772 4.67289 12.1093 4.73899 12.3168 4.94643C12.379 5.00771 12.4314 5.08166 12.4605 5.14402L12.4777 5.18824C12.5195 5.28225 12.5406 5.38445 12.5406 5.48758C12.5406 5.68565 12.4633 5.86884 12.3197 6.02132C12.1956 6.14622 12.0327 6.22302 11.8589 6.24027L11.7838 6.24399L11.71 6.24027Z" fill="#28519E"/>
</svg>
