<svg width="20" height="20" viewBox="0 0 20 20" fill="none" xmlns="http://www.w3.org/2000/svg">
<circle cx="10" cy="10" r="10" fill="#EDEDED"/>
<path d="M12.689 5.15551C12.689 5.01259 12.7458 4.87553 12.8468 4.77447C12.9479 4.67341 13.0849 4.61663 13.2279 4.61663H16.4611C16.604 4.61663 16.7411 4.67341 16.8422 4.77447C16.9432 4.87553 17 5.01259 17 5.15551C17 5.29843 16.9432 5.43549 16.8422 5.53655C16.7411 5.63761 16.604 5.69439 16.4611 5.69439H13.2279C13.0849 5.69439 12.9479 5.63761 12.8468 5.53655C12.7458 5.43549 12.689 5.29843 12.689 5.15551ZM16.2826 8.39617C16.1417 8.41976 16.0159 8.49837 15.9329 8.61471C15.8499 8.73105 15.8165 8.8756 15.8401 9.01655C15.8948 9.34332 15.9223 9.67407 15.9222 10.0054C15.9235 11.4564 15.3902 12.8571 14.4242 13.9399C14.0322 13.3718 13.5346 12.8844 12.9584 12.5044C12.9092 12.4718 12.8507 12.4563 12.7918 12.4601C12.7329 12.464 12.6769 12.4872 12.6324 12.526C11.9003 13.1595 10.9645 13.5081 9.99629 13.5081C9.02812 13.5081 8.09233 13.1595 7.36018 12.526C7.31544 12.4864 7.2588 12.4628 7.19918 12.4589C7.13955 12.455 7.08032 12.471 7.0308 12.5044C6.45377 12.884 5.95541 13.3714 5.56303 13.9399C4.80494 13.0856 4.30978 12.0305 4.13712 10.9015C3.96446 9.77245 4.12166 8.6176 4.58979 7.5758C5.05793 6.53401 5.81707 5.64964 6.77591 5.02907C7.73476 4.40849 8.85247 4.07815 9.99461 4.07776C10.3259 4.07771 10.6567 4.10519 10.9834 4.15994C11.1238 4.18208 11.2671 4.14792 11.3824 4.06489C11.4977 3.98185 11.5755 3.85667 11.5989 3.71657C11.6224 3.57646 11.5895 3.43276 11.5076 3.31674C11.4256 3.20071 11.3012 3.12174 11.1613 3.09701C9.69785 2.85082 8.19405 3.07608 6.867 3.74027C5.53995 4.40446 4.45831 5.47321 3.77827 6.79221C3.09822 8.1112 2.85495 9.6122 3.08358 11.0785C3.31222 12.5447 4.00092 13.9004 5.05026 14.9497C6.0996 15.9991 7.45527 16.6878 8.92154 16.9164C10.3878 17.145 11.8888 16.9018 13.2078 16.2217C14.5268 15.5417 15.5955 14.4601 16.2597 13.133C16.9239 11.8059 17.1492 10.3021 16.903 8.83872C16.8794 8.69777 16.8008 8.57196 16.6845 8.48897C16.5681 8.40598 16.4236 8.3726 16.2826 8.39617ZM7.0308 9.46651C7.0308 10.0527 7.20462 10.6257 7.53029 11.1131C7.85596 11.6005 8.31884 11.9804 8.86041 12.2047C9.40197 12.429 9.9979 12.4877 10.5728 12.3734C11.1477 12.259 11.6758 11.9767 12.0903 11.5622C12.5048 11.1477 12.7871 10.6196 12.9015 10.0447C13.0158 9.4698 12.9571 8.87388 12.7328 8.33231C12.5085 7.79074 12.1286 7.32786 11.6412 7.00219C11.1538 6.67652 10.5808 6.5027 9.99461 6.5027C9.20856 6.5027 8.4547 6.81496 7.89888 7.37078C7.34305 7.9266 7.0308 8.68046 7.0308 9.46651Z" fill="#E03E2D"/>
</svg>
