<svg width="21" height="20" viewBox="0 0 21 20" fill="none" xmlns="http://www.w3.org/2000/svg">
<circle cx="10.5" cy="10" r="10" fill="#EDEDED"/>
<path d="M7.1528 9.46166C7.1528 8.87605 7.32646 8.30359 7.6518 7.81668C7.97715 7.32977 8.43957 6.95026 8.9806 6.72616C9.52164 6.50206 10.117 6.44342 10.6913 6.55767C11.2657 6.67192 11.7933 6.95391 12.2073 7.368C12.6214 7.78208 12.9034 8.30966 13.0177 8.88402C13.1319 9.45837 13.0733 10.0537 12.8492 10.5947C12.6251 11.1358 12.2456 11.5982 11.7587 11.9235C11.2717 12.2489 10.6993 12.4225 10.1137 12.4225C9.32841 12.4225 8.5753 12.1106 8.02003 11.5553C7.46475 11 7.1528 10.2469 7.1528 9.46166ZM15.6425 13.3095C15.5225 13.2398 15.3808 13.2179 15.2454 13.2479C15.11 13.278 14.9909 13.3578 14.9117 13.4716C14.7957 13.6314 14.6717 13.7853 14.5402 13.9326C14.1486 13.3641 13.6509 12.8765 13.0746 12.4966C13.0254 12.464 12.9669 12.4484 12.9081 12.4523C12.8492 12.4562 12.7933 12.4793 12.7489 12.5181C12.0176 13.1509 11.0828 13.4992 10.1157 13.4992C9.1486 13.4992 8.21385 13.1509 7.48254 12.5181C7.43779 12.4784 7.38108 12.4547 7.32136 12.4508C7.26165 12.4469 7.20234 12.463 7.1528 12.4966C6.57635 12.8758 6.07848 13.3627 5.68649 13.9306C4.84578 12.9865 4.33058 11.7974 4.21682 10.5383H5.25313C5.34027 10.5397 5.42649 10.5204 5.50474 10.4821C5.58299 10.4437 5.65104 10.3873 5.70332 10.3176C5.77917 10.2139 5.81544 10.0865 5.80556 9.95842C5.79569 9.83032 5.74033 9.70997 5.64948 9.61912L4.03446 8.0041C3.98446 7.95404 3.92509 7.91434 3.85973 7.88724C3.79438 7.86015 3.72433 7.84621 3.65358 7.84621C3.58283 7.84621 3.51278 7.86015 3.44743 7.88724C3.38207 7.91434 3.3227 7.95404 3.2727 8.0041L1.65767 9.61912C1.56683 9.70997 1.51147 9.83032 1.50159 9.95842C1.49172 10.0865 1.52799 10.2139 1.60384 10.3176C1.65612 10.3873 1.72417 10.4437 1.80242 10.4821C1.88067 10.5204 1.96689 10.5397 2.05403 10.5383H3.13542C3.24553 11.9696 3.79309 13.3324 4.70387 14.4419C5.61465 15.5515 6.84459 16.3541 8.22694 16.741C9.6093 17.1279 11.0772 17.0804 12.4316 16.6048C13.786 16.1293 14.9615 15.2488 15.7986 14.0827C15.8418 14.0225 15.8721 13.9541 15.8877 13.8818C15.9032 13.8094 15.9037 13.7346 15.889 13.662C15.8744 13.5895 15.8449 13.5207 15.8025 13.46C15.7601 13.3994 15.7056 13.3481 15.6425 13.3095ZM18.6861 9.79409C18.6454 9.69571 18.5764 9.61162 18.4879 9.55245C18.3994 9.49327 18.2953 9.46168 18.1888 9.46166H17.0919C16.9818 8.03041 16.4343 6.66763 15.5235 5.55809C14.6127 4.44855 13.3828 3.64591 12.0004 3.25901C10.6181 2.8721 9.15018 2.91963 7.79575 3.39516C6.44132 3.87069 5.26588 4.75121 4.42879 5.91735C4.34545 6.03335 4.3116 6.17772 4.33469 6.31868C4.35778 6.45965 4.43593 6.58566 4.55194 6.66901C4.66794 6.75235 4.81231 6.7862 4.95327 6.76311C5.09424 6.74001 5.22025 6.66187 5.3036 6.54586C6.00787 5.5653 6.99502 4.82342 8.13276 4.41964C9.27051 4.01586 10.5045 3.96947 11.6693 4.28669C12.8342 4.60391 13.8742 5.26958 14.6502 6.1945C15.4261 7.11942 15.9007 8.25939 16.0106 9.46166H14.9588C14.8522 9.46157 14.7481 9.4931 14.6595 9.55225C14.5708 9.6114 14.5018 9.69551 14.461 9.79393C14.4202 9.89235 14.4096 10.0007 14.4304 10.1051C14.4512 10.2096 14.5025 10.3056 14.5779 10.3809L16.1929 11.9959C16.2429 12.046 16.3023 12.0857 16.3676 12.1128C16.433 12.1398 16.503 12.1538 16.5738 12.1538C16.6445 12.1538 16.7146 12.1398 16.7799 12.1128C16.8453 12.0857 16.9047 12.046 16.9547 11.9959L18.5697 10.3809C18.645 10.3055 18.6962 10.2096 18.7169 10.1051C18.7376 10.0007 18.7269 9.89244 18.6861 9.79409Z" fill="#FFB81C"/>
</svg>
