<svg width="20" height="20" viewBox="0 0 20 20" fill="none" xmlns="http://www.w3.org/2000/svg">
<circle cx="10" cy="10" r="10" fill="#EDEDED"/>
<path d="M5.82425 10.806C5.8261 10.8429 5.82042 10.8798 5.80755 10.9145C5.79468 10.9492 5.77489 10.9809 5.74938 11.0076C5.72388 11.0344 5.69319 11.0557 5.65919 11.0703C5.62519 11.0848 5.58858 11.0923 5.5516 11.0923H2.54425C2.42117 11.0924 2.30165 11.051 2.20512 10.9746C2.10859 10.8983 2.04073 10.7915 2.01258 10.6717C1.99504 10.5897 1.99585 10.5048 2.01494 10.4232C2.03403 10.3415 2.07093 10.2651 2.123 10.1993C2.6041 9.5613 3.24243 9.05895 3.97567 8.74131C3.65376 8.44781 3.40685 8.08143 3.25565 7.67288C3.10444 7.26433 3.05333 6.8255 3.1066 6.39313C3.15987 5.96077 3.31596 5.54746 3.56181 5.18783C3.80766 4.82819 4.1361 4.5327 4.51963 4.32611C4.90316 4.11951 5.33061 4.00782 5.76618 4.0004C6.20176 3.99297 6.63277 4.09002 7.02311 4.28342C7.41346 4.47682 7.75179 4.76095 8.00976 5.11199C8.26772 5.46303 8.43781 5.87078 8.50579 6.30108C8.51457 6.35894 8.5042 6.41809 8.47627 6.46952C8.44834 6.52095 8.40437 6.56185 8.35106 6.586C7.59472 6.93566 6.95417 7.49437 6.505 8.1962C6.05584 8.89803 5.81679 9.7137 5.81607 10.547C5.81607 10.6342 5.81607 10.7201 5.82425 10.806ZM18.2299 10.1986C17.7499 9.56136 17.1131 9.05928 16.3814 8.74131C16.7033 8.44781 16.9502 8.08143 17.1014 7.67288C17.2526 7.26433 17.3037 6.8255 17.2504 6.39313C17.1972 5.96077 17.0411 5.54746 16.7952 5.18783C16.5494 4.82819 16.2209 4.5327 15.8374 4.32611C15.4539 4.11951 15.0264 4.00782 14.5908 4.0004C14.1553 3.99297 13.7243 4.09002 13.3339 4.28342C12.9436 4.47682 12.6052 4.76095 12.3473 5.11199C12.0893 5.46303 11.9192 5.87078 11.8512 6.30108C11.8425 6.35894 11.8528 6.41809 11.8808 6.46952C11.9087 6.52095 11.9526 6.56185 12.006 6.586C12.7623 6.93566 13.4029 7.49437 13.852 8.1962C14.3012 8.89803 14.5402 9.7137 14.5409 10.547C14.5409 10.6342 14.5409 10.7201 14.5328 10.806C14.5309 10.8429 14.5366 10.8798 14.5495 10.9145C14.5623 10.9492 14.5821 10.9809 14.6076 11.0076C14.6331 11.0344 14.6638 11.0557 14.6978 11.0703C14.7318 11.0848 14.7684 11.0923 14.8054 11.0923H17.8128C17.9359 11.0924 18.0554 11.051 18.1519 10.9746C18.2484 10.8983 18.3163 10.7915 18.3444 10.6717C18.3621 10.5895 18.3613 10.5045 18.3421 10.4227C18.3228 10.3409 18.2857 10.2644 18.2333 10.1986H18.2299ZM12.1634 13.1419C12.7064 12.7261 13.1054 12.1506 13.3044 11.4963C13.5033 10.842 13.4923 10.1418 13.2728 9.4941C13.0532 8.84641 12.6363 8.28378 12.0805 7.8853C11.5247 7.48682 10.858 7.27252 10.1741 7.27252C9.49019 7.27252 8.8235 7.48682 8.26769 7.8853C7.71189 8.28378 7.29492 8.84641 7.0754 9.4941C6.85587 10.1418 6.84482 10.842 7.0438 11.4963C7.24278 12.1506 7.64179 12.7261 8.18474 13.1419C7.22128 13.5594 6.41677 14.2743 5.88901 15.182C5.84114 15.2649 5.81595 15.359 5.81595 15.4547C5.81596 15.5505 5.84116 15.6445 5.88904 15.7274C5.93691 15.8103 6.00577 15.8791 6.08868 15.927C6.1716 15.9748 6.26565 16 6.36138 16H13.9956C14.0914 16 14.1854 15.9748 14.2683 15.927C14.3513 15.8791 14.4201 15.8103 14.468 15.7274C14.5159 15.6445 14.5411 15.5505 14.5411 15.4547C14.5411 15.359 14.5159 15.2649 14.468 15.182C13.9391 14.2737 13.1331 13.5587 12.1682 13.1419H12.1634Z" fill="#002C3F"/>
</svg>
