<svg width="24" height="24" viewBox="0 0 24 24" fill="none" xmlns="http://www.w3.org/2000/svg">
<path d="M12 0C9.62663 0 7.30655 0.703788 5.33316 2.02236C3.35977 3.34094 1.8217 5.21508 0.913451 7.4078C0.00519941 9.60051 -0.232441 12.0133 0.230582 14.3411C0.693605 16.6689 1.83649 18.807 3.51472 20.4853C5.19295 22.1635 7.33115 23.3064 9.65892 23.7694C11.9867 24.2324 14.3995 23.9948 16.5922 23.0865C18.7849 22.1783 20.6591 20.6402 21.9776 18.6668C23.2962 16.6934 24 14.3734 24 12C23.9966 8.81843 22.7313 5.76814 20.4816 3.51843C18.2319 1.26872 15.1816 0.00335979 12 0ZM17.2685 12.6531L13.5762 16.3454C13.403 16.5186 13.168 16.6159 12.9231 16.6159C12.6781 16.6159 12.4432 16.5186 12.27 16.3454C12.0968 16.1722 11.9995 15.9373 11.9995 15.6923C11.9995 15.4474 12.0968 15.2124 12.27 15.0392L14.3873 12.9231H7.38462C7.1398 12.9231 6.90502 12.8258 6.73191 12.6527C6.55879 12.4796 6.46154 12.2448 6.46154 12C6.46154 11.7552 6.55879 11.5204 6.73191 11.3473C6.90502 11.1742 7.1398 11.0769 7.38462 11.0769H14.3873L12.27 8.96077C12.0968 8.78756 11.9995 8.55264 11.9995 8.30769C11.9995 8.06274 12.0968 7.82782 12.27 7.65461C12.4432 7.48141 12.6781 7.3841 12.9231 7.3841C13.168 7.3841 13.403 7.48141 13.5762 7.65461L17.2685 11.3469C17.3543 11.4326 17.4224 11.5345 17.4688 11.6465C17.5153 11.7586 17.5392 11.8787 17.5392 12C17.5392 12.1213 17.5153 12.2414 17.4688 12.3535C17.4224 12.4655 17.3543 12.5673 17.2685 12.6531Z" fill="#002C3F"/>
</svg>
