<svg width="17" height="15" viewBox="0 0 17 15" fill="none" xmlns="http://www.w3.org/2000/svg">
<path d="M15.8438 5.90625C16.0469 5.90625 16.25 6.10938 16.25 6.3125V7.125C16.25 7.35352 16.0469 7.53125 15.8438 7.53125H14.2188V9.15625C14.2188 9.38477 14.0156 9.5625 13.8125 9.5625H13C12.7715 9.5625 12.5938 9.38477 12.5938 9.15625V7.53125H10.9688C10.7402 7.53125 10.5625 7.35352 10.5625 7.125V6.3125C10.5625 6.10938 10.7402 5.90625 10.9688 5.90625H12.5938V4.28125C12.5938 4.07812 12.7715 3.875 13 3.875H13.8125C14.0156 3.875 14.2188 4.07812 14.2188 4.28125V5.90625H15.8438ZM5.6875 7.125C3.88477 7.125 2.4375 5.67773 2.4375 3.875C2.4375 2.09766 3.88477 0.625 5.6875 0.625C7.46484 0.625 8.9375 2.09766 8.9375 3.875C8.9375 5.67773 7.46484 7.125 5.6875 7.125ZM7.94727 7.9375C9.82617 7.9375 11.375 9.48633 11.375 11.3652V12.4062C11.375 13.0918 10.8164 13.625 10.1562 13.625H1.21875C0.533203 13.625 0 13.0918 0 12.4062V11.3652C0 9.48633 1.52344 7.9375 3.40234 7.9375H3.83398C4.39258 8.2168 5.02734 8.34375 5.6875 8.34375C6.34766 8.34375 6.95703 8.2168 7.51562 7.9375H7.94727Z" fill="white"/>
</svg>
