<svg width="111" height="40" viewBox="0 0 111 40" fill="none" xmlns="http://www.w3.org/2000/svg">
<rect width="111" height="40" rx="4" fill="#28519E"/>
<path d="M24.1406 21.7578H26.2891C26.2318 22.5182 26.0208 23.1927 25.6562 23.7812C25.2917 24.3646 24.7839 24.8229 24.1328 25.1562C23.4818 25.4896 22.6927 25.6562 21.7656 25.6562C21.0521 25.6562 20.4089 25.5312 19.8359 25.2812C19.2682 25.026 18.7812 24.6641 18.375 24.1953C17.974 23.7214 17.6667 23.1536 17.4531 22.4922C17.2396 21.8255 17.1328 21.0781 17.1328 20.25V19.3828C17.1328 18.5547 17.2422 17.8073 17.4609 17.1406C17.6797 16.474 17.9922 15.9062 18.3984 15.4375C18.8099 14.9635 19.3021 14.599 19.875 14.3438C20.4531 14.0885 21.099 13.9609 21.8125 13.9609C22.7396 13.9609 23.5234 14.1328 24.1641 14.4766C24.8047 14.8151 25.3021 15.2812 25.6562 15.875C26.0104 16.4688 26.224 17.151 26.2969 17.9219H24.1484C24.1068 17.4427 24.0026 17.0365 23.8359 16.7031C23.6745 16.3698 23.4297 16.1172 23.1016 15.9453C22.7786 15.7682 22.349 15.6797 21.8125 15.6797C21.3958 15.6797 21.0286 15.7578 20.7109 15.9141C20.3984 16.0703 20.138 16.3047 19.9297 16.6172C19.7214 16.9245 19.5651 17.3099 19.4609 17.7734C19.3568 18.2318 19.3047 18.763 19.3047 19.3672V20.25C19.3047 20.8281 19.3516 21.3464 19.4453 21.8047C19.5391 22.263 19.6849 22.651 19.8828 22.9688C20.0807 23.2865 20.3359 23.5286 20.6484 23.6953C20.9609 23.862 21.3333 23.9453 21.7656 23.9453C22.2917 23.9453 22.7188 23.862 23.0469 23.6953C23.3802 23.5286 23.6328 23.2839 23.8047 22.9609C23.9818 22.638 24.0938 22.237 24.1406 21.7578ZM27.4297 21.3594V21.1953C27.4297 20.5755 27.5182 20.0052 27.6953 19.4844C27.8724 18.9583 28.1302 18.5026 28.4688 18.1172C28.8073 17.7318 29.2214 17.4323 29.7109 17.2188C30.2005 17 30.7578 16.8906 31.3828 16.8906C32.0182 16.8906 32.5807 17 33.0703 17.2188C33.5651 17.4323 33.9818 17.7318 34.3203 18.1172C34.6589 18.5026 34.9167 18.9583 35.0938 19.4844C35.2708 20.0052 35.3594 20.5755 35.3594 21.1953V21.3594C35.3594 21.974 35.2708 22.5443 35.0938 23.0703C34.9167 23.5911 34.6589 24.0469 34.3203 24.4375C33.9818 24.8229 33.5677 25.1224 33.0781 25.3359C32.5885 25.5495 32.0286 25.6562 31.3984 25.6562C30.7734 25.6562 30.2135 25.5495 29.7188 25.3359C29.224 25.1224 28.8073 24.8229 28.4688 24.4375C28.1302 24.0469 27.8724 23.5911 27.6953 23.0703C27.5182 22.5443 27.4297 21.974 27.4297 21.3594ZM29.4922 21.1953V21.3594C29.4922 21.7292 29.5286 22.0755 29.6016 22.3984C29.6745 22.7214 29.7865 23.0052 29.9375 23.25C30.0885 23.4948 30.2839 23.6875 30.5234 23.8281C30.7682 23.9635 31.0599 24.0312 31.3984 24.0312C31.7318 24.0312 32.0182 23.9635 32.2578 23.8281C32.4974 23.6875 32.6927 23.4948 32.8438 23.25C33 23.0052 33.1146 22.7214 33.1875 22.3984C33.2604 22.0755 33.2969 21.7292 33.2969 21.3594V21.1953C33.2969 20.8307 33.2604 20.4896 33.1875 20.1719C33.1146 19.849 33 19.5651 32.8438 19.3203C32.6927 19.0703 32.4948 18.875 32.25 18.7344C32.0104 18.5885 31.7214 18.5156 31.3828 18.5156C31.0495 18.5156 30.763 18.5885 30.5234 18.7344C30.2839 18.875 30.0885 19.0703 29.9375 19.3203C29.7865 19.5651 29.6745 19.849 29.6016 20.1719C29.5286 20.4896 29.4922 20.8307 29.4922 21.1953ZM38.9141 18.7812V25.5H36.8516V17.0469H38.7969L38.9141 18.7812ZM38.6094 20.9688H37.9766C37.9766 20.3802 38.0469 19.8385 38.1875 19.3438C38.3333 18.849 38.5469 18.4193 38.8281 18.0547C39.1094 17.6849 39.4557 17.3984 39.8672 17.1953C40.2839 16.9922 40.7656 16.8906 41.3125 16.8906C41.6927 16.8906 42.0417 16.9479 42.3594 17.0625C42.6771 17.1719 42.9505 17.3464 43.1797 17.5859C43.4141 17.8203 43.5938 18.1276 43.7188 18.5078C43.8438 18.8828 43.9062 19.3333 43.9062 19.8594V25.5H41.8438V20.0703C41.8438 19.6745 41.7865 19.3646 41.6719 19.1406C41.5625 18.9167 41.4036 18.7604 41.1953 18.6719C40.987 18.5781 40.737 18.5312 40.4453 18.5312C40.1224 18.5312 39.8438 18.5964 39.6094 18.7266C39.3802 18.8516 39.1901 19.026 39.0391 19.25C38.8932 19.474 38.7839 19.7318 38.7109 20.0234C38.6432 20.3151 38.6094 20.6302 38.6094 20.9688ZM43.75 20.5859L42.8984 20.7422C42.9036 20.2109 42.9766 19.7135 43.1172 19.25C43.2578 18.7812 43.4635 18.3724 43.7344 18.0234C44.0104 17.6693 44.3516 17.3932 44.7578 17.1953C45.1693 16.9922 45.6432 16.8906 46.1797 16.8906C46.5964 16.8906 46.9714 16.9505 47.3047 17.0703C47.6432 17.1849 47.9323 17.3698 48.1719 17.625C48.4115 17.875 48.5938 18.2005 48.7188 18.6016C48.849 19.0026 48.9141 19.4922 48.9141 20.0703V25.5H46.8359V20.0625C46.8359 19.651 46.7786 19.3359 46.6641 19.1172C46.5547 18.8984 46.3958 18.7474 46.1875 18.6641C45.9792 18.5755 45.7344 18.5312 45.4531 18.5312C45.1667 18.5312 44.9167 18.5859 44.7031 18.6953C44.4948 18.7995 44.3177 18.9453 44.1719 19.1328C44.0312 19.3203 43.9245 19.5391 43.8516 19.7891C43.7839 20.0339 43.75 20.2995 43.75 20.5859ZM52.8281 18.6719V28.75H50.7578V17.0469H52.6719L52.8281 18.6719ZM58.2578 21.1875V21.3516C58.2578 21.9661 58.1849 22.5365 58.0391 23.0625C57.8984 23.5833 57.6901 24.0391 57.4141 24.4297C57.138 24.8151 56.7943 25.1172 56.3828 25.3359C55.9766 25.5495 55.5078 25.6562 54.9766 25.6562C54.4557 25.6562 54.0026 25.5573 53.6172 25.3594C53.2318 25.1562 52.9062 24.8698 52.6406 24.5C52.375 24.1302 52.1615 23.7005 52 23.2109C51.8438 22.7161 51.7266 22.1771 51.6484 21.5938V21.0703C51.7266 20.4505 51.8438 19.888 52 19.3828C52.1615 18.8724 52.375 18.4323 52.6406 18.0625C52.9062 17.6875 53.2292 17.3984 53.6094 17.1953C53.9948 16.9922 54.4453 16.8906 54.9609 16.8906C55.4974 16.8906 55.9688 16.9922 56.375 17.1953C56.7865 17.3984 57.1328 17.6901 57.4141 18.0703C57.6953 18.4505 57.9062 18.9036 58.0469 19.4297C58.1875 19.9557 58.2578 20.5417 58.2578 21.1875ZM56.1875 21.3516V21.1875C56.1875 20.8125 56.1536 20.4661 56.0859 20.1484C56.0182 19.8255 55.9141 19.5443 55.7734 19.3047C55.6328 19.0599 55.4505 18.8698 55.2266 18.7344C55.0026 18.599 54.7318 18.5312 54.4141 18.5312C54.0964 18.5312 53.8229 18.5833 53.5938 18.6875C53.3646 18.7917 53.1771 18.9401 53.0312 19.1328C52.8854 19.3255 52.7708 19.5547 52.6875 19.8203C52.6094 20.0807 52.5573 20.3698 52.5312 20.6875V21.9844C52.5781 22.3698 52.6693 22.7161 52.8047 23.0234C52.9401 23.3307 53.138 23.5755 53.3984 23.7578C53.6641 23.9401 54.0078 24.0312 54.4297 24.0312C54.7474 24.0312 55.0182 23.9609 55.2422 23.8203C55.4661 23.6797 55.6484 23.487 55.7891 23.2422C55.9297 22.9922 56.0312 22.7057 56.0938 22.3828C56.1562 22.0599 56.1875 21.7161 56.1875 21.3516ZM61.9531 13.5V25.5H59.8828V13.5H61.9531ZM67.7188 25.6562C67.0781 25.6562 66.5026 25.5521 65.9922 25.3438C65.4818 25.1354 65.0469 24.8464 64.6875 24.4766C64.3333 24.1016 64.0599 23.6667 63.8672 23.1719C63.6797 22.6719 63.5859 22.1354 63.5859 21.5625V21.25C63.5859 20.599 63.6797 20.0078 63.8672 19.4766C64.0547 18.9401 64.3203 18.4792 64.6641 18.0938C65.0078 17.7083 65.4193 17.4115 65.8984 17.2031C66.3776 16.9948 66.9062 16.8906 67.4844 16.8906C68.0833 16.8906 68.612 16.9922 69.0703 17.1953C69.5286 17.3932 69.9115 17.6745 70.2188 18.0391C70.526 18.4036 70.7578 18.8411 70.9141 19.3516C71.0703 19.8568 71.1484 20.4167 71.1484 21.0312V21.8984H64.5234V20.4766H69.1172V20.3203C69.1068 19.9922 69.0443 19.6927 68.9297 19.4219C68.8151 19.1458 68.638 18.9271 68.3984 18.7656C68.1589 18.599 67.849 18.5156 67.4688 18.5156C67.1615 18.5156 66.8932 18.5833 66.6641 18.7188C66.4401 18.849 66.2526 19.0365 66.1016 19.2812C65.9557 19.5208 65.8464 19.8073 65.7734 20.1406C65.7005 20.474 65.6641 20.8438 65.6641 21.25V21.5625C65.6641 21.9167 65.7109 22.2448 65.8047 22.5469C65.9036 22.849 66.0469 23.112 66.2344 23.3359C66.4271 23.5547 66.6562 23.7266 66.9219 23.8516C67.1927 23.9714 67.5 24.0312 67.8438 24.0312C68.276 24.0312 68.6667 23.9479 69.0156 23.7812C69.3698 23.6094 69.6771 23.3568 69.9375 23.0234L70.9766 24.1016C70.7995 24.362 70.5599 24.612 70.2578 24.8516C69.9609 25.0911 69.6016 25.2865 69.1797 25.4375C68.7578 25.5833 68.2708 25.6562 67.7188 25.6562ZM76.5312 17.0469V18.5312H71.6875V17.0469H76.5312ZM72.9844 14.9688H75.0547V23.0625C75.0547 23.3125 75.0885 23.5052 75.1562 23.6406C75.224 23.776 75.3255 23.8672 75.4609 23.9141C75.5964 23.9609 75.7578 23.9844 75.9453 23.9844C76.0807 23.9844 76.2057 23.9766 76.3203 23.9609C76.4349 23.9453 76.5312 23.9297 76.6094 23.9141L76.6172 25.4609C76.4453 25.5182 76.25 25.5651 76.0312 25.6016C75.8177 25.638 75.5755 25.6562 75.3047 25.6562C74.8411 25.6562 74.4349 25.5781 74.0859 25.4219C73.737 25.2604 73.4661 25.0026 73.2734 24.6484C73.0807 24.2891 72.9844 23.8151 72.9844 23.2266V14.9688ZM81.7031 25.6562C81.0625 25.6562 80.487 25.5521 79.9766 25.3438C79.4661 25.1354 79.0312 24.8464 78.6719 24.4766C78.3177 24.1016 78.0443 23.6667 77.8516 23.1719C77.6641 22.6719 77.5703 22.1354 77.5703 21.5625V21.25C77.5703 20.599 77.6641 20.0078 77.8516 19.4766C78.0391 18.9401 78.3047 18.4792 78.6484 18.0938C78.9922 17.7083 79.4036 17.4115 79.8828 17.2031C80.362 16.9948 80.8906 16.8906 81.4688 16.8906C82.0677 16.8906 82.5964 16.9922 83.0547 17.1953C83.513 17.3932 83.8958 17.6745 84.2031 18.0391C84.5104 18.4036 84.7422 18.8411 84.8984 19.3516C85.0547 19.8568 85.1328 20.4167 85.1328 21.0312V21.8984H78.5078V20.4766H83.1016V20.3203C83.0911 19.9922 83.0286 19.6927 82.9141 19.4219C82.7995 19.1458 82.6224 18.9271 82.3828 18.7656C82.1432 18.599 81.8333 18.5156 81.4531 18.5156C81.1458 18.5156 80.8776 18.5833 80.6484 18.7188C80.4245 18.849 80.237 19.0365 80.0859 19.2812C79.9401 19.5208 79.8307 19.8073 79.7578 20.1406C79.6849 20.474 79.6484 20.8438 79.6484 21.25V21.5625C79.6484 21.9167 79.6953 22.2448 79.7891 22.5469C79.888 22.849 80.0312 23.112 80.2188 23.3359C80.4115 23.5547 80.6406 23.7266 80.9062 23.8516C81.1771 23.9714 81.4844 24.0312 81.8281 24.0312C82.2604 24.0312 82.651 23.9479 83 23.7812C83.3542 23.6094 83.6615 23.3568 83.9219 23.0234L84.9609 24.1016C84.7839 24.362 84.5443 24.612 84.2422 24.8516C83.9453 25.0911 83.5859 25.2865 83.1641 25.4375C82.7422 25.5833 82.2552 25.6562 81.7031 25.6562ZM91.5859 23.7031V13.5H93.6641V25.5H91.7891L91.5859 23.7031ZM86.1562 21.375V21.2109C86.1562 20.5651 86.2292 19.9792 86.375 19.4531C86.526 18.9219 86.7448 18.4661 87.0312 18.0859C87.3177 17.7057 87.6641 17.4115 88.0703 17.2031C88.4818 16.9948 88.9479 16.8906 89.4688 16.8906C89.974 16.8906 90.4141 16.9922 90.7891 17.1953C91.1693 17.3984 91.4922 17.6875 91.7578 18.0625C92.0286 18.4375 92.2448 18.8828 92.4062 19.3984C92.5677 19.9089 92.6849 20.4714 92.7578 21.0859V21.5312C92.6849 22.1302 92.5677 22.6797 92.4062 23.1797C92.2448 23.6797 92.0286 24.1172 91.7578 24.4922C91.4922 24.862 91.1693 25.1484 90.7891 25.3516C90.4089 25.5547 89.9635 25.6562 89.4531 25.6562C88.9375 25.6562 88.474 25.5495 88.0625 25.3359C87.6562 25.1224 87.3099 24.8229 87.0234 24.4375C86.7422 24.0521 86.526 23.599 86.375 23.0781C86.2292 22.5573 86.1562 21.9896 86.1562 21.375ZM88.2266 21.2109V21.375C88.2266 21.7396 88.2578 22.0807 88.3203 22.3984C88.3828 22.7161 88.4844 22.9974 88.625 23.2422C88.7656 23.4818 88.9453 23.6693 89.1641 23.8047C89.388 23.9401 89.6589 24.0078 89.9766 24.0078C90.3828 24.0078 90.7161 23.9193 90.9766 23.7422C91.2422 23.5599 91.4479 23.3125 91.5938 23C91.7396 22.6823 91.8333 22.3255 91.875 21.9297V20.7031C91.8542 20.3906 91.7995 20.1016 91.7109 19.8359C91.6276 19.5703 91.5078 19.3411 91.3516 19.1484C91.2005 18.9557 91.013 18.8047 90.7891 18.6953C90.5651 18.5859 90.2995 18.5312 89.9922 18.5312C89.6745 18.5312 89.4036 18.6016 89.1797 18.7422C88.9557 18.8776 88.7734 19.0677 88.6328 19.3125C88.4922 19.5573 88.388 19.8411 88.3203 20.1641C88.2578 20.487 88.2266 20.8359 88.2266 21.2109Z" fill="white"/>
</svg>
