<svg width="14" height="14" viewBox="0 0 14 14" fill="none" xmlns="http://www.w3.org/2000/svg">
<g clip-path="url(#clip0_4922_15385)">
<path d="M10.6749 3.33076C10.4474 3.10326 10.0799 3.10326 9.85242 3.33076L6.99992 6.17742L4.14742 3.32492C3.91992 3.09742 3.55242 3.09742 3.32492 3.32492C3.09742 3.55242 3.09742 3.91992 3.32492 4.14742L6.17742 6.99992L3.32492 9.85242C3.09742 10.0799 3.09742 10.4474 3.32492 10.6749C3.55242 10.9024 3.91992 10.9024 4.14742 10.6749L6.99992 7.82242L9.85242 10.6749C10.0799 10.9024 10.4474 10.9024 10.6749 10.6749C10.9024 10.4474 10.9024 10.0799 10.6749 9.85242L7.82242 6.99992L10.6749 4.14742C10.8966 3.92576 10.8966 3.55242 10.6749 3.33076Z" fill="#E03E2D"/>
</g>
<defs>
<clipPath id="clip0_4922_15385">
<rect width="14" height="14" fill="white"/>
</clipPath>
</defs>
</svg>
