<svg width="207" height="191" viewBox="0 0 207 191" fill="none" xmlns="http://www.w3.org/2000/svg">
<path d="M93.2649 76.8652H50.1445V28.1948H93.2649V76.8652Z" fill="#FFB81C"/>
<path d="M163.033 180.609C163.033 184.924 159.537 188.424 155.229 188.424H37.9336C33.6235 188.424 30.1318 184.924 30.1318 180.609V11.4547C30.1318 7.13752 33.6235 3.63769 37.9336 3.63769H155.229C159.537 3.63769 163.033 7.13752 163.033 11.4547V53.043" stroke="white" stroke-width="4.85079" stroke-miterlimit="10" stroke-linecap="round" stroke-linejoin="round"/>
<path d="M196.765 112.018L160.354 168.494L135.568 152.512L124.594 145.451L161.021 88.9547L171.982 96.0363L185.128 104.514L196.765 112.018Z" fill="#FFB81C"/>
<path d="M165.777 92.038L129.365 148.511L118.391 141.452L154.818 84.9559L165.777 92.038Z" stroke="white" stroke-width="4.85079" stroke-miterlimit="10" stroke-linecap="round" stroke-linejoin="round"/>
<path d="M190.563 108.017L154.149 164.494L142.511 156.99L178.925 100.514L190.563 108.017Z" stroke="white" stroke-width="4.85079" stroke-miterlimit="10" stroke-linecap="round" stroke-linejoin="round"/>
<path d="M200.095 93.2525L197.81 96.7731L162.07 73.7287L164.334 70.1952C167.61 65.1105 174.395 63.6451 179.478 66.9244L196.824 78.1083C201.908 81.3847 203.374 88.1697 200.095 93.2525Z" stroke="white" stroke-width="4.85079" stroke-miterlimit="10" stroke-linecap="round" stroke-linejoin="round"/>
<path d="M197.811 96.7725L190.562 108.015L178.925 100.512L165.777 92.0364L154.818 84.9543L162.071 73.7282L197.811 96.7725Z" stroke="white" stroke-width="4.85079" stroke-miterlimit="10" stroke-linecap="round" stroke-linejoin="round"/>
<path d="M162.074 73.727L154.821 84.9531L162.054 73.714L162.074 73.727Z" stroke="white" stroke-width="4.85079" stroke-miterlimit="10" stroke-linecap="round" stroke-linejoin="round"/>
<path d="M178.924 100.514L142.51 156.99L129.364 148.512L165.776 92.0391L178.924 100.514Z" stroke="white" stroke-width="4.85079" stroke-miterlimit="10" stroke-linecap="round" stroke-linejoin="round"/>
<path d="M145.309 167.31L126.08 173.438C124.116 174.056 122.067 172.737 121.841 170.689L120.49 159.254L145.309 167.31Z" stroke="white" stroke-width="4.85079" stroke-miterlimit="10" stroke-linecap="round" stroke-linejoin="round"/>
<path d="M154.15 164.491L145.312 167.308L120.493 159.252L118.393 141.45L129.366 148.509L154.15 164.491Z" stroke="white" stroke-width="4.85079" stroke-miterlimit="10" stroke-linecap="round" stroke-linejoin="round"/>
<path d="M88.0541 71.6484H44.9336V22.978H88.0541V71.6484Z" stroke="white" stroke-width="4.85079" stroke-miterlimit="10" stroke-linecap="round" stroke-linejoin="round"/>
<path d="M44.6602 90.9521H130.015" stroke="white" stroke-width="4.85079" stroke-miterlimit="10" stroke-linecap="round" stroke-linejoin="round"/>
<path d="M44.6602 112.781H117.302" stroke="white" stroke-width="4.85079" stroke-miterlimit="10" stroke-linecap="round" stroke-linejoin="round"/>
<path d="M44.6602 134.609H102.774" stroke="white" stroke-width="4.85079" stroke-miterlimit="10" stroke-linecap="round" stroke-linejoin="round"/>
<path d="M44.6602 158.257H95.5097" stroke="white" stroke-width="4.85079" stroke-miterlimit="10" stroke-linecap="round" stroke-linejoin="round"/>
</svg>
