<svg width="148" height="34" viewBox="0 0 148 34" fill="none" xmlns="http://www.w3.org/2000/svg">
<path d="M113.831 5.97584C113.831 5.57385 113.95 5.18089 114.174 4.84665C114.397 4.51242 114.715 4.25191 115.087 4.09807C115.458 3.94424 115.867 3.90399 116.262 3.98241C116.656 4.06084 117.019 4.25441 117.303 4.53866C117.587 4.82291 117.781 5.18506 117.86 5.57932C117.938 5.97359 117.898 6.38225 117.744 6.75364C117.59 7.12502 117.329 7.44245 116.995 7.66579C116.66 7.88912 116.267 8.00832 115.865 8.00832C115.327 8.00216 114.814 7.78605 114.434 7.40621C114.053 7.02637 113.837 6.51297 113.831 5.97584Z" fill="#FBB516"/>
<path d="M89.0967 5.97584C89.1037 5.43897 89.3202 4.92607 89.7001 4.54642C90.0801 4.16677 90.5933 3.95038 91.1305 3.94336C91.6726 3.94336 92.1925 4.15857 92.5759 4.54164C92.9592 4.9247 93.1746 5.44426 93.1746 5.986C93.1746 6.52774 92.9592 7.0473 92.5759 7.43037C92.1925 7.81344 91.6726 8.02864 91.1305 8.02864C90.5898 8.02154 90.0736 7.80234 89.6931 7.41832C89.3126 7.0343 89.0984 6.51624 89.0967 5.97584Z" fill="#FBB516"/>
<path d="M54.6631 5.97584C54.6701 5.43897 54.8866 4.92607 55.2666 4.54642C55.6465 4.16677 56.1597 3.95038 56.6969 3.94336C57.239 3.94336 57.759 4.15857 58.1423 4.54164C58.5256 4.9247 58.741 5.44426 58.741 5.986C58.741 6.52774 58.5256 7.0473 58.1423 7.43037C57.759 7.81344 57.239 8.02864 56.6969 8.02864C56.1562 8.02154 55.64 7.80234 55.2595 7.41832C54.879 7.0343 54.6648 6.51624 54.6631 5.97584Z" fill="#FBB516"/>
<path d="M58.3749 9.87109H55.0732V25.0436H58.3749V9.87109Z" fill="#012C3D"/>
<path d="M70.9573 9.48535C69.9444 9.49385 68.9447 9.71646 68.0239 10.1386C67.1032 10.5607 66.2823 11.1727 65.6151 11.9345V9.87152H62.3135V25.0474H65.6151V14.4582C66.0667 13.8447 66.6528 13.3427 67.3285 12.9904C68.0041 12.6381 68.7515 12.4449 69.5133 12.4257C71.3675 12.4257 72.5641 13.2116 72.5641 15.5692V25.0541H75.8657V14.3633C75.8623 11.2536 74.2352 9.48535 70.9573 9.48535Z" fill="#012C3D"/>
<path d="M83.9101 9.87085V9.02398C83.9101 7.33025 84.727 6.48 86.0151 6.48C86.4801 6.45524 86.9415 6.57346 87.3371 6.81874L88.0592 4.36622C87.2432 3.95246 86.3365 3.74981 85.4219 3.7768C82.6254 3.7768 80.6119 5.62974 80.6119 9.02398V9.87085H78.0967V12.7604H80.6119V25.0467H83.9135V12.7604H89.51V25.0467H92.8116V9.87085H83.9101Z" fill="#012C3D"/>
<path d="M105.462 9.48535C104.448 9.49422 103.448 9.71699 102.527 10.1391C101.606 10.5611 100.784 11.173 100.116 11.9345V9.87152H96.8145V25.0474H100.116V14.4582C100.568 13.8449 101.154 13.343 101.83 12.9907C102.505 12.6385 103.252 12.4452 104.014 12.4257C105.868 12.4257 107.065 13.2116 107.065 15.5692V25.0541H110.363V14.3633C110.363 11.2536 108.729 9.48535 105.462 9.48535Z" fill="#012C3D"/>
<path d="M117.54 9.87109H114.238V25.0436H117.54V9.87109Z" fill="#012C3D"/>
<path d="M126.956 22.4993C126.014 22.4993 125.512 21.7473 125.512 20.7108V12.7604H128.593V9.87087H125.512V5.72461H122.211V9.87087H119.695V12.7604H122.211V21.5271C122.211 24.0406 123.566 25.4227 126.109 25.4227C127.648 25.4227 128.624 25.0128 129.221 24.4471L128.434 21.9675C128.027 22.326 127.499 22.5161 126.956 22.4993Z" fill="#012C3D"/>
<path d="M142.434 9.87109L138 21.2428L133.556 9.87109H130.048L136.268 25.2333L135.516 26.9609C135.075 27.9771 134.383 28.282 133.346 28.282C132.915 28.277 132.489 28.192 132.088 28.0313L131.583 30.9818C132.194 31.1166 132.816 31.1904 133.441 31.202C135.8 31.1647 137.624 30.3551 138.661 27.7772L145.986 9.87109H142.434Z" fill="#012C3D"/>
<path d="M44.216 8.8312L45.5177 10.2573L48.3956 7.63881C47.2687 6.01838 45.7674 4.69347 44.0189 3.77647C42.2704 2.85948 40.3264 2.37746 38.3518 2.3713C35.3695 2.36406 32.4966 3.49307 30.318 5.52842C28.1012 7.5609 26.4402 10.3556 24.8029 13.0621C23.3487 15.4876 21.8437 17.9977 19.9996 19.8608C18.5353 21.3411 16.5218 22.0864 14.0133 22.0864C11.9105 22.0864 9.89385 21.2516 8.40695 19.7657C6.92004 18.2798 6.0847 16.2645 6.0847 14.1631C6.0847 12.0617 6.92004 10.0464 8.40695 8.56046C9.89385 7.07456 11.9105 6.23979 14.0133 6.23979C17.7116 6.23979 20.1861 8.94976 21.0572 10.0778L23.1758 6.66322C21.9135 5.12396 20.2823 3.92858 18.4338 3.18819C16.5852 2.44781 14.5794 2.18644 12.6027 2.42839C10.626 2.67034 8.74256 3.40775 7.12748 4.57209C5.5124 5.73642 4.21808 7.28989 3.36482 9.0881C2.51156 10.8863 2.12706 12.8709 2.24705 14.8574C2.36704 16.8439 2.98762 18.7679 4.05113 20.4505C5.11463 22.1331 6.58653 23.5197 8.33003 24.4815C10.0735 25.4432 12.032 25.9489 14.0235 25.9515C17.5522 25.9515 20.5691 24.7862 22.7555 22.564C24.9419 20.3418 26.5453 17.6725 28.135 15.0506C29.7248 12.4287 31.1451 10.0304 32.9587 8.3705C33.7261 7.65481 34.628 7.09852 35.6123 6.73391C36.5965 6.36929 37.6434 6.2036 38.6922 6.24646C39.741 6.28932 40.7708 6.53986 41.7219 6.98356C42.6731 7.42726 43.5266 8.05529 44.233 8.8312H44.216Z" fill="#FBB516"/>
<path d="M37.4502 13.1303V16.9954H45.7618L45.6602 17.2427C45.0556 18.6809 44.0387 19.9082 42.7377 20.7702C41.4366 21.6321 39.9095 22.0902 38.3485 22.0867C37.3315 22.0867 35.7078 21.748 33.6028 20.0543C32.9116 19.5011 32.2676 18.8915 31.6774 18.2318L29.5283 21.7311C30.6741 23.086 33.6774 25.9518 38.3417 25.9518C41.2796 26.0097 44.1313 24.9585 46.3279 23.0081C48.1674 21.4158 49.4529 19.2806 49.999 16.9107C50.3121 15.673 50.4084 14.3906 50.2838 13.1201L37.4502 13.1303Z" fill="#FBB516"/>
</svg>
