<svg width="12" height="14" viewBox="0 0 12 14" fill="none" xmlns="http://www.w3.org/2000/svg">
<path fill-rule="evenodd" clip-rule="evenodd" d="M3.33333 1.66668C3.33333 0.930297 3.93029 0.333344 4.66667 0.333344H7.33333C8.06971 0.333344 8.66667 0.930297 8.66667 1.66668V3.00001H10.6598C10.6639 2.99997 10.668 2.99997 10.6722 3.00001H11.3333C11.7015 3.00001 12 3.29849 12 3.66668C12 4.03487 11.7015 4.33334 11.3333 4.33334H11.2874L10.7534 11.8092C10.6787 12.8558 9.80779 13.6667 8.75851 13.6667H3.24149C2.19221 13.6667 1.32133 12.8558 1.24657 11.8092L0.712587 4.33334H0.666667C0.298477 4.33334 0 4.03487 0 3.66668C0 3.29849 0.298477 3.00001 0.666667 3.00001H1.32783C1.33197 2.99997 1.33609 2.99997 1.34021 3.00001H3.33333V1.66668ZM2.04932 4.33334L2.57652 11.7142C2.60144 12.063 2.89173 12.3333 3.24149 12.3333H8.75851C9.10827 12.3333 9.39856 12.063 9.42348 11.7142L9.95068 4.33334H2.04932ZM7.33333 3.00001H4.66667V1.66668H7.33333V3.00001ZM4.66667 5.66668C5.03486 5.66668 5.33333 5.96515 5.33333 6.33334V10.3333C5.33333 10.7015 5.03486 11 4.66667 11C4.29848 11 4 10.7015 4 10.3333V6.33334C4 5.96515 4.29848 5.66668 4.66667 5.66668ZM7.33333 5.66668C7.70152 5.66668 8 5.96515 8 6.33334V10.3333C8 10.7015 7.70152 11 7.33333 11C6.96514 11 6.66667 10.7015 6.66667 10.3333V6.33334C6.66667 5.96515 6.96514 5.66668 7.33333 5.66668Z" fill="#E03E2D"/>
</svg>
