<svg width="32" height="32" viewBox="0 0 32 32" fill="none" xmlns="http://www.w3.org/2000/svg">
<path d="M17.9999 19.7101C19.5675 18.7337 20.7745 17.2734 21.4382 15.55C22.1019 13.8265 22.1863 11.9338 21.6786 10.1582C21.1708 8.38254 20.0986 6.82057 18.624 5.70859C17.1495 4.59661 15.3529 3.99512 13.5061 3.99512C11.6593 3.99512 9.86274 4.59661 8.38822 5.70859C6.91369 6.82057 5.84144 8.38254 5.33369 10.1582C4.82594 11.9338 4.91031 13.8265 5.57405 15.55C6.23778 17.2734 7.44476 18.7337 9.01238 19.7101C6.43113 20.5551 4.10863 22.1339 2.24113 24.3564C2.11887 24.5017 2.04052 24.6788 2.01524 24.8671C1.98997 25.0553 2.01882 25.2468 2.09841 25.4192C2.178 25.5917 2.30505 25.7379 2.46469 25.8407C2.62434 25.9436 2.80997 25.9989 2.99988 26.0001H23.9999C24.1904 26.0003 24.3771 25.9461 24.5378 25.8437C24.6986 25.7414 24.8267 25.5953 24.9073 25.4226C24.9878 25.2499 25.0173 25.0578 24.9922 24.8689C24.9672 24.68 24.8888 24.5022 24.7661 24.3564C22.8974 22.1339 20.5749 20.5551 17.9999 19.7101Z" fill="#099744"/>
<path d="M32 14.41L30.6 13L25.47 18.17L23.4 16.09L22 17.5L25.47 21L32 14.41Z" fill="#099744"/>
</svg>
