<svg width="92" height="92" viewBox="0 0 92 92" fill="none" xmlns="http://www.w3.org/2000/svg">
<path d="M92 46C92 71.4048 71.4048 92 46 92C20.5978 92 0 71.4048 0 46C0 20.5978 20.5978 0 46 0C71.4048 0 92 20.5978 92 46Z" fill="#F9BA25"/>
<path d="M29.3889 51.1115C32.9174 51.1115 35.7778 47.107 35.7778 42.1671C35.7778 37.2272 32.9174 33.2227 29.3889 33.2227C25.8604 33.2227 23 37.2272 23 42.1671C23 47.107 25.8604 51.1115 29.3889 51.1115Z" fill="#664500"/>
<path d="M62.6111 51.1115C66.1395 51.1115 68.9999 47.107 68.9999 42.1671C68.9999 37.2272 66.1395 33.2227 62.6111 33.2227C59.0826 33.2227 56.2222 37.2272 56.2222 42.1671C56.2222 47.107 59.0826 51.1115 62.6111 51.1115Z" fill="#664500"/>
<path d="M63.8889 66.4441H28.1111C26.7004 66.4441 25.5555 65.3018 25.5555 63.8886C25.5555 62.4753 26.7004 61.333 28.1111 61.333H63.8889C65.3021 61.333 66.4444 62.4753 66.4444 63.8886C66.4444 65.3018 65.3021 66.4441 63.8889 66.4441Z" fill="#664500"/>
</svg>
