<svg width="412" height="270" viewBox="0 0 412 270" fill="none" xmlns="http://www.w3.org/2000/svg">
<circle cx="206" cy="97" r="97" fill="#E9ECEB"/>
<g clip-path="url(#clip0_71_2454)">
<rect x="145.5" y="62.3008" width="122" height="78.6992" rx="13" fill="white"/>
<path d="M260.951 140.657H152.049C150.313 140.655 148.648 139.964 147.42 138.735C146.193 137.507 145.502 135.841 145.5 134.104V68.9463C145.502 67.2089 146.193 65.5432 147.42 64.3146C148.648 63.0861 150.313 62.395 152.049 62.3931H260.951C262.687 62.395 264.352 63.0861 265.58 64.3146C266.807 65.5432 267.498 67.2089 267.5 68.9463V134.104C267.498 135.841 266.807 137.507 265.58 138.735C264.352 139.964 262.687 140.655 260.951 140.657ZM152.049 63.5165C150.61 63.5181 149.231 64.0907 148.214 65.1086C147.197 66.1266 146.624 67.5067 146.623 68.9463V134.104C146.624 135.543 147.197 136.923 148.214 137.941C149.231 138.959 150.61 139.532 152.049 139.534H260.951C262.39 139.532 263.769 138.959 264.786 137.941C265.803 136.923 266.376 135.543 266.377 134.104V68.9463C266.376 67.5067 265.803 66.1266 264.786 65.1086C263.769 64.0907 262.39 63.5181 260.951 63.5165H152.049Z" fill="#CCCCCC"/>
<path d="M166.644 77.746C165.719 77.746 164.815 77.4714 164.045 76.9571C163.276 76.4428 162.676 75.7117 162.322 74.8564C161.968 74.0011 161.876 73.0599 162.056 72.1519C162.237 71.2439 162.682 70.4099 163.336 69.7553C163.991 69.1006 164.824 68.6548 165.732 68.4742C166.639 68.2936 167.58 68.3863 168.434 68.7406C169.289 69.0949 170.02 69.6948 170.534 70.4646C171.048 71.2344 171.322 72.1393 171.322 73.0651C171.321 74.3061 170.827 75.4959 169.95 76.3734C169.073 77.251 167.884 77.7446 166.644 77.746ZM166.644 69.5077C165.941 69.5077 165.254 69.7163 164.669 70.1072C164.084 70.4981 163.629 71.0537 163.36 71.7037C163.091 72.3538 163.02 73.0691 163.157 73.7591C163.294 74.4492 163.633 75.0831 164.13 75.5806C164.628 76.0781 165.261 76.417 165.951 76.5542C166.64 76.6915 167.355 76.621 168.005 76.3518C168.654 76.0825 169.21 75.6266 169.6 75.0415C169.991 74.4565 170.199 73.7687 170.199 73.0651C170.198 72.122 169.823 71.2177 169.157 70.5508C168.49 69.8839 167.587 69.5087 166.644 69.5077Z" fill="#CCCCCC"/>
<path d="M245.607 77.746C244.682 77.746 243.778 77.4714 243.008 76.9571C242.239 76.4428 241.64 75.7117 241.286 74.8564C240.931 74.0011 240.839 73.0599 241.019 72.1519C241.2 71.2439 241.645 70.4099 242.3 69.7553C242.954 69.1006 243.787 68.6548 244.695 68.4742C245.602 68.2936 246.543 68.3863 247.398 68.7406C248.252 69.0949 248.983 69.6948 249.497 70.4646C250.011 71.2344 250.285 72.1393 250.285 73.0651C250.284 74.3061 249.791 75.4959 248.914 76.3734C248.037 77.251 246.848 77.7446 245.607 77.746ZM245.607 69.5077C244.904 69.5077 244.217 69.7163 243.632 70.1072C243.048 70.4981 242.592 71.0537 242.323 71.7037C242.054 72.3538 241.983 73.0691 242.12 73.7591C242.258 74.4492 242.596 75.0831 243.093 75.5806C243.591 76.0781 244.224 76.417 244.914 76.5542C245.603 76.6915 246.318 76.621 246.968 76.3518C247.618 76.0825 248.173 75.6266 248.563 75.0415C248.954 74.4565 249.163 73.7687 249.163 73.0651C249.162 72.122 248.787 71.2177 248.12 70.5508C247.454 69.8839 246.55 69.5087 245.607 69.5077Z" fill="#CCCCCC"/>
<path d="M177.684 106.206H157.475C156.632 106.205 155.824 105.869 155.227 105.272C154.631 104.676 154.295 103.867 154.294 103.023V91.0399C154.295 90.196 154.631 89.387 155.227 88.7903C155.824 88.1936 156.632 87.8579 157.475 87.8569H177.684C178.527 87.8579 179.336 88.1936 179.932 88.7903C180.529 89.387 180.864 90.196 180.865 91.0399V103.023C180.864 103.867 180.529 104.676 179.932 105.272C179.336 105.869 178.527 106.205 177.684 106.206Z" fill="#E6E6E6"/>
<path d="M216.604 106.206H196.396C195.552 106.205 194.744 105.869 194.148 105.272C193.551 104.676 193.216 103.867 193.215 103.023V91.0399C193.216 90.196 193.551 89.387 194.148 88.7903C194.744 88.1936 195.552 87.8579 196.396 87.8569H216.604C217.448 87.8579 218.256 88.1936 218.853 88.7903C219.449 89.387 219.784 90.196 219.785 91.0399V103.023C219.784 103.867 219.449 104.676 218.853 105.272C218.256 105.869 217.448 106.205 216.604 106.206Z" fill="#E6E6E6"/>
<path d="M235.316 88.2314C234.572 88.2323 233.858 88.5284 233.332 89.0549C232.806 89.5815 232.51 90.2953 232.509 91.04V103.023C232.51 103.768 232.806 104.481 233.332 105.008C233.858 105.534 234.572 105.831 235.316 105.831H255.525C256.269 105.831 256.982 105.534 257.508 105.008C258.035 104.481 258.331 103.768 258.331 103.023V91.04C258.331 90.2953 258.035 89.5815 257.508 89.0549C256.982 88.5284 256.269 88.2323 255.525 88.2314H235.316Z" fill="#E6E6E6"/>
<path d="M177.871 130.172H157.663C156.819 130.171 156.011 129.835 155.414 129.238C154.818 128.642 154.483 127.833 154.482 126.989V115.006C154.483 114.162 154.818 113.353 155.414 112.756C156.011 112.159 156.819 111.824 157.663 111.823H177.871C178.715 111.824 179.523 112.159 180.119 112.756C180.716 113.353 181.051 114.162 181.052 115.006V126.989C181.051 127.833 180.716 128.642 180.119 129.238C179.523 129.835 178.715 130.171 177.871 130.172Z" fill="#E6E6E6"/>
<path d="M216.791 130.172H196.583C195.739 130.171 194.931 129.835 194.335 129.238C193.738 128.642 193.403 127.833 193.402 126.989V115.006C193.403 114.162 193.738 113.353 194.335 112.756C194.931 112.159 195.739 111.824 196.583 111.823H216.791C217.635 111.824 218.443 112.159 219.04 112.756C219.636 113.353 219.971 114.162 219.972 115.006V126.989C219.971 127.833 219.636 128.642 219.04 129.238C218.443 129.835 217.635 130.171 216.791 130.172Z" fill="#E6E6E6"/>
<path d="M255.712 130.172H235.503C234.66 130.171 233.851 129.835 233.255 129.238C232.658 128.642 232.323 127.833 232.322 126.989V115.006C232.323 114.162 232.658 113.353 233.255 112.756C233.851 112.159 234.66 111.824 235.503 111.823H255.712C256.555 111.824 257.363 112.159 257.96 112.756C258.556 113.353 258.892 114.162 258.893 115.006V126.989C258.892 127.833 258.556 128.642 257.96 129.238C257.363 129.835 256.555 130.171 255.712 130.172Z" fill="#E6E6E6"/>
<path d="M166.644 74.3759C166.297 74.3755 165.964 74.2373 165.719 73.9916C165.473 73.7459 165.335 73.4128 165.334 73.0653V54.3419C165.334 53.9943 165.472 53.6609 165.718 53.4151C165.964 53.1693 166.297 53.0312 166.644 53.0312C166.992 53.0312 167.325 53.1693 167.57 53.4151C167.816 53.6609 167.954 53.9943 167.954 54.3419V73.0653C167.954 73.4128 167.816 73.7459 167.57 73.9916C167.324 74.2373 166.992 74.3755 166.644 74.3759Z" fill="#CCCCCC"/>
<path d="M245.607 74.3759C245.26 74.3755 244.927 74.2373 244.682 73.9916C244.436 73.7459 244.298 73.4128 244.298 73.0653V54.3419C244.298 53.9943 244.436 53.6609 244.681 53.4151C244.927 53.1693 245.26 53.0312 245.607 53.0312C245.955 53.0312 246.288 53.1693 246.534 53.4151C246.779 53.6609 246.917 53.9943 246.917 54.3419V73.0653C246.917 73.4128 246.779 73.7459 246.533 73.9916C246.288 74.2373 245.955 74.3755 245.607 74.3759Z" fill="#CCCCCC"/>
</g>
<path d="M122.283 221.781V236H119.588L113.543 226.137V236H110.857V221.781H113.543L119.607 231.654V221.781H122.283ZM124.363 230.824V230.619C124.363 229.844 124.474 229.132 124.695 228.48C124.917 227.823 125.239 227.253 125.662 226.771C126.085 226.29 126.603 225.915 127.215 225.648C127.827 225.375 128.523 225.238 129.305 225.238C130.099 225.238 130.802 225.375 131.414 225.648C132.033 225.915 132.553 226.29 132.977 226.771C133.4 227.253 133.722 227.823 133.943 228.48C134.165 229.132 134.275 229.844 134.275 230.619V230.824C134.275 231.592 134.165 232.305 133.943 232.963C133.722 233.614 133.4 234.184 132.977 234.672C132.553 235.154 132.036 235.528 131.424 235.795C130.812 236.062 130.112 236.195 129.324 236.195C128.543 236.195 127.843 236.062 127.225 235.795C126.606 235.528 126.085 235.154 125.662 234.672C125.239 234.184 124.917 233.614 124.695 232.963C124.474 232.305 124.363 231.592 124.363 230.824ZM126.941 230.619V230.824C126.941 231.286 126.987 231.719 127.078 232.123C127.169 232.527 127.309 232.882 127.498 233.188C127.687 233.493 127.931 233.734 128.23 233.91C128.536 234.079 128.901 234.164 129.324 234.164C129.741 234.164 130.099 234.079 130.398 233.91C130.698 233.734 130.942 233.493 131.131 233.188C131.326 232.882 131.469 232.527 131.561 232.123C131.652 231.719 131.697 231.286 131.697 230.824V230.619C131.697 230.163 131.652 229.737 131.561 229.34C131.469 228.936 131.326 228.581 131.131 228.275C130.942 227.963 130.695 227.719 130.389 227.543C130.089 227.361 129.728 227.27 129.305 227.27C128.888 227.27 128.53 227.361 128.23 227.543C127.931 227.719 127.687 227.963 127.498 228.275C127.309 228.581 127.169 228.936 127.078 229.34C126.987 229.737 126.941 230.163 126.941 230.619ZM147.469 233.754V221H150.066V236H147.723L147.469 233.754ZM140.682 230.844V230.639C140.682 229.831 140.773 229.099 140.955 228.441C141.144 227.777 141.417 227.208 141.775 226.732C142.133 226.257 142.566 225.889 143.074 225.629C143.589 225.368 144.171 225.238 144.822 225.238C145.454 225.238 146.004 225.365 146.473 225.619C146.948 225.873 147.352 226.234 147.684 226.703C148.022 227.172 148.292 227.729 148.494 228.373C148.696 229.011 148.842 229.714 148.934 230.482V231.039C148.842 231.788 148.696 232.475 148.494 233.1C148.292 233.725 148.022 234.271 147.684 234.74C147.352 235.202 146.948 235.561 146.473 235.814C145.997 236.068 145.441 236.195 144.803 236.195C144.158 236.195 143.579 236.062 143.064 235.795C142.557 235.528 142.124 235.154 141.766 234.672C141.414 234.19 141.144 233.624 140.955 232.973C140.773 232.322 140.682 231.612 140.682 230.844ZM143.27 230.639V230.844C143.27 231.299 143.309 231.726 143.387 232.123C143.465 232.52 143.592 232.872 143.768 233.178C143.943 233.477 144.168 233.712 144.441 233.881C144.721 234.05 145.06 234.135 145.457 234.135C145.965 234.135 146.382 234.024 146.707 233.803C147.039 233.575 147.296 233.266 147.479 232.875C147.661 232.478 147.778 232.032 147.83 231.537V230.004C147.804 229.613 147.736 229.252 147.625 228.92C147.521 228.588 147.371 228.301 147.176 228.061C146.987 227.82 146.753 227.631 146.473 227.494C146.193 227.357 145.861 227.289 145.477 227.289C145.079 227.289 144.741 227.377 144.461 227.553C144.181 227.722 143.953 227.96 143.777 228.266C143.602 228.572 143.471 228.926 143.387 229.33C143.309 229.734 143.27 230.17 143.27 230.639ZM158.221 233.754V228.881C158.221 228.523 158.159 228.214 158.035 227.953C157.911 227.693 157.723 227.491 157.469 227.348C157.215 227.204 156.893 227.133 156.502 227.133C156.157 227.133 155.854 227.191 155.594 227.309C155.34 227.426 155.145 227.592 155.008 227.807C154.871 228.015 154.803 228.256 154.803 228.529H152.215C152.215 228.093 152.319 227.68 152.527 227.289C152.736 226.892 153.032 226.54 153.416 226.234C153.807 225.922 154.272 225.678 154.812 225.502C155.359 225.326 155.971 225.238 156.648 225.238C157.449 225.238 158.162 225.375 158.787 225.648C159.419 225.915 159.913 226.319 160.271 226.859C160.636 227.4 160.818 228.08 160.818 228.9V233.51C160.818 234.037 160.851 234.49 160.916 234.867C160.988 235.238 161.092 235.561 161.229 235.834V236H158.602C158.478 235.733 158.383 235.395 158.318 234.984C158.253 234.568 158.221 234.158 158.221 233.754ZM158.582 229.564L158.602 231.098H156.971C156.567 231.098 156.212 231.14 155.906 231.225C155.6 231.303 155.35 231.42 155.154 231.576C154.959 231.726 154.812 231.908 154.715 232.123C154.617 232.331 154.568 232.569 154.568 232.836C154.568 233.096 154.627 233.331 154.744 233.539C154.868 233.747 155.044 233.913 155.271 234.037C155.506 234.154 155.779 234.213 156.092 234.213C156.548 234.213 156.945 234.122 157.283 233.939C157.622 233.751 157.885 233.523 158.074 233.256C158.263 232.989 158.364 232.735 158.377 232.494L159.119 233.607C159.028 233.874 158.891 234.158 158.709 234.457C158.527 234.757 158.292 235.036 158.006 235.297C157.719 235.557 157.374 235.772 156.971 235.941C156.567 236.111 156.098 236.195 155.564 236.195C154.881 236.195 154.269 236.059 153.729 235.785C153.188 235.512 152.762 235.137 152.449 234.662C152.137 234.187 151.98 233.646 151.98 233.041C151.98 232.481 152.085 231.986 152.293 231.557C152.501 231.127 152.811 230.766 153.221 230.473C153.631 230.173 154.139 229.949 154.744 229.799C155.356 229.643 156.056 229.564 156.844 229.564H158.582ZM165.877 225.434V236H163.289V225.434H165.877ZM163.113 222.67C163.113 222.286 163.243 221.967 163.504 221.713C163.771 221.459 164.129 221.332 164.578 221.332C165.027 221.332 165.382 221.459 165.643 221.713C165.91 221.967 166.043 222.286 166.043 222.67C166.043 223.048 165.91 223.363 165.643 223.617C165.382 223.871 165.027 223.998 164.578 223.998C164.129 223.998 163.771 223.871 163.504 223.617C163.243 223.363 163.113 223.048 163.113 222.67ZM171.072 221V236H168.484V221H171.072ZM176.629 234.828L179.461 225.434H182.225L177.986 237.602C177.889 237.862 177.762 238.145 177.605 238.451C177.456 238.757 177.254 239.047 177 239.32C176.746 239.6 176.427 239.828 176.043 240.004C175.665 240.18 175.206 240.268 174.666 240.268C174.432 240.268 174.223 240.251 174.041 240.219C173.859 240.186 173.667 240.144 173.465 240.092V238.158C173.53 238.165 173.605 238.168 173.689 238.168C173.781 238.174 173.859 238.178 173.924 238.178C174.301 238.178 174.614 238.132 174.861 238.041C175.109 237.956 175.307 237.816 175.457 237.621C175.613 237.432 175.743 237.185 175.848 236.879L176.629 234.828ZM175.232 225.434L177.625 233.217L178.045 235.941L176.268 236.264L172.449 225.434H175.232ZM194.744 233.49V225.434H197.342V236H194.9L194.744 233.49ZM195.076 231.303L195.877 231.283C195.877 231.993 195.799 232.647 195.643 233.246C195.486 233.845 195.242 234.366 194.91 234.809C194.585 235.245 194.171 235.587 193.67 235.834C193.169 236.075 192.576 236.195 191.893 236.195C191.372 236.195 190.896 236.124 190.467 235.98C190.037 235.831 189.666 235.6 189.354 235.287C189.048 234.968 188.81 234.561 188.641 234.066C188.471 233.565 188.387 232.963 188.387 232.26V225.434H190.965V232.279C190.965 232.631 191.004 232.924 191.082 233.158C191.167 233.393 191.281 233.585 191.424 233.734C191.574 233.878 191.746 233.982 191.941 234.047C192.143 234.105 192.358 234.135 192.586 234.135C193.211 234.135 193.702 234.011 194.061 233.764C194.425 233.51 194.686 233.171 194.842 232.748C194.998 232.318 195.076 231.837 195.076 231.303ZM202.205 227.465V240.062H199.617V225.434H202.01L202.205 227.465ZM208.992 230.609V230.814C208.992 231.583 208.901 232.296 208.719 232.953C208.543 233.604 208.283 234.174 207.938 234.662C207.592 235.144 207.163 235.521 206.648 235.795C206.141 236.062 205.555 236.195 204.891 236.195C204.24 236.195 203.673 236.072 203.191 235.824C202.71 235.57 202.303 235.212 201.971 234.75C201.639 234.288 201.372 233.751 201.17 233.139C200.975 232.52 200.828 231.846 200.73 231.117V230.463C200.828 229.688 200.975 228.985 201.17 228.354C201.372 227.715 201.639 227.165 201.971 226.703C202.303 226.234 202.706 225.873 203.182 225.619C203.663 225.365 204.227 225.238 204.871 225.238C205.542 225.238 206.131 225.365 206.639 225.619C207.153 225.873 207.586 226.238 207.938 226.713C208.289 227.188 208.553 227.755 208.729 228.412C208.904 229.07 208.992 229.802 208.992 230.609ZM206.404 230.814V230.609C206.404 230.141 206.362 229.708 206.277 229.311C206.193 228.907 206.062 228.555 205.887 228.256C205.711 227.95 205.483 227.712 205.203 227.543C204.923 227.374 204.585 227.289 204.188 227.289C203.79 227.289 203.449 227.354 203.162 227.484C202.876 227.615 202.641 227.8 202.459 228.041C202.277 228.282 202.133 228.568 202.029 228.9C201.932 229.226 201.867 229.587 201.834 229.984V231.605C201.893 232.087 202.007 232.52 202.176 232.904C202.345 233.288 202.592 233.594 202.918 233.822C203.25 234.05 203.68 234.164 204.207 234.164C204.604 234.164 204.943 234.076 205.223 233.9C205.503 233.725 205.73 233.484 205.906 233.178C206.082 232.865 206.209 232.507 206.287 232.104C206.365 231.7 206.404 231.27 206.404 230.814ZM217.215 233.754V221H219.812V236H217.469L217.215 233.754ZM210.428 230.844V230.639C210.428 229.831 210.519 229.099 210.701 228.441C210.89 227.777 211.163 227.208 211.521 226.732C211.88 226.257 212.312 225.889 212.82 225.629C213.335 225.368 213.917 225.238 214.568 225.238C215.2 225.238 215.75 225.365 216.219 225.619C216.694 225.873 217.098 226.234 217.43 226.703C217.768 227.172 218.038 227.729 218.24 228.373C218.442 229.011 218.589 229.714 218.68 230.482V231.039C218.589 231.788 218.442 232.475 218.24 233.1C218.038 233.725 217.768 234.271 217.43 234.74C217.098 235.202 216.694 235.561 216.219 235.814C215.743 236.068 215.187 236.195 214.549 236.195C213.904 236.195 213.325 236.062 212.811 235.795C212.303 235.528 211.87 235.154 211.512 234.672C211.16 234.19 210.89 233.624 210.701 232.973C210.519 232.322 210.428 231.612 210.428 230.844ZM213.016 230.639V230.844C213.016 231.299 213.055 231.726 213.133 232.123C213.211 232.52 213.338 232.872 213.514 233.178C213.689 233.477 213.914 233.712 214.188 233.881C214.467 234.05 214.806 234.135 215.203 234.135C215.711 234.135 216.128 234.024 216.453 233.803C216.785 233.575 217.042 233.266 217.225 232.875C217.407 232.478 217.524 232.032 217.576 231.537V230.004C217.55 229.613 217.482 229.252 217.371 228.92C217.267 228.588 217.117 228.301 216.922 228.061C216.733 227.82 216.499 227.631 216.219 227.494C215.939 227.357 215.607 227.289 215.223 227.289C214.826 227.289 214.487 227.377 214.207 227.553C213.927 227.722 213.699 227.96 213.523 228.266C213.348 228.572 213.217 228.926 213.133 229.33C213.055 229.734 213.016 230.17 213.016 230.639ZM227.967 233.754V228.881C227.967 228.523 227.905 228.214 227.781 227.953C227.658 227.693 227.469 227.491 227.215 227.348C226.961 227.204 226.639 227.133 226.248 227.133C225.903 227.133 225.6 227.191 225.34 227.309C225.086 227.426 224.891 227.592 224.754 227.807C224.617 228.015 224.549 228.256 224.549 228.529H221.961C221.961 228.093 222.065 227.68 222.273 227.289C222.482 226.892 222.778 226.54 223.162 226.234C223.553 225.922 224.018 225.678 224.559 225.502C225.105 225.326 225.717 225.238 226.395 225.238C227.195 225.238 227.908 225.375 228.533 225.648C229.165 225.915 229.66 226.319 230.018 226.859C230.382 227.4 230.564 228.08 230.564 228.9V233.51C230.564 234.037 230.597 234.49 230.662 234.867C230.734 235.238 230.838 235.561 230.975 235.834V236H228.348C228.224 235.733 228.13 235.395 228.064 234.984C227.999 234.568 227.967 234.158 227.967 233.754ZM228.328 229.564L228.348 231.098H226.717C226.313 231.098 225.958 231.14 225.652 231.225C225.346 231.303 225.096 231.42 224.9 231.576C224.705 231.726 224.559 231.908 224.461 232.123C224.363 232.331 224.314 232.569 224.314 232.836C224.314 233.096 224.373 233.331 224.49 233.539C224.614 233.747 224.79 233.913 225.018 234.037C225.252 234.154 225.525 234.213 225.838 234.213C226.294 234.213 226.691 234.122 227.029 233.939C227.368 233.751 227.632 233.523 227.82 233.256C228.009 232.989 228.11 232.735 228.123 232.494L228.865 233.607C228.774 233.874 228.637 234.158 228.455 234.457C228.273 234.757 228.038 235.036 227.752 235.297C227.465 235.557 227.12 235.772 226.717 235.941C226.313 236.111 225.844 236.195 225.311 236.195C224.627 236.195 224.015 236.059 223.475 235.785C222.934 235.512 222.508 235.137 222.195 234.662C221.883 234.187 221.727 233.646 221.727 233.041C221.727 232.481 221.831 231.986 222.039 231.557C222.247 231.127 222.557 230.766 222.967 230.473C223.377 230.173 223.885 229.949 224.49 229.799C225.102 229.643 225.802 229.564 226.59 229.564H228.328ZM237.889 225.434V227.289H231.834V225.434H237.889ZM233.455 222.836H236.043V232.953C236.043 233.266 236.085 233.507 236.17 233.676C236.255 233.845 236.382 233.959 236.551 234.018C236.72 234.076 236.922 234.105 237.156 234.105C237.326 234.105 237.482 234.096 237.625 234.076C237.768 234.057 237.889 234.037 237.986 234.018L237.996 235.951C237.781 236.023 237.537 236.081 237.264 236.127C236.997 236.173 236.694 236.195 236.355 236.195C235.776 236.195 235.268 236.098 234.832 235.902C234.396 235.701 234.057 235.378 233.816 234.936C233.576 234.486 233.455 233.894 233.455 233.158V222.836ZM244.354 236.195C243.553 236.195 242.833 236.065 242.195 235.805C241.557 235.544 241.014 235.183 240.564 234.721C240.122 234.252 239.78 233.708 239.539 233.09C239.305 232.465 239.188 231.794 239.188 231.078V230.688C239.188 229.874 239.305 229.135 239.539 228.471C239.773 227.8 240.105 227.224 240.535 226.742C240.965 226.26 241.479 225.889 242.078 225.629C242.677 225.368 243.338 225.238 244.061 225.238C244.809 225.238 245.47 225.365 246.043 225.619C246.616 225.867 247.094 226.218 247.479 226.674C247.863 227.13 248.152 227.676 248.348 228.314C248.543 228.946 248.641 229.646 248.641 230.414V231.498H240.359V229.721H246.102V229.525C246.089 229.115 246.01 228.741 245.867 228.402C245.724 228.057 245.503 227.784 245.203 227.582C244.904 227.374 244.516 227.27 244.041 227.27C243.657 227.27 243.322 227.354 243.035 227.523C242.755 227.686 242.521 227.921 242.332 228.227C242.15 228.526 242.013 228.884 241.922 229.301C241.831 229.717 241.785 230.18 241.785 230.688V231.078C241.785 231.521 241.844 231.931 241.961 232.309C242.085 232.686 242.264 233.015 242.498 233.295C242.739 233.568 243.025 233.783 243.357 233.939C243.696 234.089 244.08 234.164 244.51 234.164C245.05 234.164 245.538 234.06 245.975 233.852C246.417 233.637 246.801 233.321 247.127 232.904L248.426 234.252C248.204 234.577 247.905 234.89 247.527 235.189C247.156 235.489 246.707 235.733 246.18 235.922C245.652 236.104 245.044 236.195 244.354 236.195ZM256.18 233.109C256.18 232.888 256.121 232.689 256.004 232.514C255.887 232.338 255.665 232.178 255.34 232.035C255.021 231.885 254.552 231.745 253.934 231.615C253.387 231.498 252.882 231.352 252.42 231.176C251.958 231 251.561 230.788 251.229 230.541C250.896 230.287 250.636 229.991 250.447 229.652C250.265 229.307 250.174 228.91 250.174 228.461C250.174 228.025 250.268 227.615 250.457 227.23C250.646 226.84 250.919 226.498 251.277 226.205C251.635 225.906 252.072 225.671 252.586 225.502C253.1 225.326 253.68 225.238 254.324 225.238C255.223 225.238 255.994 225.385 256.639 225.678C257.29 225.971 257.788 226.374 258.133 226.889C258.478 227.396 258.65 227.969 258.65 228.607H256.072C256.072 228.327 256.007 228.074 255.877 227.846C255.753 227.618 255.561 227.436 255.301 227.299C255.04 227.156 254.712 227.084 254.314 227.084C253.956 227.084 253.654 227.143 253.406 227.26C253.165 227.377 252.983 227.53 252.859 227.719C252.736 227.908 252.674 228.116 252.674 228.344C252.674 228.513 252.706 228.666 252.771 228.803C252.843 228.933 252.957 229.053 253.113 229.164C253.27 229.275 253.481 229.376 253.748 229.467C254.021 229.558 254.357 229.646 254.754 229.73C255.542 229.887 256.229 230.095 256.814 230.355C257.407 230.609 257.869 230.948 258.201 231.371C258.533 231.794 258.699 232.335 258.699 232.992C258.699 233.461 258.598 233.891 258.396 234.281C258.195 234.665 257.902 235.001 257.518 235.287C257.133 235.574 256.674 235.798 256.141 235.961C255.607 236.117 255.005 236.195 254.334 236.195C253.364 236.195 252.544 236.023 251.873 235.678C251.202 235.326 250.695 234.883 250.35 234.35C250.005 233.809 249.832 233.249 249.832 232.67H252.303C252.322 233.08 252.433 233.409 252.635 233.656C252.837 233.904 253.09 234.083 253.396 234.193C253.709 234.298 254.038 234.35 254.383 234.35C254.773 234.35 255.102 234.298 255.369 234.193C255.636 234.083 255.838 233.936 255.975 233.754C256.111 233.565 256.18 233.35 256.18 233.109ZM268.738 234.828L271.57 225.434H274.334L270.096 237.602C269.998 237.862 269.871 238.145 269.715 238.451C269.565 238.757 269.363 239.047 269.109 239.32C268.855 239.6 268.536 239.828 268.152 240.004C267.775 240.18 267.316 240.268 266.775 240.268C266.541 240.268 266.333 240.251 266.15 240.219C265.968 240.186 265.776 240.144 265.574 240.092V238.158C265.639 238.165 265.714 238.168 265.799 238.168C265.89 238.174 265.968 238.178 266.033 238.178C266.411 238.178 266.723 238.132 266.971 238.041C267.218 237.956 267.417 237.816 267.566 237.621C267.723 237.432 267.853 237.185 267.957 236.879L268.738 234.828ZM267.342 225.434L269.734 233.217L270.154 235.941L268.377 236.264L264.559 225.434H267.342ZM280.193 236.195C279.393 236.195 278.673 236.065 278.035 235.805C277.397 235.544 276.854 235.183 276.404 234.721C275.962 234.252 275.62 233.708 275.379 233.09C275.145 232.465 275.027 231.794 275.027 231.078V230.688C275.027 229.874 275.145 229.135 275.379 228.471C275.613 227.8 275.945 227.224 276.375 226.742C276.805 226.26 277.319 225.889 277.918 225.629C278.517 225.368 279.178 225.238 279.9 225.238C280.649 225.238 281.31 225.365 281.883 225.619C282.456 225.867 282.934 226.218 283.318 226.674C283.702 227.13 283.992 227.676 284.188 228.314C284.383 228.946 284.48 229.646 284.48 230.414V231.498H276.199V229.721H281.941V229.525C281.928 229.115 281.85 228.741 281.707 228.402C281.564 228.057 281.342 227.784 281.043 227.582C280.743 227.374 280.356 227.27 279.881 227.27C279.497 227.27 279.161 227.354 278.875 227.523C278.595 227.686 278.361 227.921 278.172 228.227C277.99 228.526 277.853 228.884 277.762 229.301C277.671 229.717 277.625 230.18 277.625 230.688V231.078C277.625 231.521 277.684 231.931 277.801 232.309C277.924 232.686 278.104 233.015 278.338 233.295C278.579 233.568 278.865 233.783 279.197 233.939C279.536 234.089 279.92 234.164 280.35 234.164C280.89 234.164 281.378 234.06 281.814 233.852C282.257 233.637 282.641 233.321 282.967 232.904L284.266 234.252C284.044 234.577 283.745 234.89 283.367 235.189C282.996 235.489 282.547 235.733 282.02 235.922C281.492 236.104 280.883 236.195 280.193 236.195ZM291.209 225.434V227.289H285.154V225.434H291.209ZM286.775 222.836H289.363V232.953C289.363 233.266 289.406 233.507 289.49 233.676C289.575 233.845 289.702 233.959 289.871 234.018C290.04 234.076 290.242 234.105 290.477 234.105C290.646 234.105 290.802 234.096 290.945 234.076C291.089 234.057 291.209 234.037 291.307 234.018L291.316 235.951C291.102 236.023 290.857 236.081 290.584 236.127C290.317 236.173 290.014 236.195 289.676 236.195C289.096 236.195 288.589 236.098 288.152 235.902C287.716 235.701 287.378 235.378 287.137 234.936C286.896 234.486 286.775 233.894 286.775 233.158V222.836ZM297.518 231.732H295.184C295.19 231.14 295.239 230.632 295.33 230.209C295.428 229.786 295.587 229.405 295.809 229.066C296.03 228.721 296.329 228.37 296.707 228.012C297.007 227.732 297.273 227.468 297.508 227.221C297.749 226.967 297.938 226.703 298.074 226.43C298.211 226.15 298.279 225.834 298.279 225.482C298.279 225.085 298.214 224.753 298.084 224.486C297.96 224.219 297.775 224.018 297.527 223.881C297.286 223.738 296.984 223.666 296.619 223.666C296.32 223.666 296.036 223.728 295.77 223.852C295.503 223.975 295.288 224.167 295.125 224.428C294.962 224.682 294.874 225.014 294.861 225.424H292.273C292.293 224.571 292.495 223.861 292.879 223.295C293.263 222.722 293.781 222.296 294.432 222.016C295.083 221.729 295.812 221.586 296.619 221.586C297.511 221.586 298.273 221.736 298.904 222.035C299.542 222.328 300.027 222.758 300.359 223.324C300.698 223.891 300.867 224.574 300.867 225.375C300.867 225.948 300.757 226.462 300.535 226.918C300.314 227.367 300.021 227.787 299.656 228.178C299.292 228.568 298.898 228.962 298.475 229.359C298.104 229.691 297.853 230.046 297.723 230.424C297.592 230.801 297.524 231.238 297.518 231.732ZM294.939 234.77C294.939 234.379 295.07 234.053 295.33 233.793C295.597 233.533 295.955 233.402 296.404 233.402C296.854 233.402 297.208 233.533 297.469 233.793C297.736 234.053 297.869 234.379 297.869 234.77C297.869 235.147 297.736 235.466 297.469 235.727C297.208 235.987 296.854 236.117 296.404 236.117C295.955 236.117 295.597 235.987 295.33 235.727C295.07 235.466 294.939 235.147 294.939 234.77Z" fill="#343435"/>
<path d="M7.38281 263.125C7.38281 262.859 7.34115 262.625 7.25781 262.422C7.17969 262.214 7.03906 262.026 6.83594 261.859C6.63802 261.693 6.36198 261.534 6.00781 261.383C5.65885 261.232 5.21615 261.078 4.67969 260.922C4.11719 260.755 3.60938 260.57 3.15625 260.367C2.70312 260.159 2.3151 259.922 1.99219 259.656C1.66927 259.391 1.42188 259.086 1.25 258.742C1.07812 258.398 0.992188 258.005 0.992188 257.562C0.992188 257.12 1.08333 256.711 1.26562 256.336C1.44792 255.961 1.70833 255.635 2.04688 255.359C2.39062 255.078 2.79948 254.859 3.27344 254.703C3.7474 254.547 4.27604 254.469 4.85938 254.469C5.71354 254.469 6.4375 254.633 7.03125 254.961C7.63021 255.284 8.08594 255.708 8.39844 256.234C8.71094 256.755 8.86719 257.312 8.86719 257.906H7.36719C7.36719 257.479 7.27604 257.102 7.09375 256.773C6.91146 256.44 6.63542 256.18 6.26562 255.992C5.89583 255.799 5.42708 255.703 4.85938 255.703C4.32292 255.703 3.88021 255.784 3.53125 255.945C3.18229 256.107 2.92188 256.326 2.75 256.602C2.58333 256.878 2.5 257.193 2.5 257.547C2.5 257.786 2.54948 258.005 2.64844 258.203C2.7526 258.396 2.91146 258.576 3.125 258.742C3.34375 258.909 3.61979 259.062 3.95312 259.203C4.29167 259.344 4.69531 259.479 5.16406 259.609C5.8099 259.792 6.36719 259.995 6.83594 260.219C7.30469 260.443 7.6901 260.695 7.99219 260.977C8.29948 261.253 8.52604 261.568 8.67188 261.922C8.82292 262.271 8.89844 262.667 8.89844 263.109C8.89844 263.573 8.80469 263.992 8.61719 264.367C8.42969 264.742 8.16146 265.062 7.8125 265.328C7.46354 265.594 7.04427 265.799 6.55469 265.945C6.07031 266.086 5.52865 266.156 4.92969 266.156C4.40365 266.156 3.88542 266.083 3.375 265.938C2.86979 265.792 2.40885 265.573 1.99219 265.281C1.58073 264.99 1.25 264.63 1 264.203C0.755208 263.771 0.632812 263.271 0.632812 262.703H2.13281C2.13281 263.094 2.20833 263.43 2.35938 263.711C2.51042 263.987 2.71615 264.216 2.97656 264.398C3.24219 264.581 3.54167 264.716 3.875 264.805C4.21354 264.888 4.5651 264.93 4.92969 264.93C5.45573 264.93 5.90104 264.857 6.26562 264.711C6.63021 264.565 6.90625 264.357 7.09375 264.086C7.28646 263.815 7.38281 263.495 7.38281 263.125ZM12.0469 254V266H10.6016V254H12.0469ZM11.7031 261.453L11.1016 261.43C11.1068 260.852 11.1927 260.318 11.3594 259.828C11.526 259.333 11.7604 258.904 12.0625 258.539C12.3646 258.174 12.724 257.893 13.1406 257.695C13.5625 257.492 14.0286 257.391 14.5391 257.391C14.9557 257.391 15.3307 257.448 15.6641 257.562C15.9974 257.672 16.2812 257.849 16.5156 258.094C16.7552 258.339 16.9375 258.656 17.0625 259.047C17.1875 259.432 17.25 259.904 17.25 260.461V266H15.7969V260.445C15.7969 260.003 15.7318 259.648 15.6016 259.383C15.4714 259.112 15.2812 258.917 15.0312 258.797C14.7812 258.672 14.474 258.609 14.1094 258.609C13.75 258.609 13.4219 258.685 13.125 258.836C12.8333 258.987 12.5807 259.195 12.3672 259.461C12.1589 259.727 11.9948 260.031 11.875 260.375C11.7604 260.714 11.7031 261.073 11.7031 261.453ZM24.3984 264.555V260.203C24.3984 259.87 24.3307 259.581 24.1953 259.336C24.0651 259.086 23.8672 258.893 23.6016 258.758C23.3359 258.622 23.0078 258.555 22.6172 258.555C22.2526 258.555 21.9323 258.617 21.6562 258.742C21.3854 258.867 21.1719 259.031 21.0156 259.234C20.8646 259.438 20.7891 259.656 20.7891 259.891H19.3438C19.3438 259.589 19.4219 259.289 19.5781 258.992C19.7344 258.695 19.9583 258.427 20.25 258.188C20.5469 257.943 20.901 257.75 21.3125 257.609C21.7292 257.464 22.1927 257.391 22.7031 257.391C23.3177 257.391 23.8594 257.495 24.3281 257.703C24.8021 257.911 25.1719 258.227 25.4375 258.648C25.7083 259.065 25.8438 259.589 25.8438 260.219V264.156C25.8438 264.438 25.8672 264.737 25.9141 265.055C25.9661 265.372 26.0417 265.646 26.1406 265.875V266H24.6328C24.5599 265.833 24.5026 265.612 24.4609 265.336C24.4193 265.055 24.3984 264.794 24.3984 264.555ZM24.6484 260.875L24.6641 261.891H23.2031C22.7917 261.891 22.4245 261.924 22.1016 261.992C21.7786 262.055 21.5078 262.151 21.2891 262.281C21.0703 262.411 20.9036 262.576 20.7891 262.773C20.6745 262.966 20.6172 263.193 20.6172 263.453C20.6172 263.719 20.6771 263.961 20.7969 264.18C20.9167 264.398 21.0964 264.573 21.3359 264.703C21.5807 264.828 21.8802 264.891 22.2344 264.891C22.6771 264.891 23.0677 264.797 23.4062 264.609C23.7448 264.422 24.013 264.193 24.2109 263.922C24.4141 263.651 24.5234 263.388 24.5391 263.133L25.1562 263.828C25.1198 264.047 25.0208 264.289 24.8594 264.555C24.6979 264.82 24.4818 265.076 24.2109 265.32C23.9453 265.56 23.6276 265.76 23.2578 265.922C22.8932 266.078 22.4818 266.156 22.0234 266.156C21.4505 266.156 20.9479 266.044 20.5156 265.82C20.0885 265.596 19.7552 265.297 19.5156 264.922C19.2812 264.542 19.1641 264.117 19.1641 263.648C19.1641 263.195 19.2526 262.797 19.4297 262.453C19.6068 262.104 19.862 261.815 20.1953 261.586C20.5286 261.352 20.9297 261.174 21.3984 261.055C21.8672 260.935 22.3906 260.875 22.9688 260.875H24.6484ZM29.5625 258.875V266H28.1172V257.547H29.5234L29.5625 258.875ZM32.2031 257.5L32.1953 258.844C32.0755 258.818 31.9609 258.802 31.8516 258.797C31.7474 258.786 31.6276 258.781 31.4922 258.781C31.1589 258.781 30.8646 258.833 30.6094 258.938C30.3542 259.042 30.138 259.188 29.9609 259.375C29.7839 259.562 29.6432 259.786 29.5391 260.047C29.4401 260.302 29.375 260.583 29.3438 260.891L28.9375 261.125C28.9375 260.615 28.987 260.135 29.0859 259.688C29.1901 259.24 29.349 258.844 29.5625 258.5C29.776 258.151 30.0469 257.88 30.375 257.688C30.7083 257.49 31.1042 257.391 31.5625 257.391C31.6667 257.391 31.7865 257.404 31.9219 257.43C32.0573 257.451 32.151 257.474 32.2031 257.5ZM36.8906 266.156C36.3021 266.156 35.7682 266.057 35.2891 265.859C34.8151 265.656 34.4062 265.372 34.0625 265.008C33.724 264.643 33.4635 264.211 33.2812 263.711C33.099 263.211 33.0078 262.664 33.0078 262.07V261.742C33.0078 261.055 33.1094 260.443 33.3125 259.906C33.5156 259.365 33.7917 258.906 34.1406 258.531C34.4896 258.156 34.8854 257.872 35.3281 257.68C35.7708 257.487 36.2292 257.391 36.7031 257.391C37.3073 257.391 37.8281 257.495 38.2656 257.703C38.7083 257.911 39.0703 258.203 39.3516 258.578C39.6328 258.948 39.8411 259.385 39.9766 259.891C40.112 260.391 40.1797 260.938 40.1797 261.531V262.18H33.8672V261H38.7344V260.891C38.7135 260.516 38.6354 260.151 38.5 259.797C38.3698 259.443 38.1615 259.151 37.875 258.922C37.5885 258.693 37.1979 258.578 36.7031 258.578C36.375 258.578 36.0729 258.648 35.7969 258.789C35.5208 258.924 35.2839 259.128 35.0859 259.398C34.888 259.669 34.7344 260 34.625 260.391C34.5156 260.781 34.4609 261.232 34.4609 261.742V262.07C34.4609 262.471 34.5156 262.849 34.625 263.203C34.7396 263.552 34.9036 263.859 35.1172 264.125C35.3359 264.391 35.599 264.599 35.9062 264.75C36.2188 264.901 36.5729 264.977 36.9688 264.977C37.4792 264.977 37.9115 264.872 38.2656 264.664C38.6198 264.456 38.9297 264.177 39.1953 263.828L40.0703 264.523C39.888 264.799 39.6562 265.062 39.375 265.312C39.0938 265.562 38.7474 265.766 38.3359 265.922C37.9297 266.078 37.4479 266.156 36.8906 266.156ZM48.2109 265.125L50.5625 257.547H52.1094L48.7188 267.305C48.6406 267.513 48.5365 267.737 48.4062 267.977C48.2812 268.221 48.1198 268.453 47.9219 268.672C47.724 268.891 47.4844 269.068 47.2031 269.203C46.9271 269.344 46.5964 269.414 46.2109 269.414C46.0964 269.414 45.9505 269.398 45.7734 269.367C45.5964 269.336 45.4714 269.31 45.3984 269.289L45.3906 268.117C45.4323 268.122 45.4974 268.128 45.5859 268.133C45.6797 268.143 45.7448 268.148 45.7812 268.148C46.1094 268.148 46.388 268.104 46.6172 268.016C46.8464 267.932 47.0391 267.789 47.1953 267.586C47.3568 267.388 47.4948 267.115 47.6094 266.766L48.2109 265.125ZM46.4844 257.547L48.6797 264.109L49.0547 265.633L48.0156 266.164L44.9062 257.547H46.4844ZM52.9062 261.867V261.688C52.9062 261.078 52.9948 260.513 53.1719 259.992C53.349 259.466 53.6042 259.01 53.9375 258.625C54.2708 258.234 54.6745 257.932 55.1484 257.719C55.6224 257.5 56.1536 257.391 56.7422 257.391C57.3359 257.391 57.8698 257.5 58.3438 257.719C58.8229 257.932 59.2292 258.234 59.5625 258.625C59.901 259.01 60.1589 259.466 60.3359 259.992C60.513 260.513 60.6016 261.078 60.6016 261.688V261.867C60.6016 262.477 60.513 263.042 60.3359 263.562C60.1589 264.083 59.901 264.539 59.5625 264.93C59.2292 265.315 58.8255 265.617 58.3516 265.836C57.8828 266.049 57.3516 266.156 56.7578 266.156C56.1641 266.156 55.6302 266.049 55.1562 265.836C54.6823 265.617 54.276 265.315 53.9375 264.93C53.6042 264.539 53.349 264.083 53.1719 263.562C52.9948 263.042 52.9062 262.477 52.9062 261.867ZM54.3516 261.688V261.867C54.3516 262.289 54.401 262.688 54.5 263.062C54.599 263.432 54.7474 263.76 54.9453 264.047C55.1484 264.333 55.401 264.56 55.7031 264.727C56.0052 264.888 56.3568 264.969 56.7578 264.969C57.1536 264.969 57.5 264.888 57.7969 264.727C58.099 264.56 58.349 264.333 58.5469 264.047C58.7448 263.76 58.8932 263.432 58.9922 263.062C59.0964 262.688 59.1484 262.289 59.1484 261.867V261.688C59.1484 261.271 59.0964 260.878 58.9922 260.508C58.8932 260.133 58.7422 259.802 58.5391 259.516C58.3411 259.224 58.0911 258.995 57.7891 258.828C57.4922 258.661 57.1432 258.578 56.7422 258.578C56.3464 258.578 55.9974 258.661 55.6953 258.828C55.3984 258.995 55.1484 259.224 54.9453 259.516C54.7474 259.802 54.599 260.133 54.5 260.508C54.401 260.878 54.3516 261.271 54.3516 261.688ZM67.5859 264.047V257.547H69.0391V266H67.6562L67.5859 264.047ZM67.8594 262.266L68.4609 262.25C68.4609 262.812 68.401 263.333 68.2812 263.812C68.1667 264.286 67.9792 264.698 67.7188 265.047C67.4583 265.396 67.1172 265.669 66.6953 265.867C66.2734 266.06 65.7604 266.156 65.1562 266.156C64.7448 266.156 64.3672 266.096 64.0234 265.977C63.6849 265.857 63.3932 265.672 63.1484 265.422C62.9036 265.172 62.7135 264.846 62.5781 264.445C62.4479 264.044 62.3828 263.562 62.3828 263V257.547H63.8281V263.016C63.8281 263.396 63.8698 263.711 63.9531 263.961C64.0417 264.206 64.1589 264.401 64.3047 264.547C64.4557 264.688 64.6224 264.786 64.8047 264.844C64.9922 264.901 65.1849 264.93 65.3828 264.93C65.9974 264.93 66.4844 264.812 66.8438 264.578C67.2031 264.339 67.4609 264.018 67.6172 263.617C67.7786 263.211 67.8594 262.76 67.8594 262.266ZM72.6875 258.875V266H71.2422V257.547H72.6484L72.6875 258.875ZM75.3281 257.5L75.3203 258.844C75.2005 258.818 75.0859 258.802 74.9766 258.797C74.8724 258.786 74.7526 258.781 74.6172 258.781C74.2839 258.781 73.9896 258.833 73.7344 258.938C73.4792 259.042 73.263 259.188 73.0859 259.375C72.9089 259.562 72.7682 259.786 72.6641 260.047C72.5651 260.302 72.5 260.583 72.4688 260.891L72.0625 261.125C72.0625 260.615 72.112 260.135 72.2109 259.688C72.3151 259.24 72.474 258.844 72.6875 258.5C72.901 258.151 73.1719 257.88 73.5 257.688C73.8333 257.49 74.2292 257.391 74.6875 257.391C74.7917 257.391 74.9115 257.404 75.0469 257.43C75.1823 257.451 75.276 257.474 75.3281 257.5ZM82.0781 259.172V269.25H80.625V257.547H81.9531L82.0781 259.172ZM87.7734 261.703V261.867C87.7734 262.482 87.7005 263.052 87.5547 263.578C87.4089 264.099 87.1953 264.552 86.9141 264.938C86.638 265.323 86.2969 265.622 85.8906 265.836C85.4844 266.049 85.0182 266.156 84.4922 266.156C83.9557 266.156 83.4818 266.068 83.0703 265.891C82.6589 265.714 82.3099 265.456 82.0234 265.117C81.737 264.779 81.5078 264.372 81.3359 263.898C81.1693 263.424 81.0547 262.891 80.9922 262.297V261.422C81.0547 260.797 81.1719 260.237 81.3438 259.742C81.5156 259.247 81.7422 258.826 82.0234 258.477C82.3099 258.122 82.6562 257.854 83.0625 257.672C83.4688 257.484 83.9375 257.391 84.4688 257.391C85 257.391 85.4714 257.495 85.8828 257.703C86.2943 257.906 86.6406 258.198 86.9219 258.578C87.2031 258.958 87.4141 259.414 87.5547 259.945C87.7005 260.471 87.7734 261.057 87.7734 261.703ZM86.3203 261.867V261.703C86.3203 261.281 86.276 260.885 86.1875 260.516C86.099 260.141 85.9609 259.812 85.7734 259.531C85.5911 259.245 85.3568 259.021 85.0703 258.859C84.7839 258.693 84.4427 258.609 84.0469 258.609C83.6823 258.609 83.3646 258.672 83.0938 258.797C82.8281 258.922 82.6016 259.091 82.4141 259.305C82.2266 259.513 82.0729 259.753 81.9531 260.023C81.8385 260.289 81.7526 260.565 81.6953 260.852V262.875C81.7995 263.24 81.9453 263.583 82.1328 263.906C82.3203 264.224 82.5703 264.482 82.8828 264.68C83.1953 264.872 83.5885 264.969 84.0625 264.969C84.4531 264.969 84.7891 264.888 85.0703 264.727C85.3568 264.56 85.5911 264.333 85.7734 264.047C85.9609 263.76 86.099 263.432 86.1875 263.062C86.276 262.688 86.3203 262.289 86.3203 261.867ZM91.0625 258.875V266H89.6172V257.547H91.0234L91.0625 258.875ZM93.7031 257.5L93.6953 258.844C93.5755 258.818 93.4609 258.802 93.3516 258.797C93.2474 258.786 93.1276 258.781 92.9922 258.781C92.6589 258.781 92.3646 258.833 92.1094 258.938C91.8542 259.042 91.638 259.188 91.4609 259.375C91.2839 259.562 91.1432 259.786 91.0391 260.047C90.9401 260.302 90.875 260.583 90.8438 260.891L90.4375 261.125C90.4375 260.615 90.487 260.135 90.5859 259.688C90.6901 259.24 90.849 258.844 91.0625 258.5C91.276 258.151 91.5469 257.88 91.875 257.688C92.2083 257.49 92.6042 257.391 93.0625 257.391C93.1667 257.391 93.2865 257.404 93.4219 257.43C93.5573 257.451 93.651 257.474 93.7031 257.5ZM94.5 261.867V261.688C94.5 261.078 94.5885 260.513 94.7656 259.992C94.9427 259.466 95.1979 259.01 95.5312 258.625C95.8646 258.234 96.2682 257.932 96.7422 257.719C97.2161 257.5 97.7474 257.391 98.3359 257.391C98.9297 257.391 99.4635 257.5 99.9375 257.719C100.417 257.932 100.823 258.234 101.156 258.625C101.495 259.01 101.753 259.466 101.93 259.992C102.107 260.513 102.195 261.078 102.195 261.688V261.867C102.195 262.477 102.107 263.042 101.93 263.562C101.753 264.083 101.495 264.539 101.156 264.93C100.823 265.315 100.419 265.617 99.9453 265.836C99.4766 266.049 98.9453 266.156 98.3516 266.156C97.7578 266.156 97.224 266.049 96.75 265.836C96.276 265.617 95.8698 265.315 95.5312 264.93C95.1979 264.539 94.9427 264.083 94.7656 263.562C94.5885 263.042 94.5 262.477 94.5 261.867ZM95.9453 261.688V261.867C95.9453 262.289 95.9948 262.688 96.0938 263.062C96.1927 263.432 96.3411 263.76 96.5391 264.047C96.7422 264.333 96.9948 264.56 97.2969 264.727C97.599 264.888 97.9505 264.969 98.3516 264.969C98.7474 264.969 99.0938 264.888 99.3906 264.727C99.6927 264.56 99.9427 264.333 100.141 264.047C100.339 263.76 100.487 263.432 100.586 263.062C100.69 262.688 100.742 262.289 100.742 261.867V261.688C100.742 261.271 100.69 260.878 100.586 260.508C100.487 260.133 100.336 259.802 100.133 259.516C99.9349 259.224 99.6849 258.995 99.3828 258.828C99.0859 258.661 98.737 258.578 98.3359 258.578C97.9401 258.578 97.5911 258.661 97.2891 258.828C96.9922 258.995 96.7422 259.224 96.5391 259.516C96.3411 259.802 96.1927 260.133 96.0938 260.508C95.9948 260.878 95.9453 261.271 95.9453 261.688ZM109.484 257.547H110.797V265.82C110.797 266.565 110.646 267.201 110.344 267.727C110.042 268.253 109.62 268.651 109.078 268.922C108.542 269.198 107.922 269.336 107.219 269.336C106.927 269.336 106.583 269.289 106.188 269.195C105.797 269.107 105.411 268.953 105.031 268.734C104.656 268.521 104.341 268.232 104.086 267.867L104.844 267.008C105.198 267.435 105.568 267.732 105.953 267.898C106.344 268.065 106.729 268.148 107.109 268.148C107.568 268.148 107.964 268.062 108.297 267.891C108.63 267.719 108.888 267.464 109.07 267.125C109.258 266.792 109.352 266.38 109.352 265.891V259.406L109.484 257.547ZM103.664 261.867V261.703C103.664 261.057 103.74 260.471 103.891 259.945C104.047 259.414 104.268 258.958 104.555 258.578C104.846 258.198 105.198 257.906 105.609 257.703C106.021 257.495 106.484 257.391 107 257.391C107.531 257.391 107.995 257.484 108.391 257.672C108.792 257.854 109.13 258.122 109.406 258.477C109.688 258.826 109.909 259.247 110.07 259.742C110.232 260.237 110.344 260.797 110.406 261.422V262.141C110.349 262.76 110.237 263.318 110.07 263.812C109.909 264.307 109.688 264.729 109.406 265.078C109.13 265.427 108.792 265.695 108.391 265.883C107.99 266.065 107.521 266.156 106.984 266.156C106.479 266.156 106.021 266.049 105.609 265.836C105.203 265.622 104.854 265.323 104.562 264.938C104.271 264.552 104.047 264.099 103.891 263.578C103.74 263.052 103.664 262.482 103.664 261.867ZM105.109 261.703V261.867C105.109 262.289 105.151 262.685 105.234 263.055C105.323 263.424 105.456 263.75 105.633 264.031C105.815 264.312 106.047 264.534 106.328 264.695C106.609 264.852 106.945 264.93 107.336 264.93C107.815 264.93 108.211 264.828 108.523 264.625C108.836 264.422 109.083 264.154 109.266 263.82C109.453 263.487 109.599 263.125 109.703 262.734V260.852C109.646 260.565 109.557 260.289 109.438 260.023C109.323 259.753 109.172 259.513 108.984 259.305C108.802 259.091 108.576 258.922 108.305 258.797C108.034 258.672 107.716 258.609 107.352 258.609C106.956 258.609 106.615 258.693 106.328 258.859C106.047 259.021 105.815 259.245 105.633 259.531C105.456 259.812 105.323 260.141 105.234 260.516C105.151 260.885 105.109 261.281 105.109 261.703ZM114.438 258.875V266H112.992V257.547H114.398L114.438 258.875ZM117.078 257.5L117.07 258.844C116.951 258.818 116.836 258.802 116.727 258.797C116.622 258.786 116.503 258.781 116.367 258.781C116.034 258.781 115.74 258.833 115.484 258.938C115.229 259.042 115.013 259.188 114.836 259.375C114.659 259.562 114.518 259.786 114.414 260.047C114.315 260.302 114.25 260.583 114.219 260.891L113.812 261.125C113.812 260.615 113.862 260.135 113.961 259.688C114.065 259.24 114.224 258.844 114.438 258.5C114.651 258.151 114.922 257.88 115.25 257.688C115.583 257.49 115.979 257.391 116.438 257.391C116.542 257.391 116.661 257.404 116.797 257.43C116.932 257.451 117.026 257.474 117.078 257.5ZM121.766 266.156C121.177 266.156 120.643 266.057 120.164 265.859C119.69 265.656 119.281 265.372 118.938 265.008C118.599 264.643 118.339 264.211 118.156 263.711C117.974 263.211 117.883 262.664 117.883 262.07V261.742C117.883 261.055 117.984 260.443 118.188 259.906C118.391 259.365 118.667 258.906 119.016 258.531C119.365 258.156 119.76 257.872 120.203 257.68C120.646 257.487 121.104 257.391 121.578 257.391C122.182 257.391 122.703 257.495 123.141 257.703C123.583 257.911 123.945 258.203 124.227 258.578C124.508 258.948 124.716 259.385 124.852 259.891C124.987 260.391 125.055 260.938 125.055 261.531V262.18H118.742V261H123.609V260.891C123.589 260.516 123.51 260.151 123.375 259.797C123.245 259.443 123.036 259.151 122.75 258.922C122.464 258.693 122.073 258.578 121.578 258.578C121.25 258.578 120.948 258.648 120.672 258.789C120.396 258.924 120.159 259.128 119.961 259.398C119.763 259.669 119.609 260 119.5 260.391C119.391 260.781 119.336 261.232 119.336 261.742V262.07C119.336 262.471 119.391 262.849 119.5 263.203C119.615 263.552 119.779 263.859 119.992 264.125C120.211 264.391 120.474 264.599 120.781 264.75C121.094 264.901 121.448 264.977 121.844 264.977C122.354 264.977 122.786 264.872 123.141 264.664C123.495 264.456 123.805 264.177 124.07 263.828L124.945 264.523C124.763 264.799 124.531 265.062 124.25 265.312C123.969 265.562 123.622 265.766 123.211 265.922C122.805 266.078 122.323 266.156 121.766 266.156ZM131.664 263.758C131.664 263.549 131.617 263.357 131.523 263.18C131.435 262.997 131.25 262.833 130.969 262.688C130.693 262.536 130.276 262.406 129.719 262.297C129.25 262.198 128.826 262.081 128.445 261.945C128.07 261.81 127.75 261.646 127.484 261.453C127.224 261.26 127.023 261.034 126.883 260.773C126.742 260.513 126.672 260.208 126.672 259.859C126.672 259.526 126.745 259.211 126.891 258.914C127.042 258.617 127.253 258.354 127.523 258.125C127.799 257.896 128.13 257.716 128.516 257.586C128.901 257.456 129.331 257.391 129.805 257.391C130.482 257.391 131.06 257.51 131.539 257.75C132.018 257.99 132.385 258.31 132.641 258.711C132.896 259.107 133.023 259.547 133.023 260.031H131.578C131.578 259.797 131.508 259.57 131.367 259.352C131.232 259.128 131.031 258.943 130.766 258.797C130.505 258.651 130.185 258.578 129.805 258.578C129.404 258.578 129.078 258.641 128.828 258.766C128.583 258.885 128.404 259.039 128.289 259.227C128.18 259.414 128.125 259.612 128.125 259.82C128.125 259.977 128.151 260.117 128.203 260.242C128.26 260.362 128.359 260.474 128.5 260.578C128.641 260.677 128.839 260.771 129.094 260.859C129.349 260.948 129.674 261.036 130.07 261.125C130.763 261.281 131.333 261.469 131.781 261.688C132.229 261.906 132.562 262.174 132.781 262.492C133 262.81 133.109 263.195 133.109 263.648C133.109 264.018 133.031 264.357 132.875 264.664C132.724 264.971 132.503 265.237 132.211 265.461C131.924 265.68 131.581 265.852 131.18 265.977C130.784 266.096 130.339 266.156 129.844 266.156C129.099 266.156 128.469 266.023 127.953 265.758C127.438 265.492 127.047 265.148 126.781 264.727C126.516 264.305 126.383 263.859 126.383 263.391H127.836C127.857 263.786 127.971 264.102 128.18 264.336C128.388 264.565 128.643 264.729 128.945 264.828C129.247 264.922 129.547 264.969 129.844 264.969C130.24 264.969 130.57 264.917 130.836 264.812C131.107 264.708 131.312 264.565 131.453 264.383C131.594 264.201 131.664 263.992 131.664 263.758ZM139.93 263.758C139.93 263.549 139.883 263.357 139.789 263.18C139.701 262.997 139.516 262.833 139.234 262.688C138.958 262.536 138.542 262.406 137.984 262.297C137.516 262.198 137.091 262.081 136.711 261.945C136.336 261.81 136.016 261.646 135.75 261.453C135.49 261.26 135.289 261.034 135.148 260.773C135.008 260.513 134.938 260.208 134.938 259.859C134.938 259.526 135.01 259.211 135.156 258.914C135.307 258.617 135.518 258.354 135.789 258.125C136.065 257.896 136.396 257.716 136.781 257.586C137.167 257.456 137.596 257.391 138.07 257.391C138.747 257.391 139.326 257.51 139.805 257.75C140.284 257.99 140.651 258.31 140.906 258.711C141.161 259.107 141.289 259.547 141.289 260.031H139.844C139.844 259.797 139.773 259.57 139.633 259.352C139.497 259.128 139.297 258.943 139.031 258.797C138.771 258.651 138.451 258.578 138.07 258.578C137.669 258.578 137.344 258.641 137.094 258.766C136.849 258.885 136.669 259.039 136.555 259.227C136.445 259.414 136.391 259.612 136.391 259.82C136.391 259.977 136.417 260.117 136.469 260.242C136.526 260.362 136.625 260.474 136.766 260.578C136.906 260.677 137.104 260.771 137.359 260.859C137.615 260.948 137.94 261.036 138.336 261.125C139.029 261.281 139.599 261.469 140.047 261.688C140.495 261.906 140.828 262.174 141.047 262.492C141.266 262.81 141.375 263.195 141.375 263.648C141.375 264.018 141.297 264.357 141.141 264.664C140.99 264.971 140.768 265.237 140.477 265.461C140.19 265.68 139.846 265.852 139.445 265.977C139.049 266.096 138.604 266.156 138.109 266.156C137.365 266.156 136.734 266.023 136.219 265.758C135.703 265.492 135.312 265.148 135.047 264.727C134.781 264.305 134.648 263.859 134.648 263.391H136.102C136.122 263.786 136.237 264.102 136.445 264.336C136.654 264.565 136.909 264.729 137.211 264.828C137.513 264.922 137.812 264.969 138.109 264.969C138.505 264.969 138.836 264.917 139.102 264.812C139.372 264.708 139.578 264.565 139.719 264.383C139.859 264.201 139.93 263.992 139.93 263.758ZM152.227 264.555V260.203C152.227 259.87 152.159 259.581 152.023 259.336C151.893 259.086 151.695 258.893 151.43 258.758C151.164 258.622 150.836 258.555 150.445 258.555C150.081 258.555 149.76 258.617 149.484 258.742C149.214 258.867 149 259.031 148.844 259.234C148.693 259.438 148.617 259.656 148.617 259.891H147.172C147.172 259.589 147.25 259.289 147.406 258.992C147.562 258.695 147.786 258.427 148.078 258.188C148.375 257.943 148.729 257.75 149.141 257.609C149.557 257.464 150.021 257.391 150.531 257.391C151.146 257.391 151.688 257.495 152.156 257.703C152.63 257.911 153 258.227 153.266 258.648C153.536 259.065 153.672 259.589 153.672 260.219V264.156C153.672 264.438 153.695 264.737 153.742 265.055C153.794 265.372 153.87 265.646 153.969 265.875V266H152.461C152.388 265.833 152.331 265.612 152.289 265.336C152.247 265.055 152.227 264.794 152.227 264.555ZM152.477 260.875L152.492 261.891H151.031C150.62 261.891 150.253 261.924 149.93 261.992C149.607 262.055 149.336 262.151 149.117 262.281C148.898 262.411 148.732 262.576 148.617 262.773C148.503 262.966 148.445 263.193 148.445 263.453C148.445 263.719 148.505 263.961 148.625 264.18C148.745 264.398 148.924 264.573 149.164 264.703C149.409 264.828 149.708 264.891 150.062 264.891C150.505 264.891 150.896 264.797 151.234 264.609C151.573 264.422 151.841 264.193 152.039 263.922C152.242 263.651 152.352 263.388 152.367 263.133L152.984 263.828C152.948 264.047 152.849 264.289 152.688 264.555C152.526 264.82 152.31 265.076 152.039 265.32C151.773 265.56 151.456 265.76 151.086 265.922C150.721 266.078 150.31 266.156 149.852 266.156C149.279 266.156 148.776 266.044 148.344 265.82C147.917 265.596 147.583 265.297 147.344 264.922C147.109 264.542 146.992 264.117 146.992 263.648C146.992 263.195 147.081 262.797 147.258 262.453C147.435 262.104 147.69 261.815 148.023 261.586C148.357 261.352 148.758 261.174 149.227 261.055C149.695 260.935 150.219 260.875 150.797 260.875H152.477ZM157.391 259.352V266H155.945V257.547H157.312L157.391 259.352ZM157.047 261.453L156.445 261.43C156.451 260.852 156.536 260.318 156.703 259.828C156.87 259.333 157.104 258.904 157.406 258.539C157.708 258.174 158.068 257.893 158.484 257.695C158.906 257.492 159.372 257.391 159.883 257.391C160.299 257.391 160.674 257.448 161.008 257.562C161.341 257.672 161.625 257.849 161.859 258.094C162.099 258.339 162.281 258.656 162.406 259.047C162.531 259.432 162.594 259.904 162.594 260.461V266H161.141V260.445C161.141 260.003 161.076 259.648 160.945 259.383C160.815 259.112 160.625 258.917 160.375 258.797C160.125 258.672 159.818 258.609 159.453 258.609C159.094 258.609 158.766 258.685 158.469 258.836C158.177 258.987 157.924 259.195 157.711 259.461C157.503 259.727 157.339 260.031 157.219 260.375C157.104 260.714 157.047 261.073 157.047 261.453ZM170.117 264.359V254H171.57V266H170.242L170.117 264.359ZM164.43 261.867V261.703C164.43 261.057 164.508 260.471 164.664 259.945C164.826 259.414 165.052 258.958 165.344 258.578C165.641 258.198 165.992 257.906 166.398 257.703C166.81 257.495 167.268 257.391 167.773 257.391C168.305 257.391 168.768 257.484 169.164 257.672C169.565 257.854 169.904 258.122 170.18 258.477C170.461 258.826 170.682 259.247 170.844 259.742C171.005 260.237 171.117 260.797 171.18 261.422V262.141C171.122 262.76 171.01 263.318 170.844 263.812C170.682 264.307 170.461 264.729 170.18 265.078C169.904 265.427 169.565 265.695 169.164 265.883C168.763 266.065 168.294 266.156 167.758 266.156C167.263 266.156 166.81 266.049 166.398 265.836C165.992 265.622 165.641 265.323 165.344 264.938C165.052 264.552 164.826 264.099 164.664 263.578C164.508 263.052 164.43 262.482 164.43 261.867ZM165.883 261.703V261.867C165.883 262.289 165.924 262.685 166.008 263.055C166.096 263.424 166.232 263.75 166.414 264.031C166.596 264.312 166.828 264.534 167.109 264.695C167.391 264.852 167.727 264.93 168.117 264.93C168.596 264.93 168.99 264.828 169.297 264.625C169.609 264.422 169.859 264.154 170.047 263.82C170.234 263.487 170.38 263.125 170.484 262.734V260.852C170.422 260.565 170.331 260.289 170.211 260.023C170.096 259.753 169.945 259.513 169.758 259.305C169.576 259.091 169.349 258.922 169.078 258.797C168.812 258.672 168.497 258.609 168.133 258.609C167.737 258.609 167.396 258.693 167.109 258.859C166.828 259.021 166.596 259.245 166.414 259.531C166.232 259.812 166.096 260.141 166.008 260.516C165.924 260.885 165.883 261.281 165.883 261.703ZM182.711 263.758C182.711 263.549 182.664 263.357 182.57 263.18C182.482 262.997 182.297 262.833 182.016 262.688C181.74 262.536 181.323 262.406 180.766 262.297C180.297 262.198 179.872 262.081 179.492 261.945C179.117 261.81 178.797 261.646 178.531 261.453C178.271 261.26 178.07 261.034 177.93 260.773C177.789 260.513 177.719 260.208 177.719 259.859C177.719 259.526 177.792 259.211 177.938 258.914C178.089 258.617 178.299 258.354 178.57 258.125C178.846 257.896 179.177 257.716 179.562 257.586C179.948 257.456 180.378 257.391 180.852 257.391C181.529 257.391 182.107 257.51 182.586 257.75C183.065 257.99 183.432 258.31 183.688 258.711C183.943 259.107 184.07 259.547 184.07 260.031H182.625C182.625 259.797 182.555 259.57 182.414 259.352C182.279 259.128 182.078 258.943 181.812 258.797C181.552 258.651 181.232 258.578 180.852 258.578C180.451 258.578 180.125 258.641 179.875 258.766C179.63 258.885 179.451 259.039 179.336 259.227C179.227 259.414 179.172 259.612 179.172 259.82C179.172 259.977 179.198 260.117 179.25 260.242C179.307 260.362 179.406 260.474 179.547 260.578C179.688 260.677 179.885 260.771 180.141 260.859C180.396 260.948 180.721 261.036 181.117 261.125C181.81 261.281 182.38 261.469 182.828 261.688C183.276 261.906 183.609 262.174 183.828 262.492C184.047 262.81 184.156 263.195 184.156 263.648C184.156 264.018 184.078 264.357 183.922 264.664C183.771 264.971 183.549 265.237 183.258 265.461C182.971 265.68 182.628 265.852 182.227 265.977C181.831 266.096 181.385 266.156 180.891 266.156C180.146 266.156 179.516 266.023 179 265.758C178.484 265.492 178.094 265.148 177.828 264.727C177.562 264.305 177.43 263.859 177.43 263.391H178.883C178.904 263.786 179.018 264.102 179.227 264.336C179.435 264.565 179.69 264.729 179.992 264.828C180.294 264.922 180.594 264.969 180.891 264.969C181.286 264.969 181.617 264.917 181.883 264.812C182.154 264.708 182.359 264.565 182.5 264.383C182.641 264.201 182.711 263.992 182.711 263.758ZM189.594 257.547V258.656H185.023V257.547H189.594ZM186.57 255.492H188.016V263.906C188.016 264.193 188.06 264.409 188.148 264.555C188.237 264.701 188.352 264.797 188.492 264.844C188.633 264.891 188.784 264.914 188.945 264.914C189.065 264.914 189.19 264.904 189.32 264.883C189.456 264.857 189.557 264.836 189.625 264.82L189.633 266C189.518 266.036 189.367 266.07 189.18 266.102C188.997 266.138 188.776 266.156 188.516 266.156C188.161 266.156 187.836 266.086 187.539 265.945C187.242 265.805 187.005 265.57 186.828 265.242C186.656 264.909 186.57 264.461 186.57 263.898V255.492ZM196.273 264.555V260.203C196.273 259.87 196.206 259.581 196.07 259.336C195.94 259.086 195.742 258.893 195.477 258.758C195.211 258.622 194.883 258.555 194.492 258.555C194.128 258.555 193.807 258.617 193.531 258.742C193.26 258.867 193.047 259.031 192.891 259.234C192.74 259.438 192.664 259.656 192.664 259.891H191.219C191.219 259.589 191.297 259.289 191.453 258.992C191.609 258.695 191.833 258.427 192.125 258.188C192.422 257.943 192.776 257.75 193.188 257.609C193.604 257.464 194.068 257.391 194.578 257.391C195.193 257.391 195.734 257.495 196.203 257.703C196.677 257.911 197.047 258.227 197.312 258.648C197.583 259.065 197.719 259.589 197.719 260.219V264.156C197.719 264.438 197.742 264.737 197.789 265.055C197.841 265.372 197.917 265.646 198.016 265.875V266H196.508C196.435 265.833 196.378 265.612 196.336 265.336C196.294 265.055 196.273 264.794 196.273 264.555ZM196.523 260.875L196.539 261.891H195.078C194.667 261.891 194.299 261.924 193.977 261.992C193.654 262.055 193.383 262.151 193.164 262.281C192.945 262.411 192.779 262.576 192.664 262.773C192.549 262.966 192.492 263.193 192.492 263.453C192.492 263.719 192.552 263.961 192.672 264.18C192.792 264.398 192.971 264.573 193.211 264.703C193.456 264.828 193.755 264.891 194.109 264.891C194.552 264.891 194.943 264.797 195.281 264.609C195.62 264.422 195.888 264.193 196.086 263.922C196.289 263.651 196.398 263.388 196.414 263.133L197.031 263.828C196.995 264.047 196.896 264.289 196.734 264.555C196.573 264.82 196.357 265.076 196.086 265.32C195.82 265.56 195.503 265.76 195.133 265.922C194.768 266.078 194.357 266.156 193.898 266.156C193.326 266.156 192.823 266.044 192.391 265.82C191.964 265.596 191.63 265.297 191.391 264.922C191.156 264.542 191.039 264.117 191.039 263.648C191.039 263.195 191.128 262.797 191.305 262.453C191.482 262.104 191.737 261.815 192.07 261.586C192.404 261.352 192.805 261.174 193.273 261.055C193.742 260.935 194.266 260.875 194.844 260.875H196.523ZM202.242 265.125L204.594 257.547H206.141L202.75 267.305C202.672 267.513 202.568 267.737 202.438 267.977C202.312 268.221 202.151 268.453 201.953 268.672C201.755 268.891 201.516 269.068 201.234 269.203C200.958 269.344 200.628 269.414 200.242 269.414C200.128 269.414 199.982 269.398 199.805 269.367C199.628 269.336 199.503 269.31 199.43 269.289L199.422 268.117C199.464 268.122 199.529 268.128 199.617 268.133C199.711 268.143 199.776 268.148 199.812 268.148C200.141 268.148 200.419 268.104 200.648 268.016C200.878 267.932 201.07 267.789 201.227 267.586C201.388 267.388 201.526 267.115 201.641 266.766L202.242 265.125ZM200.516 257.547L202.711 264.109L203.086 265.633L202.047 266.164L198.938 257.547H200.516ZM211.031 261.867V261.688C211.031 261.078 211.12 260.513 211.297 259.992C211.474 259.466 211.729 259.01 212.062 258.625C212.396 258.234 212.799 257.932 213.273 257.719C213.747 257.5 214.279 257.391 214.867 257.391C215.461 257.391 215.995 257.5 216.469 257.719C216.948 257.932 217.354 258.234 217.688 258.625C218.026 259.01 218.284 259.466 218.461 259.992C218.638 260.513 218.727 261.078 218.727 261.688V261.867C218.727 262.477 218.638 263.042 218.461 263.562C218.284 264.083 218.026 264.539 217.688 264.93C217.354 265.315 216.951 265.617 216.477 265.836C216.008 266.049 215.477 266.156 214.883 266.156C214.289 266.156 213.755 266.049 213.281 265.836C212.807 265.617 212.401 265.315 212.062 264.93C211.729 264.539 211.474 264.083 211.297 263.562C211.12 263.042 211.031 262.477 211.031 261.867ZM212.477 261.688V261.867C212.477 262.289 212.526 262.688 212.625 263.062C212.724 263.432 212.872 263.76 213.07 264.047C213.273 264.333 213.526 264.56 213.828 264.727C214.13 264.888 214.482 264.969 214.883 264.969C215.279 264.969 215.625 264.888 215.922 264.727C216.224 264.56 216.474 264.333 216.672 264.047C216.87 263.76 217.018 263.432 217.117 263.062C217.221 262.688 217.273 262.289 217.273 261.867V261.688C217.273 261.271 217.221 260.878 217.117 260.508C217.018 260.133 216.867 259.802 216.664 259.516C216.466 259.224 216.216 258.995 215.914 258.828C215.617 258.661 215.268 258.578 214.867 258.578C214.471 258.578 214.122 258.661 213.82 258.828C213.523 258.995 213.273 259.224 213.07 259.516C212.872 259.802 212.724 260.133 212.625 260.508C212.526 260.878 212.477 261.271 212.477 261.688ZM221.984 259.352V266H220.539V257.547H221.906L221.984 259.352ZM221.641 261.453L221.039 261.43C221.044 260.852 221.13 260.318 221.297 259.828C221.464 259.333 221.698 258.904 222 258.539C222.302 258.174 222.661 257.893 223.078 257.695C223.5 257.492 223.966 257.391 224.477 257.391C224.893 257.391 225.268 257.448 225.602 257.562C225.935 257.672 226.219 257.849 226.453 258.094C226.693 258.339 226.875 258.656 227 259.047C227.125 259.432 227.188 259.904 227.188 260.461V266H225.734V260.445C225.734 260.003 225.669 259.648 225.539 259.383C225.409 259.112 225.219 258.917 224.969 258.797C224.719 258.672 224.411 258.609 224.047 258.609C223.688 258.609 223.359 258.685 223.062 258.836C222.771 258.987 222.518 259.195 222.305 259.461C222.096 259.727 221.932 260.031 221.812 260.375C221.698 260.714 221.641 261.073 221.641 261.453ZM236.891 257.547V258.656H232.32V257.547H236.891ZM233.867 255.492H235.312V263.906C235.312 264.193 235.357 264.409 235.445 264.555C235.534 264.701 235.648 264.797 235.789 264.844C235.93 264.891 236.081 264.914 236.242 264.914C236.362 264.914 236.487 264.904 236.617 264.883C236.753 264.857 236.854 264.836 236.922 264.82L236.93 266C236.815 266.036 236.664 266.07 236.477 266.102C236.294 266.138 236.073 266.156 235.812 266.156C235.458 266.156 235.133 266.086 234.836 265.945C234.539 265.805 234.302 265.57 234.125 265.242C233.953 264.909 233.867 264.461 233.867 263.898V255.492ZM240.031 258.875V266H238.586V257.547H239.992L240.031 258.875ZM242.672 257.5L242.664 258.844C242.544 258.818 242.43 258.802 242.32 258.797C242.216 258.786 242.096 258.781 241.961 258.781C241.628 258.781 241.333 258.833 241.078 258.938C240.823 259.042 240.607 259.188 240.43 259.375C240.253 259.562 240.112 259.786 240.008 260.047C239.909 260.302 239.844 260.583 239.812 260.891L239.406 261.125C239.406 260.615 239.456 260.135 239.555 259.688C239.659 259.24 239.818 258.844 240.031 258.5C240.245 258.151 240.516 257.88 240.844 257.688C241.177 257.49 241.573 257.391 242.031 257.391C242.135 257.391 242.255 257.404 242.391 257.43C242.526 257.451 242.62 257.474 242.672 257.5ZM248.68 264.555V260.203C248.68 259.87 248.612 259.581 248.477 259.336C248.346 259.086 248.148 258.893 247.883 258.758C247.617 258.622 247.289 258.555 246.898 258.555C246.534 258.555 246.214 258.617 245.938 258.742C245.667 258.867 245.453 259.031 245.297 259.234C245.146 259.438 245.07 259.656 245.07 259.891H243.625C243.625 259.589 243.703 259.289 243.859 258.992C244.016 258.695 244.24 258.427 244.531 258.188C244.828 257.943 245.182 257.75 245.594 257.609C246.01 257.464 246.474 257.391 246.984 257.391C247.599 257.391 248.141 257.495 248.609 257.703C249.083 257.911 249.453 258.227 249.719 258.648C249.99 259.065 250.125 259.589 250.125 260.219V264.156C250.125 264.438 250.148 264.737 250.195 265.055C250.247 265.372 250.323 265.646 250.422 265.875V266H248.914C248.841 265.833 248.784 265.612 248.742 265.336C248.701 265.055 248.68 264.794 248.68 264.555ZM248.93 260.875L248.945 261.891H247.484C247.073 261.891 246.706 261.924 246.383 261.992C246.06 262.055 245.789 262.151 245.57 262.281C245.352 262.411 245.185 262.576 245.07 262.773C244.956 262.966 244.898 263.193 244.898 263.453C244.898 263.719 244.958 263.961 245.078 264.18C245.198 264.398 245.378 264.573 245.617 264.703C245.862 264.828 246.161 264.891 246.516 264.891C246.958 264.891 247.349 264.797 247.688 264.609C248.026 264.422 248.294 264.193 248.492 263.922C248.695 263.651 248.805 263.388 248.82 263.133L249.438 263.828C249.401 264.047 249.302 264.289 249.141 264.555C248.979 264.82 248.763 265.076 248.492 265.32C248.227 265.56 247.909 265.76 247.539 265.922C247.174 266.078 246.763 266.156 246.305 266.156C245.732 266.156 245.229 266.044 244.797 265.82C244.37 265.596 244.036 265.297 243.797 264.922C243.562 264.542 243.445 264.117 243.445 263.648C243.445 263.195 243.534 262.797 243.711 262.453C243.888 262.104 244.143 261.815 244.477 261.586C244.81 261.352 245.211 261.174 245.68 261.055C246.148 260.935 246.672 260.875 247.25 260.875H248.93ZM255.781 264.969C256.125 264.969 256.443 264.898 256.734 264.758C257.026 264.617 257.266 264.424 257.453 264.18C257.641 263.93 257.747 263.646 257.773 263.328H259.148C259.122 263.828 258.953 264.294 258.641 264.727C258.333 265.154 257.93 265.5 257.43 265.766C256.93 266.026 256.38 266.156 255.781 266.156C255.146 266.156 254.591 266.044 254.117 265.82C253.648 265.596 253.258 265.289 252.945 264.898C252.638 264.508 252.406 264.06 252.25 263.555C252.099 263.044 252.023 262.505 252.023 261.938V261.609C252.023 261.042 252.099 260.505 252.25 260C252.406 259.49 252.638 259.039 252.945 258.648C253.258 258.258 253.648 257.951 254.117 257.727C254.591 257.503 255.146 257.391 255.781 257.391C256.443 257.391 257.021 257.526 257.516 257.797C258.01 258.062 258.398 258.427 258.68 258.891C258.966 259.349 259.122 259.87 259.148 260.453H257.773C257.747 260.104 257.648 259.789 257.477 259.508C257.31 259.227 257.081 259.003 256.789 258.836C256.503 258.664 256.167 258.578 255.781 258.578C255.339 258.578 254.966 258.667 254.664 258.844C254.367 259.016 254.13 259.25 253.953 259.547C253.781 259.839 253.656 260.164 253.578 260.523C253.505 260.878 253.469 261.24 253.469 261.609V261.938C253.469 262.307 253.505 262.672 253.578 263.031C253.651 263.391 253.773 263.716 253.945 264.008C254.122 264.299 254.359 264.534 254.656 264.711C254.958 264.883 255.333 264.969 255.781 264.969ZM262.227 254V266H260.773V254H262.227ZM267.391 257.547L263.703 261.492L261.641 263.633L261.523 262.094L263 260.328L265.625 257.547H267.391ZM266.07 266L263.055 261.969L263.805 260.68L267.773 266H266.07ZM276.391 257.547V258.656H271.82V257.547H276.391ZM273.367 255.492H274.812V263.906C274.812 264.193 274.857 264.409 274.945 264.555C275.034 264.701 275.148 264.797 275.289 264.844C275.43 264.891 275.581 264.914 275.742 264.914C275.862 264.914 275.987 264.904 276.117 264.883C276.253 264.857 276.354 264.836 276.422 264.82L276.43 266C276.315 266.036 276.164 266.07 275.977 266.102C275.794 266.138 275.573 266.156 275.312 266.156C274.958 266.156 274.633 266.086 274.336 265.945C274.039 265.805 273.802 265.57 273.625 265.242C273.453 264.909 273.367 264.461 273.367 263.898V255.492ZM277.547 261.867V261.688C277.547 261.078 277.635 260.513 277.812 259.992C277.99 259.466 278.245 259.01 278.578 258.625C278.911 258.234 279.315 257.932 279.789 257.719C280.263 257.5 280.794 257.391 281.383 257.391C281.977 257.391 282.51 257.5 282.984 257.719C283.464 257.932 283.87 258.234 284.203 258.625C284.542 259.01 284.799 259.466 284.977 259.992C285.154 260.513 285.242 261.078 285.242 261.688V261.867C285.242 262.477 285.154 263.042 284.977 263.562C284.799 264.083 284.542 264.539 284.203 264.93C283.87 265.315 283.466 265.617 282.992 265.836C282.523 266.049 281.992 266.156 281.398 266.156C280.805 266.156 280.271 266.049 279.797 265.836C279.323 265.617 278.917 265.315 278.578 264.93C278.245 264.539 277.99 264.083 277.812 263.562C277.635 263.042 277.547 262.477 277.547 261.867ZM278.992 261.688V261.867C278.992 262.289 279.042 262.688 279.141 263.062C279.24 263.432 279.388 263.76 279.586 264.047C279.789 264.333 280.042 264.56 280.344 264.727C280.646 264.888 280.997 264.969 281.398 264.969C281.794 264.969 282.141 264.888 282.438 264.727C282.74 264.56 282.99 264.333 283.188 264.047C283.385 263.76 283.534 263.432 283.633 263.062C283.737 262.688 283.789 262.289 283.789 261.867V261.688C283.789 261.271 283.737 260.878 283.633 260.508C283.534 260.133 283.383 259.802 283.18 259.516C282.982 259.224 282.732 258.995 282.43 258.828C282.133 258.661 281.784 258.578 281.383 258.578C280.987 258.578 280.638 258.661 280.336 258.828C280.039 258.995 279.789 259.224 279.586 259.516C279.388 259.802 279.24 260.133 279.141 260.508C279.042 260.878 278.992 261.271 278.992 261.688ZM289.195 264.5L291.367 257.547H292.32L292.133 258.93L289.922 266H288.992L289.195 264.5ZM287.734 257.547L289.586 264.578L289.719 266H288.742L286.289 257.547H287.734ZM294.398 264.523L296.164 257.547H297.602L295.148 266H294.18L294.398 264.523ZM292.531 257.547L294.656 264.383L294.898 266H293.977L291.703 258.914L291.516 257.547H292.531ZM304.07 264.555V260.203C304.07 259.87 304.003 259.581 303.867 259.336C303.737 259.086 303.539 258.893 303.273 258.758C303.008 258.622 302.68 258.555 302.289 258.555C301.924 258.555 301.604 258.617 301.328 258.742C301.057 258.867 300.844 259.031 300.688 259.234C300.536 259.438 300.461 259.656 300.461 259.891H299.016C299.016 259.589 299.094 259.289 299.25 258.992C299.406 258.695 299.63 258.427 299.922 258.188C300.219 257.943 300.573 257.75 300.984 257.609C301.401 257.464 301.865 257.391 302.375 257.391C302.99 257.391 303.531 257.495 304 257.703C304.474 257.911 304.844 258.227 305.109 258.648C305.38 259.065 305.516 259.589 305.516 260.219V264.156C305.516 264.438 305.539 264.737 305.586 265.055C305.638 265.372 305.714 265.646 305.812 265.875V266H304.305C304.232 265.833 304.174 265.612 304.133 265.336C304.091 265.055 304.07 264.794 304.07 264.555ZM304.32 260.875L304.336 261.891H302.875C302.464 261.891 302.096 261.924 301.773 261.992C301.451 262.055 301.18 262.151 300.961 262.281C300.742 262.411 300.576 262.576 300.461 262.773C300.346 262.966 300.289 263.193 300.289 263.453C300.289 263.719 300.349 263.961 300.469 264.18C300.589 264.398 300.768 264.573 301.008 264.703C301.253 264.828 301.552 264.891 301.906 264.891C302.349 264.891 302.74 264.797 303.078 264.609C303.417 264.422 303.685 264.193 303.883 263.922C304.086 263.651 304.195 263.388 304.211 263.133L304.828 263.828C304.792 264.047 304.693 264.289 304.531 264.555C304.37 264.82 304.154 265.076 303.883 265.32C303.617 265.56 303.299 265.76 302.93 265.922C302.565 266.078 302.154 266.156 301.695 266.156C301.122 266.156 300.62 266.044 300.188 265.82C299.76 265.596 299.427 265.297 299.188 264.922C298.953 264.542 298.836 264.117 298.836 263.648C298.836 263.195 298.924 262.797 299.102 262.453C299.279 262.104 299.534 261.815 299.867 261.586C300.201 261.352 300.602 261.174 301.07 261.055C301.539 260.935 302.062 260.875 302.641 260.875H304.32ZM309.234 258.875V266H307.789V257.547H309.195L309.234 258.875ZM311.875 257.5L311.867 258.844C311.747 258.818 311.633 258.802 311.523 258.797C311.419 258.786 311.299 258.781 311.164 258.781C310.831 258.781 310.536 258.833 310.281 258.938C310.026 259.042 309.81 259.188 309.633 259.375C309.456 259.562 309.315 259.786 309.211 260.047C309.112 260.302 309.047 260.583 309.016 260.891L308.609 261.125C308.609 260.615 308.659 260.135 308.758 259.688C308.862 259.24 309.021 258.844 309.234 258.5C309.448 258.151 309.719 257.88 310.047 257.688C310.38 257.49 310.776 257.391 311.234 257.391C311.339 257.391 311.458 257.404 311.594 257.43C311.729 257.451 311.823 257.474 311.875 257.5ZM318.383 264.359V254H319.836V266H318.508L318.383 264.359ZM312.695 261.867V261.703C312.695 261.057 312.773 260.471 312.93 259.945C313.091 259.414 313.318 258.958 313.609 258.578C313.906 258.198 314.258 257.906 314.664 257.703C315.076 257.495 315.534 257.391 316.039 257.391C316.57 257.391 317.034 257.484 317.43 257.672C317.831 257.854 318.169 258.122 318.445 258.477C318.727 258.826 318.948 259.247 319.109 259.742C319.271 260.237 319.383 260.797 319.445 261.422V262.141C319.388 262.76 319.276 263.318 319.109 263.812C318.948 264.307 318.727 264.729 318.445 265.078C318.169 265.427 317.831 265.695 317.43 265.883C317.029 266.065 316.56 266.156 316.023 266.156C315.529 266.156 315.076 266.049 314.664 265.836C314.258 265.622 313.906 265.323 313.609 264.938C313.318 264.552 313.091 264.099 312.93 263.578C312.773 263.052 312.695 262.482 312.695 261.867ZM314.148 261.703V261.867C314.148 262.289 314.19 262.685 314.273 263.055C314.362 263.424 314.497 263.75 314.68 264.031C314.862 264.312 315.094 264.534 315.375 264.695C315.656 264.852 315.992 264.93 316.383 264.93C316.862 264.93 317.255 264.828 317.562 264.625C317.875 264.422 318.125 264.154 318.312 263.82C318.5 263.487 318.646 263.125 318.75 262.734V260.852C318.688 260.565 318.596 260.289 318.477 260.023C318.362 259.753 318.211 259.513 318.023 259.305C317.841 259.091 317.615 258.922 317.344 258.797C317.078 258.672 316.763 258.609 316.398 258.609C316.003 258.609 315.661 258.693 315.375 258.859C315.094 259.021 314.862 259.245 314.68 259.531C314.497 259.812 314.362 260.141 314.273 260.516C314.19 260.885 314.148 261.281 314.148 261.703ZM327.008 263.758C327.008 263.549 326.961 263.357 326.867 263.18C326.779 262.997 326.594 262.833 326.312 262.688C326.036 262.536 325.62 262.406 325.062 262.297C324.594 262.198 324.169 262.081 323.789 261.945C323.414 261.81 323.094 261.646 322.828 261.453C322.568 261.26 322.367 261.034 322.227 260.773C322.086 260.513 322.016 260.208 322.016 259.859C322.016 259.526 322.089 259.211 322.234 258.914C322.385 258.617 322.596 258.354 322.867 258.125C323.143 257.896 323.474 257.716 323.859 257.586C324.245 257.456 324.674 257.391 325.148 257.391C325.826 257.391 326.404 257.51 326.883 257.75C327.362 257.99 327.729 258.31 327.984 258.711C328.24 259.107 328.367 259.547 328.367 260.031H326.922C326.922 259.797 326.852 259.57 326.711 259.352C326.576 259.128 326.375 258.943 326.109 258.797C325.849 258.651 325.529 258.578 325.148 258.578C324.747 258.578 324.422 258.641 324.172 258.766C323.927 258.885 323.747 259.039 323.633 259.227C323.523 259.414 323.469 259.612 323.469 259.82C323.469 259.977 323.495 260.117 323.547 260.242C323.604 260.362 323.703 260.474 323.844 260.578C323.984 260.677 324.182 260.771 324.438 260.859C324.693 260.948 325.018 261.036 325.414 261.125C326.107 261.281 326.677 261.469 327.125 261.688C327.573 261.906 327.906 262.174 328.125 262.492C328.344 262.81 328.453 263.195 328.453 263.648C328.453 264.018 328.375 264.357 328.219 264.664C328.068 264.971 327.846 265.237 327.555 265.461C327.268 265.68 326.924 265.852 326.523 265.977C326.128 266.096 325.682 266.156 325.188 266.156C324.443 266.156 323.812 266.023 323.297 265.758C322.781 265.492 322.391 265.148 322.125 264.727C321.859 264.305 321.727 263.859 321.727 263.391H323.18C323.201 263.786 323.315 264.102 323.523 264.336C323.732 264.565 323.987 264.729 324.289 264.828C324.591 264.922 324.891 264.969 325.188 264.969C325.583 264.969 325.914 264.917 326.18 264.812C326.451 264.708 326.656 264.565 326.797 264.383C326.938 264.201 327.008 263.992 327.008 263.758ZM336.695 265.125L339.047 257.547H340.594L337.203 267.305C337.125 267.513 337.021 267.737 336.891 267.977C336.766 268.221 336.604 268.453 336.406 268.672C336.208 268.891 335.969 269.068 335.688 269.203C335.411 269.344 335.081 269.414 334.695 269.414C334.581 269.414 334.435 269.398 334.258 269.367C334.081 269.336 333.956 269.31 333.883 269.289L333.875 268.117C333.917 268.122 333.982 268.128 334.07 268.133C334.164 268.143 334.229 268.148 334.266 268.148C334.594 268.148 334.872 268.104 335.102 268.016C335.331 267.932 335.523 267.789 335.68 267.586C335.841 267.388 335.979 267.115 336.094 266.766L336.695 265.125ZM334.969 257.547L337.164 264.109L337.539 265.633L336.5 266.164L333.391 257.547H334.969ZM341.391 261.867V261.688C341.391 261.078 341.479 260.513 341.656 259.992C341.833 259.466 342.089 259.01 342.422 258.625C342.755 258.234 343.159 257.932 343.633 257.719C344.107 257.5 344.638 257.391 345.227 257.391C345.82 257.391 346.354 257.5 346.828 257.719C347.307 257.932 347.714 258.234 348.047 258.625C348.385 259.01 348.643 259.466 348.82 259.992C348.997 260.513 349.086 261.078 349.086 261.688V261.867C349.086 262.477 348.997 263.042 348.82 263.562C348.643 264.083 348.385 264.539 348.047 264.93C347.714 265.315 347.31 265.617 346.836 265.836C346.367 266.049 345.836 266.156 345.242 266.156C344.648 266.156 344.115 266.049 343.641 265.836C343.167 265.617 342.76 265.315 342.422 264.93C342.089 264.539 341.833 264.083 341.656 263.562C341.479 263.042 341.391 262.477 341.391 261.867ZM342.836 261.688V261.867C342.836 262.289 342.885 262.688 342.984 263.062C343.083 263.432 343.232 263.76 343.43 264.047C343.633 264.333 343.885 264.56 344.188 264.727C344.49 264.888 344.841 264.969 345.242 264.969C345.638 264.969 345.984 264.888 346.281 264.727C346.583 264.56 346.833 264.333 347.031 264.047C347.229 263.76 347.378 263.432 347.477 263.062C347.581 262.688 347.633 262.289 347.633 261.867V261.688C347.633 261.271 347.581 260.878 347.477 260.508C347.378 260.133 347.227 259.802 347.023 259.516C346.826 259.224 346.576 258.995 346.273 258.828C345.977 258.661 345.628 258.578 345.227 258.578C344.831 258.578 344.482 258.661 344.18 258.828C343.883 258.995 343.633 259.224 343.43 259.516C343.232 259.802 343.083 260.133 342.984 260.508C342.885 260.878 342.836 261.271 342.836 261.688ZM356.07 264.047V257.547H357.523V266H356.141L356.07 264.047ZM356.344 262.266L356.945 262.25C356.945 262.812 356.885 263.333 356.766 263.812C356.651 264.286 356.464 264.698 356.203 265.047C355.943 265.396 355.602 265.669 355.18 265.867C354.758 266.06 354.245 266.156 353.641 266.156C353.229 266.156 352.852 266.096 352.508 265.977C352.169 265.857 351.878 265.672 351.633 265.422C351.388 265.172 351.198 264.846 351.062 264.445C350.932 264.044 350.867 263.562 350.867 263V257.547H352.312V263.016C352.312 263.396 352.354 263.711 352.438 263.961C352.526 264.206 352.643 264.401 352.789 264.547C352.94 264.688 353.107 264.786 353.289 264.844C353.477 264.901 353.669 264.93 353.867 264.93C354.482 264.93 354.969 264.812 355.328 264.578C355.688 264.339 355.945 264.018 356.102 263.617C356.263 263.211 356.344 262.76 356.344 262.266ZM361.172 258.875V266H359.727V257.547H361.133L361.172 258.875ZM363.812 257.5L363.805 258.844C363.685 258.818 363.57 258.802 363.461 258.797C363.357 258.786 363.237 258.781 363.102 258.781C362.768 258.781 362.474 258.833 362.219 258.938C361.964 259.042 361.747 259.188 361.57 259.375C361.393 259.562 361.253 259.786 361.148 260.047C361.049 260.302 360.984 260.583 360.953 260.891L360.547 261.125C360.547 260.615 360.596 260.135 360.695 259.688C360.799 259.24 360.958 258.844 361.172 258.5C361.385 258.151 361.656 257.88 361.984 257.688C362.318 257.49 362.714 257.391 363.172 257.391C363.276 257.391 363.396 257.404 363.531 257.43C363.667 257.451 363.76 257.474 363.812 257.5ZM374.594 257.547H375.906V265.82C375.906 266.565 375.755 267.201 375.453 267.727C375.151 268.253 374.729 268.651 374.188 268.922C373.651 269.198 373.031 269.336 372.328 269.336C372.036 269.336 371.693 269.289 371.297 269.195C370.906 269.107 370.521 268.953 370.141 268.734C369.766 268.521 369.451 268.232 369.195 267.867L369.953 267.008C370.307 267.435 370.677 267.732 371.062 267.898C371.453 268.065 371.839 268.148 372.219 268.148C372.677 268.148 373.073 268.062 373.406 267.891C373.74 267.719 373.997 267.464 374.18 267.125C374.367 266.792 374.461 266.38 374.461 265.891V259.406L374.594 257.547ZM368.773 261.867V261.703C368.773 261.057 368.849 260.471 369 259.945C369.156 259.414 369.378 258.958 369.664 258.578C369.956 258.198 370.307 257.906 370.719 257.703C371.13 257.495 371.594 257.391 372.109 257.391C372.641 257.391 373.104 257.484 373.5 257.672C373.901 257.854 374.24 258.122 374.516 258.477C374.797 258.826 375.018 259.247 375.18 259.742C375.341 260.237 375.453 260.797 375.516 261.422V262.141C375.458 262.76 375.346 263.318 375.18 263.812C375.018 264.307 374.797 264.729 374.516 265.078C374.24 265.427 373.901 265.695 373.5 265.883C373.099 266.065 372.63 266.156 372.094 266.156C371.589 266.156 371.13 266.049 370.719 265.836C370.312 265.622 369.964 265.323 369.672 264.938C369.38 264.552 369.156 264.099 369 263.578C368.849 263.052 368.773 262.482 368.773 261.867ZM370.219 261.703V261.867C370.219 262.289 370.26 262.685 370.344 263.055C370.432 263.424 370.565 263.75 370.742 264.031C370.924 264.312 371.156 264.534 371.438 264.695C371.719 264.852 372.055 264.93 372.445 264.93C372.924 264.93 373.32 264.828 373.633 264.625C373.945 264.422 374.193 264.154 374.375 263.82C374.562 263.487 374.708 263.125 374.812 262.734V260.852C374.755 260.565 374.667 260.289 374.547 260.023C374.432 259.753 374.281 259.513 374.094 259.305C373.911 259.091 373.685 258.922 373.414 258.797C373.143 258.672 372.826 258.609 372.461 258.609C372.065 258.609 371.724 258.693 371.438 258.859C371.156 259.021 370.924 259.245 370.742 259.531C370.565 259.812 370.432 260.141 370.344 260.516C370.26 260.885 370.219 261.281 370.219 261.703ZM377.719 261.867V261.688C377.719 261.078 377.807 260.513 377.984 259.992C378.161 259.466 378.417 259.01 378.75 258.625C379.083 258.234 379.487 257.932 379.961 257.719C380.435 257.5 380.966 257.391 381.555 257.391C382.148 257.391 382.682 257.5 383.156 257.719C383.635 257.932 384.042 258.234 384.375 258.625C384.714 259.01 384.971 259.466 385.148 259.992C385.326 260.513 385.414 261.078 385.414 261.688V261.867C385.414 262.477 385.326 263.042 385.148 263.562C384.971 264.083 384.714 264.539 384.375 264.93C384.042 265.315 383.638 265.617 383.164 265.836C382.695 266.049 382.164 266.156 381.57 266.156C380.977 266.156 380.443 266.049 379.969 265.836C379.495 265.617 379.089 265.315 378.75 264.93C378.417 264.539 378.161 264.083 377.984 263.562C377.807 263.042 377.719 262.477 377.719 261.867ZM379.164 261.688V261.867C379.164 262.289 379.214 262.688 379.312 263.062C379.411 263.432 379.56 263.76 379.758 264.047C379.961 264.333 380.214 264.56 380.516 264.727C380.818 264.888 381.169 264.969 381.57 264.969C381.966 264.969 382.312 264.888 382.609 264.727C382.911 264.56 383.161 264.333 383.359 264.047C383.557 263.76 383.706 263.432 383.805 263.062C383.909 262.688 383.961 262.289 383.961 261.867V261.688C383.961 261.271 383.909 260.878 383.805 260.508C383.706 260.133 383.555 259.802 383.352 259.516C383.154 259.224 382.904 258.995 382.602 258.828C382.305 258.661 381.956 258.578 381.555 258.578C381.159 258.578 380.81 258.661 380.508 258.828C380.211 258.995 379.961 259.224 379.758 259.516C379.56 259.802 379.411 260.133 379.312 260.508C379.214 260.878 379.164 261.271 379.164 261.688ZM392.211 264.555V260.203C392.211 259.87 392.143 259.581 392.008 259.336C391.878 259.086 391.68 258.893 391.414 258.758C391.148 258.622 390.82 258.555 390.43 258.555C390.065 258.555 389.745 258.617 389.469 258.742C389.198 258.867 388.984 259.031 388.828 259.234C388.677 259.438 388.602 259.656 388.602 259.891H387.156C387.156 259.589 387.234 259.289 387.391 258.992C387.547 258.695 387.771 258.427 388.062 258.188C388.359 257.943 388.714 257.75 389.125 257.609C389.542 257.464 390.005 257.391 390.516 257.391C391.13 257.391 391.672 257.495 392.141 257.703C392.615 257.911 392.984 258.227 393.25 258.648C393.521 259.065 393.656 259.589 393.656 260.219V264.156C393.656 264.438 393.68 264.737 393.727 265.055C393.779 265.372 393.854 265.646 393.953 265.875V266H392.445C392.372 265.833 392.315 265.612 392.273 265.336C392.232 265.055 392.211 264.794 392.211 264.555ZM392.461 260.875L392.477 261.891H391.016C390.604 261.891 390.237 261.924 389.914 261.992C389.591 262.055 389.32 262.151 389.102 262.281C388.883 262.411 388.716 262.576 388.602 262.773C388.487 262.966 388.43 263.193 388.43 263.453C388.43 263.719 388.49 263.961 388.609 264.18C388.729 264.398 388.909 264.573 389.148 264.703C389.393 264.828 389.693 264.891 390.047 264.891C390.49 264.891 390.88 264.797 391.219 264.609C391.557 264.422 391.826 264.193 392.023 263.922C392.227 263.651 392.336 263.388 392.352 263.133L392.969 263.828C392.932 264.047 392.833 264.289 392.672 264.555C392.51 264.82 392.294 265.076 392.023 265.32C391.758 265.56 391.44 265.76 391.07 265.922C390.706 266.078 390.294 266.156 389.836 266.156C389.263 266.156 388.76 266.044 388.328 265.82C387.901 265.596 387.568 265.297 387.328 264.922C387.094 264.542 386.977 264.117 386.977 263.648C386.977 263.195 387.065 262.797 387.242 262.453C387.419 262.104 387.674 261.815 388.008 261.586C388.341 261.352 388.742 261.174 389.211 261.055C389.68 260.935 390.203 260.875 390.781 260.875H392.461ZM397.5 254V266H396.047V254H397.5ZM404.742 263.758C404.742 263.549 404.695 263.357 404.602 263.18C404.513 262.997 404.328 262.833 404.047 262.688C403.771 262.536 403.354 262.406 402.797 262.297C402.328 262.198 401.904 262.081 401.523 261.945C401.148 261.81 400.828 261.646 400.562 261.453C400.302 261.26 400.102 261.034 399.961 260.773C399.82 260.513 399.75 260.208 399.75 259.859C399.75 259.526 399.823 259.211 399.969 258.914C400.12 258.617 400.331 258.354 400.602 258.125C400.878 257.896 401.208 257.716 401.594 257.586C401.979 257.456 402.409 257.391 402.883 257.391C403.56 257.391 404.138 257.51 404.617 257.75C405.096 257.99 405.464 258.31 405.719 258.711C405.974 259.107 406.102 259.547 406.102 260.031H404.656C404.656 259.797 404.586 259.57 404.445 259.352C404.31 259.128 404.109 258.943 403.844 258.797C403.583 258.651 403.263 258.578 402.883 258.578C402.482 258.578 402.156 258.641 401.906 258.766C401.661 258.885 401.482 259.039 401.367 259.227C401.258 259.414 401.203 259.612 401.203 259.82C401.203 259.977 401.229 260.117 401.281 260.242C401.339 260.362 401.438 260.474 401.578 260.578C401.719 260.677 401.917 260.771 402.172 260.859C402.427 260.948 402.753 261.036 403.148 261.125C403.841 261.281 404.411 261.469 404.859 261.688C405.307 261.906 405.641 262.174 405.859 262.492C406.078 262.81 406.188 263.195 406.188 263.648C406.188 264.018 406.109 264.357 405.953 264.664C405.802 264.971 405.581 265.237 405.289 265.461C405.003 265.68 404.659 265.852 404.258 265.977C403.862 266.096 403.417 266.156 402.922 266.156C402.177 266.156 401.547 266.023 401.031 265.758C400.516 265.492 400.125 265.148 399.859 264.727C399.594 264.305 399.461 263.859 399.461 263.391H400.914C400.935 263.786 401.049 264.102 401.258 264.336C401.466 264.565 401.721 264.729 402.023 264.828C402.326 264.922 402.625 264.969 402.922 264.969C403.318 264.969 403.648 264.917 403.914 264.812C404.185 264.708 404.391 264.565 404.531 264.383C404.672 264.201 404.742 263.992 404.742 263.758ZM408.109 265.234C408.109 264.99 408.185 264.784 408.336 264.617C408.492 264.445 408.716 264.359 409.008 264.359C409.299 264.359 409.521 264.445 409.672 264.617C409.828 264.784 409.906 264.99 409.906 265.234C409.906 265.474 409.828 265.677 409.672 265.844C409.521 266.01 409.299 266.094 409.008 266.094C408.716 266.094 408.492 266.01 408.336 265.844C408.185 265.677 408.109 265.474 408.109 265.234Z" fill="#343435"/>
<defs>
<clipPath id="clip0_71_2454">
<rect width="122" height="88" fill="white" transform="translate(145.5 53)"/>
</clipPath>
</defs>
</svg>
