<svg width="16" height="16" viewBox="0 0 16 16" fill="none" xmlns="http://www.w3.org/2000/svg">
<path d="M9.66667 12.0002C9.2 12.0002 8.80556 11.8391 8.48333 11.5168C8.16111 11.1946 8 10.8002 8 10.3335C8 9.86683 8.16111 9.47238 8.48333 9.15016C8.80556 8.82794 9.2 8.66683 9.66667 8.66683C10.1333 8.66683 10.5278 8.82794 10.85 9.15016C11.1722 9.47238 11.3333 9.86683 11.3333 10.3335C11.3333 10.8002 11.1722 11.1946 10.85 11.5168C10.5278 11.8391 10.1333 12.0002 9.66667 12.0002ZM3.33333 14.6668C2.96667 14.6668 2.65278 14.5363 2.39167 14.2752C2.13056 14.0141 2 13.7002 2 13.3335V4.00016C2 3.6335 2.13056 3.31961 2.39167 3.0585C2.65278 2.79738 2.96667 2.66683 3.33333 2.66683H4V1.3335H5.33333V2.66683H10.6667V1.3335H12V2.66683H12.6667C13.0333 2.66683 13.3472 2.79738 13.6083 3.0585C13.8694 3.31961 14 3.6335 14 4.00016V13.3335C14 13.7002 13.8694 14.0141 13.6083 14.2752C13.3472 14.5363 13.0333 14.6668 12.6667 14.6668H3.33333ZM3.33333 13.3335H12.6667V6.66683H3.33333V13.3335Z" fill="#B2B2B3"/>
</svg>
