<svg width="25" height="25" viewBox="0 0 25 25" fill="none" xmlns="http://www.w3.org/2000/svg">
<path d="M12.5 2.75C10.5716 2.75 8.68657 3.32183 7.08319 4.39317C5.47982 5.46451 4.23013 6.98726 3.49218 8.76884C2.75422 10.5504 2.56114 12.5108 2.93735 14.4021C3.31355 16.2934 4.24215 18.0307 5.60571 19.3943C6.96928 20.7579 8.70656 21.6865 10.5979 22.0627C12.4892 22.4389 14.4496 22.2458 16.2312 21.5078C18.0127 20.7699 19.5355 19.5202 20.6068 17.9168C21.6782 16.3134 22.25 14.4284 22.25 12.5C22.2473 9.91498 21.2192 7.43661 19.3913 5.60872C17.5634 3.78084 15.085 2.75273 12.5 2.75ZM16.0306 14.9694C16.1003 15.0391 16.1556 15.1218 16.1933 15.2128C16.231 15.3039 16.2504 15.4015 16.2504 15.5C16.2504 15.5985 16.231 15.6961 16.1933 15.7872C16.1556 15.8782 16.1003 15.9609 16.0306 16.0306C15.9609 16.1003 15.8782 16.1556 15.7872 16.1933C15.6961 16.231 15.5986 16.2504 15.5 16.2504C15.4015 16.2504 15.3039 16.231 15.2128 16.1933C15.1218 16.1556 15.0391 16.1003 14.9694 16.0306L12.5 13.5603L10.0306 16.0306C9.96095 16.1003 9.87822 16.1556 9.78718 16.1933C9.69613 16.231 9.59855 16.2504 9.5 16.2504C9.40146 16.2504 9.30388 16.231 9.21283 16.1933C9.12179 16.1556 9.03906 16.1003 8.96938 16.0306C8.8997 15.9609 8.84442 15.8782 8.80671 15.7872C8.769 15.6961 8.74959 15.5985 8.74959 15.5C8.74959 15.4015 8.769 15.3039 8.80671 15.2128C8.84442 15.1218 8.8997 15.0391 8.96938 14.9694L11.4397 12.5L8.96938 10.0306C8.82865 9.88989 8.74959 9.69902 8.74959 9.5C8.74959 9.30098 8.82865 9.11011 8.96938 8.96937C9.11011 8.82864 9.30098 8.74958 9.5 8.74958C9.69903 8.74958 9.8899 8.82864 10.0306 8.96937L12.5 11.4397L14.9694 8.96937C15.0391 8.89969 15.1218 8.84442 15.2128 8.8067C15.3039 8.76899 15.4015 8.74958 15.5 8.74958C15.5986 8.74958 15.6961 8.76899 15.7872 8.8067C15.8782 8.84442 15.9609 8.89969 16.0306 8.96937C16.1003 9.03906 16.1556 9.12178 16.1933 9.21283C16.231 9.30387 16.2504 9.40145 16.2504 9.5C16.2504 9.59855 16.231 9.69613 16.1933 9.78717C16.1556 9.87822 16.1003 9.96094 16.0306 10.0306L13.5603 12.5L16.0306 14.9694Z" fill="#E03E2D"/>
</svg>
