<svg width="308" height="603" viewBox="0 0 308 603" fill="none" xmlns="http://www.w3.org/2000/svg">
<g filter="url(#filter0_d_72_2277)">
<rect x="10" y="6" width="288" height="583" rx="8" fill="white" shape-rendering="crispEdges"/>
<circle cx="154" cy="247" r="74" fill="#E9ECEB"/>
<g clip-path="url(#clip0_72_2277)">
<path d="M178.411 281.741H128.862C128.532 281.74 128.215 281.606 127.982 281.366C127.748 281.127 127.617 280.803 127.616 280.464V219.642C127.617 219.303 127.748 218.979 127.982 218.74C128.215 218.5 128.532 218.366 128.862 218.365H178.411C178.741 218.366 179.058 218.5 179.291 218.74C179.525 218.979 179.656 219.303 179.657 219.642V280.464C179.656 280.803 179.525 281.127 179.291 281.366C179.058 281.606 178.741 281.74 178.411 281.741Z" fill="white"/>
<path d="M155.616 215.362H124.758C124.097 215.363 123.464 215.633 122.997 216.111C122.529 216.59 122.267 217.239 122.266 217.915V279.158L122.559 279.067V217.915C122.56 217.318 122.791 216.746 123.204 216.323C123.616 215.901 124.175 215.663 124.758 215.663H155.707L155.616 215.362ZM182.516 215.362H124.758C124.097 215.363 123.464 215.633 122.997 216.111C122.529 216.59 122.267 217.239 122.266 217.915V286.697C122.267 287.374 122.529 288.023 122.997 288.502C123.464 288.98 124.097 289.249 124.758 289.25H182.516C183.176 289.249 183.81 288.98 184.277 288.502C184.744 288.023 185.007 287.374 185.008 286.697V217.915C185.007 217.239 184.744 216.59 184.277 216.111C183.81 215.633 183.176 215.363 182.516 215.362ZM184.714 286.697C184.714 287.295 184.482 287.867 184.07 288.289C183.657 288.712 183.098 288.949 182.516 288.95H124.758C124.175 288.949 123.616 288.712 123.204 288.289C122.791 287.867 122.56 287.295 122.559 286.697V217.915C122.56 217.318 122.791 216.746 123.204 216.323C123.616 215.901 124.175 215.663 124.758 215.663H182.516C183.098 215.663 183.657 215.901 184.07 216.323C184.482 216.746 184.714 217.318 184.714 217.915V286.697Z" fill="#3F3D56"/>
<path d="M167.124 221.97H140.15C139.801 221.97 139.465 221.827 139.218 221.574C138.971 221.321 138.831 220.977 138.831 220.619V214.011C138.831 213.652 138.971 213.309 139.218 213.056C139.465 212.802 139.801 212.66 140.15 212.659H167.124C167.473 212.66 167.809 212.802 168.056 213.056C168.303 213.309 168.443 213.652 168.443 214.011V220.619C168.443 220.977 168.303 221.321 168.056 221.574C167.809 221.827 167.473 221.97 167.124 221.97Z" fill="#8E8E92"/>
<path d="M153.637 213.11C155.256 213.11 156.569 211.765 156.569 210.106C156.569 208.447 155.256 207.103 153.637 207.103C152.018 207.103 150.705 208.447 150.705 210.106C150.705 211.765 152.018 213.11 153.637 213.11Z" fill="#8E8E92"/>
<path d="M153.637 211.935C154.623 211.935 155.423 211.116 155.423 210.106C155.423 209.095 154.623 208.276 153.637 208.276C152.651 208.276 151.851 209.095 151.851 210.106C151.851 211.116 152.651 211.935 153.637 211.935Z" fill="white"/>
</g>
<path d="M54.3418 340.781V355H51.4121L45.6992 345.469V355H42.7695V340.781H45.6992L51.4219 350.322V340.781H54.3418ZM56.2656 349.824V349.619C56.2656 348.844 56.3763 348.132 56.5977 347.48C56.819 346.823 57.1413 346.253 57.5645 345.771C57.9876 345.29 58.5085 344.915 59.127 344.648C59.7454 344.375 60.4551 344.238 61.2559 344.238C62.0566 344.238 62.7695 344.375 63.3945 344.648C64.0195 344.915 64.5436 345.29 64.9668 345.771C65.3965 346.253 65.722 346.823 65.9434 347.48C66.1647 348.132 66.2754 348.844 66.2754 349.619V349.824C66.2754 350.592 66.1647 351.305 65.9434 351.963C65.722 352.614 65.3965 353.184 64.9668 353.672C64.5436 354.154 64.0228 354.528 63.4043 354.795C62.7858 355.062 62.0762 355.195 61.2754 355.195C60.4746 355.195 59.7617 355.062 59.1367 354.795C58.5182 354.528 57.9941 354.154 57.5645 353.672C57.1413 353.184 56.819 352.614 56.5977 351.963C56.3763 351.305 56.2656 350.592 56.2656 349.824ZM59.0781 349.619V349.824C59.0781 350.267 59.1172 350.68 59.1953 351.064C59.2734 351.449 59.3971 351.787 59.5664 352.08C59.7422 352.367 59.9701 352.591 60.25 352.754C60.5299 352.917 60.8717 352.998 61.2754 352.998C61.666 352.998 62.0013 352.917 62.2812 352.754C62.5612 352.591 62.7858 352.367 62.9551 352.08C63.1243 351.787 63.248 351.449 63.3262 351.064C63.4108 350.68 63.4531 350.267 63.4531 349.824V349.619C63.4531 349.189 63.4108 348.786 63.3262 348.408C63.248 348.024 63.1211 347.686 62.9453 347.393C62.776 347.093 62.5514 346.859 62.2715 346.689C61.9915 346.52 61.653 346.436 61.2559 346.436C60.8587 346.436 60.5202 346.52 60.2402 346.689C59.9668 346.859 59.7422 347.093 59.5664 347.393C59.3971 347.686 59.2734 348.024 59.1953 348.408C59.1172 348.786 59.0781 349.189 59.0781 349.619ZM80.5625 351.279C80.5625 351.025 80.5234 350.798 80.4453 350.596C80.3737 350.387 80.237 350.199 80.0352 350.029C79.8333 349.854 79.5501 349.681 79.1855 349.512C78.821 349.342 78.349 349.167 77.7695 348.984C77.125 348.776 76.513 348.542 75.9336 348.281C75.3607 348.021 74.8529 347.718 74.4102 347.373C73.974 347.021 73.6289 346.615 73.375 346.152C73.1276 345.69 73.0039 345.153 73.0039 344.541C73.0039 343.949 73.1341 343.411 73.3945 342.93C73.6549 342.441 74.0195 342.025 74.4883 341.68C74.957 341.328 75.5104 341.058 76.1484 340.869C76.793 340.68 77.4993 340.586 78.2676 340.586C79.3158 340.586 80.2305 340.775 81.0117 341.152C81.793 341.53 82.3984 342.048 82.8281 342.705C83.2643 343.363 83.4824 344.115 83.4824 344.961H80.5723C80.5723 344.544 80.4844 344.18 80.3086 343.867C80.1393 343.548 79.8789 343.298 79.5273 343.115C79.1823 342.933 78.7461 342.842 78.2188 342.842C77.7109 342.842 77.2878 342.92 76.9492 343.076C76.6107 343.226 76.3568 343.431 76.1875 343.691C76.0182 343.945 75.9336 344.232 75.9336 344.551C75.9336 344.792 75.9922 345.01 76.1094 345.205C76.2331 345.4 76.4154 345.583 76.6562 345.752C76.8971 345.921 77.1934 346.081 77.5449 346.23C77.8965 346.38 78.3034 346.527 78.7656 346.67C79.5404 346.904 80.2207 347.168 80.8066 347.461C81.3991 347.754 81.8939 348.083 82.291 348.447C82.6882 348.812 82.9876 349.225 83.1895 349.688C83.3913 350.15 83.4922 350.674 83.4922 351.26C83.4922 351.878 83.3717 352.432 83.1309 352.92C82.89 353.408 82.5417 353.822 82.0859 354.16C81.6302 354.499 81.0866 354.756 80.4551 354.932C79.8236 355.107 79.1172 355.195 78.3359 355.195C77.6328 355.195 76.9395 355.104 76.2559 354.922C75.5723 354.733 74.9505 354.45 74.3906 354.072C73.8372 353.695 73.3945 353.213 73.0625 352.627C72.7305 352.041 72.5645 351.348 72.5645 350.547H75.5039C75.5039 350.99 75.5723 351.364 75.709 351.67C75.8457 351.976 76.0378 352.223 76.2852 352.412C76.5391 352.601 76.8385 352.738 77.1836 352.822C77.5352 352.907 77.9193 352.949 78.3359 352.949C78.8438 352.949 79.2604 352.878 79.5859 352.734C79.918 352.591 80.1621 352.393 80.3184 352.139C80.4811 351.885 80.5625 351.598 80.5625 351.279ZM88.1211 339.99V355H85.3086V339.99H88.1211ZM94.7812 344.434L90.1914 349.668L87.7305 352.158L86.7051 350.127L88.6582 347.646L91.4023 344.434H94.7812ZM91.8613 355L88.7363 350.117L90.6797 348.418L95.1035 355H91.8613ZM98.9609 344.434V355H96.1387V344.434H98.9609ZM95.9629 341.68C95.9629 341.27 96.1061 340.931 96.3926 340.664C96.679 340.397 97.0632 340.264 97.5449 340.264C98.0202 340.264 98.401 340.397 98.6875 340.664C98.9805 340.931 99.127 341.27 99.127 341.68C99.127 342.09 98.9805 342.428 98.6875 342.695C98.401 342.962 98.0202 343.096 97.5449 343.096C97.0632 343.096 96.679 342.962 96.3926 342.695C96.1061 342.428 95.9629 342.09 95.9629 341.68ZM104.254 340V355H101.432V340H104.254ZM109.547 340V355H106.725V340H109.547ZM122.555 352.617V347.91C122.555 347.572 122.499 347.282 122.389 347.041C122.278 346.794 122.105 346.602 121.871 346.465C121.643 346.328 121.347 346.26 120.982 346.26C120.67 346.26 120.4 346.315 120.172 346.426C119.944 346.53 119.768 346.683 119.645 346.885C119.521 347.08 119.459 347.311 119.459 347.578H116.646C116.646 347.129 116.751 346.702 116.959 346.299C117.167 345.895 117.47 345.54 117.867 345.234C118.264 344.922 118.736 344.678 119.283 344.502C119.837 344.326 120.455 344.238 121.139 344.238C121.959 344.238 122.688 344.375 123.326 344.648C123.964 344.922 124.465 345.332 124.83 345.879C125.201 346.426 125.387 347.109 125.387 347.93V352.451C125.387 353.031 125.423 353.506 125.494 353.877C125.566 354.242 125.67 354.561 125.807 354.834V355H122.965C122.828 354.714 122.724 354.355 122.652 353.926C122.587 353.49 122.555 353.053 122.555 352.617ZM122.926 348.564L122.945 350.156H121.373C121.002 350.156 120.68 350.199 120.406 350.283C120.133 350.368 119.908 350.488 119.732 350.645C119.557 350.794 119.426 350.97 119.342 351.172C119.264 351.374 119.225 351.595 119.225 351.836C119.225 352.077 119.28 352.295 119.391 352.49C119.501 352.679 119.661 352.829 119.869 352.939C120.077 353.044 120.322 353.096 120.602 353.096C121.025 353.096 121.393 353.011 121.705 352.842C122.018 352.673 122.258 352.464 122.428 352.217C122.604 351.969 122.695 351.735 122.701 351.514L123.443 352.705C123.339 352.972 123.196 353.249 123.014 353.535C122.838 353.822 122.613 354.092 122.34 354.346C122.066 354.593 121.738 354.798 121.354 354.961C120.969 355.117 120.514 355.195 119.986 355.195C119.316 355.195 118.707 355.062 118.16 354.795C117.62 354.521 117.19 354.147 116.871 353.672C116.559 353.19 116.402 352.643 116.402 352.031C116.402 351.478 116.507 350.986 116.715 350.557C116.923 350.127 117.229 349.766 117.633 349.473C118.043 349.173 118.554 348.949 119.166 348.799C119.778 348.643 120.488 348.564 121.295 348.564H122.926ZM133.795 352.695V340H136.627V355H134.078L133.795 352.695ZM127.115 349.844V349.639C127.115 348.831 127.206 348.099 127.389 347.441C127.571 346.777 127.838 346.208 128.189 345.732C128.541 345.257 128.974 344.889 129.488 344.629C130.003 344.368 130.589 344.238 131.246 344.238C131.865 344.238 132.405 344.368 132.867 344.629C133.336 344.889 133.733 345.26 134.059 345.742C134.391 346.217 134.658 346.781 134.859 347.432C135.061 348.076 135.208 348.783 135.299 349.551V350C135.208 350.736 135.061 351.419 134.859 352.051C134.658 352.682 134.391 353.236 134.059 353.711C133.733 354.18 133.336 354.544 132.867 354.805C132.398 355.065 131.852 355.195 131.227 355.195C130.569 355.195 129.983 355.062 129.469 354.795C128.961 354.528 128.531 354.154 128.18 353.672C127.835 353.19 127.571 352.624 127.389 351.973C127.206 351.322 127.115 350.612 127.115 349.844ZM129.928 349.639V349.844C129.928 350.28 129.96 350.687 130.025 351.064C130.097 351.442 130.211 351.777 130.367 352.07C130.53 352.357 130.738 352.581 130.992 352.744C131.253 352.9 131.568 352.979 131.939 352.979C132.421 352.979 132.818 352.871 133.131 352.656C133.443 352.435 133.681 352.132 133.844 351.748C134.013 351.364 134.111 350.921 134.137 350.42V349.141C134.117 348.73 134.059 348.363 133.961 348.037C133.87 347.705 133.733 347.422 133.551 347.188C133.375 346.953 133.154 346.771 132.887 346.641C132.626 346.51 132.317 346.445 131.959 346.445C131.594 346.445 131.282 346.53 131.021 346.699C130.761 346.862 130.549 347.087 130.387 347.373C130.23 347.66 130.113 347.998 130.035 348.389C129.964 348.773 129.928 349.189 129.928 349.639ZM145.064 352.695V340H147.896V355H145.348L145.064 352.695ZM138.385 349.844V349.639C138.385 348.831 138.476 348.099 138.658 347.441C138.84 346.777 139.107 346.208 139.459 345.732C139.811 345.257 140.243 344.889 140.758 344.629C141.272 344.368 141.858 344.238 142.516 344.238C143.134 344.238 143.674 344.368 144.137 344.629C144.605 344.889 145.003 345.26 145.328 345.742C145.66 346.217 145.927 346.781 146.129 347.432C146.331 348.076 146.477 348.783 146.568 349.551V350C146.477 350.736 146.331 351.419 146.129 352.051C145.927 352.682 145.66 353.236 145.328 353.711C145.003 354.18 144.605 354.544 144.137 354.805C143.668 355.065 143.121 355.195 142.496 355.195C141.839 355.195 141.253 355.062 140.738 354.795C140.23 354.528 139.801 354.154 139.449 353.672C139.104 353.19 138.84 352.624 138.658 351.973C138.476 351.322 138.385 350.612 138.385 349.844ZM141.197 349.639V349.844C141.197 350.28 141.23 350.687 141.295 351.064C141.367 351.442 141.48 351.777 141.637 352.07C141.799 352.357 142.008 352.581 142.262 352.744C142.522 352.9 142.838 352.979 143.209 352.979C143.691 352.979 144.088 352.871 144.4 352.656C144.713 352.435 144.951 352.132 145.113 351.748C145.283 351.364 145.38 350.921 145.406 350.42V349.141C145.387 348.73 145.328 348.363 145.23 348.037C145.139 347.705 145.003 347.422 144.82 347.188C144.645 346.953 144.423 346.771 144.156 346.641C143.896 346.51 143.587 346.445 143.229 346.445C142.864 346.445 142.551 346.53 142.291 346.699C142.031 346.862 141.819 347.087 141.656 347.373C141.5 347.66 141.383 347.998 141.305 348.389C141.233 348.773 141.197 349.189 141.197 349.639ZM154.957 355.195C154.137 355.195 153.401 355.065 152.75 354.805C152.099 354.538 151.546 354.17 151.09 353.701C150.641 353.232 150.296 352.689 150.055 352.07C149.814 351.445 149.693 350.781 149.693 350.078V349.688C149.693 348.887 149.807 348.154 150.035 347.49C150.263 346.826 150.589 346.25 151.012 345.762C151.441 345.273 151.962 344.899 152.574 344.639C153.186 344.372 153.876 344.238 154.645 344.238C155.393 344.238 156.057 344.362 156.637 344.609C157.216 344.857 157.701 345.208 158.092 345.664C158.489 346.12 158.788 346.667 158.99 347.305C159.192 347.936 159.293 348.639 159.293 349.414V350.586H150.895V348.711H156.529V348.496C156.529 348.105 156.458 347.757 156.314 347.451C156.178 347.139 155.969 346.891 155.689 346.709C155.41 346.527 155.051 346.436 154.615 346.436C154.244 346.436 153.925 346.517 153.658 346.68C153.391 346.842 153.173 347.07 153.004 347.363C152.841 347.656 152.717 348.001 152.633 348.398C152.555 348.789 152.516 349.219 152.516 349.688V350.078C152.516 350.501 152.574 350.892 152.691 351.25C152.815 351.608 152.988 351.917 153.209 352.178C153.437 352.438 153.71 352.64 154.029 352.783C154.355 352.926 154.723 352.998 155.133 352.998C155.641 352.998 156.113 352.9 156.549 352.705C156.992 352.503 157.372 352.201 157.691 351.797L159.059 353.281C158.837 353.6 158.535 353.906 158.15 354.199C157.773 354.492 157.317 354.733 156.783 354.922C156.249 355.104 155.641 355.195 154.957 355.195ZM167.135 352.695V340H169.967V355H167.418L167.135 352.695ZM160.455 349.844V349.639C160.455 348.831 160.546 348.099 160.729 347.441C160.911 346.777 161.178 346.208 161.529 345.732C161.881 345.257 162.314 344.889 162.828 344.629C163.342 344.368 163.928 344.238 164.586 344.238C165.204 344.238 165.745 344.368 166.207 344.629C166.676 344.889 167.073 345.26 167.398 345.742C167.73 346.217 167.997 346.781 168.199 347.432C168.401 348.076 168.548 348.783 168.639 349.551V350C168.548 350.736 168.401 351.419 168.199 352.051C167.997 352.682 167.73 353.236 167.398 353.711C167.073 354.18 166.676 354.544 166.207 354.805C165.738 355.065 165.191 355.195 164.566 355.195C163.909 355.195 163.323 355.062 162.809 354.795C162.301 354.528 161.871 354.154 161.52 353.672C161.174 353.19 160.911 352.624 160.729 351.973C160.546 351.322 160.455 350.612 160.455 349.844ZM163.268 349.639V349.844C163.268 350.28 163.3 350.687 163.365 351.064C163.437 351.442 163.551 351.777 163.707 352.07C163.87 352.357 164.078 352.581 164.332 352.744C164.592 352.9 164.908 352.979 165.279 352.979C165.761 352.979 166.158 352.871 166.471 352.656C166.783 352.435 167.021 352.132 167.184 351.748C167.353 351.364 167.451 350.921 167.477 350.42V349.141C167.457 348.73 167.398 348.363 167.301 348.037C167.21 347.705 167.073 347.422 166.891 347.188C166.715 346.953 166.493 346.771 166.227 346.641C165.966 346.51 165.657 346.445 165.299 346.445C164.934 346.445 164.622 346.53 164.361 346.699C164.101 346.862 163.889 347.087 163.727 347.373C163.57 347.66 163.453 347.998 163.375 348.389C163.303 348.773 163.268 349.189 163.268 349.639ZM179.957 346.738V355H177.145V344.434H179.791L179.957 346.738ZM183.141 344.365L183.092 346.973C182.955 346.953 182.789 346.937 182.594 346.924C182.405 346.904 182.232 346.895 182.076 346.895C181.679 346.895 181.334 346.947 181.041 347.051C180.755 347.148 180.514 347.295 180.318 347.49C180.13 347.686 179.986 347.923 179.889 348.203C179.798 348.483 179.745 348.802 179.732 349.16L179.166 348.984C179.166 348.301 179.234 347.673 179.371 347.1C179.508 346.52 179.706 346.016 179.967 345.586C180.234 345.156 180.559 344.824 180.943 344.59C181.327 344.355 181.767 344.238 182.262 344.238C182.418 344.238 182.577 344.251 182.74 344.277C182.903 344.297 183.036 344.326 183.141 344.365ZM187.438 344.434V355H184.615V344.434H187.438ZM184.439 341.68C184.439 341.27 184.583 340.931 184.869 340.664C185.156 340.397 185.54 340.264 186.021 340.264C186.497 340.264 186.878 340.397 187.164 340.664C187.457 340.931 187.604 341.27 187.604 341.68C187.604 342.09 187.457 342.428 187.164 342.695C186.878 342.962 186.497 343.096 186.021 343.096C185.54 343.096 185.156 342.962 184.869 342.695C184.583 342.428 184.439 342.09 184.439 341.68ZM196.451 344.434H199V354.648C199 355.612 198.785 356.429 198.355 357.1C197.932 357.777 197.34 358.288 196.578 358.633C195.816 358.984 194.931 359.16 193.922 359.16C193.479 359.16 193.01 359.102 192.516 358.984C192.027 358.867 191.559 358.685 191.109 358.438C190.667 358.19 190.296 357.878 189.996 357.5L191.236 355.84C191.562 356.217 191.939 356.51 192.369 356.719C192.799 356.934 193.274 357.041 193.795 357.041C194.303 357.041 194.732 356.947 195.084 356.758C195.436 356.576 195.706 356.305 195.895 355.947C196.083 355.596 196.178 355.169 196.178 354.668V346.875L196.451 344.434ZM189.342 349.844V349.639C189.342 348.831 189.439 348.099 189.635 347.441C189.837 346.777 190.12 346.208 190.484 345.732C190.855 345.257 191.305 344.889 191.832 344.629C192.359 344.368 192.955 344.238 193.619 344.238C194.322 344.238 194.911 344.368 195.387 344.629C195.862 344.889 196.253 345.26 196.559 345.742C196.865 346.217 197.102 346.781 197.271 347.432C197.447 348.076 197.584 348.783 197.682 349.551V350C197.584 350.736 197.438 351.419 197.242 352.051C197.047 352.682 196.79 353.236 196.471 353.711C196.152 354.18 195.755 354.544 195.279 354.805C194.811 355.065 194.251 355.195 193.6 355.195C192.949 355.195 192.359 355.062 191.832 354.795C191.311 354.528 190.865 354.154 190.494 353.672C190.123 353.19 189.837 352.624 189.635 351.973C189.439 351.322 189.342 350.612 189.342 349.844ZM192.154 349.639V349.844C192.154 350.28 192.197 350.687 192.281 351.064C192.366 351.442 192.496 351.777 192.672 352.07C192.854 352.357 193.079 352.581 193.346 352.744C193.619 352.9 193.941 352.979 194.312 352.979C194.827 352.979 195.247 352.871 195.572 352.656C195.898 352.435 196.142 352.132 196.305 351.748C196.467 351.364 196.562 350.921 196.588 350.42V349.141C196.575 348.73 196.52 348.363 196.422 348.037C196.324 347.705 196.188 347.422 196.012 347.188C195.836 346.953 195.608 346.771 195.328 346.641C195.048 346.51 194.716 346.445 194.332 346.445C193.961 346.445 193.639 346.53 193.365 346.699C193.098 346.862 192.874 347.087 192.691 347.373C192.516 347.66 192.382 347.998 192.291 348.389C192.2 348.773 192.154 349.189 192.154 349.639ZM203.932 340V355H201.119V340H203.932ZM203.531 349.346H202.76C202.766 348.61 202.864 347.933 203.053 347.314C203.242 346.689 203.512 346.149 203.863 345.693C204.215 345.231 204.635 344.873 205.123 344.619C205.618 344.365 206.165 344.238 206.764 344.238C207.285 344.238 207.757 344.313 208.18 344.463C208.609 344.606 208.977 344.84 209.283 345.166C209.596 345.485 209.837 345.905 210.006 346.426C210.175 346.947 210.26 347.578 210.26 348.32V355H207.428V348.301C207.428 347.832 207.359 347.464 207.223 347.197C207.092 346.924 206.9 346.732 206.646 346.621C206.399 346.504 206.093 346.445 205.729 346.445C205.325 346.445 204.98 346.52 204.693 346.67C204.413 346.82 204.189 347.028 204.02 347.295C203.85 347.555 203.727 347.861 203.648 348.213C203.57 348.564 203.531 348.942 203.531 349.346ZM217.574 344.434V346.426H211.422V344.434H217.574ZM212.945 341.826H215.758V351.816C215.758 352.122 215.797 352.357 215.875 352.52C215.96 352.682 216.083 352.796 216.246 352.861C216.409 352.92 216.614 352.949 216.861 352.949C217.037 352.949 217.193 352.943 217.33 352.93C217.473 352.91 217.594 352.891 217.691 352.871L217.701 354.941C217.46 355.02 217.2 355.081 216.92 355.127C216.64 355.173 216.331 355.195 215.992 355.195C215.374 355.195 214.833 355.094 214.371 354.893C213.915 354.684 213.564 354.352 213.316 353.896C213.069 353.441 212.945 352.842 212.945 352.1V341.826ZM226.91 346.689V355H224.098V344.434H226.734L226.91 346.689ZM226.5 349.346H225.738C225.738 348.564 225.839 347.861 226.041 347.236C226.243 346.605 226.526 346.068 226.891 345.625C227.255 345.176 227.688 344.834 228.189 344.6C228.697 344.359 229.264 344.238 229.889 344.238C230.383 344.238 230.836 344.31 231.246 344.453C231.656 344.596 232.008 344.824 232.301 345.137C232.6 345.449 232.828 345.863 232.984 346.377C233.147 346.891 233.229 347.52 233.229 348.262V355H230.396V348.252C230.396 347.783 230.331 347.419 230.201 347.158C230.071 346.898 229.879 346.715 229.625 346.611C229.378 346.501 229.072 346.445 228.707 346.445C228.329 346.445 228.001 346.52 227.721 346.67C227.447 346.82 227.219 347.028 227.037 347.295C226.861 347.555 226.728 347.861 226.637 348.213C226.546 348.564 226.5 348.942 226.5 349.346ZM234.918 349.824V349.619C234.918 348.844 235.029 348.132 235.25 347.48C235.471 346.823 235.794 346.253 236.217 345.771C236.64 345.29 237.161 344.915 237.779 344.648C238.398 344.375 239.107 344.238 239.908 344.238C240.709 344.238 241.422 344.375 242.047 344.648C242.672 344.915 243.196 345.29 243.619 345.771C244.049 346.253 244.374 346.823 244.596 347.48C244.817 348.132 244.928 348.844 244.928 349.619V349.824C244.928 350.592 244.817 351.305 244.596 351.963C244.374 352.614 244.049 353.184 243.619 353.672C243.196 354.154 242.675 354.528 242.057 354.795C241.438 355.062 240.729 355.195 239.928 355.195C239.127 355.195 238.414 355.062 237.789 354.795C237.171 354.528 236.646 354.154 236.217 353.672C235.794 353.184 235.471 352.614 235.25 351.963C235.029 351.305 234.918 350.592 234.918 349.824ZM237.73 349.619V349.824C237.73 350.267 237.77 350.68 237.848 351.064C237.926 351.449 238.049 351.787 238.219 352.08C238.395 352.367 238.622 352.591 238.902 352.754C239.182 352.917 239.524 352.998 239.928 352.998C240.318 352.998 240.654 352.917 240.934 352.754C241.214 352.591 241.438 352.367 241.607 352.08C241.777 351.787 241.9 351.449 241.979 351.064C242.063 350.68 242.105 350.267 242.105 349.824V349.619C242.105 349.189 242.063 348.786 241.979 348.408C241.9 348.024 241.773 347.686 241.598 347.393C241.428 347.093 241.204 346.859 240.924 346.689C240.644 346.52 240.305 346.436 239.908 346.436C239.511 346.436 239.173 346.52 238.893 346.689C238.619 346.859 238.395 347.093 238.219 347.393C238.049 347.686 237.926 348.024 237.848 348.408C237.77 348.786 237.73 349.189 237.73 349.619ZM249.674 352.266L251.871 344.434H253.658L253.082 347.51L250.885 355H249.391L249.674 352.266ZM248.561 344.434L250.133 352.256L250.279 355H248.521L245.846 344.434H248.561ZM255.67 352.129L257.203 344.434H259.928L257.252 355H255.504L255.67 352.129ZM253.902 344.434L256.09 352.207L256.393 355H254.889L252.691 347.52L252.135 344.434H253.902ZM264.518 340.781L264.195 350.654H261.852L261.52 340.781H264.518ZM261.441 353.711C261.441 353.294 261.585 352.949 261.871 352.676C262.164 352.396 262.548 352.256 263.023 352.256C263.505 352.256 263.889 352.396 264.176 352.676C264.462 352.949 264.605 353.294 264.605 353.711C264.605 354.115 264.462 354.456 264.176 354.736C263.889 355.016 263.505 355.156 263.023 355.156C262.548 355.156 262.164 355.016 261.871 354.736C261.585 354.456 261.441 354.115 261.441 353.711Z" fill="#343435"/>
<path d="M34.4375 387.383H35.9375C35.8594 388.102 35.6536 388.745 35.3203 389.312C34.987 389.88 34.5156 390.331 33.9062 390.664C33.2969 390.992 32.5365 391.156 31.625 391.156C30.9583 391.156 30.3516 391.031 29.8047 390.781C29.263 390.531 28.7969 390.177 28.4062 389.719C28.0156 389.255 27.7135 388.701 27.5 388.055C27.2917 387.404 27.1875 386.68 27.1875 385.883V384.75C27.1875 383.953 27.2917 383.232 27.5 382.586C27.7135 381.935 28.0182 381.378 28.4141 380.914C28.8151 380.451 29.2969 380.094 29.8594 379.844C30.4219 379.594 31.0547 379.469 31.7578 379.469C32.6172 379.469 33.3438 379.63 33.9375 379.953C34.5312 380.276 34.9922 380.724 35.3203 381.297C35.6536 381.865 35.8594 382.523 35.9375 383.273H34.4375C34.3646 382.742 34.2292 382.286 34.0312 381.906C33.8333 381.521 33.5521 381.224 33.1875 381.016C32.8229 380.807 32.3464 380.703 31.7578 380.703C31.2526 380.703 30.8073 380.799 30.4219 380.992C30.0417 381.185 29.7214 381.458 29.4609 381.812C29.2057 382.167 29.013 382.591 28.8828 383.086C28.7526 383.581 28.6875 384.13 28.6875 384.734V385.883C28.6875 386.44 28.7448 386.964 28.8594 387.453C28.9792 387.943 29.1589 388.372 29.3984 388.742C29.638 389.112 29.9427 389.404 30.3125 389.617C30.6823 389.826 31.1198 389.93 31.625 389.93C32.2656 389.93 32.776 389.828 33.1562 389.625C33.5365 389.422 33.8229 389.13 34.0156 388.75C34.2135 388.37 34.3542 387.914 34.4375 387.383ZM39.2188 379V391H37.7734V379H39.2188ZM38.875 386.453L38.2734 386.43C38.2786 385.852 38.3646 385.318 38.5312 384.828C38.6979 384.333 38.9323 383.904 39.2344 383.539C39.5365 383.174 39.8958 382.893 40.3125 382.695C40.7344 382.492 41.2005 382.391 41.7109 382.391C42.1276 382.391 42.5026 382.448 42.8359 382.562C43.1693 382.672 43.4531 382.849 43.6875 383.094C43.9271 383.339 44.1094 383.656 44.2344 384.047C44.3594 384.432 44.4219 384.904 44.4219 385.461V391H42.9688V385.445C42.9688 385.003 42.9036 384.648 42.7734 384.383C42.6432 384.112 42.4531 383.917 42.2031 383.797C41.9531 383.672 41.6458 383.609 41.2812 383.609C40.9219 383.609 40.5938 383.685 40.2969 383.836C40.0052 383.987 39.7526 384.195 39.5391 384.461C39.3307 384.727 39.1667 385.031 39.0469 385.375C38.9323 385.714 38.875 386.073 38.875 386.453ZM51.5703 389.555V385.203C51.5703 384.87 51.5026 384.581 51.3672 384.336C51.237 384.086 51.0391 383.893 50.7734 383.758C50.5078 383.622 50.1797 383.555 49.7891 383.555C49.4245 383.555 49.1042 383.617 48.8281 383.742C48.5573 383.867 48.3438 384.031 48.1875 384.234C48.0365 384.438 47.9609 384.656 47.9609 384.891H46.5156C46.5156 384.589 46.5938 384.289 46.75 383.992C46.9062 383.695 47.1302 383.427 47.4219 383.188C47.7188 382.943 48.0729 382.75 48.4844 382.609C48.901 382.464 49.3646 382.391 49.875 382.391C50.4896 382.391 51.0312 382.495 51.5 382.703C51.974 382.911 52.3438 383.227 52.6094 383.648C52.8802 384.065 53.0156 384.589 53.0156 385.219V389.156C53.0156 389.438 53.0391 389.737 53.0859 390.055C53.138 390.372 53.2135 390.646 53.3125 390.875V391H51.8047C51.7318 390.833 51.6745 390.612 51.6328 390.336C51.5911 390.055 51.5703 389.794 51.5703 389.555ZM51.8203 385.875L51.8359 386.891H50.375C49.9635 386.891 49.5964 386.924 49.2734 386.992C48.9505 387.055 48.6797 387.151 48.4609 387.281C48.2422 387.411 48.0755 387.576 47.9609 387.773C47.8464 387.966 47.7891 388.193 47.7891 388.453C47.7891 388.719 47.849 388.961 47.9688 389.18C48.0885 389.398 48.2682 389.573 48.5078 389.703C48.7526 389.828 49.0521 389.891 49.4062 389.891C49.849 389.891 50.2396 389.797 50.5781 389.609C50.9167 389.422 51.1849 389.193 51.3828 388.922C51.5859 388.651 51.6953 388.388 51.7109 388.133L52.3281 388.828C52.2917 389.047 52.1927 389.289 52.0312 389.555C51.8698 389.82 51.6536 390.076 51.3828 390.32C51.1172 390.56 50.7995 390.76 50.4297 390.922C50.0651 391.078 49.6536 391.156 49.1953 391.156C48.6224 391.156 48.1198 391.044 47.6875 390.82C47.2604 390.596 46.9271 390.297 46.6875 389.922C46.4531 389.542 46.3359 389.117 46.3359 388.648C46.3359 388.195 46.4245 387.797 46.6016 387.453C46.7786 387.104 47.0339 386.815 47.3672 386.586C47.7005 386.352 48.1016 386.174 48.5703 386.055C49.0391 385.935 49.5625 385.875 50.1406 385.875H51.8203ZM56.8594 379V391H55.4062V379H56.8594ZM60.75 379V391H59.2969V379H60.75ZM66.5781 391.156C65.9896 391.156 65.4557 391.057 64.9766 390.859C64.5026 390.656 64.0938 390.372 63.75 390.008C63.4115 389.643 63.151 389.211 62.9688 388.711C62.7865 388.211 62.6953 387.664 62.6953 387.07V386.742C62.6953 386.055 62.7969 385.443 63 384.906C63.2031 384.365 63.4792 383.906 63.8281 383.531C64.1771 383.156 64.5729 382.872 65.0156 382.68C65.4583 382.487 65.9167 382.391 66.3906 382.391C66.9948 382.391 67.5156 382.495 67.9531 382.703C68.3958 382.911 68.7578 383.203 69.0391 383.578C69.3203 383.948 69.5286 384.385 69.6641 384.891C69.7995 385.391 69.8672 385.938 69.8672 386.531V387.18H63.5547V386H68.4219V385.891C68.401 385.516 68.3229 385.151 68.1875 384.797C68.0573 384.443 67.849 384.151 67.5625 383.922C67.276 383.693 66.8854 383.578 66.3906 383.578C66.0625 383.578 65.7604 383.648 65.4844 383.789C65.2083 383.924 64.9714 384.128 64.7734 384.398C64.5755 384.669 64.4219 385 64.3125 385.391C64.2031 385.781 64.1484 386.232 64.1484 386.742V387.07C64.1484 387.471 64.2031 387.849 64.3125 388.203C64.4271 388.552 64.5911 388.859 64.8047 389.125C65.0234 389.391 65.2865 389.599 65.5938 389.75C65.9062 389.901 66.2604 389.977 66.6562 389.977C67.1667 389.977 67.599 389.872 67.9531 389.664C68.3073 389.456 68.6172 389.177 68.8828 388.828L69.7578 389.523C69.5755 389.799 69.3438 390.062 69.0625 390.312C68.7812 390.562 68.4349 390.766 68.0234 390.922C67.6172 391.078 67.1354 391.156 66.5781 391.156ZM73 384.352V391H71.5547V382.547H72.9219L73 384.352ZM72.6562 386.453L72.0547 386.43C72.0599 385.852 72.1458 385.318 72.3125 384.828C72.4792 384.333 72.7135 383.904 73.0156 383.539C73.3177 383.174 73.6771 382.893 74.0938 382.695C74.5156 382.492 74.9818 382.391 75.4922 382.391C75.9089 382.391 76.2839 382.448 76.6172 382.562C76.9505 382.672 77.2344 382.849 77.4688 383.094C77.7083 383.339 77.8906 383.656 78.0156 384.047C78.1406 384.432 78.2031 384.904 78.2031 385.461V391H76.75V385.445C76.75 385.003 76.6849 384.648 76.5547 384.383C76.4245 384.112 76.2344 383.917 75.9844 383.797C75.7344 383.672 75.4271 383.609 75.0625 383.609C74.7031 383.609 74.375 383.685 74.0781 383.836C73.7865 383.987 73.5339 384.195 73.3203 384.461C73.112 384.727 72.9479 385.031 72.8281 385.375C72.7135 385.714 72.6562 386.073 72.6562 386.453ZM85.875 382.547H87.1875V390.82C87.1875 391.565 87.0365 392.201 86.7344 392.727C86.4323 393.253 86.0104 393.651 85.4688 393.922C84.9323 394.198 84.3125 394.336 83.6094 394.336C83.3177 394.336 82.974 394.289 82.5781 394.195C82.1875 394.107 81.8021 393.953 81.4219 393.734C81.0469 393.521 80.7318 393.232 80.4766 392.867L81.2344 392.008C81.5885 392.435 81.9583 392.732 82.3438 392.898C82.7344 393.065 83.1198 393.148 83.5 393.148C83.9583 393.148 84.3542 393.062 84.6875 392.891C85.0208 392.719 85.2786 392.464 85.4609 392.125C85.6484 391.792 85.7422 391.38 85.7422 390.891V384.406L85.875 382.547ZM80.0547 386.867V386.703C80.0547 386.057 80.1302 385.471 80.2812 384.945C80.4375 384.414 80.6589 383.958 80.9453 383.578C81.237 383.198 81.5885 382.906 82 382.703C82.4115 382.495 82.875 382.391 83.3906 382.391C83.9219 382.391 84.3854 382.484 84.7812 382.672C85.1823 382.854 85.5208 383.122 85.7969 383.477C86.0781 383.826 86.2995 384.247 86.4609 384.742C86.6224 385.237 86.7344 385.797 86.7969 386.422V387.141C86.7396 387.76 86.6276 388.318 86.4609 388.812C86.2995 389.307 86.0781 389.729 85.7969 390.078C85.5208 390.427 85.1823 390.695 84.7812 390.883C84.3802 391.065 83.9115 391.156 83.375 391.156C82.8698 391.156 82.4115 391.049 82 390.836C81.5938 390.622 81.2448 390.323 80.9531 389.938C80.6615 389.552 80.4375 389.099 80.2812 388.578C80.1302 388.052 80.0547 387.482 80.0547 386.867ZM81.5 386.703V386.867C81.5 387.289 81.5417 387.685 81.625 388.055C81.7135 388.424 81.8464 388.75 82.0234 389.031C82.2057 389.312 82.4375 389.534 82.7188 389.695C83 389.852 83.3359 389.93 83.7266 389.93C84.2057 389.93 84.6016 389.828 84.9141 389.625C85.2266 389.422 85.474 389.154 85.6562 388.82C85.8438 388.487 85.9896 388.125 86.0938 387.734V385.852C86.0365 385.565 85.9479 385.289 85.8281 385.023C85.7135 384.753 85.5625 384.513 85.375 384.305C85.1927 384.091 84.9661 383.922 84.6953 383.797C84.4245 383.672 84.1068 383.609 83.7422 383.609C83.3464 383.609 83.0052 383.693 82.7188 383.859C82.4375 384.021 82.2057 384.245 82.0234 384.531C81.8464 384.812 81.7135 385.141 81.625 385.516C81.5417 385.885 81.5 386.281 81.5 386.703ZM92.8906 391.156C92.3021 391.156 91.7682 391.057 91.2891 390.859C90.8151 390.656 90.4062 390.372 90.0625 390.008C89.724 389.643 89.4635 389.211 89.2812 388.711C89.099 388.211 89.0078 387.664 89.0078 387.07V386.742C89.0078 386.055 89.1094 385.443 89.3125 384.906C89.5156 384.365 89.7917 383.906 90.1406 383.531C90.4896 383.156 90.8854 382.872 91.3281 382.68C91.7708 382.487 92.2292 382.391 92.7031 382.391C93.3073 382.391 93.8281 382.495 94.2656 382.703C94.7083 382.911 95.0703 383.203 95.3516 383.578C95.6328 383.948 95.8411 384.385 95.9766 384.891C96.112 385.391 96.1797 385.938 96.1797 386.531V387.18H89.8672V386H94.7344V385.891C94.7135 385.516 94.6354 385.151 94.5 384.797C94.3698 384.443 94.1615 384.151 93.875 383.922C93.5885 383.693 93.1979 383.578 92.7031 383.578C92.375 383.578 92.0729 383.648 91.7969 383.789C91.5208 383.924 91.2839 384.128 91.0859 384.398C90.888 384.669 90.7344 385 90.625 385.391C90.5156 385.781 90.4609 386.232 90.4609 386.742V387.07C90.4609 387.471 90.5156 387.849 90.625 388.203C90.7396 388.552 90.9036 388.859 91.1172 389.125C91.3359 389.391 91.599 389.599 91.9062 389.75C92.2188 389.901 92.5729 389.977 92.9688 389.977C93.4792 389.977 93.9115 389.872 94.2656 389.664C94.6198 389.456 94.9297 389.177 95.1953 388.828L96.0703 389.523C95.888 389.799 95.6562 390.062 95.375 390.312C95.0938 390.562 94.7474 390.766 94.3359 390.922C93.9297 391.078 93.4479 391.156 92.8906 391.156ZM104.211 390.125L106.562 382.547H108.109L104.719 392.305C104.641 392.513 104.536 392.737 104.406 392.977C104.281 393.221 104.12 393.453 103.922 393.672C103.724 393.891 103.484 394.068 103.203 394.203C102.927 394.344 102.596 394.414 102.211 394.414C102.096 394.414 101.951 394.398 101.773 394.367C101.596 394.336 101.471 394.31 101.398 394.289L101.391 393.117C101.432 393.122 101.497 393.128 101.586 393.133C101.68 393.143 101.745 393.148 101.781 393.148C102.109 393.148 102.388 393.104 102.617 393.016C102.846 392.932 103.039 392.789 103.195 392.586C103.357 392.388 103.495 392.115 103.609 391.766L104.211 390.125ZM102.484 382.547L104.68 389.109L105.055 390.633L104.016 391.164L100.906 382.547H102.484ZM108.906 386.867V386.688C108.906 386.078 108.995 385.513 109.172 384.992C109.349 384.466 109.604 384.01 109.938 383.625C110.271 383.234 110.674 382.932 111.148 382.719C111.622 382.5 112.154 382.391 112.742 382.391C113.336 382.391 113.87 382.5 114.344 382.719C114.823 382.932 115.229 383.234 115.562 383.625C115.901 384.01 116.159 384.466 116.336 384.992C116.513 385.513 116.602 386.078 116.602 386.688V386.867C116.602 387.477 116.513 388.042 116.336 388.562C116.159 389.083 115.901 389.539 115.562 389.93C115.229 390.315 114.826 390.617 114.352 390.836C113.883 391.049 113.352 391.156 112.758 391.156C112.164 391.156 111.63 391.049 111.156 390.836C110.682 390.617 110.276 390.315 109.938 389.93C109.604 389.539 109.349 389.083 109.172 388.562C108.995 388.042 108.906 387.477 108.906 386.867ZM110.352 386.688V386.867C110.352 387.289 110.401 387.688 110.5 388.062C110.599 388.432 110.747 388.76 110.945 389.047C111.148 389.333 111.401 389.56 111.703 389.727C112.005 389.888 112.357 389.969 112.758 389.969C113.154 389.969 113.5 389.888 113.797 389.727C114.099 389.56 114.349 389.333 114.547 389.047C114.745 388.76 114.893 388.432 114.992 388.062C115.096 387.688 115.148 387.289 115.148 386.867V386.688C115.148 386.271 115.096 385.878 114.992 385.508C114.893 385.133 114.742 384.802 114.539 384.516C114.341 384.224 114.091 383.995 113.789 383.828C113.492 383.661 113.143 383.578 112.742 383.578C112.346 383.578 111.997 383.661 111.695 383.828C111.398 383.995 111.148 384.224 110.945 384.516C110.747 384.802 110.599 385.133 110.5 385.508C110.401 385.878 110.352 386.271 110.352 386.688ZM123.586 389.047V382.547H125.039V391H123.656L123.586 389.047ZM123.859 387.266L124.461 387.25C124.461 387.812 124.401 388.333 124.281 388.812C124.167 389.286 123.979 389.698 123.719 390.047C123.458 390.396 123.117 390.669 122.695 390.867C122.273 391.06 121.76 391.156 121.156 391.156C120.745 391.156 120.367 391.096 120.023 390.977C119.685 390.857 119.393 390.672 119.148 390.422C118.904 390.172 118.714 389.846 118.578 389.445C118.448 389.044 118.383 388.562 118.383 388V382.547H119.828V388.016C119.828 388.396 119.87 388.711 119.953 388.961C120.042 389.206 120.159 389.401 120.305 389.547C120.456 389.688 120.622 389.786 120.805 389.844C120.992 389.901 121.185 389.93 121.383 389.93C121.997 389.93 122.484 389.812 122.844 389.578C123.203 389.339 123.461 389.018 123.617 388.617C123.779 388.211 123.859 387.76 123.859 387.266ZM128.688 383.875V391H127.242V382.547H128.648L128.688 383.875ZM131.328 382.5L131.32 383.844C131.201 383.818 131.086 383.802 130.977 383.797C130.872 383.786 130.753 383.781 130.617 383.781C130.284 383.781 129.99 383.833 129.734 383.938C129.479 384.042 129.263 384.188 129.086 384.375C128.909 384.562 128.768 384.786 128.664 385.047C128.565 385.302 128.5 385.583 128.469 385.891L128.062 386.125C128.062 385.615 128.112 385.135 128.211 384.688C128.315 384.24 128.474 383.844 128.688 383.5C128.901 383.151 129.172 382.88 129.5 382.688C129.833 382.49 130.229 382.391 130.688 382.391C130.792 382.391 130.911 382.404 131.047 382.43C131.182 382.451 131.276 382.474 131.328 382.5ZM137.586 388.758C137.586 388.549 137.539 388.357 137.445 388.18C137.357 387.997 137.172 387.833 136.891 387.688C136.615 387.536 136.198 387.406 135.641 387.297C135.172 387.198 134.747 387.081 134.367 386.945C133.992 386.81 133.672 386.646 133.406 386.453C133.146 386.26 132.945 386.034 132.805 385.773C132.664 385.513 132.594 385.208 132.594 384.859C132.594 384.526 132.667 384.211 132.812 383.914C132.964 383.617 133.174 383.354 133.445 383.125C133.721 382.896 134.052 382.716 134.438 382.586C134.823 382.456 135.253 382.391 135.727 382.391C136.404 382.391 136.982 382.51 137.461 382.75C137.94 382.99 138.307 383.31 138.562 383.711C138.818 384.107 138.945 384.547 138.945 385.031H137.5C137.5 384.797 137.43 384.57 137.289 384.352C137.154 384.128 136.953 383.943 136.688 383.797C136.427 383.651 136.107 383.578 135.727 383.578C135.326 383.578 135 383.641 134.75 383.766C134.505 383.885 134.326 384.039 134.211 384.227C134.102 384.414 134.047 384.612 134.047 384.82C134.047 384.977 134.073 385.117 134.125 385.242C134.182 385.362 134.281 385.474 134.422 385.578C134.562 385.677 134.76 385.771 135.016 385.859C135.271 385.948 135.596 386.036 135.992 386.125C136.685 386.281 137.255 386.469 137.703 386.688C138.151 386.906 138.484 387.174 138.703 387.492C138.922 387.81 139.031 388.195 139.031 388.648C139.031 389.018 138.953 389.357 138.797 389.664C138.646 389.971 138.424 390.237 138.133 390.461C137.846 390.68 137.503 390.852 137.102 390.977C136.706 391.096 136.26 391.156 135.766 391.156C135.021 391.156 134.391 391.023 133.875 390.758C133.359 390.492 132.969 390.148 132.703 389.727C132.438 389.305 132.305 388.859 132.305 388.391H133.758C133.779 388.786 133.893 389.102 134.102 389.336C134.31 389.565 134.565 389.729 134.867 389.828C135.169 389.922 135.469 389.969 135.766 389.969C136.161 389.969 136.492 389.917 136.758 389.812C137.029 389.708 137.234 389.565 137.375 389.383C137.516 389.201 137.586 388.992 137.586 388.758ZM144.438 391.156C143.849 391.156 143.315 391.057 142.836 390.859C142.362 390.656 141.953 390.372 141.609 390.008C141.271 389.643 141.01 389.211 140.828 388.711C140.646 388.211 140.555 387.664 140.555 387.07V386.742C140.555 386.055 140.656 385.443 140.859 384.906C141.062 384.365 141.339 383.906 141.688 383.531C142.036 383.156 142.432 382.872 142.875 382.68C143.318 382.487 143.776 382.391 144.25 382.391C144.854 382.391 145.375 382.495 145.812 382.703C146.255 382.911 146.617 383.203 146.898 383.578C147.18 383.948 147.388 384.385 147.523 384.891C147.659 385.391 147.727 385.938 147.727 386.531V387.18H141.414V386H146.281V385.891C146.26 385.516 146.182 385.151 146.047 384.797C145.917 384.443 145.708 384.151 145.422 383.922C145.135 383.693 144.745 383.578 144.25 383.578C143.922 383.578 143.62 383.648 143.344 383.789C143.068 383.924 142.831 384.128 142.633 384.398C142.435 384.669 142.281 385 142.172 385.391C142.062 385.781 142.008 386.232 142.008 386.742V387.07C142.008 387.471 142.062 387.849 142.172 388.203C142.286 388.552 142.451 388.859 142.664 389.125C142.883 389.391 143.146 389.599 143.453 389.75C143.766 389.901 144.12 389.977 144.516 389.977C145.026 389.977 145.458 389.872 145.812 389.664C146.167 389.456 146.477 389.177 146.742 388.828L147.617 389.523C147.435 389.799 147.203 390.062 146.922 390.312C146.641 390.562 146.294 390.766 145.883 390.922C145.477 391.078 144.995 391.156 144.438 391.156ZM150.984 379V391H149.531V379H150.984ZM155.461 391H154.016V381.656C154.016 381.047 154.125 380.534 154.344 380.117C154.568 379.695 154.888 379.378 155.305 379.164C155.721 378.945 156.216 378.836 156.789 378.836C156.956 378.836 157.122 378.846 157.289 378.867C157.461 378.888 157.628 378.919 157.789 378.961L157.711 380.141C157.602 380.115 157.477 380.096 157.336 380.086C157.201 380.076 157.065 380.07 156.93 380.07C156.622 380.07 156.357 380.133 156.133 380.258C155.914 380.378 155.747 380.555 155.633 380.789C155.518 381.023 155.461 381.312 155.461 381.656V391ZM157.258 382.547V383.656H152.68V382.547H157.258ZM167.82 389.555V385.203C167.82 384.87 167.753 384.581 167.617 384.336C167.487 384.086 167.289 383.893 167.023 383.758C166.758 383.622 166.43 383.555 166.039 383.555C165.674 383.555 165.354 383.617 165.078 383.742C164.807 383.867 164.594 384.031 164.438 384.234C164.286 384.438 164.211 384.656 164.211 384.891H162.766C162.766 384.589 162.844 384.289 163 383.992C163.156 383.695 163.38 383.427 163.672 383.188C163.969 382.943 164.323 382.75 164.734 382.609C165.151 382.464 165.615 382.391 166.125 382.391C166.74 382.391 167.281 382.495 167.75 382.703C168.224 382.911 168.594 383.227 168.859 383.648C169.13 384.065 169.266 384.589 169.266 385.219V389.156C169.266 389.438 169.289 389.737 169.336 390.055C169.388 390.372 169.464 390.646 169.562 390.875V391H168.055C167.982 390.833 167.924 390.612 167.883 390.336C167.841 390.055 167.82 389.794 167.82 389.555ZM168.07 385.875L168.086 386.891H166.625C166.214 386.891 165.846 386.924 165.523 386.992C165.201 387.055 164.93 387.151 164.711 387.281C164.492 387.411 164.326 387.576 164.211 387.773C164.096 387.966 164.039 388.193 164.039 388.453C164.039 388.719 164.099 388.961 164.219 389.18C164.339 389.398 164.518 389.573 164.758 389.703C165.003 389.828 165.302 389.891 165.656 389.891C166.099 389.891 166.49 389.797 166.828 389.609C167.167 389.422 167.435 389.193 167.633 388.922C167.836 388.651 167.945 388.388 167.961 388.133L168.578 388.828C168.542 389.047 168.443 389.289 168.281 389.555C168.12 389.82 167.904 390.076 167.633 390.32C167.367 390.56 167.049 390.76 166.68 390.922C166.315 391.078 165.904 391.156 165.445 391.156C164.872 391.156 164.37 391.044 163.938 390.82C163.51 390.596 163.177 390.297 162.938 389.922C162.703 389.542 162.586 389.117 162.586 388.648C162.586 388.195 162.674 387.797 162.852 387.453C163.029 387.104 163.284 386.815 163.617 386.586C163.951 386.352 164.352 386.174 164.82 386.055C165.289 385.935 165.812 385.875 166.391 385.875H168.07ZM172.984 384.352V391H171.539V382.547H172.906L172.984 384.352ZM172.641 386.453L172.039 386.43C172.044 385.852 172.13 385.318 172.297 384.828C172.464 384.333 172.698 383.904 173 383.539C173.302 383.174 173.661 382.893 174.078 382.695C174.5 382.492 174.966 382.391 175.477 382.391C175.893 382.391 176.268 382.448 176.602 382.562C176.935 382.672 177.219 382.849 177.453 383.094C177.693 383.339 177.875 383.656 178 384.047C178.125 384.432 178.188 384.904 178.188 385.461V391H176.734V385.445C176.734 385.003 176.669 384.648 176.539 384.383C176.409 384.112 176.219 383.917 175.969 383.797C175.719 383.672 175.411 383.609 175.047 383.609C174.688 383.609 174.359 383.685 174.062 383.836C173.771 383.987 173.518 384.195 173.305 384.461C173.096 384.727 172.932 385.031 172.812 385.375C172.698 385.714 172.641 386.073 172.641 386.453ZM185.711 389.359V379H187.164V391H185.836L185.711 389.359ZM180.023 386.867V386.703C180.023 386.057 180.102 385.471 180.258 384.945C180.419 384.414 180.646 383.958 180.938 383.578C181.234 383.198 181.586 382.906 181.992 382.703C182.404 382.495 182.862 382.391 183.367 382.391C183.898 382.391 184.362 382.484 184.758 382.672C185.159 382.854 185.497 383.122 185.773 383.477C186.055 383.826 186.276 384.247 186.438 384.742C186.599 385.237 186.711 385.797 186.773 386.422V387.141C186.716 387.76 186.604 388.318 186.438 388.812C186.276 389.307 186.055 389.729 185.773 390.078C185.497 390.427 185.159 390.695 184.758 390.883C184.357 391.065 183.888 391.156 183.352 391.156C182.857 391.156 182.404 391.049 181.992 390.836C181.586 390.622 181.234 390.323 180.938 389.938C180.646 389.552 180.419 389.099 180.258 388.578C180.102 388.052 180.023 387.482 180.023 386.867ZM181.477 386.703V386.867C181.477 387.289 181.518 387.685 181.602 388.055C181.69 388.424 181.826 388.75 182.008 389.031C182.19 389.312 182.422 389.534 182.703 389.695C182.984 389.852 183.32 389.93 183.711 389.93C184.19 389.93 184.583 389.828 184.891 389.625C185.203 389.422 185.453 389.154 185.641 388.82C185.828 388.487 185.974 388.125 186.078 387.734V385.852C186.016 385.565 185.924 385.289 185.805 385.023C185.69 384.753 185.539 384.513 185.352 384.305C185.169 384.091 184.943 383.922 184.672 383.797C184.406 383.672 184.091 383.609 183.727 383.609C183.331 383.609 182.99 383.693 182.703 383.859C182.422 384.021 182.19 384.245 182.008 384.531C181.826 384.812 181.69 385.141 181.602 385.516C181.518 385.885 181.477 386.281 181.477 386.703ZM196.891 391.156C196.302 391.156 195.768 391.057 195.289 390.859C194.815 390.656 194.406 390.372 194.062 390.008C193.724 389.643 193.464 389.211 193.281 388.711C193.099 388.211 193.008 387.664 193.008 387.07V386.742C193.008 386.055 193.109 385.443 193.312 384.906C193.516 384.365 193.792 383.906 194.141 383.531C194.49 383.156 194.885 382.872 195.328 382.68C195.771 382.487 196.229 382.391 196.703 382.391C197.307 382.391 197.828 382.495 198.266 382.703C198.708 382.911 199.07 383.203 199.352 383.578C199.633 383.948 199.841 384.385 199.977 384.891C200.112 385.391 200.18 385.938 200.18 386.531V387.18H193.867V386H198.734V385.891C198.714 385.516 198.635 385.151 198.5 384.797C198.37 384.443 198.161 384.151 197.875 383.922C197.589 383.693 197.198 383.578 196.703 383.578C196.375 383.578 196.073 383.648 195.797 383.789C195.521 383.924 195.284 384.128 195.086 384.398C194.888 384.669 194.734 385 194.625 385.391C194.516 385.781 194.461 386.232 194.461 386.742V387.07C194.461 387.471 194.516 387.849 194.625 388.203C194.74 388.552 194.904 388.859 195.117 389.125C195.336 389.391 195.599 389.599 195.906 389.75C196.219 389.901 196.573 389.977 196.969 389.977C197.479 389.977 197.911 389.872 198.266 389.664C198.62 389.456 198.93 389.177 199.195 388.828L200.07 389.523C199.888 389.799 199.656 390.062 199.375 390.312C199.094 390.562 198.747 390.766 198.336 390.922C197.93 391.078 197.448 391.156 196.891 391.156ZM202.844 382.547L204.695 385.625L206.57 382.547H208.266L205.5 386.719L208.352 391H206.68L204.727 387.828L202.773 391H201.094L203.938 386.719L201.18 382.547H202.844ZM211.25 384.172V394.25H209.797V382.547H211.125L211.25 384.172ZM216.945 386.703V386.867C216.945 387.482 216.872 388.052 216.727 388.578C216.581 389.099 216.367 389.552 216.086 389.938C215.81 390.323 215.469 390.622 215.062 390.836C214.656 391.049 214.19 391.156 213.664 391.156C213.128 391.156 212.654 391.068 212.242 390.891C211.831 390.714 211.482 390.456 211.195 390.117C210.909 389.779 210.68 389.372 210.508 388.898C210.341 388.424 210.227 387.891 210.164 387.297V386.422C210.227 385.797 210.344 385.237 210.516 384.742C210.688 384.247 210.914 383.826 211.195 383.477C211.482 383.122 211.828 382.854 212.234 382.672C212.641 382.484 213.109 382.391 213.641 382.391C214.172 382.391 214.643 382.495 215.055 382.703C215.466 382.906 215.812 383.198 216.094 383.578C216.375 383.958 216.586 384.414 216.727 384.945C216.872 385.471 216.945 386.057 216.945 386.703ZM215.492 386.867V386.703C215.492 386.281 215.448 385.885 215.359 385.516C215.271 385.141 215.133 384.812 214.945 384.531C214.763 384.245 214.529 384.021 214.242 383.859C213.956 383.693 213.615 383.609 213.219 383.609C212.854 383.609 212.536 383.672 212.266 383.797C212 383.922 211.773 384.091 211.586 384.305C211.398 384.513 211.245 384.753 211.125 385.023C211.01 385.289 210.924 385.565 210.867 385.852V387.875C210.971 388.24 211.117 388.583 211.305 388.906C211.492 389.224 211.742 389.482 212.055 389.68C212.367 389.872 212.76 389.969 213.234 389.969C213.625 389.969 213.961 389.888 214.242 389.727C214.529 389.56 214.763 389.333 214.945 389.047C215.133 388.76 215.271 388.432 215.359 388.062C215.448 387.688 215.492 387.289 215.492 386.867ZM220.359 379V391H218.906V379H220.359ZM222.297 386.867V386.688C222.297 386.078 222.385 385.513 222.562 384.992C222.74 384.466 222.995 384.01 223.328 383.625C223.661 383.234 224.065 382.932 224.539 382.719C225.013 382.5 225.544 382.391 226.133 382.391C226.727 382.391 227.26 382.5 227.734 382.719C228.214 382.932 228.62 383.234 228.953 383.625C229.292 384.01 229.549 384.466 229.727 384.992C229.904 385.513 229.992 386.078 229.992 386.688V386.867C229.992 387.477 229.904 388.042 229.727 388.562C229.549 389.083 229.292 389.539 228.953 389.93C228.62 390.315 228.216 390.617 227.742 390.836C227.273 391.049 226.742 391.156 226.148 391.156C225.555 391.156 225.021 391.049 224.547 390.836C224.073 390.617 223.667 390.315 223.328 389.93C222.995 389.539 222.74 389.083 222.562 388.562C222.385 388.042 222.297 387.477 222.297 386.867ZM223.742 386.688V386.867C223.742 387.289 223.792 387.688 223.891 388.062C223.99 388.432 224.138 388.76 224.336 389.047C224.539 389.333 224.792 389.56 225.094 389.727C225.396 389.888 225.747 389.969 226.148 389.969C226.544 389.969 226.891 389.888 227.188 389.727C227.49 389.56 227.74 389.333 227.938 389.047C228.135 388.76 228.284 388.432 228.383 388.062C228.487 387.688 228.539 387.289 228.539 386.867V386.688C228.539 386.271 228.487 385.878 228.383 385.508C228.284 385.133 228.133 384.802 227.93 384.516C227.732 384.224 227.482 383.995 227.18 383.828C226.883 383.661 226.534 383.578 226.133 383.578C225.737 383.578 225.388 383.661 225.086 383.828C224.789 383.995 224.539 384.224 224.336 384.516C224.138 384.802 223.99 385.133 223.891 385.508C223.792 385.878 223.742 386.271 223.742 386.688ZM233.25 383.875V391H231.805V382.547H233.211L233.25 383.875ZM235.891 382.5L235.883 383.844C235.763 383.818 235.648 383.802 235.539 383.797C235.435 383.786 235.315 383.781 235.18 383.781C234.846 383.781 234.552 383.833 234.297 383.938C234.042 384.042 233.826 384.188 233.648 384.375C233.471 384.562 233.331 384.786 233.227 385.047C233.128 385.302 233.062 385.583 233.031 385.891L232.625 386.125C232.625 385.615 232.674 385.135 232.773 384.688C232.878 384.24 233.036 383.844 233.25 383.5C233.464 383.151 233.734 382.88 234.062 382.688C234.396 382.49 234.792 382.391 235.25 382.391C235.354 382.391 235.474 382.404 235.609 382.43C235.745 382.451 235.839 382.474 235.891 382.5ZM240.578 391.156C239.99 391.156 239.456 391.057 238.977 390.859C238.503 390.656 238.094 390.372 237.75 390.008C237.411 389.643 237.151 389.211 236.969 388.711C236.786 388.211 236.695 387.664 236.695 387.07V386.742C236.695 386.055 236.797 385.443 237 384.906C237.203 384.365 237.479 383.906 237.828 383.531C238.177 383.156 238.573 382.872 239.016 382.68C239.458 382.487 239.917 382.391 240.391 382.391C240.995 382.391 241.516 382.495 241.953 382.703C242.396 382.911 242.758 383.203 243.039 383.578C243.32 383.948 243.529 384.385 243.664 384.891C243.799 385.391 243.867 385.938 243.867 386.531V387.18H237.555V386H242.422V385.891C242.401 385.516 242.323 385.151 242.188 384.797C242.057 384.443 241.849 384.151 241.562 383.922C241.276 383.693 240.885 383.578 240.391 383.578C240.062 383.578 239.76 383.648 239.484 383.789C239.208 383.924 238.971 384.128 238.773 384.398C238.576 384.669 238.422 385 238.312 385.391C238.203 385.781 238.148 386.232 238.148 386.742V387.07C238.148 387.471 238.203 387.849 238.312 388.203C238.427 388.552 238.591 388.859 238.805 389.125C239.023 389.391 239.286 389.599 239.594 389.75C239.906 389.901 240.26 389.977 240.656 389.977C241.167 389.977 241.599 389.872 241.953 389.664C242.307 389.456 242.617 389.177 242.883 388.828L243.758 389.523C243.576 389.799 243.344 390.062 243.062 390.312C242.781 390.562 242.435 390.766 242.023 390.922C241.617 391.078 241.135 391.156 240.578 391.156ZM250.969 384.352V391H249.523V382.547H250.891L250.969 384.352ZM250.625 386.453L250.023 386.43C250.029 385.852 250.115 385.318 250.281 384.828C250.448 384.333 250.682 383.904 250.984 383.539C251.286 383.174 251.646 382.893 252.062 382.695C252.484 382.492 252.951 382.391 253.461 382.391C253.878 382.391 254.253 382.448 254.586 382.562C254.919 382.672 255.203 382.849 255.438 383.094C255.677 383.339 255.859 383.656 255.984 384.047C256.109 384.432 256.172 384.904 256.172 385.461V391H254.719V385.445C254.719 385.003 254.654 384.648 254.523 384.383C254.393 384.112 254.203 383.917 253.953 383.797C253.703 383.672 253.396 383.609 253.031 383.609C252.672 383.609 252.344 383.685 252.047 383.836C251.755 383.987 251.503 384.195 251.289 384.461C251.081 384.727 250.917 385.031 250.797 385.375C250.682 385.714 250.625 386.073 250.625 386.453ZM261.875 391.156C261.286 391.156 260.753 391.057 260.273 390.859C259.799 390.656 259.391 390.372 259.047 390.008C258.708 389.643 258.448 389.211 258.266 388.711C258.083 388.211 257.992 387.664 257.992 387.07V386.742C257.992 386.055 258.094 385.443 258.297 384.906C258.5 384.365 258.776 383.906 259.125 383.531C259.474 383.156 259.87 382.872 260.312 382.68C260.755 382.487 261.214 382.391 261.688 382.391C262.292 382.391 262.812 382.495 263.25 382.703C263.693 382.911 264.055 383.203 264.336 383.578C264.617 383.948 264.826 384.385 264.961 384.891C265.096 385.391 265.164 385.938 265.164 386.531V387.18H258.852V386H263.719V385.891C263.698 385.516 263.62 385.151 263.484 384.797C263.354 384.443 263.146 384.151 262.859 383.922C262.573 383.693 262.182 383.578 261.688 383.578C261.359 383.578 261.057 383.648 260.781 383.789C260.505 383.924 260.268 384.128 260.07 384.398C259.872 384.669 259.719 385 259.609 385.391C259.5 385.781 259.445 386.232 259.445 386.742V387.07C259.445 387.471 259.5 387.849 259.609 388.203C259.724 388.552 259.888 388.859 260.102 389.125C260.32 389.391 260.583 389.599 260.891 389.75C261.203 389.901 261.557 389.977 261.953 389.977C262.464 389.977 262.896 389.872 263.25 389.664C263.604 389.456 263.914 389.177 264.18 388.828L265.055 389.523C264.872 389.799 264.641 390.062 264.359 390.312C264.078 390.562 263.732 390.766 263.32 390.922C262.914 391.078 262.432 391.156 261.875 391.156ZM268.992 389.5L271.164 382.547H272.117L271.93 383.93L269.719 391H268.789L268.992 389.5ZM267.531 382.547L269.383 389.578L269.516 391H268.539L266.086 382.547H267.531ZM274.195 389.523L275.961 382.547H277.398L274.945 391H273.977L274.195 389.523ZM272.328 382.547L274.453 389.383L274.695 391H273.773L271.5 383.914L271.312 382.547H272.328ZM67.4297 408.555V404.203C67.4297 403.87 67.362 403.581 67.2266 403.336C67.0964 403.086 66.8984 402.893 66.6328 402.758C66.3672 402.622 66.0391 402.555 65.6484 402.555C65.2839 402.555 64.9635 402.617 64.6875 402.742C64.4167 402.867 64.2031 403.031 64.0469 403.234C63.8958 403.438 63.8203 403.656 63.8203 403.891H62.375C62.375 403.589 62.4531 403.289 62.6094 402.992C62.7656 402.695 62.9896 402.427 63.2812 402.188C63.5781 401.943 63.9323 401.75 64.3438 401.609C64.7604 401.464 65.224 401.391 65.7344 401.391C66.349 401.391 66.8906 401.495 67.3594 401.703C67.8333 401.911 68.2031 402.227 68.4688 402.648C68.7396 403.065 68.875 403.589 68.875 404.219V408.156C68.875 408.438 68.8984 408.737 68.9453 409.055C68.9974 409.372 69.0729 409.646 69.1719 409.875V410H67.6641C67.5911 409.833 67.5339 409.612 67.4922 409.336C67.4505 409.055 67.4297 408.794 67.4297 408.555ZM67.6797 404.875L67.6953 405.891H66.2344C65.8229 405.891 65.4557 405.924 65.1328 405.992C64.8099 406.055 64.5391 406.151 64.3203 406.281C64.1016 406.411 63.9349 406.576 63.8203 406.773C63.7057 406.966 63.6484 407.193 63.6484 407.453C63.6484 407.719 63.7083 407.961 63.8281 408.18C63.9479 408.398 64.1276 408.573 64.3672 408.703C64.612 408.828 64.9115 408.891 65.2656 408.891C65.7083 408.891 66.099 408.797 66.4375 408.609C66.776 408.422 67.0443 408.193 67.2422 407.922C67.4453 407.651 67.5547 407.388 67.5703 407.133L68.1875 407.828C68.151 408.047 68.0521 408.289 67.8906 408.555C67.7292 408.82 67.513 409.076 67.2422 409.32C66.9766 409.56 66.6589 409.76 66.2891 409.922C65.9245 410.078 65.513 410.156 65.0547 410.156C64.4818 410.156 63.9792 410.044 63.5469 409.82C63.1198 409.596 62.7865 409.297 62.5469 408.922C62.3125 408.542 62.1953 408.117 62.1953 407.648C62.1953 407.195 62.2839 406.797 62.4609 406.453C62.638 406.104 62.8932 405.815 63.2266 405.586C63.5599 405.352 63.9609 405.174 64.4297 405.055C64.8984 404.935 65.4219 404.875 66 404.875H67.6797ZM71.1406 398H72.5938V408.359L72.4688 410H71.1406V398ZM78.3047 405.703V405.867C78.3047 406.482 78.2318 407.052 78.0859 407.578C77.9401 408.099 77.7266 408.552 77.4453 408.938C77.1641 409.323 76.8203 409.622 76.4141 409.836C76.0078 410.049 75.5417 410.156 75.0156 410.156C74.4792 410.156 74.0078 410.065 73.6016 409.883C73.2005 409.695 72.862 409.427 72.5859 409.078C72.3099 408.729 72.0885 408.307 71.9219 407.812C71.7604 407.318 71.6484 406.76 71.5859 406.141V405.422C71.6484 404.797 71.7604 404.237 71.9219 403.742C72.0885 403.247 72.3099 402.826 72.5859 402.477C72.862 402.122 73.2005 401.854 73.6016 401.672C74.0026 401.484 74.4688 401.391 75 401.391C75.5312 401.391 76.0026 401.495 76.4141 401.703C76.8255 401.906 77.1693 402.198 77.4453 402.578C77.7266 402.958 77.9401 403.414 78.0859 403.945C78.2318 404.471 78.3047 405.057 78.3047 405.703ZM76.8516 405.867V405.703C76.8516 405.281 76.8125 404.885 76.7344 404.516C76.6562 404.141 76.5312 403.812 76.3594 403.531C76.1875 403.245 75.9609 403.021 75.6797 402.859C75.3984 402.693 75.0521 402.609 74.6406 402.609C74.276 402.609 73.9583 402.672 73.6875 402.797C73.4219 402.922 73.1953 403.091 73.0078 403.305C72.8203 403.513 72.6667 403.753 72.5469 404.023C72.4323 404.289 72.3464 404.565 72.2891 404.852V406.734C72.3724 407.099 72.5078 407.451 72.6953 407.789C72.888 408.122 73.1432 408.396 73.4609 408.609C73.7839 408.823 74.1823 408.93 74.6562 408.93C75.0469 408.93 75.3802 408.852 75.6562 408.695C75.9375 408.534 76.1641 408.312 76.3359 408.031C76.513 407.75 76.6432 407.424 76.7266 407.055C76.8099 406.685 76.8516 406.289 76.8516 405.867ZM81.7031 401.547V410H80.25V401.547H81.7031ZM80.1406 399.305C80.1406 399.07 80.2109 398.872 80.3516 398.711C80.4974 398.549 80.7109 398.469 80.9922 398.469C81.2682 398.469 81.4792 398.549 81.625 398.711C81.776 398.872 81.8516 399.07 81.8516 399.305C81.8516 399.529 81.776 399.721 81.625 399.883C81.4792 400.039 81.2682 400.117 80.9922 400.117C80.7109 400.117 80.4974 400.039 80.3516 399.883C80.2109 399.721 80.1406 399.529 80.1406 399.305ZM85.5938 398V410H84.1406V398H85.5938ZM89.4844 401.547V410H88.0312V401.547H89.4844ZM87.9219 399.305C87.9219 399.07 87.9922 398.872 88.1328 398.711C88.2786 398.549 88.4922 398.469 88.7734 398.469C89.0495 398.469 89.2604 398.549 89.4062 398.711C89.5573 398.872 89.6328 399.07 89.6328 399.305C89.6328 399.529 89.5573 399.721 89.4062 399.883C89.2604 400.039 89.0495 400.117 88.7734 400.117C88.4922 400.117 88.2786 400.039 88.1328 399.883C87.9922 399.721 87.9219 399.529 87.9219 399.305ZM95.3438 401.547V402.656H90.7734V401.547H95.3438ZM92.3203 399.492H93.7656V407.906C93.7656 408.193 93.8099 408.409 93.8984 408.555C93.987 408.701 94.1016 408.797 94.2422 408.844C94.3828 408.891 94.5339 408.914 94.6953 408.914C94.8151 408.914 94.9401 408.904 95.0703 408.883C95.2057 408.857 95.3073 408.836 95.375 408.82L95.3828 410C95.2682 410.036 95.1172 410.07 94.9297 410.102C94.7474 410.138 94.526 410.156 94.2656 410.156C93.9115 410.156 93.5859 410.086 93.2891 409.945C92.9922 409.805 92.7552 409.57 92.5781 409.242C92.4062 408.909 92.3203 408.461 92.3203 407.898V399.492ZM98.6094 401.547V410H97.1562V401.547H98.6094ZM97.0469 399.305C97.0469 399.07 97.1172 398.872 97.2578 398.711C97.4036 398.549 97.6172 398.469 97.8984 398.469C98.1745 398.469 98.3854 398.549 98.5312 398.711C98.6823 398.872 98.7578 399.07 98.7578 399.305C98.7578 399.529 98.6823 399.721 98.5312 399.883C98.3854 400.039 98.1745 400.117 97.8984 400.117C97.6172 400.117 97.4036 400.039 97.2578 399.883C97.1172 399.721 97.0469 399.529 97.0469 399.305ZM104.438 410.156C103.849 410.156 103.315 410.057 102.836 409.859C102.362 409.656 101.953 409.372 101.609 409.008C101.271 408.643 101.01 408.211 100.828 407.711C100.646 407.211 100.555 406.664 100.555 406.07V405.742C100.555 405.055 100.656 404.443 100.859 403.906C101.062 403.365 101.339 402.906 101.688 402.531C102.036 402.156 102.432 401.872 102.875 401.68C103.318 401.487 103.776 401.391 104.25 401.391C104.854 401.391 105.375 401.495 105.812 401.703C106.255 401.911 106.617 402.203 106.898 402.578C107.18 402.948 107.388 403.385 107.523 403.891C107.659 404.391 107.727 404.938 107.727 405.531V406.18H101.414V405H106.281V404.891C106.26 404.516 106.182 404.151 106.047 403.797C105.917 403.443 105.708 403.151 105.422 402.922C105.135 402.693 104.745 402.578 104.25 402.578C103.922 402.578 103.62 402.648 103.344 402.789C103.068 402.924 102.831 403.128 102.633 403.398C102.435 403.669 102.281 404 102.172 404.391C102.062 404.781 102.008 405.232 102.008 405.742V406.07C102.008 406.471 102.062 406.849 102.172 407.203C102.286 407.552 102.451 407.859 102.664 408.125C102.883 408.391 103.146 408.599 103.453 408.75C103.766 408.901 104.12 408.977 104.516 408.977C105.026 408.977 105.458 408.872 105.812 408.664C106.167 408.456 106.477 408.177 106.742 407.828L107.617 408.523C107.435 408.799 107.203 409.062 106.922 409.312C106.641 409.562 106.294 409.766 105.883 409.922C105.477 410.078 104.995 410.156 104.438 410.156ZM114.336 407.758C114.336 407.549 114.289 407.357 114.195 407.18C114.107 406.997 113.922 406.833 113.641 406.688C113.365 406.536 112.948 406.406 112.391 406.297C111.922 406.198 111.497 406.081 111.117 405.945C110.742 405.81 110.422 405.646 110.156 405.453C109.896 405.26 109.695 405.034 109.555 404.773C109.414 404.513 109.344 404.208 109.344 403.859C109.344 403.526 109.417 403.211 109.562 402.914C109.714 402.617 109.924 402.354 110.195 402.125C110.471 401.896 110.802 401.716 111.188 401.586C111.573 401.456 112.003 401.391 112.477 401.391C113.154 401.391 113.732 401.51 114.211 401.75C114.69 401.99 115.057 402.31 115.312 402.711C115.568 403.107 115.695 403.547 115.695 404.031H114.25C114.25 403.797 114.18 403.57 114.039 403.352C113.904 403.128 113.703 402.943 113.438 402.797C113.177 402.651 112.857 402.578 112.477 402.578C112.076 402.578 111.75 402.641 111.5 402.766C111.255 402.885 111.076 403.039 110.961 403.227C110.852 403.414 110.797 403.612 110.797 403.82C110.797 403.977 110.823 404.117 110.875 404.242C110.932 404.362 111.031 404.474 111.172 404.578C111.312 404.677 111.51 404.771 111.766 404.859C112.021 404.948 112.346 405.036 112.742 405.125C113.435 405.281 114.005 405.469 114.453 405.688C114.901 405.906 115.234 406.174 115.453 406.492C115.672 406.81 115.781 407.195 115.781 407.648C115.781 408.018 115.703 408.357 115.547 408.664C115.396 408.971 115.174 409.237 114.883 409.461C114.596 409.68 114.253 409.852 113.852 409.977C113.456 410.096 113.01 410.156 112.516 410.156C111.771 410.156 111.141 410.023 110.625 409.758C110.109 409.492 109.719 409.148 109.453 408.727C109.188 408.305 109.055 407.859 109.055 407.391H110.508C110.529 407.786 110.643 408.102 110.852 408.336C111.06 408.565 111.315 408.729 111.617 408.828C111.919 408.922 112.219 408.969 112.516 408.969C112.911 408.969 113.242 408.917 113.508 408.812C113.779 408.708 113.984 408.565 114.125 408.383C114.266 408.201 114.336 407.992 114.336 407.758ZM121.641 398H123.094V408.359L122.969 410H121.641V398ZM128.805 405.703V405.867C128.805 406.482 128.732 407.052 128.586 407.578C128.44 408.099 128.227 408.552 127.945 408.938C127.664 409.323 127.32 409.622 126.914 409.836C126.508 410.049 126.042 410.156 125.516 410.156C124.979 410.156 124.508 410.065 124.102 409.883C123.701 409.695 123.362 409.427 123.086 409.078C122.81 408.729 122.589 408.307 122.422 407.812C122.26 407.318 122.148 406.76 122.086 406.141V405.422C122.148 404.797 122.26 404.237 122.422 403.742C122.589 403.247 122.81 402.826 123.086 402.477C123.362 402.122 123.701 401.854 124.102 401.672C124.503 401.484 124.969 401.391 125.5 401.391C126.031 401.391 126.503 401.495 126.914 401.703C127.326 401.906 127.669 402.198 127.945 402.578C128.227 402.958 128.44 403.414 128.586 403.945C128.732 404.471 128.805 405.057 128.805 405.703ZM127.352 405.867V405.703C127.352 405.281 127.312 404.885 127.234 404.516C127.156 404.141 127.031 403.812 126.859 403.531C126.688 403.245 126.461 403.021 126.18 402.859C125.898 402.693 125.552 402.609 125.141 402.609C124.776 402.609 124.458 402.672 124.188 402.797C123.922 402.922 123.695 403.091 123.508 403.305C123.32 403.513 123.167 403.753 123.047 404.023C122.932 404.289 122.846 404.565 122.789 404.852V406.734C122.872 407.099 123.008 407.451 123.195 407.789C123.388 408.122 123.643 408.396 123.961 408.609C124.284 408.823 124.682 408.93 125.156 408.93C125.547 408.93 125.88 408.852 126.156 408.695C126.438 408.534 126.664 408.312 126.836 408.031C127.013 407.75 127.143 407.424 127.227 407.055C127.31 406.685 127.352 406.289 127.352 405.867ZM132.914 409.125L135.266 401.547H136.812L133.422 411.305C133.344 411.513 133.24 411.737 133.109 411.977C132.984 412.221 132.823 412.453 132.625 412.672C132.427 412.891 132.188 413.068 131.906 413.203C131.63 413.344 131.299 413.414 130.914 413.414C130.799 413.414 130.654 413.398 130.477 413.367C130.299 413.336 130.174 413.31 130.102 413.289L130.094 412.117C130.135 412.122 130.201 412.128 130.289 412.133C130.383 412.143 130.448 412.148 130.484 412.148C130.812 412.148 131.091 412.104 131.32 412.016C131.549 411.932 131.742 411.789 131.898 411.586C132.06 411.388 132.198 411.115 132.312 410.766L132.914 409.125ZM131.188 401.547L133.383 408.109L133.758 409.633L132.719 410.164L129.609 401.547H131.188ZM145.625 401.547V402.656H141.055V401.547H145.625ZM142.602 399.492H144.047V407.906C144.047 408.193 144.091 408.409 144.18 408.555C144.268 408.701 144.383 408.797 144.523 408.844C144.664 408.891 144.815 408.914 144.977 408.914C145.096 408.914 145.221 408.904 145.352 408.883C145.487 408.857 145.589 408.836 145.656 408.82L145.664 410C145.549 410.036 145.398 410.07 145.211 410.102C145.029 410.138 144.807 410.156 144.547 410.156C144.193 410.156 143.867 410.086 143.57 409.945C143.273 409.805 143.036 409.57 142.859 409.242C142.688 408.909 142.602 408.461 142.602 407.898V399.492ZM152.305 408.555V404.203C152.305 403.87 152.237 403.581 152.102 403.336C151.971 403.086 151.773 402.893 151.508 402.758C151.242 402.622 150.914 402.555 150.523 402.555C150.159 402.555 149.839 402.617 149.562 402.742C149.292 402.867 149.078 403.031 148.922 403.234C148.771 403.438 148.695 403.656 148.695 403.891H147.25C147.25 403.589 147.328 403.289 147.484 402.992C147.641 402.695 147.865 402.427 148.156 402.188C148.453 401.943 148.807 401.75 149.219 401.609C149.635 401.464 150.099 401.391 150.609 401.391C151.224 401.391 151.766 401.495 152.234 401.703C152.708 401.911 153.078 402.227 153.344 402.648C153.615 403.065 153.75 403.589 153.75 404.219V408.156C153.75 408.438 153.773 408.737 153.82 409.055C153.872 409.372 153.948 409.646 154.047 409.875V410H152.539C152.466 409.833 152.409 409.612 152.367 409.336C152.326 409.055 152.305 408.794 152.305 408.555ZM152.555 404.875L152.57 405.891H151.109C150.698 405.891 150.331 405.924 150.008 405.992C149.685 406.055 149.414 406.151 149.195 406.281C148.977 406.411 148.81 406.576 148.695 406.773C148.581 406.966 148.523 407.193 148.523 407.453C148.523 407.719 148.583 407.961 148.703 408.18C148.823 408.398 149.003 408.573 149.242 408.703C149.487 408.828 149.786 408.891 150.141 408.891C150.583 408.891 150.974 408.797 151.312 408.609C151.651 408.422 151.919 408.193 152.117 407.922C152.32 407.651 152.43 407.388 152.445 407.133L153.062 407.828C153.026 408.047 152.927 408.289 152.766 408.555C152.604 408.82 152.388 409.076 152.117 409.32C151.852 409.56 151.534 409.76 151.164 409.922C150.799 410.078 150.388 410.156 149.93 410.156C149.357 410.156 148.854 410.044 148.422 409.82C147.995 409.596 147.661 409.297 147.422 408.922C147.188 408.542 147.07 408.117 147.07 407.648C147.07 407.195 147.159 406.797 147.336 406.453C147.513 406.104 147.768 405.815 148.102 405.586C148.435 405.352 148.836 405.174 149.305 405.055C149.773 404.935 150.297 404.875 150.875 404.875H152.555ZM157.477 398V410H156.023V398H157.477ZM162.641 401.547L158.953 405.492L156.891 407.633L156.773 406.094L158.25 404.328L160.875 401.547H162.641ZM161.32 410L158.305 405.969L159.055 404.68L163.023 410H161.32ZM165.703 401.547V410H164.25V401.547H165.703ZM164.141 399.305C164.141 399.07 164.211 398.872 164.352 398.711C164.497 398.549 164.711 398.469 164.992 398.469C165.268 398.469 165.479 398.549 165.625 398.711C165.776 398.872 165.852 399.07 165.852 399.305C165.852 399.529 165.776 399.721 165.625 399.883C165.479 400.039 165.268 400.117 164.992 400.117C164.711 400.117 164.497 400.039 164.352 399.883C164.211 399.721 164.141 399.529 164.141 399.305ZM169.469 403.352V410H168.023V401.547H169.391L169.469 403.352ZM169.125 405.453L168.523 405.43C168.529 404.852 168.615 404.318 168.781 403.828C168.948 403.333 169.182 402.904 169.484 402.539C169.786 402.174 170.146 401.893 170.562 401.695C170.984 401.492 171.451 401.391 171.961 401.391C172.378 401.391 172.753 401.448 173.086 401.562C173.419 401.672 173.703 401.849 173.938 402.094C174.177 402.339 174.359 402.656 174.484 403.047C174.609 403.432 174.672 403.904 174.672 404.461V410H173.219V404.445C173.219 404.003 173.154 403.648 173.023 403.383C172.893 403.112 172.703 402.917 172.453 402.797C172.203 402.672 171.896 402.609 171.531 402.609C171.172 402.609 170.844 402.685 170.547 402.836C170.255 402.987 170.003 403.195 169.789 403.461C169.581 403.727 169.417 404.031 169.297 404.375C169.182 404.714 169.125 405.073 169.125 405.453ZM182.344 401.547H183.656V409.82C183.656 410.565 183.505 411.201 183.203 411.727C182.901 412.253 182.479 412.651 181.938 412.922C181.401 413.198 180.781 413.336 180.078 413.336C179.786 413.336 179.443 413.289 179.047 413.195C178.656 413.107 178.271 412.953 177.891 412.734C177.516 412.521 177.201 412.232 176.945 411.867L177.703 411.008C178.057 411.435 178.427 411.732 178.812 411.898C179.203 412.065 179.589 412.148 179.969 412.148C180.427 412.148 180.823 412.062 181.156 411.891C181.49 411.719 181.747 411.464 181.93 411.125C182.117 410.792 182.211 410.38 182.211 409.891V403.406L182.344 401.547ZM176.523 405.867V405.703C176.523 405.057 176.599 404.471 176.75 403.945C176.906 403.414 177.128 402.958 177.414 402.578C177.706 402.198 178.057 401.906 178.469 401.703C178.88 401.495 179.344 401.391 179.859 401.391C180.391 401.391 180.854 401.484 181.25 401.672C181.651 401.854 181.99 402.122 182.266 402.477C182.547 402.826 182.768 403.247 182.93 403.742C183.091 404.237 183.203 404.797 183.266 405.422V406.141C183.208 406.76 183.096 407.318 182.93 407.812C182.768 408.307 182.547 408.729 182.266 409.078C181.99 409.427 181.651 409.695 181.25 409.883C180.849 410.065 180.38 410.156 179.844 410.156C179.339 410.156 178.88 410.049 178.469 409.836C178.062 409.622 177.714 409.323 177.422 408.938C177.13 408.552 176.906 408.099 176.75 407.578C176.599 407.052 176.523 406.482 176.523 405.867ZM177.969 405.703V405.867C177.969 406.289 178.01 406.685 178.094 407.055C178.182 407.424 178.315 407.75 178.492 408.031C178.674 408.312 178.906 408.534 179.188 408.695C179.469 408.852 179.805 408.93 180.195 408.93C180.674 408.93 181.07 408.828 181.383 408.625C181.695 408.422 181.943 408.154 182.125 407.82C182.312 407.487 182.458 407.125 182.562 406.734V404.852C182.505 404.565 182.417 404.289 182.297 404.023C182.182 403.753 182.031 403.513 181.844 403.305C181.661 403.091 181.435 402.922 181.164 402.797C180.893 402.672 180.576 402.609 180.211 402.609C179.815 402.609 179.474 402.693 179.188 402.859C178.906 403.021 178.674 403.245 178.492 403.531C178.315 403.812 178.182 404.141 178.094 404.516C178.01 404.885 177.969 405.281 177.969 405.703ZM193.359 401.547V402.656H188.789V401.547H193.359ZM190.336 399.492H191.781V407.906C191.781 408.193 191.826 408.409 191.914 408.555C192.003 408.701 192.117 408.797 192.258 408.844C192.398 408.891 192.549 408.914 192.711 408.914C192.831 408.914 192.956 408.904 193.086 408.883C193.221 408.857 193.323 408.836 193.391 408.82L193.398 410C193.284 410.036 193.133 410.07 192.945 410.102C192.763 410.138 192.542 410.156 192.281 410.156C191.927 410.156 191.602 410.086 191.305 409.945C191.008 409.805 190.771 409.57 190.594 409.242C190.422 408.909 190.336 408.461 190.336 407.898V399.492ZM196.5 398V410H195.055V398H196.5ZM196.156 405.453L195.555 405.43C195.56 404.852 195.646 404.318 195.812 403.828C195.979 403.333 196.214 402.904 196.516 402.539C196.818 402.174 197.177 401.893 197.594 401.695C198.016 401.492 198.482 401.391 198.992 401.391C199.409 401.391 199.784 401.448 200.117 401.562C200.451 401.672 200.734 401.849 200.969 402.094C201.208 402.339 201.391 402.656 201.516 403.047C201.641 403.432 201.703 403.904 201.703 404.461V410H200.25V404.445C200.25 404.003 200.185 403.648 200.055 403.383C199.924 403.112 199.734 402.917 199.484 402.797C199.234 402.672 198.927 402.609 198.562 402.609C198.203 402.609 197.875 402.685 197.578 402.836C197.286 402.987 197.034 403.195 196.82 403.461C196.612 403.727 196.448 404.031 196.328 404.375C196.214 404.714 196.156 405.073 196.156 405.453ZM207.375 410.156C206.786 410.156 206.253 410.057 205.773 409.859C205.299 409.656 204.891 409.372 204.547 409.008C204.208 408.643 203.948 408.211 203.766 407.711C203.583 407.211 203.492 406.664 203.492 406.07V405.742C203.492 405.055 203.594 404.443 203.797 403.906C204 403.365 204.276 402.906 204.625 402.531C204.974 402.156 205.37 401.872 205.812 401.68C206.255 401.487 206.714 401.391 207.188 401.391C207.792 401.391 208.312 401.495 208.75 401.703C209.193 401.911 209.555 402.203 209.836 402.578C210.117 402.948 210.326 403.385 210.461 403.891C210.596 404.391 210.664 404.938 210.664 405.531V406.18H204.352V405H209.219V404.891C209.198 404.516 209.12 404.151 208.984 403.797C208.854 403.443 208.646 403.151 208.359 402.922C208.073 402.693 207.682 402.578 207.188 402.578C206.859 402.578 206.557 402.648 206.281 402.789C206.005 402.924 205.768 403.128 205.57 403.398C205.372 403.669 205.219 404 205.109 404.391C205 404.781 204.945 405.232 204.945 405.742V406.07C204.945 406.471 205 406.849 205.109 407.203C205.224 407.552 205.388 407.859 205.602 408.125C205.82 408.391 206.083 408.599 206.391 408.75C206.703 408.901 207.057 408.977 207.453 408.977C207.964 408.977 208.396 408.872 208.75 408.664C209.104 408.456 209.414 408.177 209.68 407.828L210.555 408.523C210.372 408.799 210.141 409.062 209.859 409.312C209.578 409.562 209.232 409.766 208.82 409.922C208.414 410.078 207.932 410.156 207.375 410.156ZM219.859 401.547V402.656H215.289V401.547H219.859ZM216.836 399.492H218.281V407.906C218.281 408.193 218.326 408.409 218.414 408.555C218.503 408.701 218.617 408.797 218.758 408.844C218.898 408.891 219.049 408.914 219.211 408.914C219.331 408.914 219.456 408.904 219.586 408.883C219.721 408.857 219.823 408.836 219.891 408.82L219.898 410C219.784 410.036 219.633 410.07 219.445 410.102C219.263 410.138 219.042 410.156 218.781 410.156C218.427 410.156 218.102 410.086 217.805 409.945C217.508 409.805 217.271 409.57 217.094 409.242C216.922 408.909 216.836 408.461 216.836 407.898V399.492ZM225.062 410.156C224.474 410.156 223.94 410.057 223.461 409.859C222.987 409.656 222.578 409.372 222.234 409.008C221.896 408.643 221.635 408.211 221.453 407.711C221.271 407.211 221.18 406.664 221.18 406.07V405.742C221.18 405.055 221.281 404.443 221.484 403.906C221.688 403.365 221.964 402.906 222.312 402.531C222.661 402.156 223.057 401.872 223.5 401.68C223.943 401.487 224.401 401.391 224.875 401.391C225.479 401.391 226 401.495 226.438 401.703C226.88 401.911 227.242 402.203 227.523 402.578C227.805 402.948 228.013 403.385 228.148 403.891C228.284 404.391 228.352 404.938 228.352 405.531V406.18H222.039V405H226.906V404.891C226.885 404.516 226.807 404.151 226.672 403.797C226.542 403.443 226.333 403.151 226.047 402.922C225.76 402.693 225.37 402.578 224.875 402.578C224.547 402.578 224.245 402.648 223.969 402.789C223.693 402.924 223.456 403.128 223.258 403.398C223.06 403.669 222.906 404 222.797 404.391C222.688 404.781 222.633 405.232 222.633 405.742V406.07C222.633 406.471 222.688 406.849 222.797 407.203C222.911 407.552 223.076 407.859 223.289 408.125C223.508 408.391 223.771 408.599 224.078 408.75C224.391 408.901 224.745 408.977 225.141 408.977C225.651 408.977 226.083 408.872 226.438 408.664C226.792 408.456 227.102 408.177 227.367 407.828L228.242 408.523C228.06 408.799 227.828 409.062 227.547 409.312C227.266 409.562 226.919 409.766 226.508 409.922C226.102 410.078 225.62 410.156 225.062 410.156ZM234.961 407.758C234.961 407.549 234.914 407.357 234.82 407.18C234.732 406.997 234.547 406.833 234.266 406.688C233.99 406.536 233.573 406.406 233.016 406.297C232.547 406.198 232.122 406.081 231.742 405.945C231.367 405.81 231.047 405.646 230.781 405.453C230.521 405.26 230.32 405.034 230.18 404.773C230.039 404.513 229.969 404.208 229.969 403.859C229.969 403.526 230.042 403.211 230.188 402.914C230.339 402.617 230.549 402.354 230.82 402.125C231.096 401.896 231.427 401.716 231.812 401.586C232.198 401.456 232.628 401.391 233.102 401.391C233.779 401.391 234.357 401.51 234.836 401.75C235.315 401.99 235.682 402.31 235.938 402.711C236.193 403.107 236.32 403.547 236.32 404.031H234.875C234.875 403.797 234.805 403.57 234.664 403.352C234.529 403.128 234.328 402.943 234.062 402.797C233.802 402.651 233.482 402.578 233.102 402.578C232.701 402.578 232.375 402.641 232.125 402.766C231.88 402.885 231.701 403.039 231.586 403.227C231.477 403.414 231.422 403.612 231.422 403.82C231.422 403.977 231.448 404.117 231.5 404.242C231.557 404.362 231.656 404.474 231.797 404.578C231.938 404.677 232.135 404.771 232.391 404.859C232.646 404.948 232.971 405.036 233.367 405.125C234.06 405.281 234.63 405.469 235.078 405.688C235.526 405.906 235.859 406.174 236.078 406.492C236.297 406.81 236.406 407.195 236.406 407.648C236.406 408.018 236.328 408.357 236.172 408.664C236.021 408.971 235.799 409.237 235.508 409.461C235.221 409.68 234.878 409.852 234.477 409.977C234.081 410.096 233.635 410.156 233.141 410.156C232.396 410.156 231.766 410.023 231.25 409.758C230.734 409.492 230.344 409.148 230.078 408.727C229.812 408.305 229.68 407.859 229.68 407.391H231.133C231.154 407.786 231.268 408.102 231.477 408.336C231.685 408.565 231.94 408.729 232.242 408.828C232.544 408.922 232.844 408.969 233.141 408.969C233.536 408.969 233.867 408.917 234.133 408.812C234.404 408.708 234.609 408.565 234.75 408.383C234.891 408.201 234.961 407.992 234.961 407.758ZM241.844 401.547V402.656H237.273V401.547H241.844ZM238.82 399.492H240.266V407.906C240.266 408.193 240.31 408.409 240.398 408.555C240.487 408.701 240.602 408.797 240.742 408.844C240.883 408.891 241.034 408.914 241.195 408.914C241.315 408.914 241.44 408.904 241.57 408.883C241.706 408.857 241.807 408.836 241.875 408.82L241.883 410C241.768 410.036 241.617 410.07 241.43 410.102C241.247 410.138 241.026 410.156 240.766 410.156C240.411 410.156 240.086 410.086 239.789 409.945C239.492 409.805 239.255 409.57 239.078 409.242C238.906 408.909 238.82 408.461 238.82 407.898V399.492ZM243.562 409.234C243.562 408.99 243.638 408.784 243.789 408.617C243.945 408.445 244.169 408.359 244.461 408.359C244.753 408.359 244.974 408.445 245.125 408.617C245.281 408.784 245.359 408.99 245.359 409.234C245.359 409.474 245.281 409.677 245.125 409.844C244.974 410.01 244.753 410.094 244.461 410.094C244.169 410.094 243.945 410.01 243.789 409.844C243.638 409.677 243.562 409.474 243.562 409.234Z" fill="#343435"/>
</g>
<defs>
<filter id="filter0_d_72_2277" x="0" y="0" width="308" height="603" filterUnits="userSpaceOnUse" color-interpolation-filters="sRGB">
<feFlood flood-opacity="0" result="BackgroundImageFix"/>
<feColorMatrix in="SourceAlpha" type="matrix" values="0 0 0 0 0 0 0 0 0 0 0 0 0 0 0 0 0 0 127 0" result="hardAlpha"/>
<feOffset dy="4"/>
<feGaussianBlur stdDeviation="5"/>
<feComposite in2="hardAlpha" operator="out"/>
<feColorMatrix type="matrix" values="0 0 0 0 0.257517 0 0 0 0 0.299785 0 0 0 0 0.379167 0 0 0 0.15 0"/>
<feBlend mode="normal" in2="BackgroundImageFix" result="effect1_dropShadow_72_2277"/>
<feBlend mode="normal" in="SourceGraphic" in2="effect1_dropShadow_72_2277" result="shape"/>
</filter>
<clipPath id="clip0_72_2277">
<rect width="63.863" height="83.25" fill="white" transform="translate(122 206)"/>
</clipPath>
</defs>
</svg>
