<svg width="149" height="148" viewBox="0 0 149 148" fill="none" xmlns="http://www.w3.org/2000/svg">
<circle cx="74.5" cy="74" r="74" fill="#E9ECEB"/>
<path d="M99.6924 113.5H45.065C44.3849 113.499 43.733 113.229 43.2521 112.748C42.7713 112.267 42.5008 111.615 42.5 110.935V36.065C42.5008 35.3849 42.7713 34.733 43.2521 34.2521C43.733 33.7712 44.3849 33.5008 45.065 33.5H99.6924C100.372 33.5008 101.024 33.7712 101.505 34.2521C101.986 34.733 102.257 35.3849 102.257 36.065V110.935C102.257 111.615 101.986 112.267 101.505 112.748C101.024 113.229 100.372 113.499 99.6924 113.5Z" fill="#CCCCCC"/>
<path d="M98.8603 111.836H45.8967C45.4372 111.836 44.9967 111.653 44.6718 111.328C44.3469 111.003 44.1641 110.562 44.1636 110.103V36.8967C44.1641 36.4372 44.3469 35.9967 44.6718 35.6718C44.9967 35.3469 45.4372 35.1641 45.8967 35.1636H98.8603C99.3198 35.1641 99.7603 35.3469 100.085 35.6718C100.41 35.9967 100.593 36.4372 100.593 36.8967V110.103C100.593 110.562 100.41 111.003 100.085 111.328C99.7603 111.653 99.3198 111.836 98.8603 111.836Z" fill="white"/>
<path d="M87.5777 55.9303H52.5965C52.3018 55.9303 52.0192 55.8132 51.8108 55.6048C51.6024 55.3965 51.4854 55.1138 51.4854 54.8191C51.4854 54.5245 51.6024 54.2418 51.8108 54.0335C52.0192 53.8251 52.3018 53.708 52.5965 53.708H87.5777C87.8724 53.708 88.155 53.8251 88.3634 54.0335C88.5717 54.2418 88.6888 54.5245 88.6888 54.8191C88.6888 55.1138 88.5717 55.3965 88.3634 55.6048C88.155 55.8132 87.8724 55.9303 87.5777 55.9303Z" fill="#CCCCCC"/>
<path d="M92.1611 59.6803H52.5965C52.4506 59.6803 52.3061 59.6516 52.1713 59.5957C52.0365 59.5399 51.914 59.458 51.8108 59.3548C51.7076 59.2517 51.6258 59.1292 51.5699 58.9944C51.5141 58.8596 51.4854 58.7151 51.4854 58.5691C51.4854 58.4232 51.5141 58.2787 51.5699 58.1439C51.6258 58.0091 51.7076 57.8866 51.8108 57.7835C51.914 57.6803 52.0365 57.5984 52.1713 57.5426C52.3061 57.4867 52.4506 57.458 52.5965 57.458H92.1611C92.4558 57.458 92.7384 57.5751 92.9468 57.7835C93.1552 57.9918 93.2723 58.2745 93.2723 58.5691C93.2723 58.8638 93.1552 59.1465 92.9468 59.3548C92.7384 59.5632 92.4558 59.6803 92.1611 59.6803Z" fill="#CCCCCC"/>
<path d="M87.5774 72.736H52.5962C52.3018 72.7356 52.0194 72.6184 51.8113 72.4101C51.6032 72.2017 51.4863 71.9193 51.4863 71.6248C51.4863 71.3303 51.6032 71.0479 51.8113 70.8396C52.0194 70.6312 52.3018 70.514 52.5962 70.5137H87.5774C87.8721 70.5137 88.1547 70.6307 88.3631 70.8391C88.5715 71.0475 88.6886 71.3301 88.6886 71.6248C88.6886 71.9195 88.5715 72.2021 88.3631 72.4105C88.1547 72.6189 87.8721 72.736 87.5774 72.736Z" fill="#CCCCCC"/>
<path d="M92.1609 76.4864H52.5962C52.3018 76.4861 52.0194 76.3689 51.8113 76.1606C51.6032 75.9522 51.4863 75.6698 51.4863 75.3753C51.4863 75.0808 51.6032 74.7984 51.8113 74.59C52.0194 74.3817 52.3018 74.2645 52.5962 74.2642H92.1609C92.4556 74.2642 92.7382 74.3812 92.9466 74.5896C93.1549 74.798 93.272 75.0806 93.272 75.3753C93.272 75.67 93.1549 75.9526 92.9466 76.161C92.7382 76.3694 92.4556 76.4864 92.1609 76.4864Z" fill="#CCCCCC"/>
<path d="M87.5774 89.5421H52.5962C52.3018 89.5418 52.0194 89.4246 51.8113 89.2162C51.6032 89.0079 51.4863 88.7254 51.4863 88.431C51.4863 88.1365 51.6032 87.8541 51.8113 87.6457C52.0194 87.4374 52.3018 87.3202 52.5962 87.3198H87.5774C87.8721 87.3198 88.1547 87.4369 88.3631 87.6453C88.5715 87.8537 88.6886 88.1363 88.6886 88.431C88.6886 88.7257 88.5715 89.0083 88.3631 89.2167C88.1547 89.425 87.8721 89.5421 87.5774 89.5421Z" fill="#CCCCCC"/>
<path d="M92.1611 93.2921H52.5965C52.3018 93.2921 52.0192 93.175 51.8108 92.9667C51.6024 92.7583 51.4854 92.4757 51.4854 92.181C51.4854 91.8863 51.6024 91.6037 51.8108 91.3953C52.0192 91.1869 52.3018 91.0698 52.5965 91.0698H92.1611C92.4558 91.0698 92.7384 91.1869 92.9468 91.3953C93.1552 91.6037 93.2723 91.8863 93.2723 92.181C93.2723 92.4757 93.1552 92.7583 92.9468 92.9667C92.7384 93.175 92.4558 93.2921 92.1611 93.2921Z" fill="#CCCCCC"/>
</svg>
