<svg width="14" height="14" viewBox="0 0 14 14" fill="none" xmlns="http://www.w3.org/2000/svg">
<path d="M10.5 9.254C10.5 9.94 9.94 10.5 9.254 10.5C8.568 10.5 8.015 9.94 8.015 9.254C8.015 8.568 8.568 8.015 9.254 8.015C9.94 8.015 10.5 8.568 10.5 9.254ZM4.781 6.02C5.467 6.02 6.02 5.467 6.02 4.781C6.02 4.088 5.467 3.535 4.781 3.535C4.088 3.535 3.535 4.088 3.535 4.781C3.535 5.467 4.088 6.02 4.781 6.02ZM3.5 9.471L4.55 10.521L10.521 4.55L9.471 3.5L3.5 9.471ZM14 7C14 10.85 10.85 14 7 14C3.15 14 0 10.85 0 7C0 3.15 3.15 0 7 0C10.85 0 14 3.15 14 7ZM12.6 7C12.6 3.913 10.087 1.4 7 1.4C3.913 1.4 1.4 3.913 1.4 7C1.4 10.087 3.913 12.6 7 12.6C10.087 12.6 12.6 10.087 12.6 7Z" fill="#343435"/>
</svg>
