<svg width="16" height="13" viewBox="0 0 16 13" fill="none" xmlns="http://www.w3.org/2000/svg">
<path d="M14.4375 0.625C15.1484 0.625 15.75 1.22656 15.75 1.9375V11.5625C15.75 12.3008 15.1484 12.875 14.4375 12.875H1.3125C0.574219 12.875 0 12.3008 0 11.5625V1.9375C0 1.22656 0.574219 0.625 1.3125 0.625H14.4375ZM14.4375 11.5625V1.9375H1.3125V11.5625H14.4375ZM5.6875 6.75C4.70312 6.75 3.9375 5.98438 3.9375 5C3.9375 4.04297 4.70312 3.25 5.6875 3.25C6.64453 3.25 7.4375 4.04297 7.4375 5C7.4375 5.98438 6.64453 6.75 5.6875 6.75ZM3.22656 10.25C2.89844 10.25 2.625 10.0312 2.625 9.73047V9.21094C2.625 8.33594 3.44531 7.625 4.45703 7.625C4.75781 7.625 4.94922 7.84375 5.6875 7.84375C6.39844 7.84375 6.61719 7.625 6.89062 7.625C7.90234 7.625 8.75 8.33594 8.75 9.21094V9.73047C8.75 10.0312 8.47656 10.25 8.12109 10.25H3.22656ZM9.84375 8.5C9.70703 8.5 9.625 8.41797 9.625 8.28125V7.84375C9.625 7.73438 9.70703 7.625 9.84375 7.625H12.9062C13.0156 7.625 13.125 7.73438 13.125 7.84375V8.28125C13.125 8.41797 13.0156 8.5 12.9062 8.5H9.84375ZM9.84375 6.75C9.70703 6.75 9.625 6.66797 9.625 6.53125V6.09375C9.625 5.98438 9.70703 5.875 9.84375 5.875H12.9062C13.0156 5.875 13.125 5.98438 13.125 6.09375V6.53125C13.125 6.66797 13.0156 6.75 12.9062 6.75H9.84375ZM9.84375 5C9.70703 5 9.625 4.91797 9.625 4.78125V4.34375C9.625 4.23438 9.70703 4.125 9.84375 4.125H12.9062C13.0156 4.125 13.125 4.23438 13.125 4.34375V4.78125C13.125 4.91797 13.0156 5 12.9062 5H9.84375Z" fill="#343435"/>
</svg>
