<svg width="14" height="16" viewBox="0 0 14 16" fill="none" xmlns="http://www.w3.org/2000/svg">
<path d="M7 0.96875C10.7188 0.96875 13.7812 4.03125 13.7812 7.75C13.7812 11.4961 10.7188 14.5312 7 14.5312C3.25391 14.5312 0.21875 11.4961 0.21875 7.75C0.21875 4.03125 3.25391 0.96875 7 0.96875ZM7 3.97656C6.34375 3.97656 5.85156 4.49609 5.85156 5.125C5.85156 5.78125 6.34375 6.27344 7 6.27344C7.62891 6.27344 8.14844 5.78125 8.14844 5.125C8.14844 4.49609 7.62891 3.97656 7 3.97656ZM8.53125 10.9219V10.2656C8.53125 10.1016 8.36719 9.9375 8.20312 9.9375H7.875V7.20312C7.875 7.03906 7.71094 6.875 7.54688 6.875H5.79688C5.60547 6.875 5.46875 7.03906 5.46875 7.20312V7.85938C5.46875 8.05078 5.60547 8.1875 5.79688 8.1875H6.125V9.9375H5.79688C5.60547 9.9375 5.46875 10.1016 5.46875 10.2656V10.9219C5.46875 11.1133 5.60547 11.25 5.79688 11.25H8.20312C8.36719 11.25 8.53125 11.1133 8.53125 10.9219Z" fill="#231F20"/>
</svg>
