<svg width="33" height="32" viewBox="0 0 33 32" fill="none" xmlns="http://www.w3.org/2000/svg">
<path d="M16.5 3C13.9288 3 11.4154 3.76244 9.27759 5.1909C7.13975 6.61935 5.47351 8.64968 4.48957 11.0251C3.50563 13.4006 3.24819 16.0144 3.7498 18.5362C4.25141 21.0579 5.48953 23.3743 7.30762 25.1924C9.1257 27.0105 11.4421 28.2486 13.9638 28.7502C16.4856 29.2518 19.0995 28.9944 21.4749 28.0104C23.8503 27.0265 25.8807 25.3603 27.3091 23.2224C28.7376 21.0846 29.5 18.5712 29.5 16C29.4964 12.5533 28.1256 9.24882 25.6884 6.81163C23.2512 4.37445 19.9467 3.00364 16.5 3ZM21.2075 19.2925C21.3004 19.3854 21.3741 19.4957 21.4244 19.6171C21.4747 19.7385 21.5006 19.8686 21.5006 20C21.5006 20.1314 21.4747 20.2615 21.4244 20.3829C21.3741 20.5043 21.3004 20.6146 21.2075 20.7075C21.1146 20.8004 21.0043 20.8741 20.8829 20.9244C20.7615 20.9747 20.6314 21.0006 20.5 21.0006C20.3686 21.0006 20.2385 20.9747 20.1171 20.9244C19.9957 20.8741 19.8854 20.8004 19.7925 20.7075L16.5 17.4137L13.2075 20.7075C13.1146 20.8004 13.0043 20.8741 12.8829 20.9244C12.7615 20.9747 12.6314 21.0006 12.5 21.0006C12.3686 21.0006 12.2385 20.9747 12.1171 20.9244C11.9957 20.8741 11.8854 20.8004 11.7925 20.7075C11.6996 20.6146 11.6259 20.5043 11.5756 20.3829C11.5253 20.2615 11.4994 20.1314 11.4994 20C11.4994 19.8686 11.5253 19.7385 11.5756 19.6171C11.6259 19.4957 11.6996 19.3854 11.7925 19.2925L15.0863 16L11.7925 12.7075C11.6049 12.5199 11.4994 12.2654 11.4994 12C11.4994 11.7346 11.6049 11.4801 11.7925 11.2925C11.9801 11.1049 12.2346 10.9994 12.5 10.9994C12.7654 10.9994 13.0199 11.1049 13.2075 11.2925L16.5 14.5863L19.7925 11.2925C19.8854 11.1996 19.9957 11.1259 20.1171 11.0756C20.2385 11.0253 20.3686 10.9994 20.5 10.9994C20.6314 10.9994 20.7615 11.0253 20.8829 11.0756C21.0043 11.1259 21.1146 11.1996 21.2075 11.2925C21.3004 11.3854 21.3741 11.4957 21.4244 11.6171C21.4747 11.7385 21.5006 11.8686 21.5006 12C21.5006 12.1314 21.4747 12.2615 21.4244 12.3829C21.3741 12.5043 21.3004 12.6146 21.2075 12.7075L17.9138 16L21.2075 19.2925Z" fill="#B2B2B3"/>
</svg>
