<svg width="16" height="17" viewBox="0 0 16 17" fill="none" xmlns="http://www.w3.org/2000/svg">
<path d="M14.7997 12.2557L9.33407 2.76379C9.19749 2.53124 9.00251 2.33843 8.76845 2.20445C8.53439 2.07048 8.26938 2 7.99969 2C7.73 2 7.465 2.07048 7.23094 2.20445C6.99688 2.33843 6.8019 2.53124 6.66532 2.76379L1.19969 12.2557C1.06828 12.4806 0.999023 12.7364 0.999023 12.9969C0.999023 13.2574 1.06828 13.5132 1.19969 13.7382C1.33453 13.9721 1.52918 14.166 1.76367 14.2999C1.99816 14.4338 2.26406 14.5028 2.53407 14.5H13.4653C13.7351 14.5026 14.0008 14.4334 14.235 14.2996C14.4693 14.1657 14.6637 13.9719 14.7984 13.7382C14.93 13.5134 14.9995 13.2576 14.9997 12.9971C15 12.7366 14.9309 12.4807 14.7997 12.2557ZM7.49969 7.00004C7.49969 6.86743 7.55237 6.74026 7.64614 6.64649C7.73991 6.55272 7.86709 6.50004 7.99969 6.50004C8.1323 6.50004 8.25948 6.55272 8.35325 6.64649C8.44702 6.74026 8.49969 6.86743 8.49969 7.00004V9.50004C8.49969 9.63265 8.44702 9.75983 8.35325 9.85359C8.25948 9.94736 8.1323 10 7.99969 10C7.86709 10 7.73991 9.94736 7.64614 9.85359C7.55237 9.75983 7.49969 9.63265 7.49969 9.50004V7.00004ZM7.99969 12.5C7.85136 12.5 7.70635 12.4561 7.58302 12.3736C7.45968 12.2912 7.36355 12.1741 7.30678 12.0371C7.25002 11.9 7.23517 11.7492 7.2641 11.6037C7.29304 11.4582 7.36447 11.3246 7.46936 11.2197C7.57425 11.1148 7.70789 11.0434 7.85338 11.0145C7.99886 10.9855 8.14966 11.0004 8.28671 11.0571C8.42375 11.1139 8.54088 11.21 8.6233 11.3334C8.70571 11.4567 8.74969 11.6017 8.74969 11.75C8.74969 11.949 8.67068 12.1397 8.53002 12.2804C8.38937 12.421 8.19861 12.5 7.99969 12.5Z" fill="#E03E2D"/>
</svg>
