<svg width="148" height="148" viewBox="0 0 148 148" fill="none" xmlns="http://www.w3.org/2000/svg">
<circle cx="74" cy="74" r="74" fill="#E9ECEB"/>
<g clip-path="url(#clip0_72_2278)">
<path d="M98.4108 108.741H48.8623C48.5319 108.74 48.2152 108.606 47.9816 108.366C47.748 108.127 47.6166 107.803 47.6162 107.464V46.6418C47.6166 46.3033 47.748 45.9788 47.9816 45.7395C48.2152 45.5002 48.5319 45.3656 48.8623 45.3652H98.4108C98.7412 45.3656 99.0579 45.5002 99.2915 45.7395C99.5251 45.9789 99.6565 46.3033 99.6569 46.6418V107.464C99.6565 107.803 99.5251 108.127 99.2915 108.366C99.0579 108.606 98.7412 108.74 98.4108 108.741Z" fill="white"/>
<path d="M75.6156 42.3623H44.7577C44.0971 42.3633 43.4637 42.6326 42.9966 43.1111C42.5294 43.5897 42.2666 44.2385 42.2656 44.9153V106.158L42.5588 106.067V44.9153C42.5595 44.3181 42.7914 43.7456 43.2036 43.3233C43.6159 42.901 44.1747 42.6634 44.7577 42.6627H75.7065L75.6156 42.3623ZM102.516 42.3623H44.7577C44.0971 42.3633 43.4637 42.6326 42.9966 43.1111C42.5294 43.5897 42.2666 44.2385 42.2656 44.9153V113.697C42.2666 114.374 42.5294 115.023 42.9966 115.502C43.4637 115.98 44.0971 116.249 44.7577 116.25H102.516C103.176 116.249 103.81 115.98 104.277 115.502C104.744 115.023 105.007 114.374 105.008 113.697V44.9153C105.007 44.2385 104.744 43.5897 104.277 43.1111C103.81 42.6326 103.176 42.3633 102.516 42.3623ZM104.714 113.697C104.714 114.295 104.482 114.867 104.07 115.289C103.657 115.712 103.098 115.949 102.516 115.95H44.7577C44.1747 115.949 43.6159 115.712 43.2036 115.289C42.7914 114.867 42.5595 114.295 42.5588 113.697V44.9153C42.5595 44.3181 42.7914 43.7456 43.2036 43.3233C43.6159 42.901 44.1747 42.6634 44.7577 42.6627H102.516C103.098 42.6634 103.657 42.901 104.07 43.3233C104.482 43.7456 104.714 44.3181 104.714 44.9153V113.697Z" fill="#3F3D56"/>
<path d="M87.1236 48.9703H60.1504C59.8006 48.9699 59.4653 48.8273 59.2179 48.574C58.9706 48.3206 58.8314 47.977 58.8311 47.6187V41.0108C58.8314 40.6524 58.9706 40.3089 59.2179 40.0555C59.4653 39.8021 59.8006 39.6596 60.1504 39.6592H87.1236C87.4734 39.6596 87.8087 39.8021 88.0561 40.0555C88.3034 40.3089 88.4425 40.6524 88.4429 41.0108V47.6187C88.4425 47.977 88.3034 48.3206 88.0561 48.574C87.8087 48.8273 87.4734 48.9699 87.1236 48.9703Z" fill="#8E8E92"/>
<path d="M73.6369 40.1097C75.2562 40.1097 76.5688 38.7649 76.5688 37.1061C76.5688 35.4473 75.2562 34.1025 73.6369 34.1025C72.0177 34.1025 70.7051 35.4473 70.7051 37.1061C70.7051 38.7649 72.0177 40.1097 73.6369 40.1097Z" fill="#8E8E92"/>
<path d="M73.6369 38.9353C74.6231 38.9353 75.4226 38.1162 75.4226 37.1058C75.4226 36.0954 74.6231 35.2764 73.6369 35.2764C72.6506 35.2764 71.8511 36.0954 71.8511 37.1058C71.8511 38.1162 72.6506 38.9353 73.6369 38.9353Z" fill="white"/>
</g>
<defs>
<clipPath id="clip0_72_2278">
<rect width="63.863" height="83.25" fill="white" transform="translate(42 33)"/>
</clipPath>
</defs>
</svg>
