<svg width="61" height="26" viewBox="0 0 61 26" fill="none" xmlns="http://www.w3.org/2000/svg">
<path d="M0 0H53C57.4183 0 61 3.58172 61 8V26H8C3.58172 26 0 22.4183 0 18V0Z" fill="#B2B2B3"/>
<path d="M16.4688 15.7344V17H11.9336V15.7344H16.4688ZM12.4258 8.46875V17H10.8145V8.46875H12.4258ZM15.877 11.9902V13.2266H11.9336V11.9902H15.877ZM16.4512 8.46875V9.74023H11.9336V8.46875H16.4512ZM18.6836 10.6602L19.8145 12.6758L20.9629 10.6602H22.6445L20.7812 13.7656L22.7207 17H21.0391L19.8262 14.8848L18.6074 17H16.9258L18.8594 13.7656L17.0078 10.6602H18.6836ZM25.0879 11.8789V19.4375H23.5352V10.6602H24.9707L25.0879 11.8789ZM29.1602 13.7656V13.8887C29.1602 14.3496 29.1055 14.7773 28.9961 15.1719C28.8906 15.5625 28.7344 15.9043 28.5273 16.1973C28.3203 16.4863 28.0625 16.7129 27.7539 16.877C27.4492 17.0371 27.0977 17.1172 26.6992 17.1172C26.3086 17.1172 25.9688 17.043 25.6797 16.8945C25.3906 16.7422 25.1465 16.5273 24.9473 16.25C24.748 15.9727 24.5879 15.6504 24.4668 15.2832C24.3496 14.9121 24.2617 14.5078 24.2031 14.0703V13.6777C24.2617 13.2129 24.3496 12.791 24.4668 12.4121C24.5879 12.0293 24.748 11.6992 24.9473 11.4219C25.1465 11.1406 25.3887 10.9238 25.6738 10.7715C25.9629 10.6191 26.3008 10.543 26.6875 10.543C27.0898 10.543 27.4434 10.6191 27.748 10.7715C28.0566 10.9238 28.3164 11.1426 28.5273 11.4277C28.7383 11.7129 28.8965 12.0527 29.002 12.4473C29.1074 12.8418 29.1602 13.2812 29.1602 13.7656ZM27.6074 13.8887V13.7656C27.6074 13.4844 27.582 13.2246 27.5312 12.9863C27.4805 12.7441 27.4023 12.5332 27.2969 12.3535C27.1914 12.1699 27.0547 12.0273 26.8867 11.9258C26.7188 11.8242 26.5156 11.7734 26.2773 11.7734C26.0391 11.7734 25.834 11.8125 25.6621 11.8906C25.4902 11.9688 25.3496 12.0801 25.2402 12.2246C25.1309 12.3691 25.0449 12.541 24.9824 12.7402C24.9238 12.9355 24.8848 13.1523 24.8652 13.3906V14.3633C24.9004 14.6523 24.9688 14.9121 25.0703 15.1426C25.1719 15.373 25.3203 15.5566 25.5156 15.6934C25.7148 15.8301 25.9727 15.8984 26.2891 15.8984C26.5273 15.8984 26.7305 15.8457 26.8984 15.7402C27.0664 15.6348 27.2031 15.4902 27.3086 15.3066C27.4141 15.1191 27.4902 14.9043 27.5371 14.6621C27.584 14.4199 27.6074 14.1621 27.6074 13.8887ZM31.9316 10.6602V17H30.3789V10.6602H31.9316ZM30.2734 9.00195C30.2734 8.77148 30.3516 8.58008 30.5078 8.42773C30.668 8.27539 30.8828 8.19922 31.1523 8.19922C31.4219 8.19922 31.6348 8.27539 31.791 8.42773C31.9512 8.58008 32.0312 8.77148 32.0312 9.00195C32.0312 9.22852 31.9512 9.41797 31.791 9.57031C31.6348 9.72266 31.4219 9.79883 31.1523 9.79883C30.8828 9.79883 30.668 9.72266 30.5078 9.57031C30.3516 9.41797 30.2734 9.22852 30.2734 9.00195ZM34.9551 11.9551V17H33.4082V10.6602H34.873L34.9551 11.9551ZM36.8828 10.6191L36.8594 12.0605C36.7734 12.0449 36.6758 12.0332 36.5664 12.0254C36.4609 12.0176 36.3613 12.0137 36.2676 12.0137C36.0293 12.0137 35.8203 12.0469 35.6406 12.1133C35.4609 12.1758 35.3105 12.2676 35.1895 12.3887C35.0723 12.5098 34.9824 12.6582 34.9199 12.834C34.8574 13.0059 34.8223 13.2012 34.8145 13.4199L34.4805 13.3789C34.4805 12.9766 34.5215 12.6035 34.6035 12.2598C34.6855 11.916 34.8047 11.6152 34.9609 11.3574C35.1172 11.0996 35.3125 10.9004 35.5469 10.7598C35.7852 10.6152 36.0586 10.543 36.3672 10.543C36.4531 10.543 36.5449 10.5508 36.6426 10.5664C36.7441 10.5781 36.8242 10.5957 36.8828 10.6191ZM40.4629 17.1172C39.9824 17.1172 39.5508 17.0391 39.168 16.8828C38.7852 16.7266 38.459 16.5098 38.1895 16.2324C37.9238 15.9512 37.7188 15.625 37.5742 15.2539C37.4336 14.8789 37.3633 14.4766 37.3633 14.0469V13.8125C37.3633 13.3242 37.4336 12.8809 37.5742 12.4824C37.7148 12.0801 37.9141 11.7344 38.1719 11.4453C38.4297 11.1562 38.7383 10.9336 39.0977 10.7773C39.457 10.6211 39.8535 10.543 40.2871 10.543C40.7363 10.543 41.1328 10.6191 41.4766 10.7715C41.8203 10.9199 42.1074 11.1309 42.3379 11.4043C42.5684 11.6777 42.7422 12.0059 42.8594 12.3887C42.9766 12.7676 43.0352 13.1875 43.0352 13.6484V14.2988H38.0664V13.2324H41.5117V13.1152C41.5039 12.8691 41.457 12.6445 41.3711 12.4414C41.2852 12.2344 41.1523 12.0703 40.9727 11.9492C40.793 11.8242 40.5605 11.7617 40.2754 11.7617C40.0449 11.7617 39.8438 11.8125 39.6719 11.9141C39.5039 12.0117 39.3633 12.1523 39.25 12.3359C39.1406 12.5156 39.0586 12.7305 39.0039 12.9805C38.9492 13.2305 38.9219 13.5078 38.9219 13.8125V14.0469C38.9219 14.3125 38.957 14.5586 39.0273 14.7852C39.1016 15.0117 39.209 15.209 39.3496 15.377C39.4941 15.541 39.666 15.6699 39.8652 15.7637C40.0684 15.8535 40.2988 15.8984 40.5566 15.8984C40.8809 15.8984 41.1738 15.8359 41.4355 15.7109C41.7012 15.582 41.9316 15.3926 42.127 15.1426L42.9062 15.9512C42.7734 16.1465 42.5938 16.334 42.3672 16.5137C42.1445 16.6934 41.875 16.8398 41.5586 16.9531C41.2422 17.0625 40.877 17.1172 40.4629 17.1172ZM47.875 15.6523V8H49.4336V17H48.0273L47.875 15.6523ZM43.8027 13.9062V13.7832C43.8027 13.2988 43.8574 12.8594 43.9668 12.4648C44.0801 12.0664 44.2441 11.7246 44.459 11.4395C44.6738 11.1543 44.9336 10.9336 45.2383 10.7773C45.5469 10.6211 45.8965 10.543 46.2871 10.543C46.666 10.543 46.9961 10.6191 47.2773 10.7715C47.5625 10.9238 47.8047 11.1406 48.0039 11.4219C48.207 11.7031 48.3691 12.0371 48.4902 12.4238C48.6113 12.8066 48.6992 13.2285 48.7539 13.6895V14.0234C48.6992 14.4727 48.6113 14.8848 48.4902 15.2598C48.3691 15.6348 48.207 15.9629 48.0039 16.2441C47.8047 16.5215 47.5625 16.7363 47.2773 16.8887C46.9922 17.041 46.6582 17.1172 46.2754 17.1172C45.8887 17.1172 45.541 17.0371 45.2324 16.877C44.9277 16.7168 44.668 16.4922 44.4531 16.2031C44.2422 15.9141 44.0801 15.5742 43.9668 15.1836C43.8574 14.793 43.8027 14.3672 43.8027 13.9062ZM45.3555 13.7832V13.9062C45.3555 14.1797 45.3789 14.4355 45.4258 14.6738C45.4727 14.9121 45.5488 15.123 45.6543 15.3066C45.7598 15.4863 45.8945 15.627 46.0586 15.7285C46.2266 15.8301 46.4297 15.8809 46.668 15.8809C46.9727 15.8809 47.2227 15.8145 47.418 15.6816C47.6172 15.5449 47.7715 15.3594 47.8809 15.125C47.9902 14.8867 48.0605 14.6191 48.0918 14.3223V13.4023C48.0762 13.168 48.0352 12.9512 47.9688 12.752C47.9062 12.5527 47.8164 12.3809 47.6992 12.2363C47.5859 12.0918 47.4453 11.9785 47.2773 11.8965C47.1094 11.8145 46.9102 11.7734 46.6797 11.7734C46.4414 11.7734 46.2383 11.8262 46.0703 11.9316C45.9023 12.0332 45.7656 12.1758 45.6602 12.3594C45.5547 12.543 45.4766 12.7559 45.4258 12.998C45.3789 13.2402 45.3555 13.502 45.3555 13.7832Z" fill="white"/>
</svg>
