<svg width="53" height="26" viewBox="0 0 53 26" fill="none" xmlns="http://www.w3.org/2000/svg">
<path d="M0 0H45C49.4183 0 53 3.58172 53 8V26H8C3.58172 26 0 22.4183 0 18V0Z" fill="#E03E2D"/>
<path d="M14.4766 8.46875V17H12.8711V8.46875H14.4766ZM17.125 8.46875V9.74023H10.252V8.46875H17.125ZM16.8906 13.8945V13.7715C16.8906 13.3066 16.957 12.8789 17.0898 12.4883C17.2227 12.0938 17.416 11.752 17.6699 11.4629C17.9238 11.1738 18.2344 10.9492 18.6016 10.7891C18.9688 10.625 19.3867 10.543 19.8555 10.543C20.332 10.543 20.7539 10.625 21.1211 10.7891C21.4922 10.9492 21.8047 11.1738 22.0586 11.4629C22.3125 11.752 22.5059 12.0938 22.6387 12.4883C22.7715 12.8789 22.8379 13.3066 22.8379 13.7715V13.8945C22.8379 14.3555 22.7715 14.7832 22.6387 15.1777C22.5059 15.5684 22.3125 15.9102 22.0586 16.2031C21.8047 16.4922 21.4941 16.7168 21.127 16.877C20.7598 17.0371 20.3398 17.1172 19.8672 17.1172C19.3984 17.1172 18.9785 17.0371 18.6074 16.877C18.2363 16.7168 17.9238 16.4922 17.6699 16.2031C17.416 15.9102 17.2227 15.5684 17.0898 15.1777C16.957 14.7832 16.8906 14.3555 16.8906 13.8945ZM18.4375 13.7715V13.8945C18.4375 14.1719 18.4648 14.4316 18.5195 14.6738C18.5742 14.916 18.6582 15.1289 18.7715 15.3125C18.8848 15.4961 19.0312 15.6406 19.2109 15.7461C19.3945 15.8477 19.6133 15.8984 19.8672 15.8984C20.1172 15.8984 20.332 15.8477 20.5117 15.7461C20.6914 15.6406 20.8379 15.4961 20.9512 15.3125C21.0684 15.1289 21.1543 14.916 21.209 14.6738C21.2637 14.4316 21.291 14.1719 21.291 13.8945V13.7715C21.291 13.498 21.2637 13.2422 21.209 13.0039C21.1543 12.7617 21.0684 12.5488 20.9512 12.3652C20.8379 12.1777 20.6895 12.0312 20.5059 11.9258C20.3262 11.8164 20.1094 11.7617 19.8555 11.7617C19.6055 11.7617 19.3906 11.8164 19.2109 11.9258C19.0312 12.0312 18.8848 12.1777 18.7715 12.3652C18.6582 12.5488 18.5742 12.7617 18.5195 13.0039C18.4648 13.2422 18.4375 13.498 18.4375 13.7715ZM27.7656 15.6523V8H29.3242V17H27.918L27.7656 15.6523ZM23.6934 13.9062V13.7832C23.6934 13.2988 23.748 12.8594 23.8574 12.4648C23.9707 12.0664 24.1348 11.7246 24.3496 11.4395C24.5645 11.1543 24.8242 10.9336 25.1289 10.7773C25.4375 10.6211 25.7871 10.543 26.1777 10.543C26.5566 10.543 26.8867 10.6191 27.168 10.7715C27.4531 10.9238 27.6953 11.1406 27.8945 11.4219C28.0977 11.7031 28.2598 12.0371 28.3809 12.4238C28.502 12.8066 28.5898 13.2285 28.6445 13.6895V14.0234C28.5898 14.4727 28.502 14.8848 28.3809 15.2598C28.2598 15.6348 28.0977 15.9629 27.8945 16.2441C27.6953 16.5215 27.4531 16.7363 27.168 16.8887C26.8828 17.041 26.5488 17.1172 26.166 17.1172C25.7793 17.1172 25.4316 17.0371 25.123 16.877C24.8184 16.7168 24.5586 16.4922 24.3438 16.2031C24.1328 15.9141 23.9707 15.5742 23.8574 15.1836C23.748 14.793 23.6934 14.3672 23.6934 13.9062ZM25.2461 13.7832V13.9062C25.2461 14.1797 25.2695 14.4355 25.3164 14.6738C25.3633 14.9121 25.4395 15.123 25.5449 15.3066C25.6504 15.4863 25.7852 15.627 25.9492 15.7285C26.1172 15.8301 26.3203 15.8809 26.5586 15.8809C26.8633 15.8809 27.1133 15.8145 27.3086 15.6816C27.5078 15.5449 27.6621 15.3594 27.7715 15.125C27.8809 14.8867 27.9512 14.6191 27.9824 14.3223V13.4023C27.9668 13.168 27.9258 12.9512 27.8594 12.752C27.7969 12.5527 27.707 12.3809 27.5898 12.2363C27.4766 12.0918 27.3359 11.9785 27.168 11.8965C27 11.8145 26.8008 11.7734 26.5703 11.7734C26.332 11.7734 26.1289 11.8262 25.9609 11.9316C25.793 12.0332 25.6562 12.1758 25.5508 12.3594C25.4453 12.543 25.3672 12.7559 25.3164 12.998C25.2695 13.2402 25.2461 13.502 25.2461 13.7832ZM34.2168 15.6523V12.7285C34.2168 12.5137 34.1797 12.3281 34.1055 12.1719C34.0312 12.0156 33.918 11.8945 33.7656 11.8086C33.6133 11.7227 33.4199 11.6797 33.1855 11.6797C32.9785 11.6797 32.7969 11.7148 32.6406 11.7852C32.4883 11.8555 32.3711 11.9551 32.2891 12.084C32.207 12.209 32.166 12.3535 32.166 12.5176H30.6133C30.6133 12.2559 30.6758 12.0078 30.8008 11.7734C30.9258 11.5352 31.1035 11.3242 31.334 11.1406C31.5684 10.9531 31.8477 10.8066 32.1719 10.7012C32.5 10.5957 32.8672 10.543 33.2734 10.543C33.7539 10.543 34.1816 10.625 34.5566 10.7891C34.9355 10.9492 35.2324 11.1914 35.4473 11.5156C35.666 11.8398 35.7754 12.248 35.7754 12.7402V15.5059C35.7754 15.8223 35.7949 16.0938 35.834 16.3203C35.877 16.543 35.9395 16.7363 36.0215 16.9004V17H34.4453C34.3711 16.8398 34.3145 16.6367 34.2754 16.3906C34.2363 16.1406 34.2168 15.8945 34.2168 15.6523ZM34.4336 13.1387L34.4453 14.0586H33.4668C33.2246 14.0586 33.0117 14.084 32.8281 14.1348C32.6445 14.1816 32.4941 14.252 32.377 14.3457C32.2598 14.4355 32.1719 14.5449 32.1133 14.6738C32.0547 14.7988 32.0254 14.9414 32.0254 15.1016C32.0254 15.2578 32.0605 15.3984 32.1309 15.5234C32.2051 15.6484 32.3105 15.748 32.4473 15.8223C32.5879 15.8926 32.752 15.9277 32.9395 15.9277C33.2129 15.9277 33.4512 15.873 33.6543 15.7637C33.8574 15.6504 34.0156 15.5137 34.1289 15.3535C34.2422 15.1934 34.3027 15.041 34.3105 14.8965L34.7559 15.5645C34.7012 15.7246 34.6191 15.8945 34.5098 16.0742C34.4004 16.2539 34.2598 16.4219 34.0879 16.5781C33.916 16.7344 33.709 16.8633 33.4668 16.9648C33.2246 17.0664 32.9434 17.1172 32.623 17.1172C32.2129 17.1172 31.8457 17.0352 31.5215 16.8711C31.1973 16.707 30.9414 16.4824 30.7539 16.1973C30.5664 15.9121 30.4727 15.5879 30.4727 15.2246C30.4727 14.8887 30.5352 14.5918 30.6602 14.334C30.7852 14.0762 30.9707 13.8594 31.2168 13.6836C31.4629 13.5039 31.7676 13.3691 32.1309 13.2793C32.498 13.1855 32.918 13.1387 33.3906 13.1387H34.4336ZM38.9336 16.2969L40.6328 10.6602H42.291L39.748 17.9609C39.6895 18.1172 39.6133 18.2871 39.5195 18.4707C39.4297 18.6543 39.3086 18.8281 39.1562 18.9922C39.0039 19.1602 38.8125 19.2969 38.582 19.4023C38.3555 19.5078 38.0801 19.5605 37.7559 19.5605C37.6152 19.5605 37.4902 19.5508 37.3809 19.5312C37.2715 19.5117 37.1562 19.4863 37.0352 19.4551V18.2949C37.0742 18.2988 37.1191 18.3008 37.1699 18.3008C37.2246 18.3047 37.2715 18.3066 37.3105 18.3066C37.5371 18.3066 37.7246 18.2793 37.873 18.2246C38.0215 18.1738 38.1406 18.0898 38.2305 17.9727C38.3242 17.8594 38.4023 17.7109 38.4648 17.5273L38.9336 16.2969ZM38.0957 10.6602L39.5312 15.3301L39.7832 16.9648L38.7168 17.1582L36.4258 10.6602H38.0957Z" fill="white"/>
</svg>
