<svg width="75" height="26" viewBox="0 0 75 26" fill="none" xmlns="http://www.w3.org/2000/svg">
<path d="M0 0H67C71.4183 0 75 3.58172 75 8V26H8C3.58172 26 0 22.4183 0 18V0Z" fill="#FF8D06"/>
<path d="M14.8438 8.46875V17H13.2383V8.46875H14.8438ZM17.4922 8.46875V9.74023H10.6191V8.46875H17.4922ZM17.2578 13.8945V13.7715C17.2578 13.3066 17.3242 12.8789 17.457 12.4883C17.5898 12.0938 17.7832 11.752 18.0371 11.4629C18.291 11.1738 18.6016 10.9492 18.9688 10.7891C19.3359 10.625 19.7539 10.543 20.2227 10.543C20.6992 10.543 21.1211 10.625 21.4883 10.7891C21.8594 10.9492 22.1719 11.1738 22.4258 11.4629C22.6797 11.752 22.873 12.0938 23.0059 12.4883C23.1387 12.8789 23.2051 13.3066 23.2051 13.7715V13.8945C23.2051 14.3555 23.1387 14.7832 23.0059 15.1777C22.873 15.5684 22.6797 15.9102 22.4258 16.2031C22.1719 16.4922 21.8613 16.7168 21.4941 16.877C21.127 17.0371 20.707 17.1172 20.2344 17.1172C19.7656 17.1172 19.3457 17.0371 18.9746 16.877C18.6035 16.7168 18.291 16.4922 18.0371 16.2031C17.7832 15.9102 17.5898 15.5684 17.457 15.1777C17.3242 14.7832 17.2578 14.3555 17.2578 13.8945ZM18.8047 13.7715V13.8945C18.8047 14.1719 18.832 14.4316 18.8867 14.6738C18.9414 14.916 19.0254 15.1289 19.1387 15.3125C19.252 15.4961 19.3984 15.6406 19.5781 15.7461C19.7617 15.8477 19.9805 15.8984 20.2344 15.8984C20.4844 15.8984 20.6992 15.8477 20.8789 15.7461C21.0586 15.6406 21.2051 15.4961 21.3184 15.3125C21.4355 15.1289 21.5215 14.916 21.5762 14.6738C21.6309 14.4316 21.6582 14.1719 21.6582 13.8945V13.7715C21.6582 13.498 21.6309 13.2422 21.5762 13.0039C21.5215 12.7617 21.4355 12.5488 21.3184 12.3652C21.2051 12.1777 21.0566 12.0312 20.873 11.9258C20.6934 11.8164 20.4766 11.7617 20.2227 11.7617C19.9727 11.7617 19.7578 11.8164 19.5781 11.9258C19.3984 12.0312 19.252 12.1777 19.1387 12.3652C19.0254 12.5488 18.9414 12.7617 18.8867 13.0039C18.832 13.2422 18.8047 13.498 18.8047 13.7715ZM25.8711 11.9609V17H24.3242V10.6602H25.7832L25.8711 11.9609ZM25.6426 13.6016H25.168C25.168 13.1602 25.2207 12.7539 25.3262 12.3828C25.4355 12.0117 25.5957 11.6895 25.8066 11.416C26.0176 11.1387 26.2773 10.9238 26.5859 10.7715C26.8984 10.6191 27.2598 10.543 27.6699 10.543C27.9551 10.543 28.2168 10.5859 28.4551 10.6719C28.6934 10.7539 28.8984 10.8848 29.0703 11.0645C29.2461 11.2402 29.3809 11.4707 29.4746 11.7559C29.5684 12.0371 29.6152 12.375 29.6152 12.7695V17H28.0684V12.9277C28.0684 12.6309 28.0254 12.3984 27.9395 12.2305C27.8574 12.0625 27.7383 11.9453 27.582 11.8789C27.4258 11.8086 27.2383 11.7734 27.0195 11.7734C26.7773 11.7734 26.5684 11.8223 26.3926 11.9199C26.2207 12.0137 26.0781 12.1445 25.9648 12.3125C25.8555 12.4805 25.7734 12.6738 25.7188 12.8926C25.668 13.1113 25.6426 13.3477 25.6426 13.6016ZM29.498 13.3145L28.8594 13.4316C28.8633 13.0332 28.918 12.6602 29.0234 12.3125C29.1289 11.9609 29.2832 11.6543 29.4863 11.3926C29.6934 11.127 29.9492 10.9199 30.2539 10.7715C30.5625 10.6191 30.918 10.543 31.3203 10.543C31.6328 10.543 31.9141 10.5879 32.1641 10.6777C32.418 10.7637 32.6348 10.9023 32.8145 11.0938C32.9941 11.2812 33.1309 11.5254 33.2246 11.8262C33.3223 12.127 33.3711 12.4941 33.3711 12.9277V17H31.8125V12.9219C31.8125 12.6133 31.7695 12.377 31.6836 12.2129C31.6016 12.0488 31.4824 11.9355 31.3262 11.873C31.1699 11.8066 30.9863 11.7734 30.7754 11.7734C30.5605 11.7734 30.373 11.8145 30.2129 11.8965C30.0566 11.9746 29.9238 12.084 29.8145 12.2246C29.709 12.3652 29.6289 12.5293 29.5742 12.7168C29.5234 12.9004 29.498 13.0996 29.498 13.3145ZM34.4844 13.8945V13.7715C34.4844 13.3066 34.5508 12.8789 34.6836 12.4883C34.8164 12.0938 35.0098 11.752 35.2637 11.4629C35.5176 11.1738 35.8281 10.9492 36.1953 10.7891C36.5625 10.625 36.9805 10.543 37.4492 10.543C37.9258 10.543 38.3477 10.625 38.7148 10.7891C39.0859 10.9492 39.3984 11.1738 39.6523 11.4629C39.9062 11.752 40.0996 12.0938 40.2324 12.4883C40.3652 12.8789 40.4316 13.3066 40.4316 13.7715V13.8945C40.4316 14.3555 40.3652 14.7832 40.2324 15.1777C40.0996 15.5684 39.9062 15.9102 39.6523 16.2031C39.3984 16.4922 39.0879 16.7168 38.7207 16.877C38.3535 17.0371 37.9336 17.1172 37.4609 17.1172C36.9922 17.1172 36.5723 17.0371 36.2012 16.877C35.8301 16.7168 35.5176 16.4922 35.2637 16.2031C35.0098 15.9102 34.8164 15.5684 34.6836 15.1777C34.5508 14.7832 34.4844 14.3555 34.4844 13.8945ZM36.0312 13.7715V13.8945C36.0312 14.1719 36.0586 14.4316 36.1133 14.6738C36.168 14.916 36.252 15.1289 36.3652 15.3125C36.4785 15.4961 36.625 15.6406 36.8047 15.7461C36.9883 15.8477 37.207 15.8984 37.4609 15.8984C37.7109 15.8984 37.9258 15.8477 38.1055 15.7461C38.2852 15.6406 38.4316 15.4961 38.5449 15.3125C38.6621 15.1289 38.748 14.916 38.8027 14.6738C38.8574 14.4316 38.8848 14.1719 38.8848 13.8945V13.7715C38.8848 13.498 38.8574 13.2422 38.8027 13.0039C38.748 12.7617 38.6621 12.5488 38.5449 12.3652C38.4316 12.1777 38.2832 12.0312 38.0996 11.9258C37.9199 11.8164 37.7031 11.7617 37.4492 11.7617C37.1992 11.7617 36.9844 11.8164 36.8047 11.9258C36.625 12.0312 36.4785 12.1777 36.3652 12.3652C36.252 12.5488 36.168 12.7617 36.1133 13.0039C36.0586 13.2422 36.0312 13.498 36.0312 13.7715ZM43.1035 11.9551V17H41.5566V10.6602H43.0215L43.1035 11.9551ZM45.0312 10.6191L45.0078 12.0605C44.9219 12.0449 44.8242 12.0332 44.7148 12.0254C44.6094 12.0176 44.5098 12.0137 44.416 12.0137C44.1777 12.0137 43.9688 12.0469 43.7891 12.1133C43.6094 12.1758 43.459 12.2676 43.3379 12.3887C43.2207 12.5098 43.1309 12.6582 43.0684 12.834C43.0059 13.0059 42.9707 13.2012 42.9629 13.4199L42.6289 13.3789C42.6289 12.9766 42.6699 12.6035 42.752 12.2598C42.834 11.916 42.9531 11.6152 43.1094 11.3574C43.2656 11.0996 43.4609 10.9004 43.6953 10.7598C43.9336 10.6152 44.207 10.543 44.5156 10.543C44.6016 10.543 44.6934 10.5508 44.791 10.5664C44.8926 10.5781 44.9727 10.5957 45.0312 10.6191ZM47.4277 11.9551V17H45.8809V10.6602H47.3457L47.4277 11.9551ZM49.3555 10.6191L49.332 12.0605C49.2461 12.0449 49.1484 12.0332 49.0391 12.0254C48.9336 12.0176 48.834 12.0137 48.7402 12.0137C48.502 12.0137 48.293 12.0469 48.1133 12.1133C47.9336 12.1758 47.7832 12.2676 47.6621 12.3887C47.5449 12.5098 47.4551 12.6582 47.3926 12.834C47.3301 13.0059 47.2949 13.2012 47.2871 13.4199L46.9531 13.3789C46.9531 12.9766 46.9941 12.6035 47.0762 12.2598C47.1582 11.916 47.2773 11.6152 47.4336 11.3574C47.5898 11.0996 47.7852 10.9004 48.0195 10.7598C48.2578 10.6152 48.5312 10.543 48.8398 10.543C48.9258 10.543 49.0176 10.5508 49.1152 10.5664C49.2168 10.5781 49.2969 10.5957 49.3555 10.6191ZM49.7656 13.8945V13.7715C49.7656 13.3066 49.832 12.8789 49.9648 12.4883C50.0977 12.0938 50.291 11.752 50.5449 11.4629C50.7988 11.1738 51.1094 10.9492 51.4766 10.7891C51.8438 10.625 52.2617 10.543 52.7305 10.543C53.207 10.543 53.6289 10.625 53.9961 10.7891C54.3672 10.9492 54.6797 11.1738 54.9336 11.4629C55.1875 11.752 55.3809 12.0938 55.5137 12.4883C55.6465 12.8789 55.7129 13.3066 55.7129 13.7715V13.8945C55.7129 14.3555 55.6465 14.7832 55.5137 15.1777C55.3809 15.5684 55.1875 15.9102 54.9336 16.2031C54.6797 16.4922 54.3691 16.7168 54.002 16.877C53.6348 17.0371 53.2148 17.1172 52.7422 17.1172C52.2734 17.1172 51.8535 17.0371 51.4824 16.877C51.1113 16.7168 50.7988 16.4922 50.5449 16.2031C50.291 15.9102 50.0977 15.5684 49.9648 15.1777C49.832 14.7832 49.7656 14.3555 49.7656 13.8945ZM51.3125 13.7715V13.8945C51.3125 14.1719 51.3398 14.4316 51.3945 14.6738C51.4492 14.916 51.5332 15.1289 51.6465 15.3125C51.7598 15.4961 51.9062 15.6406 52.0859 15.7461C52.2695 15.8477 52.4883 15.8984 52.7422 15.8984C52.9922 15.8984 53.207 15.8477 53.3867 15.7461C53.5664 15.6406 53.7129 15.4961 53.8262 15.3125C53.9434 15.1289 54.0293 14.916 54.084 14.6738C54.1387 14.4316 54.166 14.1719 54.166 13.8945V13.7715C54.166 13.498 54.1387 13.2422 54.084 13.0039C54.0293 12.7617 53.9434 12.5488 53.8262 12.3652C53.7129 12.1777 53.5645 12.0312 53.3809 11.9258C53.2012 11.8164 52.9844 11.7617 52.7305 11.7617C52.4805 11.7617 52.2656 11.8164 52.0859 11.9258C51.9062 12.0312 51.7598 12.1777 51.6465 12.3652C51.5332 12.5488 51.4492 12.7617 51.3945 13.0039C51.3398 13.2422 51.3125 13.498 51.3125 13.7715ZM58.6016 15.4766L59.9902 10.6602H60.9746L60.6816 12.3242L59.2812 17H58.4316L58.6016 15.4766ZM57.834 10.6602L58.877 15.4883L58.9707 17H57.9922L56.3281 10.6602H57.834ZM62.2637 15.418L63.2832 10.6602H64.7832L63.1309 17H62.1523L62.2637 15.418ZM61.127 10.6602L62.5039 15.4297L62.6855 17H61.8359L60.4238 12.3242L60.1367 10.6602H61.127Z" fill="white"/>
</svg>
