<svg width="126" height="26" viewBox="0 0 126 26" fill="none" xmlns="http://www.w3.org/2000/svg">
<path d="M0 0H118C122.418 0 126 3.58172 126 8V26H8C3.58172 26 0 22.4183 0 18V0Z" fill="#2DC26B"/>
<path d="M15.5605 8.46875H17.1719V14.1348C17.1719 14.7871 17.0312 15.3359 16.75 15.7812C16.4688 16.2227 16.0859 16.5566 15.6016 16.7832C15.1172 17.0059 14.5664 17.1172 13.9492 17.1172C13.3242 17.1172 12.7676 17.0059 12.2793 16.7832C11.791 16.5566 11.4082 16.2227 11.1309 15.7812C10.8535 15.3359 10.7148 14.7871 10.7148 14.1348V8.46875H12.3262V14.1348C12.3262 14.5332 12.3926 14.8594 12.5254 15.1133C12.6582 15.3633 12.8457 15.5488 13.0879 15.6699C13.3301 15.791 13.6172 15.8516 13.9492 15.8516C14.2852 15.8516 14.5723 15.791 14.8105 15.6699C15.0527 15.5488 15.2383 15.3633 15.3672 15.1133C15.4961 14.8594 15.5605 14.5332 15.5605 14.1348V8.46875ZM20.1309 11.8789V19.4375H18.5781V10.6602H20.0137L20.1309 11.8789ZM24.2031 13.7656V13.8887C24.2031 14.3496 24.1484 14.7773 24.0391 15.1719C23.9336 15.5625 23.7773 15.9043 23.5703 16.1973C23.3633 16.4863 23.1055 16.7129 22.7969 16.877C22.4922 17.0371 22.1406 17.1172 21.7422 17.1172C21.3516 17.1172 21.0117 17.043 20.7227 16.8945C20.4336 16.7422 20.1895 16.5273 19.9902 16.25C19.791 15.9727 19.6309 15.6504 19.5098 15.2832C19.3926 14.9121 19.3047 14.5078 19.2461 14.0703V13.6777C19.3047 13.2129 19.3926 12.791 19.5098 12.4121C19.6309 12.0293 19.791 11.6992 19.9902 11.4219C20.1895 11.1406 20.4316 10.9238 20.7168 10.7715C21.0059 10.6191 21.3438 10.543 21.7305 10.543C22.1328 10.543 22.4863 10.6191 22.791 10.7715C23.0996 10.9238 23.3594 11.1426 23.5703 11.4277C23.7812 11.7129 23.9395 12.0527 24.0449 12.4473C24.1504 12.8418 24.2031 13.2812 24.2031 13.7656ZM22.6504 13.8887V13.7656C22.6504 13.4844 22.625 13.2246 22.5742 12.9863C22.5234 12.7441 22.4453 12.5332 22.3398 12.3535C22.2344 12.1699 22.0977 12.0273 21.9297 11.9258C21.7617 11.8242 21.5586 11.7734 21.3203 11.7734C21.082 11.7734 20.877 11.8125 20.7051 11.8906C20.5332 11.9688 20.3926 12.0801 20.2832 12.2246C20.1738 12.3691 20.0879 12.541 20.0254 12.7402C19.9668 12.9355 19.9277 13.1523 19.9082 13.3906V14.3633C19.9434 14.6523 20.0117 14.9121 20.1133 15.1426C20.2148 15.373 20.3633 15.5566 20.5586 15.6934C20.7578 15.8301 21.0156 15.8984 21.332 15.8984C21.5703 15.8984 21.7734 15.8457 21.9414 15.7402C22.1094 15.6348 22.2461 15.4902 22.3516 15.3066C22.457 15.1191 22.5332 14.9043 22.5801 14.6621C22.627 14.4199 22.6504 14.1621 22.6504 13.8887ZM27.9355 15.8984C28.1543 15.8984 28.3496 15.8555 28.5215 15.7695C28.6934 15.6836 28.8301 15.5625 28.9316 15.4062C29.0371 15.25 29.0938 15.0684 29.1016 14.8613H30.5605C30.5527 15.291 30.4316 15.6758 30.1973 16.0156C29.9629 16.3555 29.6504 16.625 29.2598 16.8242C28.873 17.0195 28.4395 17.1172 27.959 17.1172C27.4707 17.1172 27.0449 17.0352 26.6816 16.8711C26.3184 16.707 26.0156 16.4785 25.7734 16.1855C25.5352 15.8926 25.3555 15.5527 25.2344 15.166C25.1172 14.7793 25.0586 14.3652 25.0586 13.9238V13.7363C25.0586 13.2949 25.1172 12.8809 25.2344 12.4941C25.3555 12.1074 25.5352 11.7676 25.7734 11.4746C26.0156 11.1816 26.3184 10.9531 26.6816 10.7891C27.0449 10.625 27.4688 10.543 27.9531 10.543C28.4648 10.543 28.9141 10.6426 29.3008 10.8418C29.6914 11.041 29.9961 11.3223 30.2148 11.6855C30.4375 12.0488 30.5527 12.4766 30.5605 12.9688H29.1016C29.0938 12.7422 29.043 12.5391 28.9492 12.3594C28.8555 12.1797 28.7227 12.0352 28.5508 11.9258C28.3789 11.8164 28.1699 11.7617 27.9238 11.7617C27.6621 11.7617 27.4434 11.8164 27.2676 11.9258C27.0957 12.0352 26.9609 12.1855 26.8633 12.377C26.7695 12.5645 26.7031 12.7754 26.6641 13.0098C26.6289 13.2402 26.6113 13.4824 26.6113 13.7363V13.9238C26.6113 14.1816 26.6289 14.4277 26.6641 14.6621C26.7031 14.8965 26.7695 15.1074 26.8633 15.2949C26.9609 15.4785 27.0957 15.625 27.2676 15.7344C27.4434 15.8438 27.666 15.8984 27.9355 15.8984ZM31.3164 13.8945V13.7715C31.3164 13.3066 31.3828 12.8789 31.5156 12.4883C31.6484 12.0938 31.8418 11.752 32.0957 11.4629C32.3496 11.1738 32.6602 10.9492 33.0273 10.7891C33.3945 10.625 33.8125 10.543 34.2812 10.543C34.7578 10.543 35.1797 10.625 35.5469 10.7891C35.918 10.9492 36.2305 11.1738 36.4844 11.4629C36.7383 11.752 36.9316 12.0938 37.0645 12.4883C37.1973 12.8789 37.2637 13.3066 37.2637 13.7715V13.8945C37.2637 14.3555 37.1973 14.7832 37.0645 15.1777C36.9316 15.5684 36.7383 15.9102 36.4844 16.2031C36.2305 16.4922 35.9199 16.7168 35.5527 16.877C35.1855 17.0371 34.7656 17.1172 34.293 17.1172C33.8242 17.1172 33.4043 17.0371 33.0332 16.877C32.6621 16.7168 32.3496 16.4922 32.0957 16.2031C31.8418 15.9102 31.6484 15.5684 31.5156 15.1777C31.3828 14.7832 31.3164 14.3555 31.3164 13.8945ZM32.8633 13.7715V13.8945C32.8633 14.1719 32.8906 14.4316 32.9453 14.6738C33 14.916 33.084 15.1289 33.1973 15.3125C33.3105 15.4961 33.457 15.6406 33.6367 15.7461C33.8203 15.8477 34.0391 15.8984 34.293 15.8984C34.543 15.8984 34.7578 15.8477 34.9375 15.7461C35.1172 15.6406 35.2637 15.4961 35.377 15.3125C35.4941 15.1289 35.5801 14.916 35.6348 14.6738C35.6895 14.4316 35.7168 14.1719 35.7168 13.8945V13.7715C35.7168 13.498 35.6895 13.2422 35.6348 13.0039C35.5801 12.7617 35.4941 12.5488 35.377 12.3652C35.2637 12.1777 35.1152 12.0312 34.9316 11.9258C34.752 11.8164 34.5352 11.7617 34.2812 11.7617C34.0312 11.7617 33.8164 11.8164 33.6367 11.9258C33.457 12.0312 33.3105 12.1777 33.1973 12.3652C33.084 12.5488 33 12.7617 32.9453 13.0039C32.8906 13.2422 32.8633 13.498 32.8633 13.7715ZM39.9297 11.9609V17H38.3828V10.6602H39.8418L39.9297 11.9609ZM39.7012 13.6016H39.2266C39.2266 13.1602 39.2793 12.7539 39.3848 12.3828C39.4941 12.0117 39.6543 11.6895 39.8652 11.416C40.0762 11.1387 40.3359 10.9238 40.6445 10.7715C40.957 10.6191 41.3184 10.543 41.7285 10.543C42.0137 10.543 42.2754 10.5859 42.5137 10.6719C42.752 10.7539 42.957 10.8848 43.1289 11.0645C43.3047 11.2402 43.4395 11.4707 43.5332 11.7559C43.627 12.0371 43.6738 12.375 43.6738 12.7695V17H42.127V12.9277C42.127 12.6309 42.084 12.3984 41.998 12.2305C41.916 12.0625 41.7969 11.9453 41.6406 11.8789C41.4844 11.8086 41.2969 11.7734 41.0781 11.7734C40.8359 11.7734 40.627 11.8223 40.4512 11.9199C40.2793 12.0137 40.1367 12.1445 40.0234 12.3125C39.9141 12.4805 39.832 12.6738 39.7773 12.8926C39.7266 13.1113 39.7012 13.3477 39.7012 13.6016ZM43.5566 13.3145L42.918 13.4316C42.9219 13.0332 42.9766 12.6602 43.082 12.3125C43.1875 11.9609 43.3418 11.6543 43.5449 11.3926C43.752 11.127 44.0078 10.9199 44.3125 10.7715C44.6211 10.6191 44.9766 10.543 45.3789 10.543C45.6914 10.543 45.9727 10.5879 46.2227 10.6777C46.4766 10.7637 46.6934 10.9023 46.873 11.0938C47.0527 11.2812 47.1895 11.5254 47.2832 11.8262C47.3809 12.127 47.4297 12.4941 47.4297 12.9277V17H45.8711V12.9219C45.8711 12.6133 45.8281 12.377 45.7422 12.2129C45.6602 12.0488 45.541 11.9355 45.3848 11.873C45.2285 11.8066 45.0449 11.7734 44.834 11.7734C44.6191 11.7734 44.4316 11.8145 44.2715 11.8965C44.1152 11.9746 43.9824 12.084 43.873 12.2246C43.7676 12.3652 43.6875 12.5293 43.6328 12.7168C43.582 12.9004 43.5566 13.0996 43.5566 13.3145ZM50.459 10.6602V17H48.9062V10.6602H50.459ZM48.8008 9.00195C48.8008 8.77148 48.8789 8.58008 49.0352 8.42773C49.1953 8.27539 49.4102 8.19922 49.6797 8.19922C49.9492 8.19922 50.1621 8.27539 50.3184 8.42773C50.4785 8.58008 50.5586 8.77148 50.5586 9.00195C50.5586 9.22852 50.4785 9.41797 50.3184 9.57031C50.1621 9.72266 49.9492 9.79883 49.6797 9.79883C49.4102 9.79883 49.1953 9.72266 49.0352 9.57031C48.8789 9.41797 48.8008 9.22852 48.8008 9.00195ZM53.4531 12.0137V17H51.9062V10.6602H53.3594L53.4531 12.0137ZM53.207 13.6016H52.75C52.7539 13.1406 52.8164 12.7227 52.9375 12.3477C53.0586 11.9727 53.2285 11.6504 53.4473 11.3809C53.6699 11.1113 53.9336 10.9043 54.2383 10.7598C54.543 10.6152 54.8828 10.543 55.2578 10.543C55.5625 10.543 55.8379 10.5859 56.084 10.6719C56.3301 10.7578 56.541 10.8945 56.7168 11.082C56.8965 11.2695 57.0332 11.5156 57.127 11.8203C57.2246 12.1211 57.2734 12.4922 57.2734 12.9336V17H55.7148V12.9219C55.7148 12.6328 55.6719 12.4043 55.5859 12.2363C55.5039 12.0684 55.3828 11.9492 55.2227 11.8789C55.0664 11.8086 54.873 11.7734 54.6426 11.7734C54.4043 11.7734 54.1953 11.8223 54.0156 11.9199C53.8398 12.0137 53.6914 12.1445 53.5703 12.3125C53.4531 12.4805 53.3633 12.6738 53.3008 12.8926C53.2383 13.1113 53.207 13.3477 53.207 13.6016ZM62.6699 10.6602H64.0762V16.8066C64.0762 17.3809 63.9512 17.8672 63.7012 18.2656C63.4551 18.668 63.1094 18.9727 62.6641 19.1797C62.2188 19.3906 61.7012 19.4961 61.1113 19.4961C60.8574 19.4961 60.582 19.4609 60.2852 19.3906C59.9922 19.3203 59.709 19.209 59.4355 19.0566C59.166 18.9082 58.9414 18.7148 58.7617 18.4766L59.459 17.5625C59.6699 17.8086 59.9082 17.9941 60.1738 18.1191C60.4395 18.248 60.7266 18.3125 61.0352 18.3125C61.3477 18.3125 61.6133 18.2539 61.832 18.1367C62.0547 18.0234 62.2246 17.8555 62.3418 17.6328C62.4629 17.4141 62.5234 17.1445 62.5234 16.8242V12.1074L62.6699 10.6602ZM58.3867 13.9062V13.7832C58.3867 13.2988 58.4453 12.8594 58.5625 12.4648C58.6797 12.0664 58.8477 11.7246 59.0664 11.4395C59.2891 11.1543 59.5566 10.9336 59.8691 10.7773C60.1855 10.6211 60.541 10.543 60.9355 10.543C61.3535 10.543 61.7051 10.6191 61.9902 10.7715C62.2793 10.9238 62.5176 11.1406 62.7051 11.4219C62.8965 11.7031 63.0449 12.0371 63.1504 12.4238C63.2598 12.8066 63.3438 13.2285 63.4023 13.6895V14.0234C63.3477 14.4727 63.2598 14.8848 63.1387 15.2598C63.0215 15.6348 62.8652 15.9629 62.6699 16.2441C62.4746 16.5215 62.2324 16.7363 61.9434 16.8887C61.6543 17.041 61.3145 17.1172 60.9238 17.1172C60.5332 17.1172 60.1816 17.0371 59.8691 16.877C59.5566 16.7168 59.2891 16.4922 59.0664 16.2031C58.8477 15.9141 58.6797 15.5742 58.5625 15.1836C58.4453 14.793 58.3867 14.3672 58.3867 13.9062ZM59.9336 13.7832V13.9062C59.9336 14.1797 59.9609 14.4355 60.0156 14.6738C60.0703 14.9121 60.1543 15.123 60.2676 15.3066C60.3809 15.4863 60.5234 15.627 60.6953 15.7285C60.8672 15.8301 61.0723 15.8809 61.3105 15.8809C61.6309 15.8809 61.8926 15.8145 62.0957 15.6816C62.3027 15.5449 62.459 15.3594 62.5645 15.125C62.6738 14.8867 62.7441 14.6191 62.7754 14.3223V13.4023C62.7559 13.168 62.7129 12.9512 62.6465 12.752C62.584 12.5527 62.4961 12.3809 62.3828 12.2363C62.2695 12.0918 62.125 11.9785 61.9492 11.8965C61.7734 11.8145 61.5645 11.7734 61.3223 11.7734C61.0879 11.7734 60.8828 11.8262 60.707 11.9316C60.5312 12.0332 60.3867 12.1758 60.2734 12.3594C60.1602 12.543 60.0742 12.7559 60.0156 12.998C59.9609 13.2402 59.9336 13.502 59.9336 13.7832ZM70.0996 10.6602V17H68.5469V10.6602H70.0996ZM68.4414 9.00195C68.4414 8.77148 68.5195 8.58008 68.6758 8.42773C68.8359 8.27539 69.0508 8.19922 69.3203 8.19922C69.5898 8.19922 69.8027 8.27539 69.959 8.42773C70.1191 8.58008 70.1992 8.77148 70.1992 9.00195C70.1992 9.22852 70.1191 9.41797 69.959 9.57031C69.8027 9.72266 69.5898 9.79883 69.3203 9.79883C69.0508 9.79883 68.8359 9.72266 68.6758 9.57031C68.5195 9.41797 68.4414 9.22852 68.4414 9.00195ZM73.0938 12.0137V17H71.5469V10.6602H73L73.0938 12.0137ZM72.8477 13.6016H72.3906C72.3945 13.1406 72.457 12.7227 72.5781 12.3477C72.6992 11.9727 72.8691 11.6504 73.0879 11.3809C73.3105 11.1113 73.5742 10.9043 73.8789 10.7598C74.1836 10.6152 74.5234 10.543 74.8984 10.543C75.2031 10.543 75.4785 10.5859 75.7246 10.6719C75.9707 10.7578 76.1816 10.8945 76.3574 11.082C76.5371 11.2695 76.6738 11.5156 76.7676 11.8203C76.8652 12.1211 76.9141 12.4922 76.9141 12.9336V17H75.3555V12.9219C75.3555 12.6328 75.3125 12.4043 75.2266 12.2363C75.1445 12.0684 75.0234 11.9492 74.8633 11.8789C74.707 11.8086 74.5137 11.7734 74.2832 11.7734C74.0449 11.7734 73.8359 11.8223 73.6562 11.9199C73.4805 12.0137 73.332 12.1445 73.2109 12.3125C73.0938 12.4805 73.0039 12.6738 72.9414 12.8926C72.8789 13.1113 72.8477 13.3477 72.8477 13.6016ZM82.8789 12.0488H83.752C84.0605 12.0488 84.3145 11.9961 84.5137 11.8906C84.7168 11.7812 84.8672 11.6328 84.9648 11.4453C85.0664 11.2539 85.1172 11.0332 85.1172 10.7832C85.1172 10.5371 85.0723 10.3242 84.9824 10.1445C84.8926 9.96094 84.7559 9.82031 84.5723 9.72266C84.3926 9.62109 84.1621 9.57031 83.8809 9.57031C83.6543 9.57031 83.4453 9.61523 83.2539 9.70508C83.0664 9.79492 82.916 9.92383 82.8027 10.0918C82.6934 10.2559 82.6387 10.4531 82.6387 10.6836H81.0859C81.0859 10.2227 81.207 9.81836 81.4492 9.4707C81.6953 9.11914 82.0273 8.84375 82.4453 8.64453C82.8633 8.44531 83.3301 8.3457 83.8457 8.3457C84.4082 8.3457 84.9004 8.43945 85.3223 8.62695C85.748 8.81055 86.0781 9.08203 86.3125 9.44141C86.5508 9.80078 86.6699 10.2461 86.6699 10.7773C86.6699 11.0312 86.6094 11.2852 86.4883 11.5391C86.3711 11.7891 86.1973 12.0156 85.9668 12.2188C85.7402 12.418 85.4609 12.5801 85.1289 12.7051C84.8008 12.8262 84.4238 12.8867 83.998 12.8867H82.8789V12.0488ZM82.8789 13.2441V12.418H83.998C84.4785 12.418 84.8945 12.4746 85.2461 12.5879C85.6016 12.6973 85.8945 12.8535 86.125 13.0566C86.3555 13.2559 86.5254 13.4883 86.6348 13.7539C86.748 14.0195 86.8047 14.3047 86.8047 14.6094C86.8047 15.0078 86.7305 15.3633 86.582 15.6758C86.4336 15.9844 86.2246 16.2461 85.9551 16.4609C85.6895 16.6758 85.377 16.8398 85.0176 16.9531C84.6582 17.0625 84.2695 17.1172 83.8516 17.1172C83.4883 17.1172 83.1348 17.0684 82.791 16.9707C82.4512 16.8691 82.1445 16.7188 81.8711 16.5195C81.5977 16.3164 81.3809 16.0625 81.2207 15.7578C81.0605 15.4492 80.9805 15.0918 80.9805 14.6855H82.5332C82.5332 14.9199 82.5898 15.1289 82.7031 15.3125C82.8203 15.4961 82.9805 15.6406 83.1836 15.7461C83.3906 15.8477 83.623 15.8984 83.8809 15.8984C84.166 15.8984 84.4102 15.8477 84.6133 15.7461C84.8203 15.6406 84.9785 15.4922 85.0879 15.3008C85.1973 15.1055 85.252 14.873 85.252 14.6035C85.252 14.2832 85.1914 14.0234 85.0703 13.8242C84.9492 13.625 84.7754 13.4785 84.5488 13.3848C84.3262 13.291 84.0605 13.2441 83.752 13.2441H82.8789ZM94.9141 15.6523V8H96.4727V17H95.0664L94.9141 15.6523ZM90.8418 13.9062V13.7832C90.8418 13.2988 90.8965 12.8594 91.0059 12.4648C91.1191 12.0664 91.2832 11.7246 91.498 11.4395C91.7129 11.1543 91.9727 10.9336 92.2773 10.7773C92.5859 10.6211 92.9355 10.543 93.3262 10.543C93.7051 10.543 94.0352 10.6191 94.3164 10.7715C94.6016 10.9238 94.8438 11.1406 95.043 11.4219C95.2461 11.7031 95.4082 12.0371 95.5293 12.4238C95.6504 12.8066 95.7383 13.2285 95.793 13.6895V14.0234C95.7383 14.4727 95.6504 14.8848 95.5293 15.2598C95.4082 15.6348 95.2461 15.9629 95.043 16.2441C94.8438 16.5215 94.6016 16.7363 94.3164 16.8887C94.0312 17.041 93.6973 17.1172 93.3145 17.1172C92.9277 17.1172 92.5801 17.0371 92.2715 16.877C91.9668 16.7168 91.707 16.4922 91.4922 16.2031C91.2812 15.9141 91.1191 15.5742 91.0059 15.1836C90.8965 14.793 90.8418 14.3672 90.8418 13.9062ZM92.3945 13.7832V13.9062C92.3945 14.1797 92.418 14.4355 92.4648 14.6738C92.5117 14.9121 92.5879 15.123 92.6934 15.3066C92.7988 15.4863 92.9336 15.627 93.0977 15.7285C93.2656 15.8301 93.4688 15.8809 93.707 15.8809C94.0117 15.8809 94.2617 15.8145 94.457 15.6816C94.6562 15.5449 94.8105 15.3594 94.9199 15.125C95.0293 14.8867 95.0996 14.6191 95.1309 14.3223V13.4023C95.1152 13.168 95.0742 12.9512 95.0078 12.752C94.9453 12.5527 94.8555 12.3809 94.7383 12.2363C94.625 12.0918 94.4844 11.9785 94.3164 11.8965C94.1484 11.8145 93.9492 11.7734 93.7188 11.7734C93.4805 11.7734 93.2773 11.8262 93.1094 11.9316C92.9414 12.0332 92.8047 12.1758 92.6992 12.3594C92.5938 12.543 92.5156 12.7559 92.4648 12.998C92.418 13.2402 92.3945 13.502 92.3945 13.7832ZM101.365 15.6523V12.7285C101.365 12.5137 101.328 12.3281 101.254 12.1719C101.18 12.0156 101.066 11.8945 100.914 11.8086C100.762 11.7227 100.568 11.6797 100.334 11.6797C100.127 11.6797 99.9453 11.7148 99.7891 11.7852C99.6367 11.8555 99.5195 11.9551 99.4375 12.084C99.3555 12.209 99.3145 12.3535 99.3145 12.5176H97.7617C97.7617 12.2559 97.8242 12.0078 97.9492 11.7734C98.0742 11.5352 98.252 11.3242 98.4824 11.1406C98.7168 10.9531 98.9961 10.8066 99.3203 10.7012C99.6484 10.5957 100.016 10.543 100.422 10.543C100.902 10.543 101.33 10.625 101.705 10.7891C102.084 10.9492 102.381 11.1914 102.596 11.5156C102.814 11.8398 102.924 12.248 102.924 12.7402V15.5059C102.924 15.8223 102.943 16.0938 102.982 16.3203C103.025 16.543 103.088 16.7363 103.17 16.9004V17H101.594C101.52 16.8398 101.463 16.6367 101.424 16.3906C101.385 16.1406 101.365 15.8945 101.365 15.6523ZM101.582 13.1387L101.594 14.0586H100.615C100.373 14.0586 100.16 14.084 99.9766 14.1348C99.793 14.1816 99.6426 14.252 99.5254 14.3457C99.4082 14.4355 99.3203 14.5449 99.2617 14.6738C99.2031 14.7988 99.1738 14.9414 99.1738 15.1016C99.1738 15.2578 99.209 15.3984 99.2793 15.5234C99.3535 15.6484 99.459 15.748 99.5957 15.8223C99.7363 15.8926 99.9004 15.9277 100.088 15.9277C100.361 15.9277 100.6 15.873 100.803 15.7637C101.006 15.6504 101.164 15.5137 101.277 15.3535C101.391 15.1934 101.451 15.041 101.459 14.8965L101.904 15.5645C101.85 15.7246 101.768 15.8945 101.658 16.0742C101.549 16.2539 101.408 16.4219 101.236 16.5781C101.064 16.7344 100.857 16.8633 100.615 16.9648C100.373 17.0664 100.092 17.1172 99.7715 17.1172C99.3613 17.1172 98.9941 17.0352 98.6699 16.8711C98.3457 16.707 98.0898 16.4824 97.9023 16.1973C97.7148 15.9121 97.6211 15.5879 97.6211 15.2246C97.6211 14.8887 97.6836 14.5918 97.8086 14.334C97.9336 14.0762 98.1191 13.8594 98.3652 13.6836C98.6113 13.5039 98.916 13.3691 99.2793 13.2793C99.6465 13.1855 100.066 13.1387 100.539 13.1387H101.582ZM106.082 16.2969L107.781 10.6602H109.439L106.896 17.9609C106.838 18.1172 106.762 18.2871 106.668 18.4707C106.578 18.6543 106.457 18.8281 106.305 18.9922C106.152 19.1602 105.961 19.2969 105.73 19.4023C105.504 19.5078 105.229 19.5605 104.904 19.5605C104.764 19.5605 104.639 19.5508 104.529 19.5312C104.42 19.5117 104.305 19.4863 104.184 19.4551V18.2949C104.223 18.2988 104.268 18.3008 104.318 18.3008C104.373 18.3047 104.42 18.3066 104.459 18.3066C104.686 18.3066 104.873 18.2793 105.021 18.2246C105.17 18.1738 105.289 18.0898 105.379 17.9727C105.473 17.8594 105.551 17.7109 105.613 17.5273L106.082 16.2969ZM105.244 10.6602L106.68 15.3301L106.932 16.9648L105.865 17.1582L103.574 10.6602H105.244ZM113.676 15.2656C113.676 15.1328 113.641 15.0137 113.57 14.9082C113.5 14.8027 113.367 14.707 113.172 14.6211C112.98 14.5312 112.699 14.4473 112.328 14.3691C112 14.2988 111.697 14.2109 111.42 14.1055C111.143 14 110.904 13.873 110.705 13.7246C110.506 13.5723 110.35 13.3945 110.236 13.1914C110.127 12.9844 110.072 12.7461 110.072 12.4766C110.072 12.2148 110.129 11.9688 110.242 11.7383C110.355 11.5039 110.52 11.2988 110.734 11.123C110.949 10.9434 111.211 10.8027 111.52 10.7012C111.828 10.5957 112.176 10.543 112.562 10.543C113.102 10.543 113.564 10.6309 113.951 10.8066C114.342 10.9824 114.641 11.2246 114.848 11.5332C115.055 11.8379 115.158 12.1816 115.158 12.5645H113.611C113.611 12.3965 113.572 12.2441 113.494 12.1074C113.42 11.9707 113.305 11.8613 113.148 11.7793C112.992 11.6934 112.795 11.6504 112.557 11.6504C112.342 11.6504 112.16 11.6855 112.012 11.7559C111.867 11.8262 111.758 11.918 111.684 12.0312C111.609 12.1445 111.572 12.2695 111.572 12.4062C111.572 12.5078 111.592 12.5996 111.631 12.6816C111.674 12.7598 111.742 12.832 111.836 12.8984C111.93 12.9648 112.057 13.0254 112.217 13.0801C112.381 13.1348 112.582 13.1875 112.82 13.2383C113.293 13.332 113.705 13.457 114.057 13.6133C114.412 13.7656 114.689 13.9688 114.889 14.2227C115.088 14.4766 115.188 14.8008 115.188 15.1953C115.188 15.4766 115.127 15.7344 115.006 15.9688C114.885 16.1992 114.709 16.4004 114.479 16.5723C114.248 16.7441 113.973 16.8789 113.652 16.9766C113.332 17.0703 112.971 17.1172 112.568 17.1172C111.986 17.1172 111.494 17.0137 111.092 16.8066C110.689 16.5957 110.385 16.3301 110.178 16.0098C109.971 15.6855 109.867 15.3496 109.867 15.002H111.35C111.361 15.248 111.428 15.4453 111.549 15.5938C111.67 15.7422 111.822 15.8496 112.006 15.916C112.193 15.9785 112.391 16.0098 112.598 16.0098C112.832 16.0098 113.029 15.9785 113.189 15.916C113.35 15.8496 113.471 15.7617 113.553 15.6523C113.635 15.5391 113.676 15.4102 113.676 15.2656Z" fill="white"/>
</svg>
