<svg width="108" height="24" viewBox="0 0 108 24" fill="none" xmlns="http://www.w3.org/2000/svg">
<rect width="108" height="24" rx="4" fill="#CEF0DC"/>
<path d="M14 5.5C12.7144 5.5 11.4577 5.88122 10.3888 6.59545C9.31988 7.30968 8.48676 8.32484 7.99479 9.51256C7.50282 10.7003 7.37409 12.0072 7.6249 13.2681C7.8757 14.529 8.49477 15.6872 9.40381 16.5962C10.3129 17.5052 11.471 18.1243 12.7319 18.3751C13.9928 18.6259 15.2997 18.4972 16.4874 18.0052C17.6752 17.5132 18.6903 16.6801 19.4046 15.6112C20.1188 14.5423 20.5 13.2856 20.5 12C20.4982 10.2767 19.8128 8.62441 18.5942 7.40582C17.3756 6.18722 15.7234 5.50182 14 5.5ZM16.8538 10.8538L13.3538 14.3538C13.3073 14.4002 13.2522 14.4371 13.1915 14.4623C13.1308 14.4874 13.0657 14.5004 13 14.5004C12.9343 14.5004 12.8692 14.4874 12.8085 14.4623C12.7478 14.4371 12.6927 14.4002 12.6463 14.3538L11.1463 12.8538C11.0524 12.7599 10.9997 12.6327 10.9997 12.5C10.9997 12.3673 11.0524 12.2401 11.1463 12.1462C11.2401 12.0524 11.3673 11.9997 11.5 11.9997C11.6327 11.9997 11.7599 12.0524 11.8538 12.1462L13 13.2931L16.1463 10.1462C16.1927 10.0998 16.2479 10.0629 16.3086 10.0378C16.3693 10.0127 16.4343 9.99972 16.5 9.99972C16.5657 9.99972 16.6308 10.0127 16.6915 10.0378C16.7521 10.0629 16.8073 10.0998 16.8538 10.1462C16.9002 10.1927 16.9371 10.2479 16.9622 10.3086C16.9873 10.3692 17.0003 10.4343 17.0003 10.5C17.0003 10.5657 16.9873 10.6308 16.9622 10.6914C16.9371 10.7521 16.9002 10.8073 16.8538 10.8538Z" fill="#2DC26B"/>
<path d="M32.0039 13.2871H33.1289C33.0703 13.8262 32.916 14.3086 32.666 14.7344C32.416 15.1602 32.0625 15.498 31.6055 15.748C31.1484 15.9941 30.5781 16.1172 29.8945 16.1172C29.3945 16.1172 28.9395 16.0234 28.5293 15.8359C28.123 15.6484 27.7734 15.3828 27.4805 15.0391C27.1875 14.6914 26.9609 14.2754 26.8008 13.791C26.6445 13.3027 26.5664 12.7598 26.5664 12.1621V11.3125C26.5664 10.7148 26.6445 10.1738 26.8008 9.68945C26.9609 9.20117 27.1895 8.7832 27.4863 8.43555C27.7871 8.08789 28.1484 7.82031 28.5703 7.63281C28.9922 7.44531 29.4668 7.35156 29.9941 7.35156C30.6387 7.35156 31.1836 7.47266 31.6289 7.71484C32.0742 7.95703 32.4199 8.29297 32.666 8.72266C32.916 9.14844 33.0703 9.64258 33.1289 10.2051H32.0039C31.9492 9.80664 31.8477 9.46484 31.6992 9.17969C31.5508 8.89062 31.3398 8.66797 31.0664 8.51172C30.793 8.35547 30.4355 8.27734 29.9941 8.27734C29.6152 8.27734 29.2812 8.34961 28.9922 8.49414C28.707 8.63867 28.4668 8.84375 28.2715 9.10938C28.0801 9.375 27.9355 9.69336 27.8379 10.0645C27.7402 10.4355 27.6914 10.8477 27.6914 11.3008V12.1621C27.6914 12.5801 27.7344 12.9727 27.8203 13.3398C27.9102 13.707 28.0449 14.0293 28.2246 14.3066C28.4043 14.584 28.6328 14.8027 28.9102 14.9629C29.1875 15.1191 29.5156 15.1973 29.8945 15.1973C30.375 15.1973 30.7578 15.1211 31.043 14.9688C31.3281 14.8164 31.543 14.5977 31.6875 14.3125C31.8359 14.0273 31.9414 13.6855 32.0039 13.2871ZM34.2188 12.9004V12.7656C34.2188 12.3086 34.2852 11.8848 34.418 11.4941C34.5508 11.0996 34.7422 10.7578 34.9922 10.4688C35.2422 10.1758 35.5449 9.94922 35.9004 9.78906C36.2559 9.625 36.6543 9.54297 37.0957 9.54297C37.541 9.54297 37.9414 9.625 38.2969 9.78906C38.6562 9.94922 38.9609 10.1758 39.2109 10.4688C39.4648 10.7578 39.6582 11.0996 39.791 11.4941C39.9238 11.8848 39.9902 12.3086 39.9902 12.7656V12.9004C39.9902 13.3574 39.9238 13.7812 39.791 14.1719C39.6582 14.5625 39.4648 14.9043 39.2109 15.1973C38.9609 15.4863 38.6582 15.7129 38.3027 15.877C37.9512 16.0371 37.5527 16.1172 37.1074 16.1172C36.6621 16.1172 36.2617 16.0371 35.9062 15.877C35.5508 15.7129 35.2461 15.4863 34.9922 15.1973C34.7422 14.9043 34.5508 14.5625 34.418 14.1719C34.2852 13.7812 34.2188 13.3574 34.2188 12.9004ZM35.3027 12.7656V12.9004C35.3027 13.2168 35.3398 13.5156 35.4141 13.7969C35.4883 14.0742 35.5996 14.3203 35.748 14.5352C35.9004 14.75 36.0898 14.9199 36.3164 15.0449C36.543 15.166 36.8066 15.2266 37.1074 15.2266C37.4043 15.2266 37.6641 15.166 37.8867 15.0449C38.1133 14.9199 38.3008 14.75 38.4492 14.5352C38.5977 14.3203 38.709 14.0742 38.7832 13.7969C38.8613 13.5156 38.9004 13.2168 38.9004 12.9004V12.7656C38.9004 12.4531 38.8613 12.1582 38.7832 11.8809C38.709 11.5996 38.5957 11.3516 38.4434 11.1367C38.2949 10.918 38.1074 10.7461 37.8809 10.6211C37.6582 10.4961 37.3965 10.4336 37.0957 10.4336C36.7988 10.4336 36.5371 10.4961 36.3105 10.6211C36.0879 10.7461 35.9004 10.918 35.748 11.1367C35.5996 11.3516 35.4883 11.5996 35.4141 11.8809C35.3398 12.1582 35.3027 12.4531 35.3027 12.7656ZM42.4277 10.9199V16H41.3379V9.66016H42.3691L42.4277 10.9199ZM42.2051 12.5898L41.7012 12.5723C41.7051 12.1387 41.7617 11.7383 41.8711 11.3711C41.9805 11 42.1426 10.6777 42.3574 10.4043C42.5723 10.1309 42.8398 9.91992 43.1602 9.77148C43.4805 9.61914 43.8516 9.54297 44.2734 9.54297C44.5703 9.54297 44.8438 9.58594 45.0938 9.67188C45.3438 9.75391 45.5605 9.88477 45.7441 10.0645C45.9277 10.2441 46.0703 10.4746 46.1719 10.7559C46.2734 11.0371 46.3242 11.377 46.3242 11.7754V16H45.2402V11.8281C45.2402 11.4961 45.1836 11.2305 45.0703 11.0312C44.9609 10.832 44.8047 10.6875 44.6016 10.5977C44.3984 10.5039 44.1602 10.457 43.8867 10.457C43.5664 10.457 43.2988 10.5137 43.084 10.627C42.8691 10.7402 42.6973 10.8965 42.5684 11.0957C42.4395 11.2949 42.3457 11.5234 42.2871 11.7812C42.2324 12.0352 42.2051 12.3047 42.2051 12.5898ZM46.3125 11.9922L45.5859 12.2148C45.5898 11.8672 45.6465 11.5332 45.7559 11.2129C45.8691 10.8926 46.0312 10.6074 46.2422 10.3574C46.457 10.1074 46.7207 9.91016 47.0332 9.76562C47.3457 9.61719 47.7031 9.54297 48.1055 9.54297C48.4453 9.54297 48.7461 9.58789 49.0078 9.67773C49.2734 9.76758 49.4961 9.90625 49.6758 10.0938C49.8594 10.2773 49.998 10.5137 50.0918 10.8027C50.1855 11.0918 50.2324 11.4355 50.2324 11.834V16H49.1426V11.8223C49.1426 11.4668 49.0859 11.1914 48.9727 10.9961C48.8633 10.7969 48.707 10.6582 48.5039 10.5801C48.3047 10.498 48.0664 10.457 47.7891 10.457C47.5508 10.457 47.3398 10.498 47.1562 10.5801C46.9727 10.6621 46.8184 10.7754 46.6934 10.9199C46.5684 11.0605 46.4727 11.2227 46.4062 11.4062C46.3438 11.5898 46.3125 11.7852 46.3125 11.9922ZM52.957 10.8789V18.4375H51.8672V9.66016H52.8633L52.957 10.8789ZM57.2285 12.7773V12.9004C57.2285 13.3613 57.1738 13.7891 57.0645 14.1836C56.9551 14.5742 56.7949 14.9141 56.584 15.2031C56.377 15.4922 56.1211 15.7168 55.8164 15.877C55.5117 16.0371 55.1621 16.1172 54.7676 16.1172C54.3652 16.1172 54.0098 16.0508 53.7012 15.918C53.3926 15.7852 53.1309 15.5918 52.916 15.3379C52.7012 15.084 52.5293 14.7793 52.4004 14.4238C52.2754 14.0684 52.1895 13.668 52.1426 13.2227V12.5664C52.1895 12.0977 52.2773 11.6777 52.4062 11.3066C52.5352 10.9355 52.7051 10.6191 52.916 10.3574C53.1309 10.0918 53.3906 9.89062 53.6953 9.75391C54 9.61328 54.3516 9.54297 54.75 9.54297C55.1484 9.54297 55.502 9.62109 55.8105 9.77734C56.1191 9.92969 56.3789 10.1484 56.5898 10.4336C56.8008 10.7188 56.959 11.0605 57.0645 11.459C57.1738 11.8535 57.2285 12.293 57.2285 12.7773ZM56.1387 12.9004V12.7773C56.1387 12.4609 56.1055 12.1641 56.0391 11.8867C55.9727 11.6055 55.8691 11.3594 55.7285 11.1484C55.5918 10.9336 55.416 10.7656 55.2012 10.6445C54.9863 10.5195 54.7305 10.457 54.4336 10.457C54.1602 10.457 53.9219 10.5039 53.7188 10.5977C53.5195 10.6914 53.3496 10.8184 53.209 10.9785C53.0684 11.1348 52.9531 11.3145 52.8633 11.5176C52.7773 11.7168 52.7129 11.9238 52.6699 12.1387V13.6562C52.748 13.9297 52.8574 14.1875 52.998 14.4297C53.1387 14.668 53.3262 14.8613 53.5605 15.0098C53.7949 15.1543 54.0898 15.2266 54.4453 15.2266C54.7383 15.2266 54.9902 15.166 55.2012 15.0449C55.416 14.9199 55.5918 14.75 55.7285 14.5352C55.8691 14.3203 55.9727 14.0742 56.0391 13.7969C56.1055 13.5156 56.1387 13.2168 56.1387 12.9004ZM59.7891 7V16H58.6992V7H59.7891ZM64.1602 16.1172C63.7188 16.1172 63.3184 16.043 62.959 15.8945C62.6035 15.7422 62.2969 15.5293 62.0391 15.2559C61.7852 14.9824 61.5898 14.6582 61.4531 14.2832C61.3164 13.9082 61.248 13.498 61.248 13.0527V12.8066C61.248 12.291 61.3242 11.832 61.4766 11.4297C61.6289 11.0234 61.8359 10.6797 62.0977 10.3984C62.3594 10.1172 62.6562 9.9043 62.9883 9.75977C63.3203 9.61523 63.6641 9.54297 64.0195 9.54297C64.4727 9.54297 64.8633 9.62109 65.1914 9.77734C65.5234 9.93359 65.7949 10.1523 66.0059 10.4336C66.2168 10.7109 66.373 11.0391 66.4746 11.418C66.5762 11.793 66.627 12.2031 66.627 12.6484V13.1348H61.8926V12.25H65.543V12.168C65.5273 11.8867 65.4688 11.6133 65.3672 11.3477C65.2695 11.082 65.1133 10.8633 64.8984 10.6914C64.6836 10.5195 64.3906 10.4336 64.0195 10.4336C63.7734 10.4336 63.5469 10.4863 63.3398 10.5918C63.1328 10.6934 62.9551 10.8457 62.8066 11.0488C62.6582 11.252 62.543 11.5 62.4609 11.793C62.3789 12.0859 62.3379 12.4238 62.3379 12.8066V13.0527C62.3379 13.3535 62.3789 13.6367 62.4609 13.9023C62.5469 14.1641 62.6699 14.3945 62.8301 14.5938C62.9941 14.793 63.1914 14.9492 63.4219 15.0625C63.6562 15.1758 63.9219 15.2324 64.2188 15.2324C64.6016 15.2324 64.9258 15.1543 65.1914 14.998C65.457 14.8418 65.6895 14.6328 65.8887 14.3711L66.5449 14.8926C66.4082 15.0996 66.2344 15.2969 66.0234 15.4844C65.8125 15.6719 65.5527 15.8242 65.2441 15.9414C64.9395 16.0586 64.5781 16.1172 64.1602 16.1172ZM70.5469 9.66016V10.4922H67.1191V9.66016H70.5469ZM68.2793 8.11914H69.3633V14.4297C69.3633 14.6445 69.3965 14.8066 69.4629 14.916C69.5293 15.0254 69.6152 15.0977 69.7207 15.1328C69.8262 15.168 69.9395 15.1855 70.0605 15.1855C70.1504 15.1855 70.2441 15.1777 70.3418 15.1621C70.4434 15.1426 70.5195 15.127 70.5703 15.1152L70.5762 16C70.4902 16.0273 70.377 16.0527 70.2363 16.0762C70.0996 16.1035 69.9336 16.1172 69.7383 16.1172C69.4727 16.1172 69.2285 16.0645 69.0059 15.959C68.7832 15.8535 68.6055 15.6777 68.4727 15.4316C68.3438 15.1816 68.2793 14.8457 68.2793 14.4238V8.11914ZM74.4492 16.1172C74.0078 16.1172 73.6074 16.043 73.248 15.8945C72.8926 15.7422 72.5859 15.5293 72.3281 15.2559C72.0742 14.9824 71.8789 14.6582 71.7422 14.2832C71.6055 13.9082 71.5371 13.498 71.5371 13.0527V12.8066C71.5371 12.291 71.6133 11.832 71.7656 11.4297C71.918 11.0234 72.125 10.6797 72.3867 10.3984C72.6484 10.1172 72.9453 9.9043 73.2773 9.75977C73.6094 9.61523 73.9531 9.54297 74.3086 9.54297C74.7617 9.54297 75.1523 9.62109 75.4805 9.77734C75.8125 9.93359 76.084 10.1523 76.2949 10.4336C76.5059 10.7109 76.6621 11.0391 76.7637 11.418C76.8652 11.793 76.916 12.2031 76.916 12.6484V13.1348H72.1816V12.25H75.832V12.168C75.8164 11.8867 75.7578 11.6133 75.6562 11.3477C75.5586 11.082 75.4023 10.8633 75.1875 10.6914C74.9727 10.5195 74.6797 10.4336 74.3086 10.4336C74.0625 10.4336 73.8359 10.4863 73.6289 10.5918C73.4219 10.6934 73.2441 10.8457 73.0957 11.0488C72.9473 11.252 72.832 11.5 72.75 11.793C72.668 12.0859 72.627 12.4238 72.627 12.8066V13.0527C72.627 13.3535 72.668 13.6367 72.75 13.9023C72.8359 14.1641 72.959 14.3945 73.1191 14.5938C73.2832 14.793 73.4805 14.9492 73.7109 15.0625C73.9453 15.1758 74.2109 15.2324 74.5078 15.2324C74.8906 15.2324 75.2148 15.1543 75.4805 14.998C75.7461 14.8418 75.9785 14.6328 76.1777 14.3711L76.834 14.8926C76.6973 15.0996 76.5234 15.2969 76.3125 15.4844C76.1016 15.6719 75.8418 15.8242 75.5332 15.9414C75.2285 16.0586 74.8672 16.1172 74.4492 16.1172ZM82.1777 14.7695V7H83.2676V16H82.2715L82.1777 14.7695ZM77.9121 12.9004V12.7773C77.9121 12.293 77.9707 11.8535 78.0879 11.459C78.209 11.0605 78.3789 10.7188 78.5977 10.4336C78.8203 10.1484 79.084 9.92969 79.3887 9.77734C79.6973 9.62109 80.041 9.54297 80.4199 9.54297C80.8184 9.54297 81.166 9.61328 81.4629 9.75391C81.7637 9.89062 82.0176 10.0918 82.2246 10.3574C82.4355 10.6191 82.6016 10.9355 82.7227 11.3066C82.8438 11.6777 82.9277 12.0977 82.9746 12.5664V13.1055C82.9316 13.5703 82.8477 13.9883 82.7227 14.3594C82.6016 14.7305 82.4355 15.0469 82.2246 15.3086C82.0176 15.5703 81.7637 15.7715 81.4629 15.9121C81.1621 16.0488 80.8105 16.1172 80.4082 16.1172C80.0371 16.1172 79.6973 16.0371 79.3887 15.877C79.084 15.7168 78.8203 15.4922 78.5977 15.2031C78.3789 14.9141 78.209 14.5742 78.0879 14.1836C77.9707 13.7891 77.9121 13.3613 77.9121 12.9004ZM79.002 12.7773V12.9004C79.002 13.2168 79.0332 13.5137 79.0957 13.791C79.1621 14.0684 79.2637 14.3125 79.4004 14.5234C79.5371 14.7344 79.7109 14.9004 79.9219 15.0215C80.1328 15.1387 80.3848 15.1973 80.6777 15.1973C81.0371 15.1973 81.332 15.1211 81.5625 14.9688C81.7969 14.8164 81.9844 14.6152 82.125 14.3652C82.2656 14.1152 82.375 13.8438 82.4531 13.5508V12.1387C82.4062 11.9238 82.3379 11.7168 82.248 11.5176C82.1621 11.3145 82.0488 11.1348 81.9082 10.9785C81.7715 10.8184 81.6016 10.6914 81.3984 10.5977C81.1992 10.5039 80.9629 10.457 80.6895 10.457C80.3926 10.457 80.1367 10.5195 79.9219 10.6445C79.7109 10.7656 79.5371 10.9336 79.4004 11.1484C79.2637 11.3594 79.1621 11.6055 79.0957 11.8867C79.0332 12.1641 79.002 12.4609 79.002 12.7773ZM94.6641 11.4648V12.0039C94.6641 12.6445 94.584 13.2188 94.4238 13.7266C94.2637 14.2344 94.0332 14.666 93.7324 15.0215C93.4316 15.377 93.0703 15.6484 92.6484 15.8359C92.2305 16.0234 91.7617 16.1172 91.2422 16.1172C90.7383 16.1172 90.2754 16.0234 89.8535 15.8359C89.4355 15.6484 89.0723 15.377 88.7637 15.0215C88.459 14.666 88.2227 14.2344 88.0547 13.7266C87.8867 13.2188 87.8027 12.6445 87.8027 12.0039V11.4648C87.8027 10.8242 87.8848 10.252 88.0488 9.74805C88.2168 9.24023 88.4531 8.80859 88.7578 8.45312C89.0625 8.09375 89.4238 7.82031 89.8418 7.63281C90.2637 7.44531 90.7266 7.35156 91.2305 7.35156C91.75 7.35156 92.2188 7.44531 92.6367 7.63281C93.0586 7.82031 93.4199 8.09375 93.7207 8.45312C94.0254 8.80859 94.2578 9.24023 94.418 9.74805C94.582 10.252 94.6641 10.8242 94.6641 11.4648ZM93.5449 12.0039V11.4531C93.5449 10.9453 93.4922 10.4961 93.3867 10.1055C93.2852 9.71484 93.1348 9.38672 92.9355 9.12109C92.7363 8.85547 92.4922 8.6543 92.2031 8.51758C91.918 8.38086 91.5938 8.3125 91.2305 8.3125C90.8789 8.3125 90.5605 8.38086 90.2754 8.51758C89.9941 8.6543 89.752 8.85547 89.5488 9.12109C89.3496 9.38672 89.1953 9.71484 89.0859 10.1055C88.9766 10.4961 88.9219 10.9453 88.9219 11.4531V12.0039C88.9219 12.5156 88.9766 12.9688 89.0859 13.3633C89.1953 13.7539 89.3516 14.084 89.5547 14.3535C89.7617 14.6191 90.0059 14.8203 90.2871 14.957C90.5723 15.0938 90.8906 15.1621 91.2422 15.1621C91.6094 15.1621 91.9355 15.0938 92.2207 14.957C92.5059 14.8203 92.7461 14.6191 92.9414 14.3535C93.1406 14.084 93.291 13.7539 93.3926 13.3633C93.4941 12.9688 93.5449 12.5156 93.5449 12.0039ZM97.2773 11.0137V16H96.1934V9.66016H97.2188L97.2773 11.0137ZM97.0195 12.5898L96.5684 12.5723C96.5723 12.1387 96.6367 11.7383 96.7617 11.3711C96.8867 11 97.0625 10.6777 97.2891 10.4043C97.5156 10.1309 97.7852 9.91992 98.0977 9.77148C98.4141 9.61914 98.7637 9.54297 99.1465 9.54297C99.459 9.54297 99.7402 9.58594 99.9902 9.67188C100.24 9.75391 100.453 9.88672 100.629 10.0703C100.809 10.2539 100.945 10.4922 101.039 10.7852C101.133 11.0742 101.18 11.4277 101.18 11.8457V16H100.09V11.834C100.09 11.502 100.041 11.2363 99.9434 11.0371C99.8457 10.834 99.7031 10.6875 99.5156 10.5977C99.3281 10.5039 99.0977 10.457 98.8242 10.457C98.5547 10.457 98.3086 10.5137 98.0859 10.627C97.8672 10.7402 97.6777 10.8965 97.5176 11.0957C97.3613 11.2949 97.2383 11.5234 97.1484 11.7812C97.0625 12.0352 97.0195 12.3047 97.0195 12.5898Z" fill="#343435"/>
</svg>
