<svg width="76" height="24" viewBox="0 0 76 24" fill="none" xmlns="http://www.w3.org/2000/svg">
<rect width="76" height="24" rx="4" fill="#FAD3CE"/>
<path d="M20.8007 15.7557L15.335 6.26379C15.1985 6.03124 15.0035 5.83843 14.7694 5.70445C14.5354 5.57048 14.2704 5.5 14.0007 5.5C13.731 5.5 13.466 5.57048 13.2319 5.70445C12.9979 5.83843 12.8029 6.03124 12.6663 6.26379L7.20067 15.7557C7.06926 15.9806 7 16.2364 7 16.4969C7 16.7574 7.06926 17.0132 7.20067 17.2382C7.3355 17.4721 7.53015 17.666 7.76465 17.7999C7.99914 17.9338 8.26504 18.0028 8.53505 18H19.4663C19.7361 18.0026 20.0017 17.9334 20.236 17.7996C20.4702 17.6657 20.6647 17.4719 20.7994 17.2382C20.931 17.0134 21.0005 16.7576 21.0007 16.4971C21.0009 16.2366 20.9319 15.9807 20.8007 15.7557ZM13.5007 10.5C13.5007 10.3674 13.5533 10.2403 13.6471 10.1465C13.7409 10.0527 13.8681 10 14.0007 10C14.1333 10 14.2605 10.0527 14.3542 10.1465C14.448 10.2403 14.5007 10.3674 14.5007 10.5V13C14.5007 13.1326 14.448 13.2598 14.3542 13.3536C14.2605 13.4474 14.1333 13.5 14.0007 13.5C13.8681 13.5 13.7409 13.4474 13.6471 13.3536C13.5533 13.2598 13.5007 13.1326 13.5007 13V10.5ZM14.0007 16C13.8523 16 13.7073 15.9561 13.584 15.8736C13.4607 15.7912 13.3645 15.6741 13.3078 15.5371C13.251 15.4 13.2361 15.2492 13.2651 15.1037C13.294 14.9582 13.3655 14.8246 13.4703 14.7197C13.5752 14.6148 13.7089 14.5434 13.8544 14.5145C13.9998 14.4855 14.1506 14.5004 14.2877 14.5571C14.4247 14.6139 14.5419 14.71 14.6243 14.8334C14.7067 14.9567 14.7507 15.1017 14.7507 15.25C14.7507 15.449 14.6717 15.6397 14.531 15.7804C14.3903 15.921 14.1996 16 14.0007 16Z" fill="#E03E2D"/>
<path d="M32.5586 11.4648V12.0039C32.5586 12.6445 32.4785 13.2188 32.3184 13.7266C32.1582 14.2344 31.9277 14.666 31.627 15.0215C31.3262 15.377 30.9648 15.6484 30.543 15.8359C30.125 16.0234 29.6562 16.1172 29.1367 16.1172C28.6328 16.1172 28.1699 16.0234 27.748 15.8359C27.3301 15.6484 26.9668 15.377 26.6582 15.0215C26.3535 14.666 26.1172 14.2344 25.9492 13.7266C25.7812 13.2188 25.6973 12.6445 25.6973 12.0039V11.4648C25.6973 10.8242 25.7793 10.252 25.9434 9.74805C26.1113 9.24023 26.3477 8.80859 26.6523 8.45312C26.957 8.09375 27.3184 7.82031 27.7363 7.63281C28.1582 7.44531 28.6211 7.35156 29.125 7.35156C29.6445 7.35156 30.1133 7.44531 30.5312 7.63281C30.9531 7.82031 31.3145 8.09375 31.6152 8.45312C31.9199 8.80859 32.1523 9.24023 32.3125 9.74805C32.4766 10.252 32.5586 10.8242 32.5586 11.4648ZM31.4395 12.0039V11.4531C31.4395 10.9453 31.3867 10.4961 31.2812 10.1055C31.1797 9.71484 31.0293 9.38672 30.8301 9.12109C30.6309 8.85547 30.3867 8.6543 30.0977 8.51758C29.8125 8.38086 29.4883 8.3125 29.125 8.3125C28.7734 8.3125 28.4551 8.38086 28.1699 8.51758C27.8887 8.6543 27.6465 8.85547 27.4434 9.12109C27.2441 9.38672 27.0898 9.71484 26.9805 10.1055C26.8711 10.4961 26.8164 10.9453 26.8164 11.4531V12.0039C26.8164 12.5156 26.8711 12.9688 26.9805 13.3633C27.0898 13.7539 27.2461 14.084 27.4492 14.3535C27.6562 14.6191 27.9004 14.8203 28.1816 14.957C28.4668 15.0938 28.7852 15.1621 29.1367 15.1621C29.5039 15.1621 29.8301 15.0938 30.1152 14.957C30.4004 14.8203 30.6406 14.6191 30.8359 14.3535C31.0352 14.084 31.1855 13.7539 31.2871 13.3633C31.3887 12.9688 31.4395 12.5156 31.4395 12.0039ZM36.0156 15.0215L37.75 9.66016H38.8574L36.5781 16H35.8516L36.0156 15.0215ZM34.5684 9.66016L36.3555 15.0508L36.4785 16H35.752L33.4551 9.66016H34.5684ZM42.4492 16.1172C42.0078 16.1172 41.6074 16.043 41.248 15.8945C40.8926 15.7422 40.5859 15.5293 40.3281 15.2559C40.0742 14.9824 39.8789 14.6582 39.7422 14.2832C39.6055 13.9082 39.5371 13.498 39.5371 13.0527V12.8066C39.5371 12.291 39.6133 11.832 39.7656 11.4297C39.918 11.0234 40.125 10.6797 40.3867 10.3984C40.6484 10.1172 40.9453 9.9043 41.2773 9.75977C41.6094 9.61523 41.9531 9.54297 42.3086 9.54297C42.7617 9.54297 43.1523 9.62109 43.4805 9.77734C43.8125 9.93359 44.084 10.1523 44.2949 10.4336C44.5059 10.7109 44.6621 11.0391 44.7637 11.418C44.8652 11.793 44.916 12.2031 44.916 12.6484V13.1348H40.1816V12.25H43.832V12.168C43.8164 11.8867 43.7578 11.6133 43.6562 11.3477C43.5586 11.082 43.4023 10.8633 43.1875 10.6914C42.9727 10.5195 42.6797 10.4336 42.3086 10.4336C42.0625 10.4336 41.8359 10.4863 41.6289 10.5918C41.4219 10.6934 41.2441 10.8457 41.0957 11.0488C40.9473 11.252 40.832 11.5 40.75 11.793C40.668 12.0859 40.627 12.4238 40.627 12.8066V13.0527C40.627 13.3535 40.668 13.6367 40.75 13.9023C40.8359 14.1641 40.959 14.3945 41.1191 14.5938C41.2832 14.793 41.4805 14.9492 41.7109 15.0625C41.9453 15.1758 42.2109 15.2324 42.5078 15.2324C42.8906 15.2324 43.2148 15.1543 43.4805 14.998C43.7461 14.8418 43.9785 14.6328 44.1777 14.3711L44.834 14.8926C44.6973 15.0996 44.5234 15.2969 44.3125 15.4844C44.1016 15.6719 43.8418 15.8242 43.5332 15.9414C43.2285 16.0586 42.8672 16.1172 42.4492 16.1172ZM47.2656 10.6562V16H46.1816V9.66016H47.2363L47.2656 10.6562ZM49.2461 9.625L49.2402 10.6328C49.1504 10.6133 49.0645 10.6016 48.9824 10.5977C48.9043 10.5898 48.8145 10.5859 48.7129 10.5859C48.4629 10.5859 48.2422 10.625 48.0508 10.7031C47.8594 10.7812 47.6973 10.8906 47.5645 11.0312C47.4316 11.1719 47.3262 11.3398 47.248 11.5352C47.1738 11.7266 47.125 11.9375 47.1016 12.168L46.7969 12.3438C46.7969 11.9609 46.834 11.6016 46.9082 11.2656C46.9863 10.9297 47.1055 10.6328 47.2656 10.375C47.4258 10.1133 47.6289 9.91016 47.875 9.76562C48.125 9.61719 48.4219 9.54297 48.7656 9.54297C48.8438 9.54297 48.9336 9.55273 49.0352 9.57227C49.1367 9.58789 49.207 9.60547 49.2461 9.625ZM54.127 14.7695V7H55.2168V16H54.2207L54.127 14.7695ZM49.8613 12.9004V12.7773C49.8613 12.293 49.9199 11.8535 50.0371 11.459C50.1582 11.0605 50.3281 10.7188 50.5469 10.4336C50.7695 10.1484 51.0332 9.92969 51.3379 9.77734C51.6465 9.62109 51.9902 9.54297 52.3691 9.54297C52.7676 9.54297 53.1152 9.61328 53.4121 9.75391C53.7129 9.89062 53.9668 10.0918 54.1738 10.3574C54.3848 10.6191 54.5508 10.9355 54.6719 11.3066C54.793 11.6777 54.877 12.0977 54.9238 12.5664V13.1055C54.8809 13.5703 54.7969 13.9883 54.6719 14.3594C54.5508 14.7305 54.3848 15.0469 54.1738 15.3086C53.9668 15.5703 53.7129 15.7715 53.4121 15.9121C53.1113 16.0488 52.7598 16.1172 52.3574 16.1172C51.9863 16.1172 51.6465 16.0371 51.3379 15.877C51.0332 15.7168 50.7695 15.4922 50.5469 15.2031C50.3281 14.9141 50.1582 14.5742 50.0371 14.1836C49.9199 13.7891 49.8613 13.3613 49.8613 12.9004ZM50.9512 12.7773V12.9004C50.9512 13.2168 50.9824 13.5137 51.0449 13.791C51.1113 14.0684 51.2129 14.3125 51.3496 14.5234C51.4863 14.7344 51.6602 14.9004 51.8711 15.0215C52.082 15.1387 52.334 15.1973 52.627 15.1973C52.9863 15.1973 53.2812 15.1211 53.5117 14.9688C53.7461 14.8164 53.9336 14.6152 54.0742 14.3652C54.2148 14.1152 54.3242 13.8438 54.4023 13.5508V12.1387C54.3555 11.9238 54.2871 11.7168 54.1973 11.5176C54.1113 11.3145 53.998 11.1348 53.8574 10.9785C53.7207 10.8184 53.5508 10.6914 53.3477 10.5977C53.1484 10.5039 52.9121 10.457 52.6387 10.457C52.3418 10.457 52.0859 10.5195 51.8711 10.6445C51.6602 10.7656 51.4863 10.9336 51.3496 11.1484C51.2129 11.3594 51.1113 11.6055 51.0449 11.8867C50.9824 12.1641 50.9512 12.4609 50.9512 12.7773ZM60.7832 14.5352V9.66016H61.873V16H60.8359L60.7832 14.5352ZM60.9883 13.1992L61.4395 13.1875C61.4395 13.6094 61.3945 14 61.3047 14.3594C61.2188 14.7148 61.0781 15.0234 60.8828 15.2852C60.6875 15.5469 60.4316 15.752 60.1152 15.9004C59.7988 16.0449 59.4141 16.1172 58.9609 16.1172C58.6523 16.1172 58.3691 16.0723 58.1113 15.9824C57.8574 15.8926 57.6387 15.7539 57.4551 15.5664C57.2715 15.3789 57.1289 15.1348 57.0273 14.834C56.9297 14.5332 56.8809 14.1719 56.8809 13.75V9.66016H57.9648V13.7617C57.9648 14.0469 57.9961 14.2832 58.0586 14.4707C58.125 14.6543 58.2129 14.8008 58.3223 14.9102C58.4355 15.0156 58.5605 15.0898 58.6973 15.1328C58.8379 15.1758 58.9824 15.1973 59.1309 15.1973C59.5918 15.1973 59.957 15.1094 60.2266 14.9336C60.4961 14.7539 60.6895 14.5137 60.8066 14.2129C60.9277 13.9082 60.9883 13.5703 60.9883 13.1992ZM66.1562 16.1172C65.7148 16.1172 65.3145 16.043 64.9551 15.8945C64.5996 15.7422 64.293 15.5293 64.0352 15.2559C63.7812 14.9824 63.5859 14.6582 63.4492 14.2832C63.3125 13.9082 63.2441 13.498 63.2441 13.0527V12.8066C63.2441 12.291 63.3203 11.832 63.4727 11.4297C63.625 11.0234 63.832 10.6797 64.0938 10.3984C64.3555 10.1172 64.6523 9.9043 64.9844 9.75977C65.3164 9.61523 65.6602 9.54297 66.0156 9.54297C66.4688 9.54297 66.8594 9.62109 67.1875 9.77734C67.5195 9.93359 67.791 10.1523 68.002 10.4336C68.2129 10.7109 68.3691 11.0391 68.4707 11.418C68.5723 11.793 68.623 12.2031 68.623 12.6484V13.1348H63.8887V12.25H67.5391V12.168C67.5234 11.8867 67.4648 11.6133 67.3633 11.3477C67.2656 11.082 67.1094 10.8633 66.8945 10.6914C66.6797 10.5195 66.3867 10.4336 66.0156 10.4336C65.7695 10.4336 65.543 10.4863 65.3359 10.5918C65.1289 10.6934 64.9512 10.8457 64.8027 11.0488C64.6543 11.252 64.5391 11.5 64.457 11.793C64.375 12.0859 64.334 12.4238 64.334 12.8066V13.0527C64.334 13.3535 64.375 13.6367 64.457 13.9023C64.543 14.1641 64.666 14.3945 64.8262 14.5938C64.9902 14.793 65.1875 14.9492 65.418 15.0625C65.6523 15.1758 65.918 15.2324 66.2148 15.2324C66.5977 15.2324 66.9219 15.1543 67.1875 14.998C67.4531 14.8418 67.6855 14.6328 67.8848 14.3711L68.541 14.8926C68.4043 15.0996 68.2305 15.2969 68.0195 15.4844C67.8086 15.6719 67.5488 15.8242 67.2402 15.9414C66.9355 16.0586 66.5742 16.1172 66.1562 16.1172Z" fill="#343435"/>
</svg>
