<svg width="76" height="24" viewBox="0 0 76 24" fill="none" xmlns="http://www.w3.org/2000/svg">
<rect width="76" height="24" rx="4" fill="#F9E1C9"/>
<path d="M20 7.24904V14.749C19.9996 14.8202 19.984 14.8905 19.9543 14.9552C19.9245 15.0198 19.8813 15.0774 19.8275 15.124C18.8725 15.9509 17.9594 16.249 17.0887 16.249C15.9069 16.249 14.8031 15.7028 13.7762 15.1959C12.1169 14.374 10.6744 13.6622 9 14.9847V17.749C9 17.8816 8.94732 18.0088 8.85355 18.1026C8.75979 18.1964 8.63261 18.249 8.5 18.249C8.36739 18.249 8.24021 18.1964 8.14645 18.1026C8.05268 18.0088 8 17.8816 8 17.749V7.24904C8.00048 7.17781 8.01617 7.1075 8.04603 7.04282C8.07589 6.97815 8.11922 6.9206 8.17313 6.87404C10.4231 4.92529 12.4425 5.92341 14.2225 6.80404C15.9375 7.65279 17.4244 8.38654 19.1725 6.87404C19.2448 6.8114 19.3335 6.7708 19.4281 6.75704C19.5227 6.74329 19.6193 6.75696 19.7064 6.79643C19.7935 6.8359 19.8674 6.89951 19.9195 6.97973C19.9715 7.05995 19.9995 7.15342 20 7.24904Z" fill="#F98D23"/>
<path d="M32.5586 11.4648V12.0039C32.5586 12.6445 32.4785 13.2188 32.3184 13.7266C32.1582 14.2344 31.9277 14.666 31.627 15.0215C31.3262 15.377 30.9648 15.6484 30.543 15.8359C30.125 16.0234 29.6562 16.1172 29.1367 16.1172C28.6328 16.1172 28.1699 16.0234 27.748 15.8359C27.3301 15.6484 26.9668 15.377 26.6582 15.0215C26.3535 14.666 26.1172 14.2344 25.9492 13.7266C25.7812 13.2188 25.6973 12.6445 25.6973 12.0039V11.4648C25.6973 10.8242 25.7793 10.252 25.9434 9.74805C26.1113 9.24023 26.3477 8.80859 26.6523 8.45312C26.957 8.09375 27.3184 7.82031 27.7363 7.63281C28.1582 7.44531 28.6211 7.35156 29.125 7.35156C29.6445 7.35156 30.1133 7.44531 30.5312 7.63281C30.9531 7.82031 31.3145 8.09375 31.6152 8.45312C31.9199 8.80859 32.1523 9.24023 32.3125 9.74805C32.4766 10.252 32.5586 10.8242 32.5586 11.4648ZM31.4395 12.0039V11.4531C31.4395 10.9453 31.3867 10.4961 31.2812 10.1055C31.1797 9.71484 31.0293 9.38672 30.8301 9.12109C30.6309 8.85547 30.3867 8.6543 30.0977 8.51758C29.8125 8.38086 29.4883 8.3125 29.125 8.3125C28.7734 8.3125 28.4551 8.38086 28.1699 8.51758C27.8887 8.6543 27.6465 8.85547 27.4434 9.12109C27.2441 9.38672 27.0898 9.71484 26.9805 10.1055C26.8711 10.4961 26.8164 10.9453 26.8164 11.4531V12.0039C26.8164 12.5156 26.8711 12.9688 26.9805 13.3633C27.0898 13.7539 27.2461 14.084 27.4492 14.3535C27.6562 14.6191 27.9004 14.8203 28.1816 14.957C28.4668 15.0938 28.7852 15.1621 29.1367 15.1621C29.5039 15.1621 29.8301 15.0938 30.1152 14.957C30.4004 14.8203 30.6406 14.6191 30.8359 14.3535C31.0352 14.084 31.1855 13.7539 31.2871 13.3633C31.3887 12.9688 31.4395 12.5156 31.4395 12.0039ZM35.1719 11.0137V16H34.0879V9.66016H35.1133L35.1719 11.0137ZM34.9141 12.5898L34.4629 12.5723C34.4668 12.1387 34.5312 11.7383 34.6562 11.3711C34.7812 11 34.957 10.6777 35.1836 10.4043C35.4102 10.1309 35.6797 9.91992 35.9922 9.77148C36.3086 9.61914 36.6582 9.54297 37.041 9.54297C37.3535 9.54297 37.6348 9.58594 37.8848 9.67188C38.1348 9.75391 38.3477 9.88672 38.5234 10.0703C38.7031 10.2539 38.8398 10.4922 38.9336 10.7852C39.0273 11.0742 39.0742 11.4277 39.0742 11.8457V16H37.9844V11.834C37.9844 11.502 37.9355 11.2363 37.8379 11.0371C37.7402 10.834 37.5977 10.6875 37.4102 10.5977C37.2227 10.5039 36.9922 10.457 36.7188 10.457C36.4492 10.457 36.2031 10.5137 35.9805 10.627C35.7617 10.7402 35.5723 10.8965 35.4121 11.0957C35.2559 11.2949 35.1328 11.5234 35.043 11.7812C34.957 12.0352 34.9141 12.3047 34.9141 12.5898ZM44.8281 9.66016H45.8125V15.8652C45.8125 16.4238 45.6992 16.9004 45.4727 17.2949C45.2461 17.6895 44.9297 17.9883 44.5234 18.1914C44.1211 18.3984 43.6562 18.502 43.1289 18.502C42.9102 18.502 42.6523 18.4668 42.3555 18.3965C42.0625 18.3301 41.7734 18.2148 41.4883 18.0508C41.207 17.8906 40.9707 17.6738 40.7793 17.4004L41.3477 16.7559C41.6133 17.0762 41.8906 17.2988 42.1797 17.4238C42.4727 17.5488 42.7617 17.6113 43.0469 17.6113C43.3906 17.6113 43.6875 17.5469 43.9375 17.418C44.1875 17.2891 44.3809 17.0977 44.5176 16.8438C44.6582 16.5938 44.7285 16.2852 44.7285 15.918V11.0547L44.8281 9.66016ZM40.4629 12.9004V12.7773C40.4629 12.293 40.5195 11.8535 40.6328 11.459C40.75 11.0605 40.916 10.7188 41.1309 10.4336C41.3496 10.1484 41.6133 9.92969 41.9219 9.77734C42.2305 9.62109 42.5781 9.54297 42.9648 9.54297C43.3633 9.54297 43.7109 9.61328 44.0078 9.75391C44.3086 9.89062 44.5625 10.0918 44.7695 10.3574C44.9805 10.6191 45.1465 10.9355 45.2676 11.3066C45.3887 11.6777 45.4727 12.0977 45.5195 12.5664V13.1055C45.4766 13.5703 45.3926 13.9883 45.2676 14.3594C45.1465 14.7305 44.9805 15.0469 44.7695 15.3086C44.5625 15.5703 44.3086 15.7715 44.0078 15.9121C43.707 16.0488 43.3555 16.1172 42.9531 16.1172C42.5742 16.1172 42.2305 16.0371 41.9219 15.877C41.6172 15.7168 41.3555 15.4922 41.1367 15.2031C40.918 14.9141 40.75 14.5742 40.6328 14.1836C40.5195 13.7891 40.4629 13.3613 40.4629 12.9004ZM41.5469 12.7773V12.9004C41.5469 13.2168 41.5781 13.5137 41.6406 13.791C41.707 14.0684 41.8066 14.3125 41.9395 14.5234C42.0762 14.7344 42.25 14.9004 42.4609 15.0215C42.6719 15.1387 42.9238 15.1973 43.2168 15.1973C43.5762 15.1973 43.873 15.1211 44.1074 14.9688C44.3418 14.8164 44.5273 14.6152 44.6641 14.3652C44.8047 14.1152 44.9141 13.8438 44.9922 13.5508V12.1387C44.9492 11.9238 44.8828 11.7168 44.793 11.5176C44.707 11.3145 44.5938 11.1348 44.4531 10.9785C44.3164 10.8184 44.1465 10.6914 43.9434 10.5977C43.7402 10.5039 43.502 10.457 43.2285 10.457C42.9316 10.457 42.6758 10.5195 42.4609 10.6445C42.25 10.7656 42.0762 10.9336 41.9395 11.1484C41.8066 11.3594 41.707 11.6055 41.6406 11.8867C41.5781 12.1641 41.5469 12.4609 41.5469 12.7773ZM47.1719 12.9004V12.7656C47.1719 12.3086 47.2383 11.8848 47.3711 11.4941C47.5039 11.0996 47.6953 10.7578 47.9453 10.4688C48.1953 10.1758 48.498 9.94922 48.8535 9.78906C49.209 9.625 49.6074 9.54297 50.0488 9.54297C50.4941 9.54297 50.8945 9.625 51.25 9.78906C51.6094 9.94922 51.9141 10.1758 52.1641 10.4688C52.418 10.7578 52.6113 11.0996 52.7441 11.4941C52.877 11.8848 52.9434 12.3086 52.9434 12.7656V12.9004C52.9434 13.3574 52.877 13.7812 52.7441 14.1719C52.6113 14.5625 52.418 14.9043 52.1641 15.1973C51.9141 15.4863 51.6113 15.7129 51.2559 15.877C50.9043 16.0371 50.5059 16.1172 50.0605 16.1172C49.6152 16.1172 49.2148 16.0371 48.8594 15.877C48.5039 15.7129 48.1992 15.4863 47.9453 15.1973C47.6953 14.9043 47.5039 14.5625 47.3711 14.1719C47.2383 13.7812 47.1719 13.3574 47.1719 12.9004ZM48.2559 12.7656V12.9004C48.2559 13.2168 48.293 13.5156 48.3672 13.7969C48.4414 14.0742 48.5527 14.3203 48.7012 14.5352C48.8535 14.75 49.043 14.9199 49.2695 15.0449C49.4961 15.166 49.7598 15.2266 50.0605 15.2266C50.3574 15.2266 50.6172 15.166 50.8398 15.0449C51.0664 14.9199 51.2539 14.75 51.4023 14.5352C51.5508 14.3203 51.6621 14.0742 51.7363 13.7969C51.8145 13.5156 51.8535 13.2168 51.8535 12.9004V12.7656C51.8535 12.4531 51.8145 12.1582 51.7363 11.8809C51.6621 11.5996 51.5488 11.3516 51.3965 11.1367C51.248 10.918 51.0605 10.7461 50.834 10.6211C50.6113 10.4961 50.3496 10.4336 50.0488 10.4336C49.752 10.4336 49.4902 10.4961 49.2637 10.6211C49.041 10.7461 48.8535 10.918 48.7012 11.1367C48.5527 11.3516 48.4414 11.5996 48.3672 11.8809C48.293 12.1582 48.2559 12.4531 48.2559 12.7656ZM55.4805 9.66016V16H54.3906V9.66016H55.4805ZM54.3086 7.97852C54.3086 7.80273 54.3613 7.6543 54.4668 7.5332C54.5762 7.41211 54.7363 7.35156 54.9473 7.35156C55.1543 7.35156 55.3125 7.41211 55.4219 7.5332C55.5352 7.6543 55.5918 7.80273 55.5918 7.97852C55.5918 8.14648 55.5352 8.29102 55.4219 8.41211C55.3125 8.5293 55.1543 8.58789 54.9473 8.58789C54.7363 8.58789 54.5762 8.5293 54.4668 8.41211C54.3613 8.29102 54.3086 8.14648 54.3086 7.97852ZM58.3047 11.0137V16H57.2207V9.66016H58.2461L58.3047 11.0137ZM58.0469 12.5898L57.5957 12.5723C57.5996 12.1387 57.6641 11.7383 57.7891 11.3711C57.9141 11 58.0898 10.6777 58.3164 10.4043C58.543 10.1309 58.8125 9.91992 59.125 9.77148C59.4414 9.61914 59.791 9.54297 60.1738 9.54297C60.4863 9.54297 60.7676 9.58594 61.0176 9.67188C61.2676 9.75391 61.4805 9.88672 61.6562 10.0703C61.8359 10.2539 61.9727 10.4922 62.0664 10.7852C62.1602 11.0742 62.207 11.4277 62.207 11.8457V16H61.1172V11.834C61.1172 11.502 61.0684 11.2363 60.9707 11.0371C60.873 10.834 60.7305 10.6875 60.543 10.5977C60.3555 10.5039 60.125 10.457 59.8516 10.457C59.582 10.457 59.3359 10.5137 59.1133 10.627C58.8945 10.7402 58.7051 10.8965 58.5449 11.0957C58.3887 11.2949 58.2656 11.5234 58.1758 11.7812C58.0898 12.0352 58.0469 12.3047 58.0469 12.5898ZM67.9609 9.66016H68.9453V15.8652C68.9453 16.4238 68.832 16.9004 68.6055 17.2949C68.3789 17.6895 68.0625 17.9883 67.6562 18.1914C67.2539 18.3984 66.7891 18.502 66.2617 18.502C66.043 18.502 65.7852 18.4668 65.4883 18.3965C65.1953 18.3301 64.9062 18.2148 64.6211 18.0508C64.3398 17.8906 64.1035 17.6738 63.9121 17.4004L64.4805 16.7559C64.7461 17.0762 65.0234 17.2988 65.3125 17.4238C65.6055 17.5488 65.8945 17.6113 66.1797 17.6113C66.5234 17.6113 66.8203 17.5469 67.0703 17.418C67.3203 17.2891 67.5137 17.0977 67.6504 16.8438C67.791 16.5938 67.8613 16.2852 67.8613 15.918V11.0547L67.9609 9.66016ZM63.5957 12.9004V12.7773C63.5957 12.293 63.6523 11.8535 63.7656 11.459C63.8828 11.0605 64.0488 10.7188 64.2637 10.4336C64.4824 10.1484 64.7461 9.92969 65.0547 9.77734C65.3633 9.62109 65.7109 9.54297 66.0977 9.54297C66.4961 9.54297 66.8438 9.61328 67.1406 9.75391C67.4414 9.89062 67.6953 10.0918 67.9023 10.3574C68.1133 10.6191 68.2793 10.9355 68.4004 11.3066C68.5215 11.6777 68.6055 12.0977 68.6523 12.5664V13.1055C68.6094 13.5703 68.5254 13.9883 68.4004 14.3594C68.2793 14.7305 68.1133 15.0469 67.9023 15.3086C67.6953 15.5703 67.4414 15.7715 67.1406 15.9121C66.8398 16.0488 66.4883 16.1172 66.0859 16.1172C65.707 16.1172 65.3633 16.0371 65.0547 15.877C64.75 15.7168 64.4883 15.4922 64.2695 15.2031C64.0508 14.9141 63.8828 14.5742 63.7656 14.1836C63.6523 13.7891 63.5957 13.3613 63.5957 12.9004ZM64.6797 12.7773V12.9004C64.6797 13.2168 64.7109 13.5137 64.7734 13.791C64.8398 14.0684 64.9395 14.3125 65.0723 14.5234C65.209 14.7344 65.3828 14.9004 65.5938 15.0215C65.8047 15.1387 66.0566 15.1973 66.3496 15.1973C66.709 15.1973 67.0059 15.1211 67.2402 14.9688C67.4746 14.8164 67.6602 14.6152 67.7969 14.3652C67.9375 14.1152 68.0469 13.8438 68.125 13.5508V12.1387C68.082 11.9238 68.0156 11.7168 67.9258 11.5176C67.8398 11.3145 67.7266 11.1348 67.5859 10.9785C67.4492 10.8184 67.2793 10.6914 67.0762 10.5977C66.873 10.5039 66.6348 10.457 66.3613 10.457C66.0645 10.457 65.8086 10.5195 65.5938 10.6445C65.3828 10.7656 65.209 10.9336 65.0723 11.1484C64.9395 11.3594 64.8398 11.6055 64.7734 11.8867C64.7109 12.1641 64.6797 12.4609 64.6797 12.7773Z" fill="#343435"/>
</svg>
