<svg width="32" height="32" viewBox="0 0 32 32" fill="none" xmlns="http://www.w3.org/2000/svg">
<path d="M26.766 24.3564C26.8887 24.5022 26.9671 24.68 26.9921 24.8689C27.0171 25.0578 26.9876 25.2499 26.9071 25.4226C26.8266 25.5953 26.6985 25.7414 26.5377 25.8437C26.377 25.9461 26.1903 26.0003 25.9998 26.0001H4.99976C4.80932 26.0001 4.62285 25.9456 4.46229 25.8432C4.30172 25.7408 4.17373 25.5947 4.09338 25.4221C4.01302 25.2494 3.98364 25.0574 4.00869 24.8686C4.03373 24.6798 4.11217 24.5021 4.23476 24.3564C6.10226 22.1339 8.42476 20.5551 11.006 19.7101C9.43839 18.7337 8.23142 17.2734 7.56768 15.55C6.90395 13.8265 6.81958 11.9338 7.32733 10.1582C7.83508 8.38254 8.90733 6.82057 10.3819 5.70859C11.8564 4.59661 13.6529 3.99512 15.4998 3.99512C17.3466 3.99512 19.1432 4.59661 20.6177 5.70859C22.0922 6.82057 23.1645 8.38254 23.6722 10.1582C24.18 11.9338 24.0956 13.8265 23.4318 15.55C22.7681 17.2734 21.5611 18.7337 19.9935 19.7101C22.5748 20.5551 24.8973 22.1339 26.766 24.3564Z" fill="#28519E"/>
</svg>
