<svg width="18" height="14" viewBox="0 0 18 14" fill="none" xmlns="http://www.w3.org/2000/svg">
<path d="M17.0723 12.2793C17.25 12.4062 17.3008 12.6602 17.1484 12.8379L16.666 13.4727C16.5137 13.6504 16.2598 13.6758 16.082 13.5488L1.15234 1.99609C0.974609 1.86914 0.949219 1.61523 1.07617 1.4375L1.58398 0.802734C1.71094 0.625 1.96484 0.574219 2.14258 0.726562L5.90039 3.62109C6.02734 1.94531 7.39844 0.625 9.125 0.625C10.9023 0.625 12.375 2.09766 12.375 3.875C12.375 5.29688 11.4609 6.49023 10.1914 6.94727L17.0723 12.2793ZM3.4375 11.3652C3.4375 9.66406 4.65625 8.29297 6.25586 8.01367L13.543 13.625H4.65625C3.9707 13.625 3.4375 13.0918 3.4375 12.4062V11.3652Z" fill="white"/>
</svg>
