<svg width="64" height="75" viewBox="0 0 64 75" fill="none" xmlns="http://www.w3.org/2000/svg">
<path d="M33.6156 0.362305H2.75771C2.09706 0.363263 1.46373 0.632552 0.996574 1.11113C0.52942 1.58971 0.26656 2.23853 0.265625 2.91535V64.1583L0.558812 64.0667V2.91535C0.559521 2.31812 0.791418 1.74556 1.20364 1.32326C1.61586 0.900958 2.17475 0.663389 2.75771 0.662663H33.7065L33.6156 0.362305ZM60.5155 0.362305H2.75771C2.09706 0.363263 1.46373 0.632552 0.996574 1.11113C0.52942 1.58971 0.26656 2.23853 0.265625 2.91535V71.6973C0.26656 72.3741 0.52942 73.023 0.996574 73.5015C1.46373 73.9801 2.09706 74.2494 2.75771 74.2504H60.5155C61.1762 74.2494 61.8095 73.9801 62.2767 73.5015C62.7438 73.023 63.0067 72.3741 63.0076 71.6973V2.91535C63.0067 2.23853 62.7438 1.58971 62.2767 1.11113C61.8095 0.632552 61.1762 0.363263 60.5155 0.362305ZM62.7144 71.6973C62.7137 72.2945 62.4818 72.8671 62.0696 73.2894C61.6574 73.7117 61.0985 73.9493 60.5155 73.95H2.75771C2.17475 73.9493 1.61586 73.7117 1.20364 73.2894C0.791418 72.8671 0.559521 72.2945 0.558812 71.6973V2.91535C0.559521 2.31812 0.791418 1.74556 1.20364 1.32326C1.61586 0.900958 2.17475 0.663389 2.75771 0.662663H60.5155C61.0985 0.663389 61.6574 0.900958 62.0696 1.32326C62.4818 1.74556 62.7137 2.31812 62.7144 2.91535V71.6973Z" fill="#3F3D56"/>
</svg>
