<svg width="17" height="16" viewBox="0 0 17 16" fill="none" xmlns="http://www.w3.org/2000/svg">
<g id="Warning">
<path id="Vector" d="M15.3002 11.7557L9.83456 2.26379C9.69798 2.03124 9.50299 1.83843 9.26894 1.70445C9.03488 1.57048 8.76987 1.5 8.50018 1.5C8.23049 1.5 7.96549 1.57048 7.73143 1.70445C7.49737 1.83843 7.30239 2.03124 7.16581 2.26379L1.70018 11.7557C1.56877 11.9806 1.49951 12.2364 1.49951 12.4969C1.49951 12.7574 1.56877 13.0132 1.70018 13.2382C1.83501 13.4721 2.02966 13.666 2.26416 13.7999C2.49865 13.9338 2.76455 14.0028 3.03456 14H13.9658C14.2356 14.0026 14.5012 13.9334 14.7355 13.7996C14.9698 13.6657 15.1642 13.4719 15.2989 13.2382C15.4305 13.0134 15.5 12.7576 15.5002 12.4971C15.5004 12.2366 15.4314 11.9807 15.3002 11.7557ZM8.00018 6.50004C8.00018 6.36743 8.05286 6.24026 8.14663 6.14649C8.2404 6.05272 8.36757 6.00004 8.50018 6.00004C8.63279 6.00004 8.75997 6.05272 8.85374 6.14649C8.9475 6.24026 9.00018 6.36743 9.00018 6.50004V9.00004C9.00018 9.13265 8.9475 9.25983 8.85374 9.35359C8.75997 9.44736 8.63279 9.50004 8.50018 9.50004C8.36757 9.50004 8.2404 9.44736 8.14663 9.35359C8.05286 9.25983 8.00018 9.13265 8.00018 9.00004V6.50004ZM8.50018 12C8.35185 12 8.20684 11.9561 8.0835 11.8736C7.96017 11.7912 7.86404 11.6741 7.80727 11.5371C7.75051 11.4 7.73565 11.2492 7.76459 11.1037C7.79353 10.9582 7.86496 10.8246 7.96985 10.7197C8.07474 10.6148 8.20838 10.5434 8.35386 10.5145C8.49935 10.4855 8.65015 10.5004 8.78719 10.5571C8.92424 10.6139 9.04137 10.71 9.12378 10.8334C9.2062 10.9567 9.25018 11.1017 9.25018 11.25C9.25018 11.449 9.17116 11.6397 9.03051 11.7804C8.88986 11.921 8.69909 12 8.50018 12Z" fill="#E03E2D"/>
</g>
</svg>
